<svg fill="none" height="104" viewBox="0 0 104 104" width="104" xmlns="http://www.w3.org/2000/svg"><g fill="#d6dee5"><path d="m91 52c0 7.7135-2.2873 15.2537-6.5727 21.6672-4.2853 6.4136-10.3763 11.4123-17.5026 14.3641s-14.9679 3.7241-22.5332 2.2193-14.5144-5.2192-19.9686-10.6734c-5.4543-5.4543-9.1687-12.4034-10.6735-19.9687-1.5048-7.5652-.7325-15.4068 2.2193-22.5332 2.9518-7.1263 7.9506-13.2172 14.3641-17.5026s13.9537-6.5727 21.6672-6.5727c10.3435 0 20.2633 4.1089 27.5772 11.4228 7.3139 7.314 11.4228 17.2338 11.4228 27.5772z" opacity=".2"/><path d="m52 9.75c-8.3562 0-16.5248 2.4779-23.4728 7.1204s-12.3633 11.241-15.5611 18.9612c-3.19779 7.7202-4.03448 16.2153-2.4043 24.411 1.6303 8.1957 5.6542 15.7239 11.563 21.6327 5.9087 5.9087 13.437 9.9326 21.6327 11.5629 8.1956 1.6302 16.6907.7935 24.4109-2.4043s14.3187-8.6131 18.9612-15.5611c4.6425-6.9479 7.1204-15.1165 7.1204-23.4728-.0118-11.2018-4.4669-21.9413-12.3878-29.8622-7.9208-7.9208-18.6604-12.37597-29.8622-12.3878zm0 78c-7.0707 0-13.9826-2.0967-19.8616-6.025-5.8791-3.9282-10.4612-9.5116-13.1671-16.0441-2.7058-6.5324-3.4138-13.7206-2.0344-20.6554 1.3795-6.9348 4.7843-13.3048 9.7841-18.3046 4.9997-4.9997 11.3697-8.4046 18.3045-9.784 6.9349-1.3794 14.123-.6714 20.6555 2.0344 6.5324 2.7058 12.1158 7.288 16.0441 13.1671 3.9282 5.879 6.0249 12.7909 6.0249 19.8616-.0107 9.4782-3.7807 18.5651-10.4828 25.2672s-15.789 10.472-25.2672 10.4828zm-19.5-43.875c0-.9642.2859-1.9067.8216-2.7084s1.297-1.4265 2.1878-1.7955 1.871-.4655 2.8167-.2774c.9456.1881 1.8143.6524 2.4961 1.3342.6817.6817 1.146 1.5504 1.3341 2.496.1881.9457.0916 1.9259-.2774 2.8167-.3689.8908-.9938 1.6521-1.7955 2.1878s-1.7442.8216-2.7084.8216c-1.2929 0-2.5329-.5136-3.4471-1.4279-.9143-.9142-1.4279-2.1542-1.4279-3.4471zm39 0c0 .9642-.2859 1.9067-.8216 2.7084-.5356.8017-1.297 1.4265-2.1878 1.7955s-1.871.4655-2.8166.2774c-.9457-.1881-1.8143-.6524-2.4961-1.3342-.6818-.6817-1.1461-1.5504-1.3342-2.496-.1881-.9457-.0916-1.9259.2774-2.8167s.9938-1.6521 1.7955-2.1878 1.7442-.8216 2.7084-.8216c1.2929 0 2.5329.5136 3.4472 1.4279.9142.9142 1.4278 2.1542 1.4278 3.4471zm-.4387 26c.2351.3699.393.7836.4641 1.2161.0712.4325.0541.8749-.0502 1.3007-.1043.4257-.2936.8259-.5566 1.1766-.2629.3507-.5941.6445-.9736.8639-.3795.2193-.7994.3597-1.2346.4125-.4351.0529-.8764.0172-1.2974-.105-.4209-.1221-.8129-.3281-1.1521-.6056-.3393-.2775-.619-.6208-.8221-1.0092-3.0347-5.2447-7.8041-8.125-13.4388-8.125s-10.404 2.8844-13.4387 8.125c-.2032.3884-.4828.7317-.8221 1.0092s-.7312.4835-1.1522.6056c-.421.1222-.8623.1579-1.2974.105-.4351-.0528-.8551-.1932-1.2346-.4125-.3794-.2194-.7106-.5132-.9736-.8639s-.4523-.7509-.5566-1.1766c-.1043-.4258-.1214-.8682-.0502-1.3007.0711-.4325.229-.8462.4642-1.2161 4.1803-7.2272 11.1272-11.375 19.0612-11.375 7.9341 0 14.881 4.1437 19.0613 11.375z"/></g></svg>