<svg width="20" height="21" viewBox="0 0 20 21" fill="none" xmlns="http://www.w3.org/2000/svg">
<path fill-rule="evenodd" clip-rule="evenodd" d="M2.48369 4.11019C2.13851 4.11019 1.85869 4.39002 1.85869 4.73519V8.48519C1.85869 8.83037 2.13851 9.11019 2.48369 9.11019H6.23369C6.57887 9.11019 6.85869 8.83037 6.85869 8.48519C6.85869 8.14002 6.57887 7.86019 6.23369 7.86019H3.10869V4.73519C3.10869 4.39002 2.82887 4.11019 2.48369 4.11019Z" fill="white"/>
<path fill-rule="evenodd" clip-rule="evenodd" d="M8.78252 4.5657C9.99505 4.32408 11.252 4.44753 12.3944 4.92041C13.5367 5.39329 14.5132 6.19436 15.2002 7.22229C15.8872 8.25022 16.2539 9.45882 16.2539 10.6952C16.2539 11.9316 15.8872 13.1402 15.2002 14.1681C14.5132 15.196 13.5367 15.9971 12.3944 16.47C11.252 16.9429 9.99505 17.0663 8.78252 16.8247C7.56998 16.5831 6.45635 15.9873 5.5825 15.1126C5.33853 14.8684 4.9428 14.8683 4.69861 15.1122C4.45443 15.3562 4.45425 15.7519 4.69822 15.9961C5.74684 17.0457 7.0832 17.7607 8.53824 18.0506C9.99328 18.3405 11.5016 18.1924 12.8725 17.6249C14.2433 17.0575 15.415 16.0962 16.2395 14.8627C17.0639 13.6292 17.5039 12.1788 17.5039 10.6952C17.5039 9.21155 17.0639 7.76123 16.2395 6.52771C15.415 5.2942 14.2433 4.33291 12.8725 3.76545C11.5016 3.19799 9.99328 3.04986 8.53824 3.3398C7.0834 3.6297 5.74722 4.34451 4.69866 5.39384L4.69822 5.39428L2.04244 8.04173C1.79798 8.28542 1.79736 8.68115 2.04105 8.92561C2.28475 9.17007 2.68048 9.17069 2.92494 8.927L5.5825 6.27777C6.45635 5.40313 7.56998 4.80731 8.78252 4.5657Z" fill="white"/>
</svg>
