<svg width="21" height="21" viewBox="0 0 21 21" fill="none" xmlns="http://www.w3.org/2000/svg">
<g id="arrow-up-right">
<g id="Vector">
<path fill-rule="evenodd" clip-rule="evenodd" d="M15.774 4.88179C16.0181 5.12587 16.0181 5.52159 15.774 5.76567L5.77397 15.7657C5.5299 16.0098 5.13417 16.0098 4.89009 15.7657C4.64601 15.5216 4.64601 15.1259 4.89009 14.8818L14.8901 4.88179C15.1342 4.63771 15.5299 4.63771 15.774 4.88179Z" fill="#212121"/>
<path fill-rule="evenodd" clip-rule="evenodd" d="M6.58203 5.32373C6.58203 4.97855 6.86185 4.69873 7.20703 4.69873H15.332C15.6772 4.69873 15.957 4.97855 15.957 5.32373V13.4487C15.957 13.7939 15.6772 14.0737 15.332 14.0737C14.9869 14.0737 14.707 13.7939 14.707 13.4487V5.94873H7.20703C6.86185 5.94873 6.58203 5.66891 6.58203 5.32373Z" fill="#212121"/>
</g>
</g>
</svg>
