<svg width="25" height="24" viewBox="0 0 25 24" fill="none" xmlns="http://www.w3.org/2000/svg">
<g id="arrow-up-right">
<g id="Vector">
<path fill-rule="evenodd" clip-rule="evenodd" d="M19.0303 5.46967C19.3232 5.76256 19.3232 6.23744 19.0303 6.53033L7.03033 18.5303C6.73744 18.8232 6.26256 18.8232 5.96967 18.5303C5.67678 18.2374 5.67678 17.7626 5.96967 17.4697L17.9697 5.46967C18.2626 5.17678 18.7374 5.17678 19.0303 5.46967Z" fill="white"/>
<path fill-rule="evenodd" clip-rule="evenodd" d="M8 6C8 5.58579 8.33579 5.25 8.75 5.25H18.5C18.9142 5.25 19.25 5.58579 19.25 6V15.75C19.25 16.1642 18.9142 16.5 18.5 16.5C18.0858 16.5 17.75 16.1642 17.75 15.75V6.75H8.75C8.33579 6.75 8 6.41421 8 6Z" fill="white"/>
</g>
</g>
</svg>
