<svg width="21" height="21" viewBox="0 0 21 21" fill="none" xmlns="http://www.w3.org/2000/svg">
<g id="CalendarCheck">
<path id="Vector" d="M16.75 3.35742H14.875V2.73242C14.875 2.56666 14.8092 2.40769 14.6919 2.29048C14.5747 2.17327 14.4158 2.10742 14.25 2.10742C14.0842 2.10742 13.9253 2.17327 13.8081 2.29048C13.6908 2.40769 13.625 2.56666 13.625 2.73242V3.35742H7.375V2.73242C7.375 2.56666 7.30915 2.40769 7.19194 2.29048C7.07473 2.17327 6.91576 2.10742 6.75 2.10742C6.58424 2.10742 6.42527 2.17327 6.30806 2.29048C6.19085 2.40769 6.125 2.56666 6.125 2.73242V3.35742H4.25C3.91848 3.35742 3.60054 3.48912 3.36612 3.72354C3.1317 3.95796 3 4.2759 3 4.60742V17.1074C3 17.4389 3.1317 17.7569 3.36612 17.9913C3.60054 18.2257 3.91848 18.3574 4.25 18.3574H16.75C17.0815 18.3574 17.3995 18.2257 17.6339 17.9913C17.8683 17.7569 18 17.4389 18 17.1074V4.60742C18 4.2759 17.8683 3.95796 17.6339 3.72354C17.3995 3.48912 17.0815 3.35742 16.75 3.35742ZM6.125 4.60742V5.23242C6.125 5.39818 6.19085 5.55715 6.30806 5.67436C6.42527 5.79157 6.58424 5.85742 6.75 5.85742C6.91576 5.85742 7.07473 5.79157 7.19194 5.67436C7.30915 5.55715 7.375 5.39818 7.375 5.23242V4.60742H13.625V5.23242C13.625 5.39818 13.6908 5.55715 13.8081 5.67436C13.9253 5.79157 14.0842 5.85742 14.25 5.85742C14.4158 5.85742 14.5747 5.79157 14.6919 5.67436C14.8092 5.55715 14.875 5.39818 14.875 5.23242V4.60742H16.75V7.10742H4.25V4.60742H6.125ZM16.75 17.1074H4.25V8.35742H16.75V17.1074ZM13.7547 10.4152C13.8128 10.4733 13.8589 10.5422 13.8904 10.6181C13.9218 10.694 13.938 10.7753 13.938 10.8574C13.938 10.9396 13.9218 11.0209 13.8904 11.0968C13.8589 11.1726 13.8128 11.2416 13.7547 11.2996L10.0047 15.0496C9.94664 15.1077 9.87771 15.1538 9.80184 15.1853C9.72596 15.2167 9.64463 15.2329 9.5625 15.2329C9.48037 15.2329 9.39904 15.2167 9.32316 15.1853C9.24729 15.1538 9.17836 15.1077 9.12031 15.0496L7.24531 13.1746C7.12804 13.0573 7.06215 12.8983 7.06215 12.7324C7.06215 12.5666 7.12804 12.4075 7.24531 12.2902C7.36259 12.173 7.52165 12.1071 7.6875 12.1071C7.85335 12.1071 8.01241 12.173 8.12969 12.2902L9.5625 13.7238L12.8703 10.4152C12.9284 10.3571 12.9973 10.311 13.0732 10.2796C13.149 10.2481 13.2304 10.2319 13.3125 10.2319C13.3946 10.2319 13.476 10.2481 13.5518 10.2796C13.6277 10.311 13.6966 10.3571 13.7547 10.4152Z" fill="#4B4B4B"/>
</g>
</svg>
