<svg width="16" height="17" viewBox="0 0 16 17" fill="none" xmlns="http://www.w3.org/2000/svg">
<path d="M13 5.19519H10.75V3.44519C10.75 2.71585 10.4603 2.01637 9.94454 1.50065C9.42882 0.984922 8.72935 0.69519 8 0.69519C7.27065 0.69519 6.57118 0.984922 6.05546 1.50065C5.53973 2.01637 5.25 2.71585 5.25 3.44519V5.19519H3C2.73478 5.19519 2.48043 5.30055 2.29289 5.48808C2.10536 5.67562 2 5.92997 2 6.19519V13.1952C2 13.4604 2.10536 13.7148 2.29289 13.9023C2.48043 14.0898 2.73478 14.1952 3 14.1952H13C13.2652 14.1952 13.5196 14.0898 13.7071 13.9023C13.8946 13.7148 14 13.4604 14 13.1952V6.19519C14 5.92997 13.8946 5.67562 13.7071 5.48808C13.5196 5.30055 13.2652 5.19519 13 5.19519ZM8 10.4452C7.85166 10.4452 7.70666 10.4012 7.58332 10.3188C7.45999 10.2364 7.36386 10.1192 7.30709 9.9822C7.25032 9.84516 7.23547 9.69436 7.26441 9.54887C7.29335 9.40339 7.36478 9.26975 7.46967 9.16486C7.57456 9.05997 7.7082 8.98854 7.85368 8.9596C7.99917 8.93066 8.14997 8.94552 8.28701 9.00228C8.42406 9.05905 8.54119 9.15518 8.6236 9.27851C8.70601 9.40185 8.75 9.54685 8.75 9.69519C8.75 9.8941 8.67098 10.0849 8.53033 10.2255C8.38968 10.3662 8.19891 10.4452 8 10.4452ZM9.75 5.19519H6.25V3.44519C6.25 2.98106 6.43437 2.53594 6.76256 2.20775C7.09075 1.87957 7.53587 1.69519 8 1.69519C8.46413 1.69519 8.90925 1.87957 9.23744 2.20775C9.56563 2.53594 9.75 2.98106 9.75 3.44519V5.19519Z" fill="white"/>
</svg>
