<svg xmlns="http://www.w3.org/2000/svg" width="33" height="33" viewBox="0 0 33 33" fill="none">
  <path fill-rule="evenodd" clip-rule="evenodd" d="M16.5002 5.38184C12.6342 5.38184 9.50017 8.51584 9.50017 12.3818C9.50017 16.2478 12.6342 19.3818 16.5002 19.3818C20.3662 19.3818 23.5002 16.2478 23.5002 12.3818C23.5002 8.51584 20.3662 5.38184 16.5002 5.38184ZM7.50017 12.3818C7.50017 7.41127 11.5296 3.38184 16.5002 3.38184C21.4707 3.38184 25.5002 7.41127 25.5002 12.3818C25.5002 17.3524 21.4707 21.3818 16.5002 21.3818C11.5296 21.3818 7.50017 17.3524 7.50017 12.3818Z" fill="white"/>
  <path fill-rule="evenodd" clip-rule="evenodd" d="M16.5002 21.3807C14.218 21.3807 11.976 21.9815 9.99965 23.1227C8.02328 24.2639 6.38215 25.9052 5.24124 27.8818C4.96514 28.3601 4.35356 28.524 3.87525 28.2479C3.39693 27.9718 3.233 27.3603 3.5091 26.8819C4.82553 24.6013 6.71914 22.7074 8.99957 21.3907C11.28 20.074 13.8669 19.3807 16.5002 19.3807C19.1335 19.3807 21.7203 20.074 24.0008 21.3907C26.2812 22.7074 28.1748 24.6013 29.4912 26.8819C29.7673 27.3603 29.6034 27.9718 29.1251 28.2479C28.6468 28.524 28.0352 28.3601 27.7591 27.8818C26.6182 25.9052 24.9771 24.2639 23.0007 23.1227C21.0243 21.9815 18.7823 21.3807 16.5002 21.3807Z" fill="white"/>
</svg>