<svg width="28" height="28" viewBox="0 0 28 28" fill="none" xmlns="http://www.w3.org/2000/svg">
<path d="M0.910156 27.0051L2.75672 20.2507C1.62144 18.2669 1.02586 16.0202 1.02934 13.7346C1.01569 6.52924 6.8318 0.677246 13.9804 0.677246C17.4488 0.677246 20.7062 2.03058 23.1594 4.49889C25.6126 6.9672 26.9573 10.2446 26.9573 13.7346C26.9573 20.927 21.142 26.7797 13.9933 26.7797C11.8258 26.7825 9.69305 26.2346 7.79528 25.1873L0.910156 27.0051ZM8.09898 22.8382L8.49457 23.0772C10.1541 24.0658 12.0495 24.5884 13.9811 24.59C19.9157 24.59 24.7561 19.7194 24.7561 13.7482C24.7561 10.8549 23.6354 8.12166 21.6043 6.07766C19.5718 4.03509 16.8551 2.89355 13.9797 2.89355C8.03149 2.89355 3.19108 7.76412 3.19108 13.7353C3.19108 15.7793 3.75826 17.7831 4.84021 19.5076L5.09077 19.9197L3.9959 23.9273L8.09754 22.8389L8.09898 22.8382Z" fill="white"/>
<path d="M1.3584 26.5534L3.13891 20.0251C2.041 18.1104 1.46353 15.9416 1.46394 13.7344C1.46394 6.79473 7.0826 1.1416 13.9799 1.1416C17.3299 1.1416 20.4688 2.45545 22.8423 4.83042C24.0087 6.00071 24.933 7.3895 25.5621 8.91735C26.1913 10.4452 26.513 12.0821 26.5089 13.7344C26.5089 20.6748 20.8909 26.328 13.9929 26.328C11.8965 26.328 9.83881 25.7967 8.00517 24.7887L1.3584 26.5534Z" fill="url(#paint0_linear_7617_6621)"/>
<path d="M0.910156 27.0051L2.75672 20.2507C1.62144 18.2669 1.02586 16.0202 1.02934 13.7346C1.01569 6.52924 6.8318 0.677246 13.9804 0.677246C17.4488 0.677246 20.7062 2.03058 23.1594 4.49889C25.6126 6.96719 26.9573 10.2446 26.9573 13.7346C26.9573 20.927 21.142 26.7797 13.9933 26.7797C11.8258 26.7825 9.69305 26.2346 7.79528 25.1873L0.910156 27.0051V27.0051ZM8.09898 22.8382L8.49457 23.0772C10.1541 24.0658 12.0495 24.5884 13.9811 24.59C19.9157 24.59 24.7561 19.7194 24.7561 13.7482C24.7561 10.8549 23.6354 8.12166 21.6043 6.07766C19.5718 4.03509 16.8551 2.89355 13.9797 2.89355C8.03149 2.89355 3.19108 7.76412 3.19108 13.7353C3.19108 15.7793 3.75826 17.7831 4.84021 19.5076L5.09077 19.9197L3.9959 23.9273L8.09754 22.8389L8.09898 22.8382Z" fill="url(#paint1_linear_7617_6621)"/>
<path fill-rule="evenodd" clip-rule="evenodd" d="M10.7486 8.26706C10.5117 7.72285 10.2475 7.70993 10.0235 7.70993C9.82533 7.69629 9.61426 7.69629 9.39026 7.69629C9.17918 7.69629 8.82308 7.77598 8.5201 8.10767C8.21641 8.43937 7.38574 9.22265 7.38574 10.8287C7.38574 12.434 8.54667 13.987 8.70461 14.1988C8.86256 14.4113 10.9468 17.8086 14.2436 19.1224C16.9869 20.2101 17.5411 19.9983 18.1349 19.9316C18.7279 19.8655 20.0468 19.149 20.3239 18.3786C20.5874 17.6226 20.5874 16.9593 20.5084 16.8264C20.4294 16.6936 20.2047 16.6139 19.8881 16.4416C19.5586 16.2822 17.9762 15.4868 17.6725 15.3798C17.3695 15.2735 17.1585 15.2204 16.9474 15.5392C16.7363 15.8709 16.1167 16.601 15.9186 16.8128C15.7341 17.0253 15.5366 17.0519 15.22 16.8925C14.8897 16.7338 13.8487 16.3885 12.6081 15.2735C11.6461 14.4113 10.9999 13.3365 10.8017 13.0177C10.6172 12.686 10.7752 12.5137 10.9468 12.3543C11.0918 12.2086 11.277 11.9695 11.435 11.7836C11.5929 11.5976 11.6453 11.4519 11.7645 11.2394C11.87 11.0276 11.8169 10.828 11.7379 10.6693C11.659 10.5229 11.0387 8.91752 10.7486 8.26706Z" fill="white"/>
<defs>
<linearGradient id="paint0_linear_7617_6621" x1="13.9311" y1="26.552" x2="13.9311" y2="1.13658" gradientUnits="userSpaceOnUse">
<stop stop-color="#20B038"/>
<stop offset="1" stop-color="#60D66A"/>
</linearGradient>
<linearGradient id="paint1_linear_7617_6621" x1="13.9316" y1="27.008" x2="13.9316" y2="0.680836" gradientUnits="userSpaceOnUse">
<stop stop-color="#F9F9F9"/>
<stop offset="1" stop-color="white"/>
</linearGradient>
</defs>
</svg>
