<svg width="60" height="61" viewBox="0 0 60 61" fill="none" xmlns="http://www.w3.org/2000/svg">
<rect y="0.362305" width="60" height="60" rx="8" fill="url(#paint0_linear_2807_2468)"/>
<path fill-rule="evenodd" clip-rule="evenodd" d="M35 20.0107C34.0054 20.0107 33.0516 20.4058 32.3484 21.1091C31.6451 21.8124 31.25 22.7662 31.25 23.7607C31.25 24.4511 30.6904 25.0107 30 25.0107C29.3096 25.0107 28.75 24.4511 28.75 23.7607C28.75 22.1031 29.4085 20.5134 30.5806 19.3413C31.7527 18.1692 33.3424 17.5107 35 17.5107H45C45.663 17.5107 46.2989 17.7741 46.7678 18.243C47.2366 18.7118 47.5 19.3477 47.5 20.0107V40.0107C47.5 40.6738 47.2366 41.3097 46.7678 41.7785C46.2989 42.2474 45.663 42.5107 45 42.5107H35C34.0054 42.5107 33.0516 42.9058 32.3484 43.6091C31.6451 44.3124 31.25 45.2662 31.25 46.2607C31.25 46.9511 30.6904 47.5107 30 47.5107C29.3096 47.5107 28.75 46.9511 28.75 46.2607C28.75 44.6031 29.4085 43.0134 30.5806 41.8413C31.7527 40.6692 33.3424 40.0107 35 40.0107H45V20.0107L35 20.0107Z" fill="white"/>
<path fill-rule="evenodd" clip-rule="evenodd" d="M13.2322 18.243C13.7011 17.7741 14.337 17.5107 15 17.5107H25C26.6576 17.5107 28.2473 18.1692 29.4194 19.3413C30.5915 20.5134 31.25 22.1031 31.25 23.7607V46.2607C31.25 46.9511 30.6904 47.5107 30 47.5107C29.3096 47.5107 28.75 46.9511 28.75 46.2607C28.75 45.2662 28.3549 44.3124 27.6517 43.6091C26.9484 42.9058 25.9946 42.5107 25 42.5107H15C14.337 42.5107 13.7011 42.2474 13.2322 41.7785C12.7634 41.3097 12.5 40.6738 12.5 40.0107V20.0107C12.5 19.3477 12.7634 18.7118 13.2322 18.243ZM28.75 41.2607V23.7607C28.75 22.7662 28.3549 21.8124 27.6517 21.1091C26.9484 20.4058 25.9946 20.0107 25 20.0107L15 20.0107V40.0107H25C26.3601 40.0107 27.6745 40.4541 28.75 41.2607Z" fill="white"/>
<defs>
<linearGradient id="paint0_linear_2807_2468" x1="30" y1="0.362305" x2="30" y2="60.3623" gradientUnits="userSpaceOnUse">
<stop stop-color="white"/>
<stop offset="1" stop-color="#0041CA"/>
</linearGradient>
</defs>
</svg>
