<svg width="60" height="61" viewBox="0 0 60 61" fill="none" xmlns="http://www.w3.org/2000/svg">
<rect y="0.362305" width="60" height="60" rx="8" fill="url(#paint0_linear_2807_2493)"/>
<path d="M30 46.2607C21.0375 46.2607 13.75 38.9732 13.75 30.0107C13.75 21.0482 21.0375 13.7607 30 13.7607C38.9625 13.7607 46.25 21.0482 46.25 30.0107C46.25 38.9732 38.9625 46.2607 30 46.2607ZM30 16.2607C22.4125 16.2607 16.25 22.4232 16.25 30.0107C16.25 37.5982 22.4125 43.7607 30 43.7607C37.5875 43.7607 43.75 37.5982 43.75 30.0107C43.75 22.4232 37.5875 16.2607 30 16.2607Z" fill="white"/>
<path d="M17.7501 39.9229C17.3251 39.9229 16.9126 39.7102 16.6751 39.3227C16.3126 38.7352 16.5126 37.9602 17.1001 37.6102L18.9251 36.5102L18.95 30.8604C18.95 30.3854 19.1 29.9353 19.35 29.5353L22.4376 24.6853C22.6376 24.3853 22.8626 24.1604 23.1251 23.9729C23.5001 23.7354 23.8125 23.6228 24.125 23.5728C24.3875 23.5103 24.7501 23.5103 25.1001 23.5853C25.4251 23.6603 25.7376 23.7979 26.0251 23.9979L29.0876 26.2103L34.0126 25.5479L37.475 21.5478L37.3001 17.7602C37.2751 17.0727 37.8 16.4853 38.4875 16.4603C39.175 16.4228 39.7626 16.9603 39.7876 17.6478L39.9625 21.4353C39.9875 22.0853 39.775 22.7104 39.3625 23.1854L35.9 27.1853C35.525 27.6478 34.9625 27.9604 34.3375 28.0354L29.4375 28.7103C28.7875 28.7853 28.1625 28.6228 27.6375 28.2603L24.5626 26.0354L21.4625 30.8978L21.4251 36.5353C21.4251 36.9728 21.3126 37.3978 21.0876 37.7728C20.9001 38.1103 20.6001 38.4354 20.2376 38.6604L18.4 39.7729C18.2 39.8979 17.9751 39.9477 17.7501 39.9477V39.9229Z" fill="white"/>
<path d="M39.2376 43.0857C38.9126 43.0857 38.6001 42.9608 38.3501 42.7233L36.6626 41.0359L33.3126 40.1608C32.7126 40.0108 32.2001 39.6358 31.8626 39.0983C31.5376 38.6108 31.4001 37.9858 31.4876 37.3733L31.8501 34.8483C31.9251 34.3858 32.1126 33.9858 32.3876 33.6483C32.6376 33.3233 33.0001 33.0483 33.4126 32.8858L38.1251 30.9107C38.6126 30.7107 39.1001 30.6733 39.5626 30.7608C39.9751 30.8233 40.4251 31.0483 40.7876 31.3858L44.6751 34.9359C45.1876 35.3984 45.2251 36.1858 44.7501 36.6983C44.2876 37.2108 43.4876 37.2483 42.9876 36.7733L39.1001 33.2109L34.3501 35.1858L33.9751 37.7108L37.3126 38.5858C37.7501 38.7108 38.1251 38.9358 38.4376 39.2233L40.1376 40.9233C40.6251 41.4108 40.6251 42.1983 40.1376 42.6858C39.9001 42.9358 39.5751 43.0484 39.2501 43.0484L39.2376 43.0857Z" fill="white"/>
<defs>
<linearGradient id="paint0_linear_2807_2493" x1="30" y1="0.362305" x2="30" y2="60.3623" gradientUnits="userSpaceOnUse">
<stop stop-color="white"/>
<stop offset="1" stop-color="#0041CA"/>
</linearGradient>
</defs>
</svg>
