<svg xmlns="http://www.w3.org/2000/svg" width="40" height="40" viewBox="0 0 40 40" fill="none">
  <path fill-rule="evenodd" clip-rule="evenodd" d="M25 10C24.0054 10 23.0516 10.3951 22.3484 11.0983C21.6451 11.8016 21.25 12.7554 21.25 13.75C21.25 14.4404 20.6904 15 20 15C19.3096 15 18.75 14.4404 18.75 13.75C18.75 12.0924 19.4085 10.5027 20.5806 9.33058C21.7527 8.15848 23.3424 7.5 25 7.5H35C35.663 7.5 36.2989 7.76339 36.7678 8.23223C37.2366 8.70108 37.5 9.33696 37.5 10V30C37.5 30.663 37.2366 31.2989 36.7678 31.7678C36.2989 32.2366 35.663 32.5 35 32.5H25C24.0054 32.5 23.0516 32.8951 22.3484 33.5984C21.6451 34.3016 21.25 35.2554 21.25 36.25C21.25 36.9404 20.6904 37.5 20 37.5C19.3096 37.5 18.75 36.9404 18.75 36.25C18.75 34.5924 19.4085 33.0027 20.5806 31.8306C21.7527 30.6585 23.3424 30 25 30H35V10L25 10Z" fill="#083CA0"/>
  <path fill-rule="evenodd" clip-rule="evenodd" d="M3.23223 8.23223C3.70107 7.76339 4.33696 7.5 5 7.5H15C16.6576 7.5 18.2473 8.15848 19.4194 9.33058C20.5915 10.5027 21.25 12.0924 21.25 13.75V36.25C21.25 36.9404 20.6904 37.5 20 37.5C19.3096 37.5 18.75 36.9404 18.75 36.25C18.75 35.2554 18.3549 34.3016 17.6517 33.5984C16.9484 32.8951 15.9946 32.5 15 32.5H5C4.33696 32.5 3.70108 32.2366 3.23223 31.7678C2.76339 31.2989 2.5 30.663 2.5 30V10C2.5 9.33696 2.76339 8.70107 3.23223 8.23223ZM18.75 31.25V13.75C18.75 12.7554 18.3549 11.8016 17.6517 11.0983C16.9484 10.3951 15.9946 10 15 10L5 10V30H15C16.3601 30 17.6745 30.4433 18.75 31.25Z" fill="#083CA0"/>
</svg>