<svg xmlns="http://www.w3.org/2000/svg" width="41" height="40" viewBox="0 0 41 40" fill="none">
  <path d="M13.0007 18.3333H8.16732C7.2339 18.3333 6.76719 18.3333 6.41067 18.515C6.09706 18.6748 5.8421 18.9297 5.68231 19.2433C5.50065 19.5999 5.50065 20.0666 5.50065 21V35M28.0007 18.3333H32.834C33.7674 18.3333 34.2341 18.3333 34.5906 18.515C34.9042 18.6748 35.1592 18.9297 35.319 19.2433C35.5007 19.5999 35.5007 20.0666 35.5007 21V35M28.0007 35V10.3333C28.0007 8.46649 28.0007 7.53307 27.6373 6.82003C27.3178 6.19282 26.8078 5.68289 26.1806 5.36331C25.4676 5 24.5342 5 22.6673 5H18.334C16.4671 5 15.5337 5 14.8207 5.36331C14.1935 5.68289 13.6835 6.19282 13.364 6.82003C13.0007 7.53307 13.0007 8.46649 13.0007 10.3333V35M37.1673 35H3.83398M18.834 11.6667H22.1673M18.834 18.3333H22.1673M18.834 25H22.1673" stroke="#083CA0" stroke-width="3" stroke-linecap="round" stroke-linejoin="round"/>
</svg>