<svg xmlns="http://www.w3.org/2000/svg" width="41" height="40" viewBox="0 0 41 40" fill="none">
  <path d="M35.5004 20C35.5004 20.3315 35.3687 20.6495 35.1343 20.8839C34.8999 21.1183 34.582 21.25 34.2504 21.25H20.5004C20.1689 21.25 19.851 21.1183 19.6165 20.8839C19.3821 20.6495 19.2504 20.3315 19.2504 20C19.2504 19.6685 19.3821 19.3506 19.6165 19.1161C19.851 18.8817 20.1689 18.75 20.5004 18.75H34.2504C34.582 18.75 34.8999 18.8817 35.1343 19.1161C35.3687 19.3506 35.5004 19.6685 35.5004 20ZM20.5004 11.25H34.2504C34.582 11.25 34.8999 11.1183 35.1343 10.8839C35.3687 10.6495 35.5004 10.3315 35.5004 10C35.5004 9.6685 35.3687 9.35056 35.1343 9.11614C34.8999 8.88172 34.582 8.75002 34.2504 8.75002H20.5004C20.1689 8.75002 19.851 8.88172 19.6165 9.11614C19.3821 9.35056 19.2504 9.6685 19.2504 10C19.2504 10.3315 19.3821 10.6495 19.6165 10.8839C19.851 11.1183 20.1689 11.25 20.5004 11.25ZM34.2504 28.75H20.5004C20.1689 28.75 19.851 28.8817 19.6165 29.1161C19.3821 29.3506 19.2504 29.6685 19.2504 30C19.2504 30.3315 19.3821 30.6495 19.6165 30.8839C19.851 31.1183 20.1689 31.25 20.5004 31.25H34.2504C34.582 31.25 34.8999 31.1183 35.1343 30.8839C35.3687 30.6495 35.5004 30.3315 35.5004 30C35.5004 29.6685 35.3687 29.3506 35.1343 29.1161C34.8999 28.8817 34.582 28.75 34.2504 28.75ZM14.0317 6.57815L9.45356 10.7969L7.59418 9.07815C7.34837 8.86275 7.02796 8.75221 6.70162 8.77019C6.37529 8.78817 6.06897 8.93325 5.84831 9.17435C5.62764 9.41544 5.51018 9.73338 5.52109 10.06C5.53201 10.3867 5.67042 10.6961 5.90668 10.9219L8.60981 13.4219C8.84018 13.6329 9.14119 13.7499 9.45356 13.75C9.77076 13.7508 10.077 13.6339 10.3129 13.4219L15.7192 8.4219C15.8444 8.31222 15.9464 8.17864 16.0192 8.02901C16.0921 7.87938 16.1343 7.7167 16.1435 7.55052C16.1527 7.38434 16.1285 7.21801 16.0726 7.06128C16.0166 6.90455 15.9299 6.76057 15.8175 6.6378C15.7051 6.51503 15.5694 6.41594 15.4182 6.34633C15.267 6.27672 15.1035 6.238 14.9371 6.23245C14.7708 6.22689 14.605 6.25461 14.4495 6.31397C14.2941 6.37333 14.152 6.46315 14.0317 6.57815ZM14.0317 16.5781L9.45356 20.7969L7.59418 19.0781C7.47387 18.9631 7.33181 18.8733 7.17633 18.814C7.02084 18.7546 6.85507 18.7269 6.68874 18.7324C6.5224 18.738 6.35885 18.7767 6.20767 18.8463C6.0565 18.9159 5.92074 19.015 5.80838 19.1378C5.69601 19.2606 5.60929 19.4045 5.55331 19.5613C5.49733 19.718 5.47321 19.8843 5.48236 20.0505C5.49152 20.2167 5.53377 20.3794 5.60663 20.529C5.6795 20.6786 5.78151 20.8122 5.90668 20.9219L8.60981 23.4219C8.84018 23.6329 9.14119 23.7499 9.45356 23.75C9.77076 23.7508 10.077 23.6339 10.3129 23.4219L15.7192 18.4219C15.8444 18.3122 15.9464 18.1786 16.0192 18.029C16.0921 17.8794 16.1343 17.7167 16.1435 17.5505C16.1527 17.3843 16.1285 17.218 16.0726 17.0613C16.0166 16.9045 15.9299 16.7606 15.8175 16.6378C15.7051 16.515 15.5694 16.4159 15.4182 16.3463C15.267 16.2767 15.1035 16.238 14.9371 16.2324C14.7708 16.2269 14.605 16.2546 14.4495 16.314C14.2941 16.3733 14.152 16.4631 14.0317 16.5781ZM14.0317 26.5781L9.45356 30.7969L7.59418 29.0781C7.47387 28.9632 7.33181 28.8733 7.17633 28.814C7.02084 28.7546 6.85507 28.7269 6.68874 28.7324C6.5224 28.738 6.35885 28.7767 6.20767 28.8463C6.0565 28.9159 5.92074 29.015 5.80838 29.1378C5.69601 29.2606 5.60929 29.4045 5.55331 29.5613C5.49733 29.718 5.47321 29.8843 5.48236 30.0505C5.49152 30.2167 5.53377 30.3794 5.60663 30.529C5.6795 30.6786 5.78151 30.8122 5.90668 30.9219L8.60981 33.4219C8.84018 33.6329 9.14119 33.7499 9.45356 33.75C9.77076 33.7508 10.077 33.6339 10.3129 33.4219L15.7192 28.4219C15.9554 28.1961 16.0939 27.8867 16.1048 27.56C16.1157 27.2334 15.9982 26.9154 15.7776 26.6743C15.5569 26.4333 15.2506 26.2882 14.9242 26.2702C14.5979 26.2522 14.2775 26.3628 14.0317 26.5781Z" fill="#083CA0"/>
</svg>