<svg xmlns="http://www.w3.org/2000/svg" width="33" height="33" viewBox="0 0 33 33" fill="none">
  <path fill-rule="evenodd" clip-rule="evenodd" d="M27.0679 8.82836L30.1384 14.7073L30.1409 14.712L27.9317 15.8122L24.8578 9.9334L27.0679 8.82836ZM31.0331 16.502L27.9456 18.0395C27.4581 18.2823 26.866 18.0903 26.6136 17.6077L22.6136 9.95772C22.4893 9.71991 22.4657 9.4421 22.5483 9.18675C22.6308 8.9314 22.8125 8.71995 23.0526 8.59994L26.1747 7.03887C26.6412 6.80243 27.1822 6.75936 27.6803 6.91913C28.1794 7.07921 28.595 7.42995 28.8367 7.89495C28.837 7.89541 28.8372 7.89586 28.8374 7.89631L31.9087 13.7767C31.9092 13.7776 31.9097 13.7785 31.9101 13.7794C32.034 14.0144 32.1098 14.2717 32.1331 14.5363C32.1566 14.8019 32.1267 15.0696 32.0451 15.3235C31.9636 15.5774 31.8321 15.8124 31.6584 16.0148C31.4847 16.2171 31.2717 16.383 31.0331 16.502Z" fill="white"/>
  <path fill-rule="evenodd" clip-rule="evenodd" d="M5.93688 8.69341L2.86388 14.5771L5.06879 15.684L8.14239 9.79616L5.93688 8.69341ZM5.30983 6.79421C5.80481 6.63077 6.34403 6.66704 6.81266 6.89529L6.82203 6.89985L9.947 8.4624C10.1869 8.58236 10.3686 8.79369 10.4512 9.04889C10.5338 9.3041 10.5104 9.5818 10.3863 9.81959L6.38627 17.4821C6.13355 17.9662 5.53918 18.158 5.05113 17.913L1.96722 16.3648C1.72998 16.2477 1.51848 16.0844 1.34515 15.8845C1.1706 15.6832 1.03833 15.4488 0.956181 15.1953C0.874035 14.9418 0.843697 14.6744 0.866971 14.409C0.890127 14.1449 0.965878 13.8881 1.08975 13.6538L4.16267 7.77029C4.16283 7.76997 4.163 7.76965 4.16317 7.76932C4.40382 7.30738 4.8152 6.95753 5.30983 6.79421Z" fill="white"/>
  <path fill-rule="evenodd" clip-rule="evenodd" d="M4.71152 16.404C5.05136 15.9686 5.67978 15.8912 6.11512 16.2311L12.9526 21.5686L12.9676 21.5805L20.1671 23.3804C20.175 23.3813 20.183 23.3806 20.1907 23.3785C20.1983 23.3764 20.2055 23.3729 20.2118 23.3681L24.7643 18.8156L26.7382 16.4962C27.0962 16.0756 27.7273 16.0248 28.1479 16.3828C28.5685 16.7407 28.6193 17.3719 28.2613 17.7925L26.2613 20.1424C26.244 20.1628 26.2258 20.1825 26.2069 20.2014L21.6069 24.8014C21.6026 24.8057 21.5982 24.81 21.5939 24.8142C21.5902 24.8178 21.5865 24.8213 21.5828 24.8247C21.3394 25.0523 21.0446 25.2175 20.7234 25.3063C20.4022 25.395 20.0644 25.4046 19.7387 25.3343C19.7282 25.332 19.7177 25.3296 19.7073 25.327L12.4572 23.5145C12.4486 23.5123 12.4399 23.51 12.4313 23.5076C12.1702 23.4348 11.9266 23.3097 11.7154 23.14L4.88445 17.8076C4.4491 17.4678 4.37168 16.8393 4.71152 16.404Z" fill="white"/>
  <path fill-rule="evenodd" clip-rule="evenodd" d="M18.414 10.4943L13.5277 15.3682C13.5269 15.3692 13.5263 15.3703 13.5258 15.3715C13.5252 15.3732 13.525 15.375 13.5251 15.3767C13.5252 15.3785 13.5257 15.3802 13.5266 15.3818C13.5274 15.3833 13.5286 15.3847 13.53 15.3858L14.201 15.8952C14.7208 16.2822 15.3517 16.4912 15.9998 16.4912C16.6488 16.4912 17.2804 16.2816 17.8007 15.8937C17.801 15.8934 17.8013 15.8932 17.8017 15.8929L19.3998 14.6943C19.751 14.4309 20.2329 14.4274 20.588 14.6856L26.088 18.6856C26.5346 19.0104 26.6334 19.6358 26.3085 20.0825C25.9837 20.5292 25.3583 20.6279 24.9116 20.3031L20.0089 16.7375L18.9979 17.4957C18.132 18.142 17.0803 18.4912 15.9998 18.4912C14.9192 18.4912 13.8676 18.142 13.0017 17.4957L12.9951 17.4908L12.3201 16.9783C12.0932 16.8058 11.905 16.5867 11.769 16.3362C11.633 16.0858 11.5518 15.8093 11.5306 15.5251C11.5095 15.2409 11.5489 14.9554 11.6464 14.6876C11.7439 14.4198 11.8971 14.1757 12.096 13.9716L12.1061 13.9613L17.0069 9.07297C17.1922 8.88863 17.412 8.74264 17.6537 8.64335C17.8949 8.54431 18.1531 8.49369 18.4137 8.49433C18.4144 8.49433 18.4151 8.49433 18.4158 8.49434L18.4123 9.49433V8.49433H18.4137H23.4998C24.0521 8.49433 24.4998 8.94204 24.4998 9.49433C24.4998 10.0466 24.0521 10.4943 23.4998 10.4943H18.414Z" fill="white"/>
  <path fill-rule="evenodd" clip-rule="evenodd" d="M16.263 8.44313L20.5866 10.405C21.0895 10.6332 21.6822 10.4105 21.9104 9.90757C22.1386 9.40464 21.9159 8.81193 21.413 8.58372L17.088 6.62122L17.0866 6.62061C16.6546 6.42537 16.1673 6.38992 15.7116 6.52061L9.29414 8.39705C8.76405 8.55205 8.45998 9.10742 8.61497 9.63751C8.76997 10.1676 9.32534 10.4717 9.85543 10.3167L16.263 8.44313Z" fill="white"/>
  <path fill-rule="evenodd" clip-rule="evenodd" d="M6.74432 22.7267C7.10617 22.3094 7.73774 22.2645 8.15497 22.6264L10.9765 25.0734C10.9784 25.0738 10.9802 25.0743 10.9821 25.0748L14.7446 26.0248C15.2801 26.16 15.6046 26.7037 15.4694 27.2392C15.3342 27.7746 14.7905 28.0991 14.255 27.9639L10.5025 27.0164C10.1918 26.9437 9.90399 26.7949 9.66503 26.5834L6.8446 24.1373C6.42737 23.7755 6.38247 23.1439 6.74432 22.7267Z" fill="white"/>
</svg>