<svg width="37" height="37" viewBox="0 0 37 37" fill="none" xmlns="http://www.w3.org/2000/svg">
<g id="ShootingStar">
<path id="Vector" d="M33.9917 10.4962C33.8771 10.1386 33.6584 9.82336 33.3635 9.59086C33.0686 9.35836 32.711 9.2192 32.3366 9.19119L27.1419 8.78056L25.1436 4.04713C24.9977 3.70435 24.7541 3.41205 24.4433 3.2066C24.1325 3.00114 23.7682 2.8916 23.3956 2.8916C23.0231 2.8916 22.6587 3.00114 22.348 3.2066C22.0372 3.41205 21.7936 3.70435 21.6477 4.04713L19.6494 8.78056L14.4547 9.19119C14.0817 9.21867 13.7253 9.35663 13.431 9.58747C13.1367 9.81831 12.9178 10.1316 12.8022 10.4873C12.6867 10.843 12.6797 11.2251 12.7821 11.5849C12.8846 11.9446 13.0919 12.2657 13.3775 12.5071L17.3235 15.8371L16.1197 20.8138C16.0322 21.1743 16.0536 21.5526 16.1813 21.9008C16.3089 22.249 16.5371 22.5515 16.8369 22.7699C17.1395 22.993 17.5014 23.1212 17.8769 23.1385C18.2523 23.1558 18.6245 23.0613 18.9463 22.867L23.3956 20.1881L27.8464 22.8684C28.1684 23.0621 28.5404 23.1563 28.9158 23.1391C29.2912 23.1218 29.653 22.9938 29.9558 22.7713C30.255 22.5525 30.4827 22.2499 30.6101 21.9018C30.7375 21.5536 30.7589 21.1755 30.6716 20.8153L29.4678 15.8385L33.4138 12.5085C33.6995 12.2688 33.9072 11.9492 34.0102 11.5907C34.1131 11.2321 34.1067 10.851 33.9917 10.4962ZM27.485 14.5631C27.3254 14.698 27.2065 14.8747 27.1416 15.0734C27.0768 15.2721 27.0686 15.485 27.118 15.6881L28.2824 20.4988L23.9764 17.9099C23.8013 17.8045 23.6008 17.7489 23.3964 17.7489C23.1919 17.7489 22.9914 17.8045 22.8163 17.9099L18.5103 20.5017L19.6747 15.6881C19.7239 15.4848 19.7155 15.2719 19.6504 15.0732C19.5853 14.8745 19.4662 14.6978 19.3063 14.5631L15.5206 11.3653L20.5156 10.9701C20.7212 10.9538 20.9184 10.8813 21.0855 10.7605C21.2527 10.6397 21.3834 10.4753 21.4635 10.2853L23.3956 5.69103L25.3349 10.2853C25.4149 10.4753 25.5456 10.6397 25.7128 10.7605C25.88 10.8813 26.0771 10.9538 26.2827 10.9701L31.2791 11.3653L27.485 14.5631ZM12.7194 17.9634L4.50408 26.1871C4.29299 26.3982 4.00668 26.5168 3.70815 26.5168C3.40961 26.5168 3.1233 26.3982 2.91221 26.1871C2.70111 25.976 2.58252 25.6897 2.58252 25.3912C2.58252 25.0927 2.70111 24.8063 2.91221 24.5952L11.1317 16.3757C11.3428 16.1646 11.6291 16.046 11.9277 16.046C12.2262 16.046 12.5125 16.1646 12.7236 16.3757C12.9347 16.5868 13.0533 16.8731 13.0533 17.1717C13.0533 17.4702 12.9347 17.7565 12.7236 17.9676L12.7194 17.9634ZM14.2396 24.9763C14.4504 25.1873 14.5688 25.4733 14.5688 25.7716C14.5688 26.0698 14.4504 26.3559 14.2396 26.5668L6.75408 34.0621C6.64956 34.1666 6.52547 34.2496 6.3889 34.3061C6.25234 34.3627 6.10596 34.3918 5.95815 34.3918C5.81033 34.3918 5.66395 34.3627 5.52739 34.3061C5.39082 34.2496 5.26673 34.1666 5.16221 34.0621C5.05768 33.9576 4.97477 33.8335 4.9182 33.6969C4.86163 33.5604 4.83252 33.414 4.83252 33.2662C4.83252 33.1184 4.86163 32.972 4.9182 32.8354C4.97477 32.6989 5.05768 32.5748 5.16221 32.4702L12.6533 24.9806C12.8643 24.7697 13.1503 24.6513 13.4485 24.6513C13.7468 24.6513 14.0328 24.7697 14.2438 24.9806L14.2396 24.9763ZM24.5052 24.8357C24.6098 24.9402 24.6928 25.0643 24.7494 25.2008C24.806 25.3374 24.8351 25.4838 24.8351 25.6317C24.8351 25.7795 24.806 25.9259 24.7494 26.0625C24.6928 26.199 24.6098 26.3231 24.5052 26.4276L16.8721 34.0607C16.661 34.2718 16.3746 34.3904 16.0761 34.3904C15.7776 34.3904 15.4913 34.2718 15.2802 34.0607C15.0691 33.8496 14.9505 33.5633 14.9505 33.2648C14.9505 32.9662 15.0691 32.6799 15.2802 32.4688L22.9147 24.8357C23.0194 24.7304 23.1439 24.6468 23.281 24.5898C23.4182 24.5328 23.5652 24.5035 23.7138 24.5036C23.8623 24.5038 24.0093 24.5333 24.1463 24.5905C24.2834 24.6478 24.4077 24.7316 24.5122 24.8371L24.5052 24.8357Z" fill="#4B4B4B"/>
</g>
</svg>
