<svg width="133" height="36" viewBox="0 0 133 36" fill="none" xmlns="http://www.w3.org/2000/svg">
<g id="adobe_logo.svg" clip-path="url(#clip0_2807_1518)">
<g id="Group">
<path id="Vector" d="M14.653 0.328247H0V35.303L14.653 0.328247Z" fill="#FA0C00"/>
<path id="Vector_2" d="M24.9619 0.326294H39.5958V35.3011L24.9619 0.326294Z" fill="#FA0C00"/>
<path id="Vector_3" d="M19.8077 13.2157L29.134 35.3H23.0151L20.2277 28.2688H13.4023L19.8077 13.2157Z" fill="#FA0C00"/>
</g>
<g id="Group_2">
<path id="Vector_4" d="M63.5016 22.5654L65.2294 27.5101C65.2867 27.6339 65.3726 27.6911 65.5253 27.6911H68.8473C69.0287 27.6911 69.0573 27.6053 69.0287 27.4243L62.1652 8.3983C62.1365 8.24587 62.1079 8.21729 61.9552 8.21729H57.8313C57.7168 8.21729 57.65 8.30303 57.65 8.42688C57.5927 9.42725 57.5068 9.73213 57.3827 10.0275L51.2637 27.3957C51.2351 27.6054 51.3019 27.6911 51.4738 27.6911H54.4425C54.6239 27.6911 54.7098 27.6339 54.7766 27.4529L56.409 22.5654H63.5016ZM57.354 19.3357C58.2514 16.6299 59.435 13.162 59.9123 11.1803H59.941C60.5328 13.2572 61.9265 17.373 62.5566 19.3357H57.354Z" fill="#FA0C00"/>
<path id="Vector_5" d="M77.8525 27.9888C79.6375 27.9888 81.5372 27.6649 83.4655 26.836C83.6182 26.7788 83.6468 26.7121 83.6468 26.5692C83.5895 26.0357 83.5227 25.264 83.5227 24.6733V6.76195C83.5227 6.64762 83.5227 6.59045 83.3796 6.59045H80.1435C80.0194 6.59045 79.9621 6.64762 79.9621 6.80006V12.8689C79.4562 12.8118 79.103 12.7832 78.683 12.7832C73.4613 12.7832 70.2539 16.2226 70.2539 20.5194C70.2539 25.5022 73.5472 27.9888 77.8525 27.9888ZM79.9621 24.6733C79.4275 24.8448 78.8357 24.9115 78.2343 24.9115C75.8669 24.9115 73.9291 23.5776 73.9291 20.3384C73.9291 17.4706 75.9242 15.7748 78.5684 15.7748C79.103 15.7748 79.5707 15.8319 79.9621 15.9844V24.6733Z" fill="#FA0C00"/>
<path id="Vector_6" d="M93.9701 12.7819C89.5122 12.7819 86.7534 16.1926 86.7534 20.4037C86.7534 24.167 88.949 27.9874 93.9033 27.9874C98.094 27.9874 101.034 24.9101 101.034 20.3084C101.034 16.2498 98.5426 12.7819 93.9701 12.7819ZM93.7888 15.7734C96.3089 15.7734 97.378 17.9361 97.378 20.4037C97.378 23.4524 95.8029 24.9673 93.9701 24.9673C91.7077 24.9673 90.3713 23.0714 90.3713 20.337C90.3713 17.5265 91.7937 15.7734 93.7888 15.7734Z" fill="#FA0C00"/>
<path id="Vector_7" d="M104.38 6.59045C104.256 6.59045 104.17 6.64762 104.17 6.80006V27.0742C104.17 27.1599 104.256 27.3124 104.38 27.3409C105.802 27.7792 107.291 27.9888 108.828 27.9888C113.229 27.9888 117.506 25.264 117.506 19.7762C117.506 15.8034 114.775 12.7832 110.499 12.7832C109.516 12.7832 108.599 12.9356 107.797 13.2024L107.759 6.82864C107.759 6.61904 107.702 6.59045 107.492 6.59045H104.38ZM113.849 20.1383C113.849 23.4252 111.597 24.9686 109.162 24.9686C108.657 24.9686 108.208 24.94 107.797 24.8162V16.1654C108.265 15.9844 108.828 15.8319 109.869 15.8319C112.217 15.8319 113.849 17.3182 113.849 20.1383Z" fill="#FA0C00"/>
<path id="Vector_8" d="M129.582 21.204C131.033 21.204 132.226 21.1754 132.637 21.0801C132.789 21.0516 132.847 20.9944 132.875 20.8705C132.961 20.5466 133 19.8702 133 19.0413C133 16.2212 131.3 12.7819 126.909 12.7819C122.423 12.7819 119.931 16.4308 119.931 20.5466C119.931 24.1956 121.859 27.9874 127.262 27.9874C129.286 27.9874 130.594 27.6635 131.72 27.13C131.835 27.0728 131.892 26.9775 131.892 26.8061V24.3385C131.892 24.1956 131.806 24.167 131.72 24.2242C130.594 24.7005 129.372 24.9387 128.036 24.9387C125.01 24.9387 123.635 23.2714 123.549 21.204H129.582ZM123.549 18.6507C123.788 17.2025 124.704 15.6305 126.756 15.6305C129.019 15.6305 129.611 17.5265 129.611 18.3839C129.611 18.4125 129.611 18.5364 129.611 18.6221C129.487 18.6507 129.105 18.6507 127.978 18.6507H123.549Z" fill="#FA0C00"/>
</g>
</g>
<defs>
<clipPath id="clip0_2807_1518">
<rect width="133" height="35" fill="white" transform="translate(0 0.3125)"/>
</clipPath>
</defs>
</svg>
