<svg width="249" height="75" viewBox="0 0 249 75" fill="none" xmlns="http://www.w3.org/2000/svg">
<g id="Logo.svg" clip-path="url(#clip0_2807_1492)">
<path id="path8" fill-rule="evenodd" clip-rule="evenodd" d="M154.188 58.1827C139.776 68.7007 118.887 74.3124 100.902 74.3124C75.6846 74.3124 52.9821 65.0771 35.8068 49.7171C34.4574 48.5092 35.6665 46.8631 37.2858 47.8037C55.8213 58.482 78.7396 64.9061 102.414 64.9061C118.38 64.9061 135.944 61.6353 152.094 54.8478C154.533 53.8216 156.574 56.4297 154.188 58.1827Z" fill="#FF9900"/>
<path id="path10" fill-rule="evenodd" clip-rule="evenodd" d="M160.179 51.3953C158.344 49.0651 148.002 50.2943 143.36 50.8395C141.946 51.0105 141.73 49.792 143.004 48.9155C151.241 43.1755 164.756 44.8323 166.332 46.7563C167.909 48.691 165.922 62.1057 158.182 68.5084C156.995 69.4918 155.861 68.968 156.39 67.664C158.128 63.367 162.025 53.7362 160.179 51.3953Z" fill="#FF9900"/>
<path id="path12" fill-rule="evenodd" clip-rule="evenodd" d="M143.684 8.39344V2.81378C143.684 1.96935 144.332 1.40283 145.109 1.40283H170.337C171.147 1.40283 171.795 1.98004 171.795 2.81378V7.59176C171.784 8.39344 171.104 9.44096 169.895 11.0978L156.822 29.579C161.68 29.4615 166.807 30.1776 171.212 32.6361C172.205 33.1919 172.475 34.0043 172.55 34.806V40.7597C172.55 41.5721 171.644 42.5234 170.694 42.0317C162.932 38.002 152.622 37.5637 144.04 42.0745C143.166 42.5448 142.248 41.6042 142.248 40.7918V35.1373C142.248 34.2288 142.259 32.6788 143.176 31.3L158.322 9.7937H145.141C144.332 9.7937 143.684 9.22718 143.684 8.39344Z" fill="black"/>
<path id="path14" fill-rule="evenodd" clip-rule="evenodd" d="M51.6544 43.2075H43.9789C43.2448 43.154 42.6619 42.6089 42.6079 41.9141V2.90996C42.6079 2.12967 43.2664 1.5097 44.0869 1.5097H51.2441C51.989 1.54175 52.5828 2.10828 52.6367 2.81376V7.91242H52.7771C54.6447 2.98478 58.1531 0.686646 62.8815 0.686646C67.6854 0.686646 70.6864 2.98478 72.8455 7.91242C74.7023 2.98478 78.9232 0.686646 83.4465 0.686646C86.6635 0.686646 90.1827 2.00139 92.331 4.95156C94.7599 8.23308 94.2633 13.0004 94.2633 17.1798L94.2525 41.7965C94.2525 42.5768 93.594 43.2075 92.7736 43.2075H85.1089C84.3425 43.154 83.7272 42.5448 83.7272 41.7965V21.124C83.7272 19.4779 83.8783 15.3733 83.5112 13.8127C82.9391 11.1939 81.2226 10.4564 78.9988 10.4564C77.142 10.4564 75.1989 11.6856 74.4108 13.6524C73.6228 15.6192 73.6983 18.9114 73.6983 21.124V41.7965C73.6983 42.5768 73.0398 43.2075 72.2194 43.2075H64.5547C63.7775 43.154 63.1729 42.5448 63.1729 41.7965L63.1621 21.124C63.1621 16.7736 63.8854 10.3709 58.4338 10.3709C52.9174 10.3709 53.1333 16.6132 53.1333 21.124V41.7965C53.1333 42.5768 52.4748 43.2075 51.6544 43.2075Z" fill="black"/>
<path id="path16" fill-rule="evenodd" clip-rule="evenodd" d="M193.515 0.686646C204.904 0.686646 211.068 10.3709 211.068 22.6846C211.068 34.5815 204.256 44.0198 193.515 44.0198C182.331 44.0198 176.243 34.3356 176.243 22.2677C176.243 10.125 182.407 0.686646 193.515 0.686646ZM193.58 8.64995C187.923 8.64995 187.567 16.2819 187.567 21.0385C187.567 25.8058 187.491 35.9817 193.515 35.9817C199.463 35.9817 199.744 27.7726 199.744 22.7701C199.744 19.4779 199.604 15.5444 198.6 12.4232C197.736 9.70817 196.02 8.64995 193.58 8.64995Z" fill="black"/>
<path id="path18" fill-rule="evenodd" clip-rule="evenodd" d="M225.836 43.2075H218.193C217.426 43.154 216.811 42.5448 216.811 41.7965L216.8 2.78169C216.865 2.06553 217.502 1.5097 218.279 1.5097H225.393C226.063 1.54175 226.613 1.99071 226.764 2.59998V8.56444H226.905C229.053 3.23063 232.065 0.686646 237.365 0.686646C240.809 0.686646 244.166 1.91588 246.325 5.28291C248.333 8.4041 248.333 13.6524 248.333 17.4256V41.9783C248.247 42.6623 247.61 43.2075 246.854 43.2075H239.157C238.456 43.154 237.873 42.641 237.797 41.9783V20.7927C237.797 16.5277 238.294 10.2854 232.993 10.2854C231.126 10.2854 229.409 11.5253 228.556 13.4066C227.477 15.7902 227.336 18.1632 227.336 20.7927V41.7965C227.326 42.5768 226.656 43.2075 225.836 43.2075Z" fill="black"/>
<path id="path28" fill-rule="evenodd" clip-rule="evenodd" d="M123.573 24.5765C123.573 27.5374 123.648 30.0065 122.137 32.636C120.917 34.7738 118.974 36.0886 116.826 36.0886C113.879 36.0886 112.151 33.8653 112.151 30.5837C112.151 24.1062 118.013 22.9304 123.573 22.9304V24.5765ZM131.313 43.1006C130.806 43.5495 130.071 43.5816 129.499 43.2823C126.952 41.1872 126.487 40.2145 125.095 38.2157C120.885 42.4699 117.894 43.7419 112.443 43.7419C105.976 43.7419 100.957 39.7977 100.957 31.8985C100.957 25.7309 104.325 21.5302 109.139 19.4779C113.306 17.6607 119.125 17.3401 123.573 16.8377V15.8543C123.573 14.0479 123.713 11.9101 122.633 10.3495C121.705 8.94921 119.913 8.37201 118.326 8.37201C115.401 8.37201 112.799 9.85778 112.162 12.9362C112.033 13.6203 111.525 14.2937 110.823 14.3258L103.385 13.5348C102.759 13.3958 102.058 12.8934 102.241 11.9421C103.947 3.00613 112.108 0.3125 119.406 0.3125C123.141 0.3125 128.02 1.29589 130.967 4.09641C134.703 7.54895 134.346 12.1559 134.346 17.1691V29.0125C134.346 32.5719 135.836 34.1325 137.239 36.0565C137.725 36.7406 137.833 37.5637 137.207 38.0767C135.642 39.3701 132.857 41.7751 131.324 43.1219L131.313 43.1006Z" fill="black"/>
<path id="path30" fill-rule="evenodd" clip-rule="evenodd" d="M22.9496 24.5765C22.9496 27.5374 23.0252 30.0065 21.5138 32.636C20.294 34.7738 18.3616 36.0886 16.2026 36.0886C13.2554 36.0886 11.539 33.8653 11.539 30.5837C11.539 24.1062 17.4008 22.9304 22.9496 22.9304V24.5765ZM30.6898 43.1006C30.1824 43.5495 29.4484 43.5816 28.8762 43.2823C26.3285 41.1872 25.8751 40.2145 24.4717 38.2157C20.2616 42.4699 17.2821 43.7419 11.8197 43.7419C5.36409 43.7419 0.333496 39.7977 0.333496 31.8985C0.333496 25.7309 3.71242 21.5302 8.51632 19.4779C12.6833 17.6607 18.502 17.3401 22.9496 16.8377V15.8543C22.9496 14.0479 23.09 11.9101 22.0212 10.3495C21.082 8.94921 19.29 8.37201 17.7139 8.37201C14.7884 8.37201 12.1759 9.85778 11.539 12.9362C11.4095 13.6203 10.9021 14.2937 10.2112 14.3258L2.76243 13.5348C2.13631 13.3958 1.44541 12.8934 1.61813 11.9421C3.33458 3.00613 11.485 0.3125 18.7826 0.3125C22.5178 0.3125 27.3973 1.29589 30.3444 4.09641C34.0795 7.54895 33.7233 12.1559 33.7233 17.1691V29.0125C33.7233 32.5719 35.2131 34.1325 36.6164 36.0565C37.113 36.7406 37.221 37.5637 36.5948 38.0767C35.0295 39.3701 32.2443 41.7751 30.7114 43.1219L30.6898 43.1006Z" fill="black"/>
</g>
<defs>
<clipPath id="clip0_2807_1492">
<rect width="248" height="74" fill="white" transform="translate(0.333496 0.3125)"/>
</clipPath>
</defs>
</svg>
