<svg width="25" height="25" viewBox="0 0 25 25" fill="none" xmlns="http://www.w3.org/2000/svg">
<g id="arrow-up-right">
<g id="Vector">
<path fill-rule="evenodd" clip-rule="evenodd" d="M19.0303 5.85163C19.3232 6.14452 19.3232 6.61939 19.0303 6.91229L7.03033 18.9123C6.73744 19.2052 6.26256 19.2052 5.96967 18.9123C5.67678 18.6194 5.67678 18.1445 5.96967 17.8516L17.9697 5.85163C18.2626 5.55873 18.7374 5.55873 19.0303 5.85163Z" fill="white"/>
<path fill-rule="evenodd" clip-rule="evenodd" d="M8 6.38196C8 5.96774 8.33579 5.63196 8.75 5.63196H18.5C18.9142 5.63196 19.25 5.96774 19.25 6.38196V16.132C19.25 16.5462 18.9142 16.882 18.5 16.882C18.0858 16.882 17.75 16.5462 17.75 16.132V7.13196H8.75C8.33579 7.13196 8 6.79617 8 6.38196Z" fill="white"/>
</g>
</g>
</svg>
