<svg width="16" height="16" viewBox="0 0 16 16" fill="none" xmlns="http://www.w3.org/2000/svg">
<g id="backpack">
<g id="Vector">
<path fill-rule="evenodd" clip-rule="evenodd" d="M6 3.5C5.33696 3.5 4.70107 3.76339 4.23223 4.23223C3.76339 4.70107 3.5 5.33696 3.5 6V13.5H12.5V6C12.5 5.33696 12.2366 4.70107 11.7678 4.23223C11.2989 3.76339 10.663 3.5 10 3.5H6ZM6 2.5C5.07174 2.5 4.1815 2.86875 3.52513 3.52513C2.86875 4.1815 2.5 5.07174 2.5 6V13.5C2.5 13.7652 2.60536 14.0196 2.79289 14.2071C2.98043 14.3946 3.23478 14.5 3.5 14.5H12.5C12.7652 14.5 13.0196 14.3946 13.2071 14.2071C13.3946 14.0196 13.5 13.7652 13.5 13.5V6C13.5 5.07174 13.1313 4.1815 12.4749 3.52513C11.8185 2.86875 10.9283 2.5 10 2.5H6Z" fill="#4B4B4B"/>
<path fill-rule="evenodd" clip-rule="evenodd" d="M6 9C5.86739 9 5.74022 9.05268 5.64645 9.14645C5.55268 9.24022 5.5 9.36739 5.5 9.5V14C5.5 14.2761 5.27614 14.5 5 14.5C4.72386 14.5 4.5 14.2761 4.5 14V9.5C4.5 9.10217 4.65804 8.72064 4.93934 8.43934C5.22064 8.15804 5.60217 8 6 8H10C10.3978 8 10.7794 8.15804 11.0607 8.43934C11.342 8.72064 11.5 9.10217 11.5 9.5V14C11.5 14.2761 11.2761 14.5 11 14.5C10.7239 14.5 10.5 14.2761 10.5 14V9.5C10.5 9.36739 10.4473 9.24022 10.3536 9.14645C10.2598 9.05268 10.1326 9 10 9H6Z" fill="#4B4B4B"/>
<path fill-rule="evenodd" clip-rule="evenodd" d="M7 1.5C6.86739 1.5 6.74021 1.55268 6.64645 1.64645C6.55268 1.74021 6.5 1.86739 6.5 2V3C6.5 3.27614 6.27614 3.5 6 3.5C5.72386 3.5 5.5 3.27614 5.5 3V2C5.5 1.60217 5.65804 1.22064 5.93934 0.93934C6.22064 0.658035 6.60218 0.5 7 0.5H9C9.39782 0.5 9.77936 0.658035 10.0607 0.93934C10.342 1.22064 10.5 1.60217 10.5 2V3C10.5 3.27614 10.2761 3.5 10 3.5C9.72386 3.5 9.5 3.27614 9.5 3V2C9.5 1.86739 9.44732 1.74021 9.35355 1.64645C9.25978 1.55268 9.13261 1.5 9 1.5H7Z" fill="#4B4B4B"/>
<path fill-rule="evenodd" clip-rule="evenodd" d="M6.5 5.5C6.5 5.22386 6.72386 5 7 5H9C9.27614 5 9.5 5.22386 9.5 5.5C9.5 5.77614 9.27614 6 9 6H7C6.72386 6 6.5 5.77614 6.5 5.5Z" fill="#4B4B4B"/>
<path fill-rule="evenodd" clip-rule="evenodd" d="M4.5 10.5C4.5 10.2239 4.72386 10 5 10H11C11.2761 10 11.5 10.2239 11.5 10.5C11.5 10.7761 11.2761 11 11 11H5C4.72386 11 4.5 10.7761 4.5 10.5Z" fill="#4B4B4B"/>
<path fill-rule="evenodd" clip-rule="evenodd" d="M9 10C9.27614 10 9.5 10.2239 9.5 10.5V11.5C9.5 11.7761 9.27614 12 9 12C8.72386 12 8.5 11.7761 8.5 11.5V10.5C8.5 10.2239 8.72386 10 9 10Z" fill="#4B4B4B"/>
</g>
</g>
</svg>
