<svg width="20" height="20" viewBox="0 0 20 20" fill="none" xmlns="http://www.w3.org/2000/svg">
<g id="backpack">
<g id="Vector">
<path fill-rule="evenodd" clip-rule="evenodd" d="M7.5 4.375C6.6712 4.375 5.87634 4.70424 5.29029 5.29029C4.70424 5.87634 4.375 6.6712 4.375 7.5V16.875H15.625V7.5C15.625 6.6712 15.2958 5.87634 14.7097 5.29029C14.1237 4.70424 13.3288 4.375 12.5 4.375H7.5ZM7.5 3.125C6.33968 3.125 5.22688 3.58594 4.40641 4.40641C3.58594 5.22688 3.125 6.33968 3.125 7.5V16.875C3.125 17.2065 3.2567 17.5245 3.49112 17.7589C3.72554 17.9933 4.04348 18.125 4.375 18.125H15.625C15.9565 18.125 16.2745 17.9933 16.5089 17.7589C16.7433 17.5245 16.875 17.2065 16.875 16.875V7.5C16.875 6.33968 16.4141 5.22688 15.5936 4.40641C14.7731 3.58594 13.6603 3.125 12.5 3.125H7.5Z" fill="#F0F0F0"/>
<path fill-rule="evenodd" clip-rule="evenodd" d="M7.5 11.25C7.33424 11.25 7.17527 11.3158 7.05806 11.4331C6.94085 11.5503 6.875 11.7092 6.875 11.875V17.5C6.875 17.8452 6.59518 18.125 6.25 18.125C5.90482 18.125 5.625 17.8452 5.625 17.5V11.875C5.625 11.3777 5.82254 10.9008 6.17418 10.5492C6.52581 10.1975 7.00272 10 7.5 10H12.5C12.9973 10 13.4742 10.1975 13.8258 10.5492C14.1775 10.9008 14.375 11.3777 14.375 11.875V17.5C14.375 17.8452 14.0952 18.125 13.75 18.125C13.4048 18.125 13.125 17.8452 13.125 17.5V11.875C13.125 11.7092 13.0592 11.5503 12.9419 11.4331C12.8247 11.3158 12.6658 11.25 12.5 11.25H7.5Z" fill="#F0F0F0"/>
<path fill-rule="evenodd" clip-rule="evenodd" d="M8.75 1.875C8.58424 1.875 8.42527 1.94085 8.30806 2.05806C8.19085 2.17527 8.125 2.33424 8.125 2.5V3.75C8.125 4.09518 7.84518 4.375 7.5 4.375C7.15482 4.375 6.875 4.09518 6.875 3.75V2.5C6.875 2.00272 7.07254 1.52581 7.42418 1.17417C7.77581 0.822544 8.25272 0.625 8.75 0.625H11.25C11.7473 0.625 12.2242 0.822544 12.5758 1.17417C12.9275 1.52581 13.125 2.00272 13.125 2.5V3.75C13.125 4.09518 12.8452 4.375 12.5 4.375C12.1548 4.375 11.875 4.09518 11.875 3.75V2.5C11.875 2.33424 11.8092 2.17527 11.6919 2.05806C11.5747 1.94085 11.4158 1.875 11.25 1.875H8.75Z" fill="#F0F0F0"/>
<path fill-rule="evenodd" clip-rule="evenodd" d="M8.125 6.875C8.125 6.52982 8.40482 6.25 8.75 6.25H11.25C11.5952 6.25 11.875 6.52982 11.875 6.875C11.875 7.22018 11.5952 7.5 11.25 7.5H8.75C8.40482 7.5 8.125 7.22018 8.125 6.875Z" fill="#F0F0F0"/>
<path fill-rule="evenodd" clip-rule="evenodd" d="M5.625 13.125C5.625 12.7798 5.90482 12.5 6.25 12.5H13.75C14.0952 12.5 14.375 12.7798 14.375 13.125C14.375 13.4702 14.0952 13.75 13.75 13.75H6.25C5.90482 13.75 5.625 13.4702 5.625 13.125Z" fill="#F0F0F0"/>
<path fill-rule="evenodd" clip-rule="evenodd" d="M11.25 12.5C11.5952 12.5 11.875 12.7798 11.875 13.125V14.375C11.875 14.7202 11.5952 15 11.25 15C10.9048 15 10.625 14.7202 10.625 14.375V13.125C10.625 12.7798 10.9048 12.5 11.25 12.5Z" fill="#F0F0F0"/>
</g>
</g>
</svg>
