<svg width="21" height="20" viewBox="0 0 21 20" fill="none" xmlns="http://www.w3.org/2000/svg">
<g id="bank">
<path id="Vector" d="M19.875 16.25C19.875 16.4158 19.8092 16.5748 19.6919 16.692C19.5747 16.8092 19.4158 16.875 19.25 16.875H1.75C1.58424 16.875 1.42527 16.8092 1.30806 16.692C1.19085 16.5748 1.125 16.4158 1.125 16.25C1.125 16.0843 1.19085 15.9253 1.30806 15.8081C1.42527 15.6909 1.58424 15.625 1.75 15.625H19.25C19.4158 15.625 19.5747 15.6909 19.6919 15.8081C19.8092 15.9253 19.875 16.0843 19.875 16.25ZM1.77344 7.6719C1.73619 7.54092 1.74275 7.40135 1.7921 7.27443C1.84146 7.14751 1.93092 7.04019 2.04687 6.96878L10.1719 1.96878C10.2702 1.90706 10.3839 1.87433 10.5 1.87433C10.6161 1.87433 10.7298 1.90706 10.8281 1.96878L18.9531 6.96878C19.0686 7.04033 19.1576 7.14753 19.2067 7.27417C19.2557 7.40081 19.2622 7.54 19.2251 7.67066C19.1881 7.80132 19.1094 7.91634 19.0011 7.99833C18.8929 8.08031 18.7608 8.12479 18.625 8.12503H16.75V13.125H18C18.1658 13.125 18.3247 13.1909 18.4419 13.3081C18.5592 13.4253 18.625 13.5843 18.625 13.75C18.625 13.9158 18.5592 14.0748 18.4419 14.192C18.3247 14.3092 18.1658 14.375 18 14.375H3C2.83424 14.375 2.67527 14.3092 2.55806 14.192C2.44085 14.0748 2.375 13.9158 2.375 13.75C2.375 13.5843 2.44085 13.4253 2.55806 13.3081C2.67527 13.1909 2.83424 13.125 3 13.125H4.25V8.12503H2.375C2.2391 8.12517 2.10685 8.08102 1.9983 7.99925C1.88975 7.91748 1.81081 7.80256 1.77344 7.6719ZM11.75 12.5C11.75 12.6658 11.8158 12.8248 11.9331 12.942C12.0503 13.0592 12.2092 13.125 12.375 13.125C12.5408 13.125 12.6997 13.0592 12.8169 12.942C12.9342 12.8248 13 12.6658 13 12.5V8.75003C13 8.58427 12.9342 8.4253 12.8169 8.30809C12.6997 8.19088 12.5408 8.12503 12.375 8.12503C12.2092 8.12503 12.0503 8.19088 11.9331 8.30809C11.8158 8.4253 11.75 8.58427 11.75 8.75003V12.5ZM8 12.5C8 12.6658 8.06585 12.8248 8.18306 12.942C8.30027 13.0592 8.45924 13.125 8.625 13.125C8.79076 13.125 8.94973 13.0592 9.06694 12.942C9.18415 12.8248 9.25 12.6658 9.25 12.5V8.75003C9.25 8.58427 9.18415 8.4253 9.06694 8.30809C8.94973 8.19088 8.79076 8.12503 8.625 8.12503C8.45924 8.12503 8.30027 8.19088 8.18306 8.30809C8.06585 8.4253 8 8.58427 8 8.75003V12.5Z" fill="#212121"/>
</g>
</svg>
