<svg xmlns="http://www.w3.org/2000/svg" width="24" height="25" viewBox="0 0 24 25" fill="none">
<path fill-rule="evenodd" clip-rule="evenodd" d="M0.75 21.1895C0.75 20.7752 1.08579 20.4395 1.5 20.4395H22.5C22.9142 20.4395 23.25 20.7752 23.25 21.1895C23.25 21.6037 22.9142 21.9395 22.5 21.9395H1.5C1.08579 21.9395 0.75 21.6037 0.75 21.1895Z" fill="#212121"/>
<path fill-rule="evenodd" clip-rule="evenodd" d="M2.68934 3.62879C2.97064 3.34749 3.35217 3.18945 3.75 3.18945H12.75C13.1478 3.18945 13.5294 3.34749 13.8107 3.62879C14.092 3.9101 14.25 4.29163 14.25 4.68945V21.1895C14.25 21.6037 13.9142 21.9395 13.5 21.9395C13.0858 21.9395 12.75 21.6037 12.75 21.1895V4.68945H3.75V21.1895C3.75 21.6037 3.41421 21.9395 3 21.9395C2.58579 21.9395 2.25 21.6037 2.25 21.1895V4.68945C2.25 4.29163 2.40804 3.9101 2.68934 3.62879Z" fill="#212121"/>
<path fill-rule="evenodd" clip-rule="evenodd" d="M12.75 9.93945C12.75 9.52524 13.0858 9.18945 13.5 9.18945H20.25C20.6478 9.18945 21.0294 9.34749 21.3107 9.62879C21.592 9.9101 21.75 10.2916 21.75 10.6895V21.1895C21.75 21.6037 21.4142 21.9395 21 21.9395C20.5858 21.9395 20.25 21.6037 20.25 21.1895V10.6895H13.5C13.0858 10.6895 12.75 10.3537 12.75 9.93945Z" fill="#212121"/>
<path fill-rule="evenodd" clip-rule="evenodd" d="M5.25 7.68945C5.25 7.27524 5.58579 6.93945 6 6.93945H9C9.41421 6.93945 9.75 7.27524 9.75 7.68945C9.75 8.10367 9.41421 8.43945 9 8.43945H6C5.58579 8.43945 5.25 8.10367 5.25 7.68945Z" fill="#212121"/>
<path fill-rule="evenodd" clip-rule="evenodd" d="M6.75 13.6895C6.75 13.2752 7.08579 12.9395 7.5 12.9395H10.5C10.9142 12.9395 11.25 13.2752 11.25 13.6895C11.25 14.1037 10.9142 14.4395 10.5 14.4395H7.5C7.08579 14.4395 6.75 14.1037 6.75 13.6895Z" fill="#212121"/>
<path fill-rule="evenodd" clip-rule="evenodd" d="M5.25 17.4395C5.25 17.0252 5.58579 16.6895 6 16.6895H9C9.41421 16.6895 9.75 17.0252 9.75 17.4395C9.75 17.8537 9.41421 18.1895 9 18.1895H6C5.58579 18.1895 5.25 17.8537 5.25 17.4395Z" fill="#212121"/>
<path fill-rule="evenodd" clip-rule="evenodd" d="M15.75 17.4395C15.75 17.0252 16.0858 16.6895 16.5 16.6895H18C18.4142 16.6895 18.75 17.0252 18.75 17.4395C18.75 17.8537 18.4142 18.1895 18 18.1895H16.5C16.0858 18.1895 15.75 17.8537 15.75 17.4395Z" fill="#212121"/>
<path fill-rule="evenodd" clip-rule="evenodd" d="M15.75 13.6895C15.75 13.2752 16.0858 12.9395 16.5 12.9395H18C18.4142 12.9395 18.75 13.2752 18.75 13.6895C18.75 14.1037 18.4142 14.4395 18 14.4395H16.5C16.0858 14.4395 15.75 14.1037 15.75 13.6895Z" fill="#212121"/>
</svg>