<svg xmlns="http://www.w3.org/2000/svg" width="21" height="20" viewBox="0 0 21 20" fill="none">
  <path fill-rule="evenodd" clip-rule="evenodd" d="M3.34766 3.75002C3.34766 3.05966 3.9073 2.50002 4.59766 2.50002H17.0977C17.788 2.50002 18.3477 3.05966 18.3477 3.75002V16.25C18.3477 16.9404 17.788 17.5 17.0977 17.5H4.59766C3.9073 17.5 3.34766 16.9404 3.34766 16.25V3.75002ZM17.0977 3.75002H4.59766V16.25H17.0977V3.75002Z" fill="#4B4B4B"/>
  <path fill-rule="evenodd" clip-rule="evenodd" d="M14.5977 1.25002C14.9428 1.25002 15.2227 1.52984 15.2227 1.87502V4.37502C15.2227 4.72019 14.9428 5.00002 14.5977 5.00002C14.2525 5.00002 13.9727 4.72019 13.9727 4.37502V1.87502C13.9727 1.52984 14.2525 1.25002 14.5977 1.25002Z" fill="#4B4B4B"/>
  <path fill-rule="evenodd" clip-rule="evenodd" d="M7.09766 1.25002C7.44283 1.25002 7.72266 1.52984 7.72266 1.87502V4.37502C7.72266 4.72019 7.44283 5.00002 7.09766 5.00002C6.75248 5.00002 6.47266 4.72019 6.47266 4.37502V1.87502C6.47266 1.52984 6.75248 1.25002 7.09766 1.25002Z" fill="#4B4B4B"/>
  <path fill-rule="evenodd" clip-rule="evenodd" d="M3.34766 6.87502C3.34766 6.52984 3.62748 6.25002 3.97266 6.25002H17.7227C18.0678 6.25002 18.3477 6.52984 18.3477 6.87502C18.3477 7.22019 18.0678 7.50002 17.7227 7.50002H3.97266C3.62748 7.50002 3.34766 7.22019 3.34766 6.87502Z" fill="#4B4B4B"/>
</svg>