<svg width="80" height="80" viewBox="0 0 80 80" fill="none" xmlns="http://www.w3.org/2000/svg">
<rect width="80" height="80" rx="8" fill="url(#paint0_linear_4420_1316)"/>
<path d="M40 41.3281C40 41.7259 39.842 42.1075 39.5607 42.3888C39.2794 42.6701 38.8978 42.8281 38.5 42.8281H29.5C29.1022 42.8281 28.7206 42.6701 28.4393 42.3888C28.158 42.1075 28 41.7259 28 41.3281C28 40.9303 28.158 40.5488 28.4393 40.2675C28.7206 39.9862 29.1022 39.8281 29.5 39.8281H38.5C38.8978 39.8281 39.2794 39.9862 39.5607 40.2675C39.842 40.5488 40 40.9303 40 41.3281ZM38.5 33.8281H29.5C29.1022 33.8281 28.7206 33.9862 28.4393 34.2675C28.158 34.5488 28 34.9303 28 35.3281C28 35.7259 28.158 36.1075 28.4393 36.3888C28.7206 36.6701 29.1022 36.8281 29.5 36.8281H38.5C38.8978 36.8281 39.2794 36.6701 39.5607 36.3888C39.842 36.1075 40 35.7259 40 35.3281C40 34.9303 39.842 34.5488 39.5607 34.2675C39.2794 33.9862 38.8978 33.8281 38.5 33.8281ZM59.5 46.1038V57.8281C59.5024 58.0926 59.4348 58.3529 59.3041 58.5829C59.1734 58.8128 58.9843 59.004 58.7559 59.1373C58.5274 59.2705 58.2678 59.341 58.0034 59.3416C57.7389 59.3422 57.479 59.2729 57.25 59.1406L52.75 56.5644L48.25 59.1406C48.021 59.2729 47.7611 59.3422 47.4966 59.3416C47.2322 59.341 46.9726 59.2705 46.7441 59.1373C46.5157 59.004 46.3266 58.8128 46.1959 58.5829C46.0652 58.3529 45.9976 58.0926 46 57.8281V53.3281H23.5C22.7044 53.3281 21.9413 53.0121 21.3787 52.4494C20.8161 51.8868 20.5 51.1238 20.5 50.3281V26.3281C20.5 25.5325 20.8161 24.7694 21.3787 24.2068C21.9413 23.6442 22.7044 23.3281 23.5 23.3281H56.5C57.2956 23.3281 58.0587 23.6442 58.6213 24.2068C59.1839 24.7694 59.5 25.5325 59.5 26.3281V32.0525C60.4482 32.9605 61.2028 34.0511 61.7183 35.2585C62.2338 36.466 62.4996 37.7653 62.4996 39.0781C62.4996 40.391 62.2338 41.6903 61.7183 42.8977C61.2028 44.1051 60.4482 45.1957 59.5 46.1038ZM46 50.3281V46.1038C44.3654 44.5273 43.3323 42.4297 43.0791 40.173C42.8259 37.9162 43.3683 35.6418 44.6129 33.7423C45.8575 31.8428 47.7261 30.4373 49.8962 29.7683C52.0664 29.0994 54.402 29.209 56.5 30.0781V26.3281H23.5V50.3281H46ZM56.5 48.0781C55.3121 48.5744 54.0374 48.83 52.75 48.83C51.4626 48.83 50.1879 48.5744 49 48.0781V55.2444L52 53.5269C52.2267 53.3973 52.4833 53.3291 52.7444 53.3291C53.0055 53.3291 53.2621 53.3973 53.4888 53.5269L56.4888 55.2444L56.5 48.0781ZM59.5 39.0781C59.5 37.7431 59.1041 36.4381 58.3624 35.328C57.6207 34.218 56.5665 33.3528 55.3331 32.8419C54.0997 32.331 52.7425 32.1974 51.4331 32.4578C50.1238 32.7183 48.921 33.3612 47.977 34.3052C47.033 35.2492 46.3901 36.4519 46.1297 37.7613C45.8692 39.0706 46.0029 40.4278 46.5138 41.6612C47.0247 42.8946 47.8899 43.9488 48.9999 44.6905C50.1099 45.4322 51.415 45.8281 52.75 45.8281C53.6364 45.8281 54.5142 45.6535 55.3331 45.3143C56.1521 44.9751 56.8962 44.4779 57.523 43.8511C58.1498 43.2243 58.647 42.4802 58.9862 41.6612C59.3254 40.8423 59.5 39.9645 59.5 39.0781Z" fill="white"/>
<defs>
<linearGradient id="paint0_linear_4420_1316" x1="40" y1="0" x2="40" y2="80" gradientUnits="userSpaceOnUse">
<stop/>
<stop offset="1" stop-color="#0052FF"/>
</linearGradient>
</defs>
</svg>
