<svg xmlns="http://www.w3.org/2000/svg" width="40" height="40" viewBox="0 0 40 40" fill="none">
  <path d="M19.5833 20C19.5833 20.3315 19.4516 20.6495 19.2171 20.8839C18.9827 21.1183 18.6648 21.25 18.3333 21.25H10.8333C10.5017 21.25 10.1838 21.1183 9.94937 20.8839C9.71495 20.6495 9.58325 20.3315 9.58325 20C9.58325 19.6685 9.71495 19.3505 9.94937 19.1161C10.1838 18.8817 10.5017 18.75 10.8333 18.75H18.3333C18.6648 18.75 18.9827 18.8817 19.2171 19.1161C19.4516 19.3505 19.5833 19.6685 19.5833 20ZM18.3333 13.75H10.8333C10.5017 13.75 10.1838 13.8817 9.94937 14.1161C9.71495 14.3505 9.58325 14.6685 9.58325 15C9.58325 15.3315 9.71495 15.6495 9.94937 15.8839C10.1838 16.1183 10.5017 16.25 10.8333 16.25H18.3333C18.6648 16.25 18.9827 16.1183 19.2171 15.8839C19.4516 15.6495 19.5833 15.3315 19.5833 15C19.5833 14.6685 19.4516 14.3505 19.2171 14.1161C18.9827 13.8817 18.6648 13.75 18.3333 13.75ZM35.8333 23.9797V33.75C35.8352 33.9704 35.7789 34.1873 35.67 34.3789C35.5611 34.5705 35.4035 34.7299 35.2131 34.841C35.0228 34.952 34.8064 35.0108 34.5861 35.0112C34.3657 35.0117 34.1491 34.9539 33.9583 34.8438L30.2083 32.6969L26.4583 34.8438C26.2674 34.9539 26.0508 35.0117 25.8304 35.0112C25.6101 35.0108 25.3937 34.952 25.2034 34.841C25.013 34.7299 24.8554 34.5705 24.7465 34.3789C24.6376 34.1873 24.5813 33.9704 24.5833 33.75V30H5.83325C5.17021 30 4.53433 29.7366 4.06548 29.2678C3.59664 28.7989 3.33325 28.163 3.33325 27.5V7.5C3.33325 6.83696 3.59664 6.20107 4.06548 5.73223C4.53433 5.26339 5.17021 5 5.83325 5H33.3333C33.9963 5 34.6322 5.26339 35.101 5.73223C35.5699 6.20107 35.8333 6.83696 35.8333 7.5V12.2703C36.6234 13.027 37.2523 13.9358 37.6818 14.942C38.1114 15.9482 38.3329 17.0309 38.3329 18.125C38.3329 19.2191 38.1114 20.3018 37.6818 21.308C37.2523 22.3142 36.6234 23.223 35.8333 23.9797ZM24.5833 27.5V23.9797C23.2211 22.666 22.3602 20.918 22.1492 19.0374C21.9381 17.1567 22.3902 15.2614 23.4273 13.6785C24.4645 12.0956 26.0216 10.9243 27.8301 10.3668C29.6386 9.80939 31.5849 9.90069 33.3333 10.625V7.5H5.83325V27.5H24.5833ZM33.3333 25.625C32.3433 26.0386 31.2811 26.2516 30.2083 26.2516C29.1354 26.2516 28.0732 26.0386 27.0833 25.625V31.5969L29.5833 30.1656C29.7722 30.0576 29.986 30.0008 30.2036 30.0008C30.4212 30.0008 30.635 30.0576 30.8239 30.1656L33.3239 31.5969L33.3333 25.625ZM35.8333 18.125C35.8333 17.0125 35.5034 15.9249 34.8853 14.9999C34.2672 14.0749 33.3887 13.3539 32.3608 12.9282C31.333 12.5024 30.202 12.391 29.1109 12.6081C28.0197 12.8251 27.0174 13.3609 26.2308 14.1475C25.4441 14.9342 24.9084 15.9365 24.6913 17.0276C24.4743 18.1188 24.5857 19.2498 25.0114 20.2776C25.4372 21.3054 26.1581 22.1839 27.0832 22.802C28.0082 23.4201 29.0957 23.75 30.2083 23.75C30.9469 23.75 31.6784 23.6045 32.3608 23.3218C33.0433 23.0391 33.6634 22.6248 34.1857 22.1025C34.7081 21.5801 35.1224 20.96 35.4051 20.2776C35.6878 19.5951 35.8333 18.8637 35.8333 18.125Z" fill="#212121"/>
</svg>