<?xml version="1.0" encoding="UTF-8"?>
<svg version="1.1" xmlns="http://www.w3.org/2000/svg" width="128" height="128">
<path d="M0 0 C0.59973633 0.25281738 1.19947266 0.50563477 1.81738281 0.76611328 C19.63931127 8.44318485 30.54539149 20.0085817 38.73828125 37.62890625 C43.77718671 51.09198801 44.74032676 69.66388732 39 83 C38.74718262 83.59973633 38.49436523 84.19947266 38.23388672 84.81738281 C30.55681515 102.63931127 18.9914183 113.54539149 1.37109375 121.73828125 C-12.09198801 126.77718671 -30.66388732 127.74032676 -44 122 C-44.59973633 121.74718262 -45.19947266 121.49436523 -45.81738281 121.23388672 C-63.63931127 113.55681515 -74.54539149 101.9914183 -82.73828125 84.37109375 C-87.77718671 70.90801199 -88.74032676 52.33611268 -83 39 C-82.74718262 38.40026367 -82.49436523 37.80052734 -82.23388672 37.18261719 C-74.55681515 19.36068873 -62.9914183 8.45460851 -45.37109375 0.26171875 C-31.90801199 -4.77718671 -13.33611268 -5.74032676 0 0 Z " fill="#25B7D3" transform="translate(86,3)"/>
<path d="M0 0 C5.28142688 1.58515014 8.10440552 4.77912547 11.89282227 8.64331055 C12.63274414 9.34327148 13.37266602 10.04323242 14.13500977 10.7644043 C14.82852539 11.45920898 15.52204102 12.15401367 16.23657227 12.86987305 C16.86756836 13.49716309 17.49856445 14.12445313 18.14868164 14.77075195 C20.05232782 18.20971716 19.43212519 20.2962675 18.39282227 24.01831055 C16.26318359 26.92431641 16.26318359 26.92431641 13.47485352 29.7331543 C12.73255745 30.4840609 12.73255745 30.4840609 11.9752655 31.25013733 C10.93097482 32.29849081 9.87914873 33.33938645 8.8203125 34.37304688 C7.20592944 35.95521549 5.62616643 37.56697514 4.04711914 39.18432617 C3.02494936 40.20253208 2.0009204 41.2188757 0.97485352 42.2331543 C-0.41382935 43.61168579 -0.41382935 43.61168579 -1.83056641 45.01806641 C-5.08479464 47.36238118 -6.68211188 47.57764373 -10.60717773 47.01831055 C-12.29467773 45.51831055 -12.29467773 45.51831055 -13.60717773 44.01831055 C-14.59717773 44.01831055 -15.58717773 44.01831055 -16.60717773 44.01831055 C-16.03372836 46.88555741 -15.74572623 47.87976205 -13.60717773 50.01831055 C-13.00653614 53.95031723 -13.2592237 55.53530294 -15.60742188 58.79492188 C-16.52644287 59.72071045 -17.44546387 60.64649902 -18.39233398 61.6003418 C-18.8862413 62.09998947 -19.38014862 62.59963715 -19.88902283 63.11442566 C-20.9350889 64.16456407 -21.98872847 65.20720576 -23.04931641 66.24267578 C-24.66151934 67.82281441 -26.23927418 69.43231286 -27.81616211 71.04760742 C-28.83963521 72.06711416 -29.8649688 73.08475726 -30.89233398 74.1003418 C-31.81925049 75.02049072 -32.74616699 75.94063965 -33.70117188 76.88867188 C-37.16800527 79.42930766 -39.32410531 80.0241504 -43.60717773 80.01831055 C-45.85473633 78.77416992 -45.85473633 78.77416992 -47.75561523 76.86206055 C-48.79782227 75.82178711 -48.79782227 75.82178711 -49.86108398 74.76049805 C-50.56104492 74.02057617 -51.26100586 73.2806543 -51.98217773 72.51831055 C-52.7053418 71.80932617 -53.42850586 71.1003418 -54.17358398 70.36987305 C-58.38775047 66.05292201 -60.63927761 63.3419859 -60.60717773 57.01831055 C-59.01268293 54.62159103 -57.70070661 53.03023285 -55.66577148 51.0847168 C-54.88593651 50.30051613 -54.88593651 50.30051613 -54.09034729 49.50047302 C-52.98926918 48.40270667 -51.87829558 47.31478797 -50.75830078 46.23632812 C-49.04961616 44.58558152 -47.38141845 42.90066115 -45.71459961 41.20776367 C-44.63803385 40.14367386 -43.55932457 39.08174744 -42.47827148 38.0222168 C-41.73256142 37.26769981 -41.73256142 37.26769981 -40.9717865 36.49794006 C-38.44287569 34.10177895 -36.90722368 33.05951946 -33.41992188 32.58056641 C-29.8664411 33.13359054 -28.1920167 34.58552093 -25.60717773 37.01831055 C-24.94717773 36.02831055 -24.28717773 35.03831055 -23.60717773 34.01831055 C-24.26717773 33.48206055 -24.92717773 32.94581055 -25.60717773 32.39331055 C-27.60717773 30.01831055 -27.60717773 30.01831055 -28.04492188 27.23681641 C-27.47353011 23.03566881 -25.50527395 21.01534634 -22.60327148 18.1472168 C-22.08716812 17.62062973 -21.57106476 17.09404266 -21.0393219 16.55149841 C-19.94638184 15.44574415 -18.84565887 14.34763546 -17.73779297 13.25683594 C-16.04931808 11.58540405 -14.40154767 9.8800521 -12.75366211 8.16870117 C-11.68496266 7.09677765 -10.61406756 6.02703777 -9.54077148 4.9597168 C-9.05192978 4.44840714 -8.56308807 3.93709747 -8.05943298 3.41029358 C-5.2639816 0.72411581 -3.9255007 0.0199264 0 0 Z " fill="#35B4CC" transform="translate(84.607177734375,23.981689453125)"/>
<path d="M0 0 C2.375 2 2.375 2 4 4 C3.03704221 6.40739448 2.38398674 7.74842248 0.1875 9.1875 C-2 10 -2 10 -4.20703125 10.16015625 C-8.41438967 11.42530598 -10.83328761 14.17464035 -13.875 17.25 C-14.48085938 17.82363281 -15.08671875 18.39726563 -15.7109375 18.98828125 C-19.11607556 22.2431236 -19.11607556 22.2431236 -20.1171875 26.6484375 C-18.8158014 29.38771873 -17.38327379 31.21766673 -15.25 33.375 C-14.57453125 34.08398438 -13.8990625 34.79296875 -13.203125 35.5234375 C-11.11718471 37.19599225 -11.11718471 37.19599225 -8.66015625 37.11328125 C-4.72342789 35.46575176 -2.16065033 32.81879582 0.8125 29.8125 C1.40998047 29.24724609 2.00746094 28.68199219 2.62304688 28.09960938 C6.22186111 24.56111712 6.22186111 24.56111712 7.26171875 19.72265625 C7.17535156 18.82417969 7.08898438 17.92570312 7 17 C9 14.625 9 14.625 11 13 C13.46800047 14.15173355 15.04783565 15.04783565 17 17 C17.6006416 20.93200668 17.34795404 22.5169924 14.99975586 25.77661133 C14.08073486 26.7023999 13.16171387 27.62818848 12.21484375 28.58203125 C11.72093643 29.08167892 11.22702911 29.5813266 10.71815491 30.09611511 C9.67208883 31.14625353 8.61844926 32.18889522 7.55786133 33.22436523 C5.9456584 34.80450386 4.36790355 36.41400231 2.79101562 38.02929688 C1.76754252 39.04880361 0.74220893 40.06644671 -0.28515625 41.08203125 C-1.21207275 42.00218018 -2.13898926 42.9223291 -3.09399414 43.87036133 C-6.56082754 46.41099711 -8.71692758 47.00583985 -13 47 C-15.24755859 45.75585938 -15.24755859 45.75585938 -17.1484375 43.84375 C-17.84324219 43.15023437 -18.53804687 42.45671875 -19.25390625 41.7421875 C-19.95386719 41.00226563 -20.65382813 40.26234375 -21.375 39.5 C-22.09816406 38.79101562 -22.82132813 38.08203125 -23.56640625 37.3515625 C-27.78057274 33.03461146 -30.03209987 30.32367535 -30 24 C-28.4055052 21.60328049 -27.09352887 20.0119223 -25.05859375 18.06640625 C-24.27875877 17.28220558 -24.27875877 17.28220558 -23.48316956 16.48216248 C-22.38209144 15.38439612 -21.27111784 14.29647742 -20.15112305 13.21801758 C-18.44243842 11.56727097 -16.77424071 9.8823506 -15.10742188 8.18945312 C-14.03085612 7.12536331 -12.95214684 6.06343689 -11.87109375 5.00390625 C-11.3739537 4.50089493 -10.87681366 3.99788361 -10.36460876 3.47962952 C-6.93134093 0.22658365 -4.70133888 -0.73988419 0 0 Z " fill="#F8FCFD" transform="translate(54,57)"/>
<path d="M0 0 C5.28142688 1.58515014 8.10440552 4.77912547 11.89282227 8.64331055 C13.00270508 9.69325195 13.00270508 9.69325195 14.13500977 10.7644043 C14.82852539 11.45920898 15.52204102 12.15401367 16.23657227 12.86987305 C16.86756836 13.49716309 17.49856445 14.12445313 18.14868164 14.77075195 C20.05232782 18.20971716 19.43212519 20.2962675 18.39282227 24.01831055 C16.26318359 26.92431641 16.26318359 26.92431641 13.47485352 29.7331543 C12.97998947 30.2337587 12.48512543 30.7343631 11.9752655 31.25013733 C10.93097482 32.29849081 9.87914873 33.33938645 8.8203125 34.37304688 C7.20592944 35.95521549 5.62616643 37.56697514 4.04711914 39.18432617 C3.02494936 40.20253208 2.0009204 41.2188757 0.97485352 42.2331543 C-0.41382935 43.61168579 -0.41382935 43.61168579 -1.83056641 45.01806641 C-5.09713115 47.37126828 -6.66706034 47.61515226 -10.60717773 47.01831055 C-12.98217773 45.01831055 -12.98217773 45.01831055 -14.60717773 43.01831055 C-13.64421994 40.61091606 -12.99116448 39.26988807 -10.79467773 37.83081055 C-8.60717773 37.01831055 -8.60717773 37.01831055 -6.40014648 36.8581543 C-2.19278806 35.59300456 0.22610987 32.8436702 3.26782227 29.76831055 C3.87368164 29.19467773 4.47954102 28.62104492 5.10375977 28.0300293 C8.50889782 24.77518695 8.50889782 24.77518695 9.51000977 20.36987305 C8.20862367 17.63059182 6.77609606 15.80064382 4.64282227 13.64331055 C3.96735352 12.93432617 3.29188477 12.2253418 2.59594727 11.49487305 C0.51000697 9.8223183 0.51000697 9.8223183 -1.94702148 9.9050293 C-5.88374985 11.55255879 -8.4465274 14.19951472 -11.41967773 17.20581055 C-12.0171582 17.77106445 -12.61463867 18.33631836 -13.23022461 18.91870117 C-16.82903884 22.45719343 -16.82903884 22.45719343 -17.86889648 27.2956543 C-17.7825293 28.19413086 -17.69616211 29.09260742 -17.60717773 30.01831055 C-19.60717773 32.39331055 -19.60717773 32.39331055 -21.60717773 34.01831055 C-24.0751782 32.86657699 -25.65501339 31.97047489 -27.60717773 30.01831055 C-28.24509075 25.99906716 -27.91963362 24.45146068 -25.51513672 21.11816406 C-24.56139366 20.1115827 -23.58952871 19.12196218 -22.60327148 18.1472168 C-22.08716812 17.62062973 -21.57106476 17.09404266 -21.0393219 16.55149841 C-19.94638184 15.44574415 -18.84565887 14.34763546 -17.73779297 13.25683594 C-16.04931808 11.58540405 -14.40154767 9.8800521 -12.75366211 8.16870117 C-11.68496266 7.09677765 -10.61406756 6.02703777 -9.54077148 4.9597168 C-9.05192978 4.44840714 -8.56308807 3.93709747 -8.05943298 3.41029358 C-5.2639816 0.72411581 -3.9255007 0.0199264 0 0 Z " fill="#F8FCFD" transform="translate(84.607177734375,23.981689453125)"/>
<path d="M0 0 C0.67546875 0.30164063 1.3509375 0.60328125 2.046875 0.9140625 C1.386875 1.6153125 0.726875 2.3165625 0.046875 3.0390625 C-2.26183928 6.35783927 -2.40239208 7.96051224 -1.953125 11.9140625 C-0.86114358 13.21362585 -0.86114358 13.21362585 1.796875 13.2265625 C5.72371225 12.84898199 7.22034236 11.57432851 10.046875 8.9140625 C10.73486328 11.17626953 10.73486328 11.17626953 11.046875 13.9140625 C9.86279297 15.87451172 9.86279297 15.87451172 8.0390625 17.71875 C7.38164063 18.38390625 6.72421875 19.0490625 6.046875 19.734375 C5.345625 20.41242188 4.644375 21.09046875 3.921875 21.7890625 C3.24382813 22.4903125 2.56578125 23.1915625 1.8671875 23.9140625 C1.20203125 24.57148437 0.536875 25.22890625 -0.1484375 25.90625 C-1.06133545 26.80899658 -1.06133545 26.80899658 -1.99267578 27.72998047 C-3.953125 28.9140625 -3.953125 28.9140625 -6.53515625 28.72021484 C-9.72650849 27.65621595 -11.44567149 26.02308204 -13.828125 23.6640625 C-14.62992188 22.89578125 -15.43171875 22.1275 -16.2578125 21.3359375 C-17.953125 18.9140625 -17.953125 18.9140625 -18.1328125 16.578125 C-16.31017132 12.46209426 -13.37460463 9.67844214 -10.203125 6.5390625 C-9.58179688 5.88550781 -8.96046875 5.23195313 -8.3203125 4.55859375 C-3.66489008 -0.10665024 -3.66489008 -0.10665024 0 0 Z " fill="#2BB8D3" transform="translate(50.953125,66.0859375)"/>
<path d="M0 0 C0.70592285 0.2676416 1.4118457 0.5352832 2.13916016 0.81103516 C2.95019531 2.95019531 2.95019531 2.95019531 3.13916016 5.81103516 C1.54666969 8.01855109 0.08645431 9.70603563 -1.83740234 11.58447266 C-2.359664 12.11247467 -2.88192566 12.64047668 -3.42001343 13.18447876 C-4.52752195 14.29606772 -5.64263395 15.40012518 -6.76464844 16.49707031 C-8.48009284 18.18039576 -10.16119618 19.89330705 -11.84130859 21.61181641 C-12.92142129 22.68796421 -14.00339378 23.76224927 -15.08740234 24.83447266 C-15.58970367 25.34891937 -16.092005 25.86336609 -16.60952759 26.3934021 C-18.07421875 27.80078125 -18.07421875 27.80078125 -20.86083984 29.81103516 C-23.72167969 29.62207031 -23.72167969 29.62207031 -25.86083984 28.81103516 C-26.671875 26.671875 -26.671875 26.671875 -26.86083984 23.81103516 C-25.26834937 21.60351922 -23.808134 19.91603468 -21.88427734 18.03759766 C-21.36201569 17.50959564 -20.83975403 16.98159363 -20.30166626 16.43759155 C-19.19415774 15.3260026 -18.07904574 14.22194513 -16.95703125 13.125 C-15.24158684 11.44167455 -13.5604835 9.72876326 -11.88037109 8.01025391 C-10.80025839 6.9341061 -9.7182859 5.85982104 -8.63427734 4.78759766 C-8.13197601 4.27315094 -7.62967468 3.75870422 -7.1121521 3.22866821 C-3.51067355 -0.23188781 -3.51067355 -0.23188781 0 0 Z " fill="#FBFDFD" transform="translate(75.86083984375,49.18896484375)"/>
</svg>
