<svg width="21" height="22" viewBox="0 0 21 22" fill="none" xmlns="http://www.w3.org/2000/svg">
<g id="funnel">
<path id="Vector" fill-rule="evenodd" clip-rule="evenodd" d="M3.28886 4.625C3.2888 4.625 3.28893 4.625 3.28886 4.625H16.7107C16.9532 4.62508 17.1906 4.69567 17.3937 4.82818C17.5967 4.96068 17.7569 5.14938 17.8546 5.37129C17.9523 5.5932 17.9833 5.83873 17.944 6.07798C17.9047 6.31676 17.7969 6.539 17.6338 6.71771C17.6334 6.71806 17.6331 6.7184 17.6328 6.71875L12.4998 12.3674V16.7867C12.5012 16.9946 12.4503 17.1995 12.3519 17.3827C12.2536 17.5655 12.1111 17.7209 11.9374 17.8344L9.43987 19.4968L9.43733 19.4985C9.24978 19.622 9.03241 19.6928 8.80807 19.7032C8.58373 19.7137 8.36071 19.6636 8.16246 19.558C7.96421 19.4525 7.79805 19.2955 7.68145 19.1036C7.56485 18.9117 7.50211 18.6918 7.49983 18.4673L7.49977 18.4609L7.4998 12.3674L7.49815 12.3657L2.36679 6.71875C2.36651 6.71844 2.36623 6.71814 2.36595 6.71783C2.20276 6.5391 2.09496 6.31682 2.05565 6.07798C2.01628 5.83873 2.04734 5.5932 2.14505 5.37129C2.24275 5.14938 2.40288 4.96068 2.60594 4.82818C2.80886 4.69576 3.04589 4.62517 3.28819 4.625M16.7105 5.875H3.28906L3.29048 5.87655L8.42089 11.5223C8.63429 11.7527 8.75192 12.0556 8.7498 12.3696V18.4546L11.2498 16.7905L11.2498 16.7891L11.2498 12.3696C11.2477 12.0556 11.3653 11.7527 11.5787 11.5223L16.7091 5.87655L16.7105 5.875Z" fill="white"/>
<circle id="Ellipse 1333" cx="16" cy="5" r="4" fill="#FEC601" stroke="#121212" stroke-width="2"/>
</g>
</svg>
