<svg width="20" height="21" viewBox="0 0 20 21" fill="none" xmlns="http://www.w3.org/2000/svg">
<g id="funnel">
<path id="Vector" fill-rule="evenodd" clip-rule="evenodd" d="M3.28906 3.625C3.289 3.625 3.28913 3.625 3.28906 3.625H16.7109C16.9534 3.62508 17.1908 3.69567 17.3939 3.82818C17.5969 3.96068 17.7571 4.14938 17.8548 4.37129C17.9525 4.5932 17.9835 4.83873 17.9441 5.07798C17.9049 5.31676 17.7971 5.539 17.634 5.71771C17.6336 5.71806 17.6333 5.7184 17.633 5.71875L12.5 11.3674V15.7867C12.5014 15.9946 12.4505 16.1995 12.3521 16.3827C12.2538 16.5655 12.1113 16.7209 11.9376 16.8344L9.44006 18.4968L9.43753 18.4985C9.24998 18.622 9.03261 18.6928 8.80826 18.7032C8.58392 18.7137 8.36091 18.6636 8.16266 18.558C7.96441 18.4525 7.79825 18.2955 7.68165 18.1036C7.56504 17.9117 7.50231 17.6918 7.50003 17.4673L7.49997 17.4609L7.5 11.3674L7.49834 11.3657L2.36699 5.71875C2.36671 5.71844 2.36643 5.71814 2.36615 5.71783C2.20296 5.5391 2.09516 5.31682 2.05585 5.07798C2.01648 4.83873 2.04754 4.5932 2.14524 4.37129C2.24295 4.14938 2.40308 3.96068 2.60614 3.82818C2.80906 3.69576 3.04609 3.62517 3.28838 3.625M16.7107 4.875H3.28926L3.29068 4.87655L8.42109 10.5223C8.63449 10.7527 8.75212 11.0556 8.75 11.3696V17.4546L11.25 15.7905L11.25 15.7891L11.25 11.3696C11.2479 11.0556 11.3655 10.7527 11.5789 10.5223L16.7093 4.87655L16.7107 4.875Z" fill="white"/>
</g>
</svg>
