<svg width="137" height="45" viewBox="0 0 137 45" fill="none" xmlns="http://www.w3.org/2000/svg">
<g id="google_logo.svg" clip-path="url(#clip0_2807_1596)">
<g id="Group">
<path id="Vector" d="M17.5864 16.3349V20.9392H28.5377C28.247 23.4863 27.3747 25.4456 26.0179 26.7191C24.4673 28.2865 21.9475 30.0499 17.5864 30.0499C10.8994 30.0499 5.66599 24.5639 5.66599 17.8043C5.66599 11.0448 10.8024 5.55879 17.5864 5.55879C21.1722 5.55879 23.8858 7.02826 25.8241 8.88958L29.0223 5.65676C26.3087 3.01172 22.6259 0.954468 17.5864 0.954468C8.37959 0.954468 0.626465 8.49773 0.626465 17.8043C0.626465 27.111 8.37959 34.6542 17.5864 34.6542C22.529 34.6542 26.3087 32.9888 29.2161 29.9519C32.2204 26.915 33.1896 22.6046 33.1896 19.1758C33.1896 18.0982 33.0927 17.1186 32.9957 16.3349H17.5864Z" fill="#4285F4"/>
<path id="Vector_2" d="M46.7577 12.5143C40.8459 12.5143 35.9033 17.1186 35.9033 23.3883C35.9033 29.658 40.749 34.2624 46.7577 34.2624C52.7664 34.2624 57.6121 29.756 57.6121 23.4863C57.6121 17.1186 52.7664 12.5143 46.7577 12.5143ZM46.7577 30.0499C43.4626 30.0499 40.6521 27.3069 40.6521 23.4863C40.6521 19.5677 43.4626 16.9227 46.7577 16.9227C50.0528 16.9227 52.8633 19.5677 52.8633 23.4863C52.8633 27.3069 50.0528 30.0499 46.7577 30.0499Z" fill="#EA4335"/>
<path id="Vector_3" d="M99.7696 14.9634H99.5758C98.5097 13.6899 96.4745 12.5143 93.8579 12.5143C88.4307 12.5143 83.7788 17.2166 83.7788 23.3883C83.7788 29.4621 88.4307 34.2624 93.8579 34.2624C96.4745 34.2624 98.5097 33.0868 99.5758 31.8133H99.7696V33.3807C99.7696 37.4952 97.5406 39.7484 94.0517 39.7484C91.1443 39.7484 89.3998 37.6911 88.6245 35.8298L84.5541 37.5932C85.7171 40.4341 88.9152 44.0588 94.1486 44.0588C99.6727 44.0588 104.421 40.728 104.421 32.6949V13.1021H99.9634V14.9634H99.7696ZM94.3424 30.0499C91.0474 30.0499 88.6245 27.2089 88.6245 23.4863C88.6245 19.6657 91.1443 16.9227 94.3424 16.9227C97.5406 16.9227 100.06 19.7636 100.06 23.5843C100.157 27.3069 97.6375 30.0499 94.3424 30.0499Z" fill="#4285F4"/>
<path id="Vector_4" d="M70.889 12.5143C64.9773 12.5143 60.0347 17.1186 60.0347 23.3883C60.0347 29.658 64.8804 34.2624 70.889 34.2624C76.8977 34.2624 81.7434 29.756 81.7434 23.4863C81.7434 17.1186 76.8977 12.5143 70.889 12.5143ZM70.889 30.0499C67.594 30.0499 64.7835 27.3069 64.7835 23.4863C64.7835 19.5677 67.594 16.9227 70.889 16.9227C74.1841 16.9227 76.9946 19.5677 76.9946 23.4863C76.9946 27.3069 74.1841 30.0499 70.889 30.0499Z" fill="#FBBC05"/>
<path id="Vector_5" d="M108.007 1.44434H112.659V34.3604H108.007V1.44434Z" fill="#34A853"/>
<path id="Vector_6" d="M127.002 30.0499C124.579 30.0499 122.932 28.9723 121.769 26.7191L136.209 20.7433L135.725 19.4698C134.852 17.0206 132.042 12.5143 126.518 12.5143C120.994 12.5143 116.342 16.9227 116.342 23.3883C116.342 29.4621 120.897 34.2624 127.002 34.2624C131.945 34.2624 134.755 31.2255 136.015 29.4621L132.333 27.013C131.073 28.8743 129.425 30.0499 127.002 30.0499ZM126.712 16.6288C128.65 16.6288 130.297 17.6084 130.782 18.9799L121.091 23.0944C120.994 18.5881 124.289 16.6288 126.712 16.6288Z" fill="#EA4335"/>
</g>
</g>
<defs>
<clipPath id="clip0_2807_1596">
<rect width="135.583" height="43.1043" fill="white" transform="translate(0.626465 0.954468)"/>
</clipPath>
</defs>
</svg>
