<svg width="119" height="51" viewBox="0 0 119 51" fill="none" xmlns="http://www.w3.org/2000/svg">
<g id="growthschool_logo.svg" clip-path="url(#clip0_2884_5470)">
<g id="GS Logo Full">
<path id="Vector" d="M43.8651 40.5572V34.9872L29.5967 49.6118C28.0077 49.9452 26.3628 50.1205 24.6775 50.1205C22.0967 50.1205 19.6095 49.7099 17.2744 48.9478C7.42309 45.7358 0.286621 36.2825 0.286621 25.1205C0.286621 11.3133 11.2066 0.120605 24.6775 0.120605C36.57 0.120605 46.474 8.84326 48.6321 20.3872C48.9183 21.9199 49.0686 23.5019 49.0686 25.1205C49.0686 30.9466 47.1244 36.3066 43.8651 40.5572Z" fill="#002726"/>
<path id="Vector_2" d="M51.2134 20.3875V47.854H43.8637V34.9875L29.5953 49.612C28.0063 49.9454 26.3613 50.1208 24.6761 50.1208C22.0953 50.1208 19.6079 49.7101 17.2729 48.9481L37.7881 27.9207H23.4403V20.3875H51.2134Z" fill="#33C375"/>
<path id="Vector_3" d="M63.9447 26.0745H66.3507V30.7534C65.7044 31.2416 64.9781 31.6101 64.2054 31.8418C63.4118 32.0932 62.5855 32.2218 61.7542 32.2232C60.6465 32.2426 59.5518 31.9786 58.5714 31.4552C57.6522 30.9679 56.8836 30.2322 56.3508 29.3293C55.8252 28.3934 55.5488 27.3348 55.5488 26.2575C55.5488 25.1803 55.8252 24.1216 56.3508 23.1857C56.8845 22.2769 57.6592 21.5385 58.5864 21.0547C59.5781 20.5325 60.6823 20.2686 61.7994 20.2868C62.7273 20.2754 63.6485 20.4482 64.5111 20.7953C65.3001 21.1199 66.0024 21.6287 66.5613 22.2804L64.872 23.8621C64.4979 23.4506 64.0426 23.1238 63.5355 22.903C63.0285 22.6821 62.4814 22.5722 61.9297 22.5805C61.2582 22.5664 60.5941 22.7256 59.9999 23.0433C59.4425 23.3329 58.9795 23.7797 58.6666 24.33C58.3564 24.9219 58.1941 25.582 58.1941 26.2524C58.1941 26.9229 58.3564 27.583 58.6666 28.1749C58.9735 28.7263 59.4268 29.1791 59.9748 29.4819C60.5604 29.8047 61.2183 29.9676 61.8846 29.9549C62.5972 29.9596 63.2999 29.7848 63.9296 29.4464L63.9447 26.0745ZM72.2504 23.3586C72.8159 23.1295 73.4208 23.0171 74.0298 23.0281V25.398C73.7491 25.398 73.5587 25.3675 73.4634 25.3675C73.1531 25.3488 72.8423 25.3936 72.5496 25.4993C72.2568 25.6051 71.988 25.7696 71.7591 25.9829C71.537 26.2334 71.3673 26.5272 71.2605 26.8463C71.1536 27.1654 71.1118 27.5032 71.1376 27.8392V32.0249H68.6313V23.1602H71.0524V24.33C71.3553 23.8999 71.77 23.5635 72.2504 23.3586ZM77.1425 31.5722C76.4337 31.2034 75.8402 30.6416 75.4283 29.9499C75.0243 29.2318 74.8118 28.4193 74.8118 27.5925C74.8118 26.7658 75.0243 25.9533 75.4283 25.2353C75.838 24.5379 76.4318 23.9706 77.1425 23.5976C77.911 23.2127 78.7566 23.0126 79.6137 23.0126C80.4706 23.0126 81.3162 23.2127 82.0848 23.5976C82.7897 23.9683 83.3796 24.5298 83.789 25.22C84.1964 25.9369 84.4108 26.7498 84.4108 27.5773C84.4108 28.4048 84.1964 29.2177 83.789 29.9346C83.3796 30.6248 82.7897 31.1864 82.0848 31.557C81.3162 31.9418 80.4706 32.142 79.6137 32.142C78.7566 32.142 77.911 31.9418 77.1425 31.557V31.5722ZM81.2227 29.3802C81.6239 28.8763 81.8427 28.248 81.8427 27.6002C81.8427 26.9523 81.6239 26.3241 81.2227 25.8201C81.0202 25.5941 80.7721 25.415 80.4953 25.2948C80.2186 25.1746 79.9196 25.116 79.6187 25.1234C79.3193 25.1132 79.0213 25.1672 78.7439 25.282C78.4667 25.3968 78.2164 25.5698 78.0096 25.7897C77.605 26.292 77.3838 26.9208 77.3838 27.5697C77.3838 28.2185 77.605 28.8473 78.0096 29.3497C78.2171 29.5687 78.4673 29.7413 78.7445 29.8559C79.0216 29.9707 79.3194 30.0252 79.6187 30.0159C79.915 30.0298 80.2108 29.9803 80.4871 29.8707C80.7634 29.7613 81.014 29.5941 81.2227 29.3802ZM99.889 23.1602L96.7262 32.0249H94.2902L92.3252 26.522L90.2902 32.0249H87.8541L84.7063 23.1602H87.0923L89.1574 29.1565L91.2977 23.1602H93.4431L95.5232 29.1565L97.6485 23.1602H99.889ZM106.957 31.5976C106.68 31.7946 106.368 31.936 106.039 32.0147C105.664 32.1119 105.279 32.1598 104.891 32.1571C104.015 32.2132 103.151 31.9235 102.48 31.3484C102.182 31.0364 101.952 30.664 101.805 30.2556C101.659 29.8472 101.598 29.4121 101.628 28.9784V25.337H100.27V23.3586H101.618V21.1971H104.155V23.3586H106.33V25.337H104.155V28.9429C104.133 29.2572 104.234 29.5679 104.435 29.8074C104.541 29.9132 104.668 29.995 104.807 30.0475C104.946 30.1002 105.094 30.1223 105.242 30.1125C105.604 30.1198 105.957 30.0033 106.245 29.782L106.957 31.5976ZM116.31 24.0147C116.978 24.6758 117.313 25.654 117.313 26.9492V32.035H114.807V27.356C114.848 26.7918 114.685 26.2316 114.35 25.7795C114.18 25.6024 113.974 25.4653 113.747 25.3774C113.518 25.2896 113.275 25.2533 113.032 25.2708C112.753 25.2602 112.476 25.3086 112.217 25.4127C111.958 25.517 111.723 25.6748 111.527 25.876C111.314 26.1186 111.15 26.4016 111.044 26.7088C110.937 27.016 110.893 27.3414 110.911 27.6663V32.0503H108.405V19.8442H110.911V24.1063C111.258 23.7598 111.673 23.4926 112.129 23.323C112.63 23.1401 113.157 23.0488 113.688 23.0535C114.166 23.0299 114.644 23.1027 115.093 23.2677C115.544 23.4326 115.957 23.6866 116.31 24.0147ZM57.4586 49.5354C56.7663 49.3243 56.1257 48.9673 55.5789 48.4876L56.1804 47.2009C56.6686 47.6287 57.2337 47.9568 57.8445 48.1673C58.5151 48.412 59.2222 48.5375 59.9347 48.5386C60.6722 48.584 61.4064 48.407 62.045 48.03C62.2591 47.8918 62.4353 47.7008 62.5572 47.475C62.6789 47.2491 62.7425 46.9956 62.7417 46.7382C62.7487 46.559 62.7184 46.3803 62.6528 46.2138C62.587 46.0473 62.4875 45.8968 62.3608 45.7719C62.092 45.5137 61.7701 45.3191 61.4184 45.2022C61.0475 45.07 60.5162 44.9225 59.8345 44.7598C59.1317 44.5972 58.4403 44.3883 57.7643 44.1342C57.2446 43.9274 56.7819 43.5958 56.416 43.168C56.0189 42.6691 55.8188 42.0383 55.8545 41.3981C55.8535 40.8052 56.0281 40.2257 56.3559 39.735C56.7174 39.2057 57.2223 38.7941 57.8094 38.55C58.5761 38.2285 59.4014 38.0758 60.2305 38.1024C60.8991 38.1014 61.5649 38.1903 62.2104 38.3669C62.8084 38.5166 63.3754 38.7732 63.8846 39.1247L63.3482 40.4419C62.8729 40.1375 62.3585 39.9014 61.8194 39.7401C61.3033 39.5854 60.7685 39.505 60.2305 39.501C59.5052 39.4488 58.7818 39.6266 58.1603 40.0096C57.9459 40.1531 57.7702 40.3488 57.6493 40.5789C57.5285 40.809 57.4664 41.0662 57.4687 41.3268C57.4623 41.5069 57.4939 41.6862 57.5613 41.8527C57.6288 42.0194 57.7304 42.1696 57.8596 42.2932C58.1396 42.5503 58.4689 42.7459 58.827 42.8679C59.3398 43.0434 59.8619 43.1895 60.3908 43.3052C61.0858 43.4704 61.769 43.6829 62.4359 43.9409C62.9501 44.1482 63.4087 44.4758 63.7743 44.8971C64.1683 45.3818 64.3687 45.9989 64.3357 46.6263C64.3345 47.2172 64.1601 47.7943 63.8345 48.2842C63.4592 48.8208 62.936 49.2331 62.3307 49.4692C61.5563 49.7813 60.7275 49.9301 59.8947 49.9067C59.0683 49.9156 58.2458 49.7903 57.4586 49.5354ZM69.4885 49.3269C68.8159 48.9558 68.2561 48.4054 67.8694 47.735C67.4917 47.0331 67.2937 46.2462 67.2937 45.4464C67.2937 44.6466 67.4917 43.8597 67.8694 43.1578C68.2566 42.4903 68.8165 41.9432 69.4885 41.576C70.2112 41.1908 71.0181 40.9967 71.8343 41.0115C72.5572 40.9979 73.2726 41.1619 73.9195 41.4896C74.5204 41.7948 75.0166 42.2769 75.3431 42.873L74.155 43.6459C73.9076 43.2489 73.562 42.9246 73.1526 42.7051C72.7409 42.4947 72.2852 42.3883 71.8243 42.3949C71.2998 42.3891 70.7823 42.5186 70.3206 42.7713C69.8747 43.022 69.5079 43.3958 69.2629 43.8495C69.0022 44.3431 68.871 44.8966 68.882 45.4566C68.8694 46.0232 69.0005 46.5836 69.2629 47.084C69.5079 47.5376 69.8747 47.9115 70.3206 48.1622C70.7814 48.4171 71.2994 48.5468 71.8243 48.5386C72.2852 48.5452 72.7409 48.4387 73.1526 48.2283C73.562 48.0089 73.9076 47.6844 74.155 47.2874L75.3631 48.0097C75.0343 48.6064 74.539 49.0912 73.9395 49.4032C73.2961 49.7435 72.58 49.9182 71.8544 49.9117C71.034 49.9188 70.2259 49.7103 69.5085 49.3065L69.4885 49.3269ZM86.0697 41.9524C86.411 42.3329 86.6728 42.7797 86.8391 43.2656C87.0054 43.7517 87.0727 44.2669 87.0371 44.7801V49.8049H85.4783V44.9582C85.5292 44.2673 85.3135 43.5834 84.8767 43.0509C84.6501 42.8265 84.3795 42.653 84.0824 42.5417C83.7852 42.4304 83.4685 42.3838 83.1525 42.405C82.7852 42.3834 82.4174 42.439 82.0724 42.5686C81.7273 42.6982 81.4124 42.8987 81.1475 43.1578C80.8906 43.4479 80.6935 43.7872 80.5679 44.1558C80.4422 44.5245 80.3904 44.9148 80.4156 45.3039V49.8049H78.8568V37.5989H80.4156V42.3287C80.7584 41.8825 81.2091 41.5339 81.7239 41.3167C82.2819 41.078 82.8828 40.9601 83.4883 40.9708C83.9631 40.9471 84.4379 41.02 84.8846 41.1851C85.3314 41.3501 85.7411 41.6041 86.0897 41.932L86.0697 41.9524ZM92.9819 49.3269C92.3125 48.9568 91.7573 48.4057 91.3778 47.735C91.0033 47.032 90.807 46.2455 90.807 45.4464C90.807 44.6472 91.0033 43.8606 91.3778 43.1578C91.7577 42.4899 92.3131 41.9422 92.9819 41.576C93.6931 41.2032 94.482 41.0086 95.2826 41.0086C96.0831 41.0086 96.8721 41.2032 97.5833 41.576C98.2472 41.9455 98.7985 42.4925 99.1773 43.1578C99.5519 43.8606 99.7482 44.6472 99.7482 45.4464C99.7482 46.2455 99.5519 47.032 99.1773 47.735C98.799 48.4032 98.2477 48.9536 97.5833 49.3269C96.8734 49.7042 96.084 49.9014 95.2826 49.9014C94.4812 49.9014 93.6917 49.7042 92.9819 49.3269ZM96.7713 48.1317C97.2095 47.8747 97.5673 47.4974 97.8039 47.0433C98.0478 46.5437 98.1746 45.9937 98.1746 45.4362C98.1746 44.8787 98.0478 44.3287 97.8039 43.829C97.567 43.378 97.209 43.0041 96.7713 42.7508C96.3138 42.5038 95.8034 42.3746 95.2851 42.3746C94.7668 42.3746 94.2564 42.5038 93.7989 42.7508C93.3621 43.0068 93.0031 43.3798 92.7614 43.829C92.511 44.3267 92.3804 44.8774 92.3804 45.4362C92.3804 45.9949 92.511 46.5457 92.7614 47.0433C93.0027 47.4955 93.3614 47.872 93.7989 48.1317C94.2543 48.3854 94.7655 48.5185 95.2851 48.5185C95.8047 48.5185 96.3159 48.3854 96.7713 48.1317ZM104.917 49.3269C104.249 48.9567 103.695 48.4056 103.318 47.735C102.943 47.032 102.747 46.2455 102.747 45.4464C102.747 44.6472 102.943 43.8606 103.318 43.1578C103.696 42.4902 104.249 41.9425 104.917 41.576C105.629 41.2052 106.419 41.0118 107.22 41.0118C108.021 41.0118 108.81 41.2052 109.523 41.576C110.185 41.9458 110.735 42.4929 111.112 43.1578C111.486 43.8606 111.682 44.6472 111.682 45.4464C111.682 46.2455 111.486 47.032 111.112 47.735C110.735 48.4027 110.186 48.9533 109.523 49.3269C108.812 49.7042 108.022 49.9014 107.22 49.9014C106.418 49.9014 105.627 49.7042 104.917 49.3269ZM108.711 48.1317C109.148 47.8743 109.504 47.497 109.738 47.0433C109.987 46.5451 110.117 45.9946 110.117 45.4362C110.117 44.8779 109.987 44.3273 109.738 43.829C109.503 43.3783 109.147 43.0044 108.711 42.7508C108.251 42.4943 107.732 42.3647 107.207 42.3746C106.682 42.3632 106.163 42.4931 105.703 42.7508C105.264 43.0052 104.903 43.3785 104.661 43.829C104.411 44.3267 104.28 44.8774 104.28 45.4362C104.28 45.9949 104.411 46.5457 104.661 47.0433C104.927 47.5004 105.317 47.8709 105.784 48.1114C106.241 48.3772 106.761 48.5108 107.287 48.4979C107.794 48.4985 108.291 48.3653 108.731 48.1114L108.711 48.1317ZM115.472 37.5786H117.031V49.7846H115.472V37.5786Z" fill="#002726"/>
</g>
</g>
<defs>
<clipPath id="clip0_2884_5470">
<rect width="118" height="50" fill="white" transform="translate(0.286621 0.120605)"/>
</clipPath>
</defs>
</svg>
