<svg xmlns="http://www.w3.org/2000/svg" width="21" height="21" viewBox="0 0 21 21" fill="none">
  <path d="M14.2286 16.6717C14.6615 16.4823 15.0794 16.2603 15.4786 16.0076V19.0467C15.4786 19.2124 15.4128 19.3714 15.2956 19.4886C15.1783 19.6058 15.0194 19.6717 14.8536 19.6717C14.6879 19.6717 14.5289 19.6058 14.4117 19.4886C14.2945 19.3714 14.2286 19.2124 14.2286 19.0467V16.6717ZM9.61143 7.4998C9.53573 7.6475 9.5203 7.8188 9.56839 7.97764C9.61648 8.13648 9.72433 8.27046 9.86924 8.35137L13.5255 10.2967L14.8536 9.58574L10.463 7.24199C10.3153 7.16629 10.144 7.15086 9.98515 7.19895C9.82631 7.24704 9.69233 7.3549 9.61143 7.4998ZM19.838 7.24199L10.463 2.24199C10.3708 2.19592 10.2692 2.17194 10.1661 2.17194C10.0631 2.17194 9.96142 2.19592 9.86924 2.24199L0.494241 7.24199C0.394856 7.29657 0.311959 7.37684 0.254219 7.47442C0.196479 7.572 0.166016 7.6833 0.166016 7.79668C0.166016 7.91006 0.196479 8.02136 0.254219 8.11894C0.311959 8.21652 0.394856 8.29679 0.494241 8.35137L2.35362 9.33574V13.2264C2.35244 13.4946 2.44037 13.7557 2.60362 13.9686C3.2208 14.7967 5.5958 17.4842 10.1661 17.4842C11.5626 17.4958 12.9461 17.2165 14.2286 16.6639V10.6717L13.5255 10.2967L10.1661 12.0857L3.27549 8.41387L2.11924 7.79668L10.1661 3.50762L18.213 7.79668L17.0567 8.41387L14.8536 9.58574L15.1505 9.74199C15.2562 9.80301 15.3427 9.89229 15.4005 9.9998C15.4525 10.0901 15.4794 10.1925 15.4786 10.2967V16.0076C16.3419 15.4645 17.1034 14.7744 17.7286 13.9686C17.8919 13.7557 17.9798 13.4946 17.9786 13.2264V9.33574L19.838 8.35137C19.9374 8.29679 20.0203 8.21652 20.078 8.11894C20.1358 8.02136 20.1662 7.91006 20.1662 7.79668C20.1662 7.6833 20.1358 7.572 20.078 7.47442C20.0203 7.37684 19.9374 7.29657 19.838 7.24199Z" fill="#083CA0"/>
</svg>