<svg xmlns="http://www.w3.org/2000/svg" width="21" height="20" viewBox="0 0 21 20" fill="none">
  <path fill-rule="evenodd" clip-rule="evenodd" d="M10.0535 1.94853C10.2374 1.85049 10.458 1.85049 10.6418 1.94853L20.0168 6.94853C20.2204 7.05715 20.3477 7.26918 20.3477 7.5C20.3477 7.73082 20.2204 7.94285 20.0168 8.05147L10.6418 13.0515C10.458 13.1495 10.2374 13.1495 10.0535 13.0515L0.678539 8.05147C0.474874 7.94285 0.347656 7.73082 0.347656 7.5C0.347656 7.26918 0.474874 7.05715 0.678539 6.94853L10.0535 1.94853ZM2.30078 7.5L10.3477 11.7917L18.3945 7.5L10.3477 3.20833L2.30078 7.5Z" fill="#4B4B4B"/>
  <path fill-rule="evenodd" clip-rule="evenodd" d="M9.7962 7.20589C9.95863 6.90132 10.3372 6.7861 10.6418 6.94854L15.3293 9.44854C15.5329 9.55716 15.6602 9.76919 15.6602 10V18.75C15.6602 19.0952 15.3803 19.375 15.0352 19.375C14.69 19.375 14.4102 19.0952 14.4102 18.75V10.375L10.0535 8.05148C9.74898 7.88904 9.63376 7.51046 9.7962 7.20589Z" fill="#4B4B4B"/>
  <path fill-rule="evenodd" clip-rule="evenodd" d="M3.16016 8.03905C3.50534 8.03905 3.78516 8.31888 3.78516 8.66405V12.9218L3.78653 12.9236C4.25004 13.5462 6.30516 15.9375 10.3477 15.9375C14.3902 15.9375 16.4453 13.5463 16.9088 12.9237L16.9102 12.9219V8.66405C16.9102 8.31888 17.19 8.03905 17.5352 8.03905C17.8803 8.03905 18.1602 8.31888 18.1602 8.66405V12.9297L18.1602 12.9323C18.159 13.1998 18.0711 13.4596 17.9095 13.6727C17.3228 14.4598 14.9407 17.1875 10.3477 17.1875C5.75464 17.1875 3.37248 14.4598 2.78577 13.6727C2.62427 13.4596 2.5363 13.1998 2.53517 12.9323L2.53516 12.9297L2.53516 8.66405C2.53516 8.31888 2.81498 8.03905 3.16016 8.03905Z" fill="#4B4B4B"/>
</svg>