<svg xmlns="http://www.w3.org/2000/svg" width="21" height="20" viewBox="0 0 21 20" fill="none">
  <path d="M17.9416 8.10156L11.6916 2.42187C11.4611 2.21106 11.1601 2.09415 10.8478 2.09415C10.5355 2.09415 10.2345 2.21106 10.0041 2.42187L3.75407 8.10156C3.62611 8.21863 3.52391 8.36105 3.45397 8.51976C3.38403 8.67847 3.34788 8.85 3.34782 9.02344V16.2188C3.34274 16.5339 3.454 16.8399 3.66032 17.0781C3.77742 17.2113 3.92168 17.3178 4.08338 17.3906C4.24509 17.4634 4.4205 17.5007 4.59782 17.5H8.34782C8.51358 17.5 8.67255 17.4342 8.78976 17.3169C8.90697 17.1997 8.97282 17.0408 8.97282 16.875V13.125C8.97282 12.9592 9.03867 12.8003 9.15588 12.6831C9.27309 12.5658 9.43206 12.5 9.59782 12.5H12.0978C12.2636 12.5 12.4226 12.5658 12.5398 12.6831C12.657 12.8003 12.7228 12.9592 12.7228 13.125V16.875C12.7228 17.0408 12.7887 17.1997 12.9059 17.3169C13.0231 17.4342 13.1821 17.5 13.3478 17.5H17.0978C17.3051 17.5018 17.5095 17.4507 17.6916 17.3516C17.8897 17.2437 18.0551 17.0845 18.1706 16.8907C18.2861 16.6969 18.3473 16.4756 18.3478 16.25V9.02344C18.3478 8.85 18.3116 8.67847 18.2417 8.51976C18.1717 8.36105 18.0695 8.21863 17.9416 8.10156Z" fill="#083CA0"/>
</svg>