<svg xmlns="http://www.w3.org/2000/svg" width="20" height="20" viewBox="0 0 20 20" fill="none">
  <path fill-rule="evenodd" clip-rule="evenodd" d="M9.15717 2.42084C9.38748 2.21055 9.6881 2.09395 10 2.09395C10.3119 2.09395 10.6125 2.21055 10.8428 2.42084C10.8431 2.42112 10.8434 2.4214 10.8438 2.42168L17.0922 8.09996L17.101 8.10811C17.2245 8.22476 17.3234 8.36494 17.392 8.5204C17.4605 8.67586 17.4972 8.84346 17.4999 9.01333L17.5 9.02344V16.25C17.5 16.5815 17.3683 16.8995 17.1339 17.1339C16.8995 17.3683 16.5815 17.5 16.25 17.5H12.5C12.1685 17.5 11.8505 17.3683 11.6161 17.1339C11.3817 16.8995 11.25 16.5815 11.25 16.25V12.5H8.75V16.25C8.75 16.5815 8.6183 16.8995 8.38388 17.1339C8.14946 17.3683 7.83152 17.5 7.5 17.5H3.75C3.41848 17.5 3.10054 17.3683 2.86612 17.1339C2.6317 16.8995 2.5 16.5815 2.5 16.25V9.02344L2.50008 9.01333C2.50283 8.84346 2.53954 8.67586 2.60805 8.5204C2.67656 8.36494 2.77548 8.22476 2.89899 8.10811L2.90779 8.09996L9.15625 2.42168C9.15656 2.4214 9.15686 2.42112 9.15717 2.42084ZM3.75592 9.01826L9.99846 3.34535L10 3.34395L10.0015 3.34535L16.2441 9.01826C16.2457 9.0201 16.2471 9.0222 16.2481 9.02448C16.2491 9.02684 16.2498 9.02936 16.25 9.03193V16.25H12.5V12.5C12.5 12.1685 12.3683 11.8505 12.1339 11.6161C11.8995 11.3817 11.5815 11.25 11.25 11.25H8.75C8.41848 11.25 8.10054 11.3817 7.86612 11.6161C7.6317 11.8505 7.5 12.1685 7.5 12.5V16.25H3.75V9.03193C3.75022 9.02936 3.75086 9.02684 3.75191 9.02448C3.75291 9.0222 3.75427 9.0201 3.75592 9.01826Z" fill="#4B4B4B"/>
</svg>