<svg width="280" height="234" viewBox="0 0 280 234" fill="none" xmlns="http://www.w3.org/2000/svg">
<g clip-path="url(#clip0_3572_15144)">
<g opacity="0.08">
<path d="M-6 195L140 49L286 195" stroke="white"/>
<path d="M-6 205.5L140 59.5L286 205.5" stroke="white"/>
<path d="M-6 216L140 70L286 216" stroke="white"/>
<path d="M-6 226.5L140 80.5L286 226.5" stroke="white"/>
<path d="M-6 237L140 91L286 237" stroke="white"/>
<path d="M-6 247.5L140 101.5L286 247.5" stroke="white"/>
<path d="M-6 258L140 112L286 258" stroke="white"/>
<path d="M-6 268.5L140 122.5L286 268.5" stroke="white"/>
<path d="M-6 279L140 133L286 279" stroke="white"/>
<path d="M-6 289.5L140 143.5L286 289.5" stroke="white"/>
<path d="M-6 300L140 154L286 300" stroke="white"/>
<path d="M-6 310.5L140 164.5L286 310.5" stroke="white"/>
<path d="M-6 321L140 175L286 321" stroke="white"/>
<path d="M-6 331.5L140 185.5L286 331.5" stroke="white"/>
<path d="M-6 342L140 196L286 342" stroke="white"/>
<path d="M-6 352.5L140 206.5L286 352.5" stroke="white"/>
<path d="M-6 363L140 217L286 363" stroke="white"/>
<path d="M-6 373.5L140 227.5L286 373.5" stroke="white"/>
</g>
</g>
<defs>
<clipPath id="clip0_3572_15144">
<rect width="280" height="234" fill="white"/>
</clipPath>
</defs>
</svg>
