<svg width="22" height="22" viewBox="0 0 22 22" fill="none" xmlns="http://www.w3.org/2000/svg">
<g id="Group">
<path id="Vector" d="M11.0034 0.944336C6.61978 0.944336 5.33772 0.94886 5.08851 0.969536C4.18892 1.04433 3.62914 1.18602 3.01927 1.48973C2.54929 1.72318 2.17862 1.99378 1.81281 2.3731C1.14659 3.06487 0.742819 3.91592 0.596651 4.92756C0.525591 5.41868 0.504915 5.51884 0.500716 8.02743C0.499105 8.86362 0.500716 9.96411 0.500716 11.4402C0.500716 15.8215 0.505558 17.1026 0.526559 17.3514C0.599238 18.227 0.736516 18.7779 1.02723 19.3805C1.58282 20.534 2.64392 21.3999 3.894 21.723C4.32685 21.8345 4.80491 21.8959 5.41864 21.9249C5.67867 21.9363 8.32901 21.9443 10.981 21.9443C13.6329 21.9443 16.2849 21.9411 16.5385 21.9282C17.2491 21.8947 17.6618 21.8393 18.118 21.7214C19.3762 21.3967 20.4179 20.5437 20.9848 19.374C21.2698 18.786 21.4144 18.2141 21.4798 17.3842C21.494 17.2033 21.5 14.3184 21.5 11.4375C21.5 8.55602 21.4935 5.67652 21.4793 5.49558C21.4131 4.65228 21.2686 4.08523 20.9743 3.48587C20.7328 2.99524 20.4647 2.62883 20.0755 2.2542C19.3809 1.59054 18.5313 1.18666 17.519 1.04062C17.0285 0.969695 16.9308 0.948693 14.4209 0.944336H11.0034Z" fill="url(#paint0_radial_4156_151)"/>
<path id="Vector_2" d="M11.0034 0.944336C6.61978 0.944336 5.33772 0.94886 5.08851 0.969536C4.18892 1.04433 3.62914 1.18602 3.01927 1.48973C2.54929 1.72318 2.17862 1.99378 1.81281 2.3731C1.14659 3.06487 0.742819 3.91592 0.596651 4.92756C0.525591 5.41868 0.504915 5.51884 0.500716 8.02743C0.499105 8.86362 0.500716 9.96411 0.500716 11.4402C0.500716 15.8215 0.505558 17.1026 0.526559 17.3514C0.599238 18.227 0.736516 18.7779 1.02723 19.3805C1.58282 20.534 2.64392 21.3999 3.894 21.723C4.32685 21.8345 4.80491 21.8959 5.41864 21.9249C5.67867 21.9363 8.32901 21.9443 10.981 21.9443C13.6329 21.9443 16.2849 21.9411 16.5385 21.9282C17.2491 21.8947 17.6618 21.8393 18.118 21.7214C19.3762 21.3967 20.4179 20.5437 20.9848 19.374C21.2698 18.786 21.4144 18.2141 21.4798 17.3842C21.494 17.2033 21.5 14.3184 21.5 11.4375C21.5 8.55602 21.4935 5.67652 21.4793 5.49558C21.4131 4.65228 21.2686 4.08523 20.9743 3.48587C20.7328 2.99524 20.4647 2.62883 20.0755 2.2542C19.3809 1.59054 18.5313 1.18666 17.519 1.04062C17.0285 0.969695 16.9308 0.948693 14.4209 0.944336H11.0034Z" fill="url(#paint1_radial_4156_151)"/>
<path id="Vector_3" d="M11.0034 0.944336C6.61978 0.944336 5.33772 0.94886 5.08851 0.969536C4.18892 1.04433 3.62914 1.18602 3.01927 1.48973C2.54929 1.72318 2.17862 1.99378 1.81281 2.3731C1.14659 3.06487 0.742819 3.91592 0.596651 4.92756C0.525591 5.41868 0.504915 5.51884 0.500716 8.02743C0.499105 8.86362 0.500716 9.96411 0.500716 11.4402C0.500716 15.8215 0.505558 17.1026 0.526559 17.3514C0.599238 18.227 0.736516 18.7779 1.02723 19.3805C1.58282 20.534 2.64392 21.3999 3.894 21.723C4.32685 21.8345 4.80491 21.8959 5.41864 21.9249C5.67867 21.9363 8.32901 21.9443 10.981 21.9443C13.6329 21.9443 16.2849 21.9411 16.5385 21.9282C17.2491 21.8947 17.6618 21.8393 18.118 21.7214C19.3762 21.3967 20.4179 20.5437 20.9848 19.374C21.2698 18.786 21.4144 18.2141 21.4798 17.3842C21.494 17.2033 21.5 14.3184 21.5 11.4375C21.5 8.55602 21.4935 5.67652 21.4793 5.49558C21.4131 4.65228 21.2686 4.08523 20.9743 3.48587C20.7328 2.99524 20.4647 2.62883 20.0755 2.2542C19.3809 1.59054 18.5313 1.18666 17.519 1.04062C17.0285 0.969695 16.9308 0.948693 14.4209 0.944336H11.0034Z" fill="url(#paint2_radial_4156_151)"/>
<path id="Vector_4" d="M11.0034 0.944336C6.61978 0.944336 5.33772 0.94886 5.08851 0.969536C4.18892 1.04433 3.62914 1.18602 3.01927 1.48973C2.54929 1.72318 2.17862 1.99378 1.81281 2.3731C1.14659 3.06487 0.742819 3.91592 0.596651 4.92756C0.525591 5.41868 0.504915 5.51884 0.500716 8.02743C0.499105 8.86362 0.500716 9.96411 0.500716 11.4402C0.500716 15.8215 0.505558 17.1026 0.526559 17.3514C0.599238 18.227 0.736516 18.7779 1.02723 19.3805C1.58282 20.534 2.64392 21.3999 3.894 21.723C4.32685 21.8345 4.80491 21.8959 5.41864 21.9249C5.67867 21.9363 8.32901 21.9443 10.981 21.9443C13.6329 21.9443 16.2849 21.9411 16.5385 21.9282C17.2491 21.8947 17.6618 21.8393 18.118 21.7214C19.3762 21.3967 20.4179 20.5437 20.9848 19.374C21.2698 18.786 21.4144 18.2141 21.4798 17.3842C21.494 17.2033 21.5 14.3184 21.5 11.4375C21.5 8.55602 21.4935 5.67652 21.4793 5.49558C21.4131 4.65228 21.2686 4.08523 20.9743 3.48587C20.7328 2.99524 20.4647 2.62883 20.0755 2.2542C19.3809 1.59054 18.5313 1.18666 17.519 1.04062C17.0285 0.969695 16.9308 0.948693 14.4209 0.944336H11.0034Z" fill="url(#paint3_radial_4156_151)"/>
<path id="Vector_5" d="M11.0044 3.64062C8.8839 3.64062 8.61778 3.64989 7.78492 3.68776C6.9537 3.7258 6.38633 3.8573 5.88987 4.05025C5.37633 4.24952 4.94071 4.51609 4.50672 4.94992C4.07241 5.3836 3.80563 5.81889 3.60556 6.33188C3.41198 6.82814 3.28022 7.39525 3.24281 8.22553C3.20556 9.05776 3.1958 9.32385 3.1958 11.4428C3.1958 13.5617 3.20524 13.8268 3.24297 14.6591C3.2812 15.4897 3.4128 16.0566 3.60572 16.5527C3.80531 17.0659 4.07208 17.5012 4.50623 17.9348C4.94007 18.3688 5.37568 18.6361 5.88889 18.8353C6.38567 19.0283 6.95322 19.1598 7.78427 19.1978C8.61713 19.2357 8.88308 19.2449 11.0034 19.2449C13.1241 19.2449 13.3894 19.2357 14.2223 19.1978C15.0535 19.1598 15.6215 19.0283 16.1183 18.8353C16.6317 18.6361 17.0666 18.3688 17.5005 17.9348C17.9348 17.5012 18.2016 17.0659 18.4016 16.5529C18.5936 16.0566 18.7253 15.4895 18.7644 14.6592C18.8018 13.827 18.8115 13.5617 18.8115 11.4428C18.8115 9.32384 18.8018 9.05793 18.7644 8.22569C18.7253 7.39508 18.5936 6.82814 18.4016 6.33205C18.2016 5.81889 17.9348 5.38359 17.5005 4.94992C17.0661 4.51593 16.6318 4.24935 16.1178 4.05024C15.62 3.8573 15.0523 3.7258 14.2211 3.68776C13.3883 3.64989 13.1231 3.64062 11.002 3.64062H11.0044ZM10.304 5.04664C10.5119 5.04632 10.7438 5.04664 11.0044 5.04664C13.0891 5.04664 13.3362 5.05412 14.1595 5.0915C14.9207 5.12629 15.3339 5.25339 15.6091 5.36019C15.9735 5.5016 16.2333 5.67065 16.5064 5.94372C16.7797 6.2168 16.9489 6.47688 17.0907 6.84097C17.1976 7.11567 17.3249 7.52854 17.3596 8.28925C17.397 9.11172 17.4051 9.3588 17.4051 11.441C17.4051 13.5232 17.397 13.7703 17.3596 14.5927C17.3248 15.3535 17.1976 15.7663 17.0907 16.041C16.9492 16.4051 16.7797 16.6644 16.5064 16.9373C16.2331 17.2104 15.9737 17.3794 15.6091 17.5208C15.3342 17.6281 14.9207 17.7549 14.1595 17.7897C13.3364 17.8271 13.0891 17.8352 11.0044 17.8352C8.91952 17.8352 8.67243 17.8271 7.84934 17.7897C7.08807 17.7546 6.6749 17.6275 6.3995 17.5207C6.03513 17.3793 5.77486 17.2102 5.50159 16.9371C5.22831 16.6641 5.05914 16.4046 4.91729 16.0404C4.81042 15.7657 4.68305 15.3528 4.64841 14.5921C4.61099 13.7696 4.60351 13.5226 4.60351 11.439C4.60351 9.35555 4.61099 9.10977 4.64841 8.2873C4.68322 7.52658 4.81042 7.11372 4.91729 6.8387C5.05881 6.4746 5.22831 6.21453 5.50159 5.94145C5.77486 5.66837 6.03513 5.49933 6.3995 5.35759C6.67473 5.25031 7.08807 5.12353 7.84934 5.08857C8.56962 5.05606 8.84876 5.04632 10.304 5.04468L10.304 5.04664ZM15.1722 6.34212C14.655 6.34212 14.2353 6.761 14.2353 7.27805C14.2353 7.79495 14.655 8.21432 15.1722 8.21432C15.6895 8.21432 16.1092 7.79495 16.1092 7.27805C16.1092 6.76116 15.6895 6.3418 15.1722 6.3418L15.1722 6.34212ZM11.0044 7.43605C8.79004 7.43605 6.9947 9.23006 6.9947 11.4428C6.9947 13.6555 8.79004 15.4487 11.0044 15.4487C13.2188 15.4487 15.0135 13.6555 15.0135 11.4428C15.0135 9.23006 13.2186 7.43605 11.0042 7.43605H11.0044ZM11.0044 8.84206C12.4417 8.84206 13.6071 10.0064 13.6071 11.4428C13.6071 12.879 12.4417 14.0435 11.0044 14.0435C9.56693 14.0435 8.40176 12.879 8.40176 11.4428C8.40176 10.0064 9.56693 8.84206 11.0044 8.84206Z" fill="white"/>
</g>
<defs>
<radialGradient id="paint0_radial_4156_151" cx="0" cy="0" r="1" gradientUnits="userSpaceOnUse" gradientTransform="translate(20.8219 10.7873) rotate(164.25) scale(13.4178 9.66688)">
<stop stop-color="#FF005F"/>
<stop offset="1" stop-color="#FC01D8"/>
</radialGradient>
<radialGradient id="paint1_radial_4156_151" cx="0" cy="0" r="1" gradientUnits="userSpaceOnUse" gradientTransform="translate(6.07796 23.5618) rotate(-90) scale(16.7626 17.7848)">
<stop stop-color="#FFCC00"/>
<stop offset="0.1242" stop-color="#FFCC00"/>
<stop offset="0.5672" stop-color="#FE4A05"/>
<stop offset="0.6942" stop-color="#FF0F3F"/>
<stop offset="1" stop-color="#FE0657" stop-opacity="0"/>
</radialGradient>
<radialGradient id="paint2_radial_4156_151" cx="0" cy="0" r="1" gradientUnits="userSpaceOnUse" gradientTransform="translate(11.5307 21.6482) rotate(-59.8703) scale(6.93148 9.02401)">
<stop stop-color="#FFCC00"/>
<stop offset="1" stop-color="#FFCC00" stop-opacity="0"/>
</radialGradient>
<radialGradient id="paint3_radial_4156_151" cx="0" cy="0" r="1" gradientUnits="userSpaceOnUse" gradientTransform="translate(3.34925 1.79945) rotate(164.274) scale(13.269 4.52073)">
<stop stop-color="#780CFF"/>
<stop offset="1" stop-color="#820BFF" stop-opacity="0"/>
</radialGradient>
</defs>
</svg>
