<svg width="320" height="79" viewBox="0 0 320 79" fill="none" xmlns="http://www.w3.org/2000/svg">
<g clip-path="url(#clip0_3572_15826)">
<g opacity="0.08">
<path d="M117 115.5L263 -30.5L409 115.5" stroke="white"/>
<path d="M117 126L263 -20L409 126" stroke="white"/>
<path d="M117 136.5L263 -9.5L409 136.5" stroke="white"/>
<path d="M117 147L263 1L409 147" stroke="white"/>
<path d="M117 157.5L263 11.5L409 157.5" stroke="white"/>
<path d="M117 168L263 22L409 168" stroke="white"/>
<path d="M117 178.5L263 32.5L409 178.5" stroke="white"/>
<path d="M117 189L263 43L409 189" stroke="white"/>
<path d="M117 199.5L263 53.5L409 199.5" stroke="white"/>
<path d="M117 210L263 64L409 210" stroke="white"/>
<path d="M117 220.5L263 74.5L409 220.5" stroke="white"/>
</g>
<path fill-rule="evenodd" clip-rule="evenodd" d="M272.509 31.2526C272.509 31.6212 272.807 31.92 273.176 31.92L282.854 31.92C283.223 31.92 283.522 31.6212 283.522 31.2526L283.522 10.2566C283.522 9.74276 282.966 9.42162 282.521 9.67853L272.842 15.2664C272.636 15.3856 272.509 15.6059 272.509 15.8444L272.509 31.2526Z" fill="url(#paint0_linear_3572_15826)"/>
<path fill-rule="evenodd" clip-rule="evenodd" d="M273.176 31.2526L282.854 31.2526L282.854 10.2566L273.176 15.8444L273.176 31.2526ZM273.176 31.92C272.807 31.92 272.509 31.6212 272.509 31.2526L272.509 15.8444C272.509 15.6059 272.636 15.3856 272.842 15.2664L282.521 9.67853C282.966 9.42162 283.522 9.74276 283.522 10.2566L283.522 31.2526C283.522 31.6212 283.223 31.92 282.854 31.92L273.176 31.92Z" fill="url(#paint1_linear_3572_15826)"/>
<path fill-rule="evenodd" clip-rule="evenodd" d="M258.158 31.2526C258.158 31.6212 257.859 31.92 257.49 31.92L247.812 31.92C247.443 31.92 247.145 31.6212 247.145 31.2526L247.145 10.2566C247.145 9.74276 247.701 9.42162 248.146 9.67853L257.824 15.2664C258.031 15.3856 258.158 15.6059 258.158 15.8444L258.158 31.2526Z" fill="url(#paint2_linear_3572_15826)"/>
<path fill-rule="evenodd" clip-rule="evenodd" d="M257.49 31.2526L247.812 31.2526L247.812 10.2566L257.49 15.8444L257.49 31.2526ZM257.49 31.92C257.859 31.92 258.158 31.6212 258.158 31.2526L258.158 15.8444C258.158 15.6059 258.031 15.3856 257.824 15.2664L248.146 9.67853C247.701 9.42162 247.145 9.74276 247.145 10.2566L247.145 31.2526C247.145 31.6212 247.443 31.92 247.812 31.92L257.49 31.92Z" fill="url(#paint3_linear_3572_15826)"/>
<path fill-rule="evenodd" clip-rule="evenodd" d="M255.522 26.769L249.78 26.769L249.78 13.9287L255.522 17.244L255.522 26.769ZM255.522 27.4365C255.891 27.4365 256.19 27.1377 256.19 26.769L256.19 17.244C256.19 17.0056 256.062 16.7852 255.856 16.666L250.114 13.3506C249.669 13.0937 249.112 13.4149 249.112 13.9287L249.112 26.769C249.112 27.1377 249.411 27.4365 249.78 27.4365L255.522 27.4365Z" fill="url(#paint4_linear_3572_15826)"/>
<path fill-rule="evenodd" clip-rule="evenodd" d="M275.179 26.769L280.921 26.769L280.921 13.9287L275.179 17.244L275.179 26.769ZM275.179 27.4365C274.81 27.4365 274.512 27.1377 274.512 26.769L274.512 17.244C274.512 17.0056 274.639 16.7852 274.845 16.666L280.588 13.3506C281.033 13.0937 281.589 13.4149 281.589 13.9287L281.589 26.769C281.589 27.1377 281.29 27.4365 280.921 27.4365L275.179 27.4365Z" fill="url(#paint5_linear_3572_15826)"/>
<path fill-rule="evenodd" clip-rule="evenodd" d="M258.55 37.9574C258.55 37.5888 258.252 37.2899 257.883 37.2899L248.205 37.2899C247.836 37.2899 247.537 37.5888 247.537 37.9574L247.537 58.9534C247.537 59.4672 248.093 59.7883 248.538 59.5314L258.217 53.9436C258.423 53.8244 258.55 53.604 258.55 53.3655L258.55 37.9574Z" fill="url(#paint6_linear_3572_15826)"/>
<path fill-rule="evenodd" clip-rule="evenodd" d="M257.883 37.9574L248.205 37.9574L248.205 58.9534L257.883 53.3655L257.883 37.9574ZM257.883 37.2899C258.252 37.2899 258.55 37.5888 258.55 37.9574L258.55 53.3655C258.55 53.604 258.423 53.8244 258.217 53.9436L248.538 59.5314C248.093 59.7883 247.537 59.4672 247.537 58.9534L247.537 37.9574C247.537 37.5888 247.836 37.2899 248.205 37.2899L257.883 37.2899Z" fill="url(#paint7_linear_3572_15826)"/>
<path fill-rule="evenodd" clip-rule="evenodd" d="M272.901 37.9574C272.901 37.5888 273.2 37.2899 273.569 37.2899L283.247 37.2899C283.616 37.2899 283.915 37.5888 283.915 37.9574L283.915 58.9534C283.915 59.4672 283.358 59.7883 282.913 59.5314L273.235 53.9436C273.028 53.8244 272.901 53.604 272.901 53.3655L272.901 37.9574Z" fill="url(#paint8_linear_3572_15826)"/>
<path fill-rule="evenodd" clip-rule="evenodd" d="M273.569 37.9574L283.247 37.9574L283.247 58.9534L273.569 53.3655L273.569 37.9574ZM273.569 37.2899C273.2 37.2899 272.901 37.5888 272.901 37.9574L272.901 53.3655C272.901 53.604 273.028 53.8244 273.235 53.9436L282.913 59.5314C283.358 59.7883 283.915 59.4672 283.915 58.9534L283.915 37.9574C283.915 37.5888 283.616 37.2899 283.247 37.2899L273.569 37.2899Z" fill="url(#paint9_linear_3572_15826)"/>
<path fill-rule="evenodd" clip-rule="evenodd" d="M275.536 42.4409L281.279 42.4409L281.279 55.2813L275.536 51.9659L275.536 42.4409ZM275.536 41.7734C275.168 41.7734 274.869 42.0723 274.869 42.4409L274.869 51.9659C274.869 52.2044 274.996 52.4247 275.203 52.544L280.945 55.8593C281.39 56.1162 281.946 55.7951 281.946 55.2813L281.946 42.4409C281.946 42.0723 281.647 41.7734 281.279 41.7734L275.536 41.7734Z" fill="url(#paint10_linear_3572_15826)"/>
<path fill-rule="evenodd" clip-rule="evenodd" d="M255.88 42.4409H250.138V55.2813L255.88 51.9659L255.88 42.4409ZM255.88 41.7734C256.249 41.7734 256.548 42.0723 256.548 42.4409V51.9659C256.548 52.2044 256.42 52.4247 256.214 52.544L250.471 55.8593C250.026 56.1162 249.47 55.7951 249.47 55.2813V42.4409C249.47 42.0723 249.769 41.7734 250.138 41.7734H255.88Z" fill="url(#paint11_linear_3572_15826)"/>
<path fill-rule="evenodd" clip-rule="evenodd" d="M253.486 60.1506C253.486 60.4658 253.634 60.7625 253.886 60.9516L264.9 69.2116C265.256 69.4786 265.745 69.4786 266.101 69.2116L277.115 60.9516C277.367 60.7625 277.515 60.4658 277.515 60.1506L277.515 48.3029C277.515 47.75 277.067 47.3017 276.514 47.3017L254.487 47.3017C253.934 47.3017 253.486 47.75 253.486 48.3029L253.486 60.1506Z" fill="url(#paint12_linear_3572_15826)"/>
<path fill-rule="evenodd" clip-rule="evenodd" d="M254.287 60.4176L265.3 68.6776C265.419 68.7666 265.582 68.7666 265.701 68.6776L276.714 60.4176C276.798 60.3546 276.848 60.2557 276.848 60.1506L276.848 48.3029C276.848 48.1186 276.698 47.9692 276.514 47.9692L254.487 47.9692C254.303 47.9692 254.153 48.1186 254.153 48.3029L254.153 60.1506C254.153 60.2557 254.203 60.3546 254.287 60.4176ZM253.886 60.9516C253.634 60.7625 253.486 60.4658 253.486 60.1506L253.486 48.3029C253.486 47.75 253.934 47.3017 254.487 47.3017L276.514 47.3017C277.067 47.3017 277.515 47.75 277.515 48.3029L277.515 60.1506C277.515 60.4658 277.367 60.7625 277.115 60.9516L266.101 69.2116C265.745 69.4786 265.256 69.4786 264.9 69.2116L253.886 60.9516Z" fill="url(#paint13_linear_3572_15826)"/>
<path fill-rule="evenodd" clip-rule="evenodd" d="M256.957 58.5928L265.427 64.9452C265.545 65.0342 265.709 65.0342 265.827 64.9452L274.297 58.5928C274.381 58.5298 274.431 58.4309 274.431 58.3258L274.431 49.3042C274.431 49.1199 274.281 48.9705 274.097 48.9705L257.157 48.9705C256.973 48.9705 256.823 49.1199 256.823 49.3042L256.823 58.3258C256.823 58.4309 256.873 58.5298 256.957 58.5928ZM256.556 59.1268C256.304 58.9377 256.156 58.641 256.156 58.3258L256.156 49.3042C256.156 48.7513 256.604 48.303 257.157 48.303L274.097 48.303C274.65 48.303 275.098 48.7513 275.098 49.3042L275.098 58.3258C275.098 58.641 274.95 58.9377 274.698 59.1268L266.228 65.4792C265.872 65.7462 265.382 65.7462 265.026 65.4792L256.556 59.1268Z" fill="url(#paint14_linear_3572_15826)"/>
<path fill-rule="evenodd" clip-rule="evenodd" d="M252.679 34.6262C252.679 34.2576 252.38 33.9587 252.012 33.9587H242.029C241.66 33.9587 241.361 34.2576 241.361 34.6262V45.8852C241.361 46.1225 241.487 46.3419 241.692 46.4616L251.675 52.2936C252.12 52.5535 252.679 52.2326 252.679 51.7172V34.6262Z" fill="url(#paint15_linear_3572_15826)"/>
<path fill-rule="evenodd" clip-rule="evenodd" d="M252.012 34.6262H242.029L242.029 45.8852L252.012 51.7172L252.012 34.6262ZM252.012 33.9587C252.38 33.9587 252.679 34.2576 252.679 34.6262V51.7172C252.679 52.2326 252.12 52.5535 251.675 52.2936L241.692 46.4616C241.487 46.3419 241.361 46.1225 241.361 45.8852V34.6262C241.361 34.2576 241.66 33.9587 242.029 33.9587H252.012Z" fill="url(#paint16_linear_3572_15826)"/>
<path fill-rule="evenodd" clip-rule="evenodd" d="M236.237 22.9408C235.794 22.682 235.242 23.0018 235.242 23.5171L235.242 32.8613C235.242 33.1014 235.369 33.3239 235.576 33.4445L251.314 42.639C251.633 42.825 252.039 42.7161 252.221 42.396L256.22 35.3878C256.403 35.0676 256.293 34.6573 255.975 34.4714L236.237 22.9408Z" fill="url(#paint17_linear_3572_15826)"/>
<path fill-rule="evenodd" clip-rule="evenodd" d="M235.907 23.5205L235.907 32.8647L251.645 42.0593L255.644 35.0511L235.907 23.5205ZM235.242 23.5171C235.242 23.0018 235.794 22.682 236.237 22.9408L255.975 34.4714C256.293 34.6573 256.403 35.0676 256.22 35.3878L252.221 42.396C252.039 42.7161 251.633 42.825 251.314 42.639L235.576 33.4445C235.369 33.3239 235.242 33.1014 235.242 32.8613L235.242 23.5171Z" fill="url(#paint18_linear_3572_15826)"/>
<path fill-rule="evenodd" clip-rule="evenodd" d="M237.974 26.9879L237.974 31.7729L246.742 36.8952L248.789 33.3065L237.974 26.9879ZM237.309 26.9845C237.309 26.4692 237.862 26.1494 238.305 26.4082L249.12 32.7267C249.438 32.9127 249.548 33.323 249.366 33.6432L247.318 37.2319C247.135 37.5521 246.729 37.6609 246.411 37.4749L237.643 32.3526C237.437 32.232 237.309 32.0096 237.309 31.7694L237.309 26.9845Z" fill="url(#paint19_linear_3572_15826)"/>
<path fill-rule="evenodd" clip-rule="evenodd" d="M278.321 34.6262C278.321 34.2576 278.62 33.9587 278.988 33.9587H288.971C289.34 33.9587 289.639 34.2576 289.639 34.6262V45.8852C289.639 46.1225 289.513 46.3419 289.308 46.4616L279.325 52.2936C278.88 52.5535 278.321 52.2326 278.321 51.7172V34.6262Z" fill="url(#paint20_linear_3572_15826)"/>
<path fill-rule="evenodd" clip-rule="evenodd" d="M278.988 34.6262H288.971L288.971 45.8852L278.988 51.7172L278.988 34.6262ZM278.988 33.9587C278.62 33.9587 278.321 34.2576 278.321 34.6262V51.7172C278.321 52.2326 278.88 52.5535 279.325 52.2936L289.308 46.4616C289.513 46.3419 289.639 46.1225 289.639 45.8852V34.6262C289.639 34.2576 289.34 33.9587 288.971 33.9587H278.988Z" fill="url(#paint21_linear_3572_15826)"/>
<path fill-rule="evenodd" clip-rule="evenodd" d="M294.763 22.9408C295.206 22.682 295.758 23.0018 295.758 23.5171L295.758 32.8613C295.758 33.1014 295.631 33.3239 295.424 33.4445L279.686 42.639C279.367 42.825 278.961 42.7161 278.779 42.396L274.78 35.3878C274.597 35.0676 274.707 34.6573 275.025 34.4714L294.763 22.9408Z" fill="url(#paint22_linear_3572_15826)"/>
<path fill-rule="evenodd" clip-rule="evenodd" d="M295.093 23.5205L295.093 32.8647L279.355 42.0593L275.356 35.0511L295.093 23.5205ZM295.758 23.5171C295.758 23.0018 295.206 22.682 294.763 22.9408L275.025 34.4714C274.707 34.6573 274.597 35.0676 274.78 35.3878L278.779 42.396C278.961 42.7161 279.367 42.825 279.686 42.639L295.424 33.4445C295.631 33.3239 295.758 33.1014 295.758 32.8613L295.758 23.5171Z" fill="url(#paint23_linear_3572_15826)"/>
<path fill-rule="evenodd" clip-rule="evenodd" d="M293.026 26.9879L293.026 31.7729L284.258 36.8952L282.211 33.3065L293.026 26.9879ZM293.691 26.9845C293.691 26.4692 293.138 26.1494 292.695 26.4082L281.88 32.7267C281.562 32.9127 281.452 33.323 281.634 33.6432L283.682 37.2319C283.865 37.5521 284.271 37.6609 284.589 37.4749L293.357 32.3526C293.563 32.232 293.691 32.0096 293.691 31.7694L293.691 26.9845Z" fill="url(#paint24_linear_3572_15826)"/>
<path d="M263.761 13.5558C264.794 12.9596 266.066 12.9596 267.099 13.5558L285.377 24.1089C286.41 24.705 287.046 25.8068 287.046 26.9991V48.1053C287.046 49.2976 286.41 50.3994 285.377 50.9955L267.099 61.5486C266.066 62.1448 264.794 62.1448 263.761 61.5486L245.483 50.9955C244.45 50.3994 243.814 49.2976 243.814 48.1053V26.9991C243.814 25.8068 244.45 24.705 245.483 24.1089L263.761 13.5558Z" fill="url(#paint25_linear_3572_15826)"/>
<path d="M263.81 18.8822C264.843 18.286 266.115 18.286 267.147 18.8822L280.875 26.8079C281.908 27.4041 282.544 28.5058 282.544 29.6982V45.5496C282.544 46.742 281.908 47.8437 280.875 48.4399L267.147 56.3656C266.115 56.9618 264.843 56.9618 263.81 56.3656L250.082 48.4399C249.05 47.8437 248.414 46.742 248.414 45.5496V29.6982C248.414 28.5058 249.05 27.4041 250.082 26.8079L263.81 18.8822Z" fill="url(#paint26_linear_3572_15826)"/>
<mask id="path-39-inside-1_3572_15826" fill="white">
<path fill-rule="evenodd" clip-rule="evenodd" d="M276.159 40.1007C276.254 40.3582 276.351 40.62 276.352 40.8793L276.353 40.9667C276.358 41.4332 276.364 41.9615 276.145 42.3245C274.613 44.8646 272.6 46.9832 270.24 48.7724C269.999 48.957 269.707 49.1667 269.424 49.1898C268.485 49.2696 267.544 49.3157 266.603 49.3618L266.603 49.3618L266.603 49.3618C266.257 49.3787 265.912 49.3956 265.567 49.4142C265.222 49.3956 264.876 49.3787 264.531 49.3618L264.531 49.3618L264.531 49.3618L264.53 49.3618C263.589 49.3157 262.648 49.2696 261.709 49.1898C261.426 49.1646 261.135 48.9549 260.893 48.7724C258.534 46.9853 256.52 44.8646 254.989 42.3245C254.77 41.9595 254.775 41.433 254.78 40.9668L254.781 40.8793C254.783 40.6153 254.882 40.3487 254.979 40.0867C255.006 40.0156 255.032 39.9449 255.056 39.8746C255.589 38.3182 255.926 36.7828 255.45 35.1027C255.129 33.9721 255.475 33.6994 256.583 33.4603C256.868 33.3974 257.193 33.0848 257.325 32.8038C257.721 31.9698 258.097 31.1278 258.474 30.2856L258.474 30.2856L258.474 30.2855C258.837 29.4733 259.2 28.6609 259.58 27.8557C259.729 27.541 260.038 27.1467 260.335 27.0817C261.632 26.8022 262.941 26.5721 264.249 26.3421C264.688 26.2648 265.128 26.1875 265.567 26.1084C266.006 26.1875 266.445 26.2648 266.885 26.3421C268.193 26.5721 269.501 26.8022 270.798 27.0817C271.096 27.1467 271.404 27.541 271.553 27.8557C271.935 28.6646 272.301 29.4818 272.666 30.2991L272.666 30.2992L272.666 30.2993L272.666 30.2995C273.041 31.137 273.415 31.9747 273.808 32.8038C273.94 33.0848 274.263 33.3995 274.551 33.4603C275.658 33.6973 276.004 33.97 275.683 35.1027C275.207 36.7828 275.545 38.3182 276.078 39.8746C276.103 39.9494 276.131 40.0248 276.159 40.1006L276.159 40.1007ZM266.477 46.5606L266.477 46.5606L266.477 46.5606C267.177 46.4714 267.876 46.3822 268.558 46.2155C269.353 46.0204 270.014 45.5526 270.162 44.5186C268.594 44.6843 267.081 44.8437 265.567 45.0031L265.566 45.003C264.052 44.8436 262.538 44.6842 260.971 44.5186C261.12 45.5526 261.781 46.0204 262.576 46.2155C263.258 46.3809 263.958 46.4707 264.659 46.5605L264.659 46.5605H264.659C264.962 46.5994 265.265 46.6382 265.567 46.6832C265.869 46.6381 266.173 46.5994 266.477 46.5606ZM269.946 38.1274L269.946 38.1274L269.946 38.1274C270.583 37.495 271.304 36.779 272.033 36.0696C272.531 35.5851 272.231 33.8987 271.543 33.3995C270.104 32.3557 270.093 32.3626 268.646 33.3191L268.562 33.3743C267.903 33.81 267.213 34.1996 266.523 34.5894L266.523 34.5895L266.523 34.5895C266.203 34.7702 265.884 34.9509 265.567 35.1362C265.261 34.9582 264.953 34.7841 264.645 34.61L264.645 34.61C263.943 34.2137 263.242 33.8173 262.571 33.3743L262.488 33.3191C261.04 32.3626 261.03 32.3557 259.591 33.3995C258.903 33.8987 258.601 35.5851 259.1 36.0696C259.768 36.7205 260.431 37.3779 261.028 37.9701L261.028 37.9703L261.028 37.9704L261.028 37.9705C261.32 38.26 261.597 38.5339 261.85 38.7839C261.681 39.2116 261.516 39.6215 261.355 40.0198L261.355 40.0199C260.993 40.9206 260.654 41.7617 260.346 42.614C260.143 43.1761 260.411 43.5663 261.013 43.6628C261.427 43.7287 262.08 43.788 262.75 43.8488L262.751 43.8488L262.751 43.8489C263.529 43.9195 264.331 43.9923 264.81 44.0802C265.281 44.1672 265.317 43.1405 265.353 42.1249C265.378 41.428 265.402 40.7363 265.567 40.4137C265.732 40.7363 265.756 41.4266 265.78 42.122C265.816 43.1353 265.853 44.1597 266.324 44.0739C266.802 43.9861 267.602 43.9153 268.379 43.8464H268.379C269.05 43.7869 269.705 43.7289 270.121 43.6628C270.723 43.5663 270.991 43.1761 270.788 42.614C270.479 41.7618 270.141 40.9206 269.778 40.02L269.778 40.0199C269.618 39.6216 269.453 39.2116 269.284 38.7839C269.49 38.5793 269.712 38.359 269.946 38.1275L269.946 38.1274L269.946 38.1274ZM261.217 34.0097C260.776 34.5194 260.394 34.962 260.069 35.3396C260.209 35.4593 260.343 35.5785 260.475 35.6955C260.798 35.9821 261.106 36.2552 261.441 36.489C261.651 36.6359 262.001 36.7282 262.234 36.661C262.764 36.5108 263.281 36.3155 263.836 36.1061C264.048 36.0262 264.265 35.9442 264.491 35.8619C263.45 35.2725 262.353 34.6516 261.219 34.0097H261.217ZM262.607 37.6785C263.115 38.2292 263.489 38.0465 263.903 37.844C264.172 37.7125 264.459 37.5727 264.81 37.6197C264.57 37.4234 264.386 37.2732 264.228 37.1443L264.227 37.144L264.227 37.1435L264.226 37.143C264.073 37.0176 263.943 36.9123 263.811 36.8038L263.705 36.8806C263.343 37.1437 263.009 37.3856 262.609 37.6764L262.607 37.6785ZM266.645 35.8619C266.886 35.9491 267.117 36.0363 267.342 36.1213L267.342 36.1213C267.88 36.3244 268.384 36.5146 268.902 36.661C269.137 36.7282 269.487 36.6338 269.695 36.489C270.03 36.2552 270.338 35.9821 270.661 35.6955L270.661 35.6955C270.792 35.5785 270.927 35.4593 271.067 35.3396C270.928 35.1792 270.78 35.007 270.621 34.8229L270.62 34.8227C270.405 34.5736 270.171 34.3028 269.919 34.0097C268.782 34.6537 267.685 35.2746 266.647 35.8619H266.645ZM266.33 37.619C266.328 37.6192 266.326 37.6195 266.324 37.6197L266.326 37.6218C266.327 37.6209 266.328 37.6199 266.33 37.619ZM267.23 37.8439C266.963 37.7132 266.678 37.5741 266.33 37.619C266.392 37.5676 266.451 37.5194 266.507 37.4739C266.87 37.177 267.092 36.9946 267.325 36.8059L267.43 36.8827C267.793 37.1458 268.127 37.3877 268.526 37.6785C268.019 38.2292 267.645 38.0465 267.23 37.8439Z"/>
</mask>
<path fill-rule="evenodd" clip-rule="evenodd" d="M276.159 40.1007C276.254 40.3582 276.351 40.62 276.352 40.8793L276.353 40.9667C276.358 41.4332 276.364 41.9615 276.145 42.3245C274.613 44.8646 272.6 46.9832 270.24 48.7724C269.999 48.957 269.707 49.1667 269.424 49.1898C268.485 49.2696 267.544 49.3157 266.603 49.3618L266.603 49.3618L266.603 49.3618C266.257 49.3787 265.912 49.3956 265.567 49.4142C265.222 49.3956 264.876 49.3787 264.531 49.3618L264.531 49.3618L264.531 49.3618L264.53 49.3618C263.589 49.3157 262.648 49.2696 261.709 49.1898C261.426 49.1646 261.135 48.9549 260.893 48.7724C258.534 46.9853 256.52 44.8646 254.989 42.3245C254.77 41.9595 254.775 41.433 254.78 40.9668L254.781 40.8793C254.783 40.6153 254.882 40.3487 254.979 40.0867C255.006 40.0156 255.032 39.9449 255.056 39.8746C255.589 38.3182 255.926 36.7828 255.45 35.1027C255.129 33.9721 255.475 33.6994 256.583 33.4603C256.868 33.3974 257.193 33.0848 257.325 32.8038C257.721 31.9698 258.097 31.1278 258.474 30.2856L258.474 30.2856L258.474 30.2855C258.837 29.4733 259.2 28.6609 259.58 27.8557C259.729 27.541 260.038 27.1467 260.335 27.0817C261.632 26.8022 262.941 26.5721 264.249 26.3421C264.688 26.2648 265.128 26.1875 265.567 26.1084C266.006 26.1875 266.445 26.2648 266.885 26.3421C268.193 26.5721 269.501 26.8022 270.798 27.0817C271.096 27.1467 271.404 27.541 271.553 27.8557C271.935 28.6646 272.301 29.4818 272.666 30.2991L272.666 30.2992L272.666 30.2993L272.666 30.2995C273.041 31.137 273.415 31.9747 273.808 32.8038C273.94 33.0848 274.263 33.3995 274.551 33.4603C275.658 33.6973 276.004 33.97 275.683 35.1027C275.207 36.7828 275.545 38.3182 276.078 39.8746C276.103 39.9494 276.131 40.0248 276.159 40.1006L276.159 40.1007ZM266.477 46.5606L266.477 46.5606L266.477 46.5606C267.177 46.4714 267.876 46.3822 268.558 46.2155C269.353 46.0204 270.014 45.5526 270.162 44.5186C268.594 44.6843 267.081 44.8437 265.567 45.0031L265.566 45.003C264.052 44.8436 262.538 44.6842 260.971 44.5186C261.12 45.5526 261.781 46.0204 262.576 46.2155C263.258 46.3809 263.958 46.4707 264.659 46.5605L264.659 46.5605H264.659C264.962 46.5994 265.265 46.6382 265.567 46.6832C265.869 46.6381 266.173 46.5994 266.477 46.5606ZM269.946 38.1274L269.946 38.1274L269.946 38.1274C270.583 37.495 271.304 36.779 272.033 36.0696C272.531 35.5851 272.231 33.8987 271.543 33.3995C270.104 32.3557 270.093 32.3626 268.646 33.3191L268.562 33.3743C267.903 33.81 267.213 34.1996 266.523 34.5894L266.523 34.5895L266.523 34.5895C266.203 34.7702 265.884 34.9509 265.567 35.1362C265.261 34.9582 264.953 34.7841 264.645 34.61L264.645 34.61C263.943 34.2137 263.242 33.8173 262.571 33.3743L262.488 33.3191C261.04 32.3626 261.03 32.3557 259.591 33.3995C258.903 33.8987 258.601 35.5851 259.1 36.0696C259.768 36.7205 260.431 37.3779 261.028 37.9701L261.028 37.9703L261.028 37.9704L261.028 37.9705C261.32 38.26 261.597 38.5339 261.85 38.7839C261.681 39.2116 261.516 39.6215 261.355 40.0198L261.355 40.0199C260.993 40.9206 260.654 41.7617 260.346 42.614C260.143 43.1761 260.411 43.5663 261.013 43.6628C261.427 43.7287 262.08 43.788 262.75 43.8488L262.751 43.8488L262.751 43.8489C263.529 43.9195 264.331 43.9923 264.81 44.0802C265.281 44.1672 265.317 43.1405 265.353 42.1249C265.378 41.428 265.402 40.7363 265.567 40.4137C265.732 40.7363 265.756 41.4266 265.78 42.122C265.816 43.1353 265.853 44.1597 266.324 44.0739C266.802 43.9861 267.602 43.9153 268.379 43.8464H268.379C269.05 43.7869 269.705 43.7289 270.121 43.6628C270.723 43.5663 270.991 43.1761 270.788 42.614C270.479 41.7618 270.141 40.9206 269.778 40.02L269.778 40.0199C269.618 39.6216 269.453 39.2116 269.284 38.7839C269.49 38.5793 269.712 38.359 269.946 38.1275L269.946 38.1274L269.946 38.1274ZM261.217 34.0097C260.776 34.5194 260.394 34.962 260.069 35.3396C260.209 35.4593 260.343 35.5785 260.475 35.6955C260.798 35.9821 261.106 36.2552 261.441 36.489C261.651 36.6359 262.001 36.7282 262.234 36.661C262.764 36.5108 263.281 36.3155 263.836 36.1061C264.048 36.0262 264.265 35.9442 264.491 35.8619C263.45 35.2725 262.353 34.6516 261.219 34.0097H261.217ZM262.607 37.6785C263.115 38.2292 263.489 38.0465 263.903 37.844C264.172 37.7125 264.459 37.5727 264.81 37.6197C264.57 37.4234 264.386 37.2732 264.228 37.1443L264.227 37.144L264.227 37.1435L264.226 37.143C264.073 37.0176 263.943 36.9123 263.811 36.8038L263.705 36.8806C263.343 37.1437 263.009 37.3856 262.609 37.6764L262.607 37.6785ZM266.645 35.8619C266.886 35.9491 267.117 36.0363 267.342 36.1213L267.342 36.1213C267.88 36.3244 268.384 36.5146 268.902 36.661C269.137 36.7282 269.487 36.6338 269.695 36.489C270.03 36.2552 270.338 35.9821 270.661 35.6955L270.661 35.6955C270.792 35.5785 270.927 35.4593 271.067 35.3396C270.928 35.1792 270.78 35.007 270.621 34.8229L270.62 34.8227C270.405 34.5736 270.171 34.3028 269.919 34.0097C268.782 34.6537 267.685 35.2746 266.647 35.8619H266.645ZM266.33 37.619C266.328 37.6192 266.326 37.6195 266.324 37.6197L266.326 37.6218C266.327 37.6209 266.328 37.6199 266.33 37.619ZM267.23 37.8439C266.963 37.7132 266.678 37.5741 266.33 37.619C266.392 37.5676 266.451 37.5194 266.507 37.4739C266.87 37.177 267.092 36.9946 267.325 36.8059L267.43 36.8827C267.793 37.1458 268.127 37.3877 268.526 37.6785C268.019 38.2292 267.645 38.0465 267.23 37.8439Z" fill="url(#paint27_linear_3572_15826)"/>
<path d="M276.352 40.8793L276.102 40.8809L276.102 40.8818L276.352 40.8793ZM276.159 40.1007L275.923 40.1846L275.924 40.1875L276.159 40.1007ZM276.353 40.9667L276.103 40.9692L276.103 40.9694L276.353 40.9667ZM276.145 42.3245L275.93 42.1952L275.93 42.1953L276.145 42.3245ZM270.24 48.7724L270.089 48.5729L270.088 48.5736L270.24 48.7724ZM269.424 49.1898L269.404 48.9403L269.403 48.9404L269.424 49.1898ZM266.603 49.3618L266.591 49.1118L266.589 49.1119L266.603 49.3618ZM266.603 49.3618L266.613 49.6119L266.617 49.6117L266.603 49.3618ZM266.603 49.3618L266.593 49.1117L266.59 49.1118L266.603 49.3618ZM265.567 49.4142L265.553 49.6642L265.567 49.6649L265.58 49.6642L265.567 49.4142ZM264.531 49.3618L264.543 49.1118L264.541 49.1117L264.531 49.3618ZM264.531 49.3618L264.515 49.6117L264.52 49.6119L264.531 49.3618ZM264.531 49.3618L264.515 49.6116L264.515 49.6116L264.531 49.3618ZM264.53 49.3618L264.546 49.1119L264.543 49.1118L264.53 49.3618ZM261.709 49.1898L261.687 49.4391L261.688 49.4392L261.709 49.1898ZM260.893 48.7724L260.742 48.9719L260.742 48.972L260.893 48.7724ZM254.989 42.3245L254.774 42.4533L254.774 42.4537L254.989 42.3245ZM254.78 40.9668L255.031 40.9694L255.031 40.9693L254.78 40.9668ZM254.781 40.8793L255.031 40.8818L255.031 40.8809L254.781 40.8793ZM254.979 40.0867L254.744 39.9996L254.744 39.9996L254.979 40.0867ZM255.056 39.8746L255.293 39.956L255.293 39.9557L255.056 39.8746ZM255.45 35.1027L255.691 35.0344L255.691 35.0343L255.45 35.1027ZM256.583 33.4603L256.636 33.705L256.637 33.7047L256.583 33.4603ZM257.325 32.8038L257.099 32.6966L257.099 32.6973L257.325 32.8038ZM258.474 30.2856L258.702 30.3878L258.705 30.3819L258.474 30.2856ZM258.474 30.2856L258.245 30.1833L258.243 30.1893L258.474 30.2856ZM258.474 30.2855L258.702 30.3878L258.702 30.3877L258.474 30.2855ZM259.58 27.8557L259.354 27.7486L259.354 27.7488L259.58 27.8557ZM260.335 27.0817L260.283 26.837L260.282 26.8371L260.335 27.0817ZM264.249 26.3421L264.206 26.0956L264.206 26.0956L264.249 26.3421ZM265.567 26.1084L265.611 25.8621L265.567 25.8541L265.522 25.8621L265.567 26.1084ZM266.885 26.3421L266.841 26.5886L266.841 26.5886L266.885 26.3421ZM270.798 27.0817L270.851 26.8371L270.851 26.837L270.798 27.0817ZM271.553 27.8557L271.779 27.7487L271.779 27.7486L271.553 27.8557ZM272.666 30.2991L272.897 30.2019L272.895 30.1969L272.666 30.2991ZM272.666 30.2992L272.435 30.3963L272.438 30.4029L272.666 30.2992ZM272.666 30.2993L272.894 30.1961L272.894 30.1956L272.666 30.2993ZM272.666 30.2995L272.895 30.1973L272.894 30.1962L272.666 30.2995ZM273.808 32.8038L274.035 32.6973L274.034 32.6966L273.808 32.8038ZM274.551 33.4603L274.603 33.2155L274.602 33.2154L274.551 33.4603ZM275.683 35.1027L275.924 35.1709L275.924 35.1709L275.683 35.1027ZM276.078 39.8746L276.315 39.7945L276.314 39.7935L276.078 39.8746ZM276.159 40.1006L276.395 40.0167L276.393 40.0138L276.159 40.1006ZM266.477 46.5606L266.509 46.8089L266.523 46.807L266.538 46.8034L266.477 46.5606ZM266.477 46.5606L266.446 46.3123L266.431 46.3142L266.416 46.3177L266.477 46.5606ZM268.558 46.2155L268.617 46.4586L268.618 46.4586L268.558 46.2155ZM270.162 44.5186L270.41 44.5542L270.456 44.2358L270.136 44.2696L270.162 44.5186ZM265.567 45.0031L265.541 45.2521L265.567 45.2547L265.593 45.252L265.567 45.0031ZM265.566 45.003L265.54 45.2519L265.54 45.252L265.566 45.003ZM260.971 44.5186L260.997 44.2696L260.677 44.2358L260.723 44.5542L260.971 44.5186ZM262.576 46.2155L262.516 46.4586L262.517 46.4587L262.576 46.2155ZM264.659 46.5605L264.627 46.8088L264.633 46.8094L264.659 46.5605ZM264.659 46.5605L264.633 46.8094L264.646 46.8108H264.659V46.5605ZM264.659 46.5605L264.691 46.3122L264.675 46.3102H264.659V46.5605ZM265.567 46.6832L265.53 46.9308L265.567 46.9363L265.604 46.9308L265.567 46.6832ZM269.946 38.1274L269.769 37.9497L269.769 37.9504L269.946 38.1274ZM272.033 36.0696L272.208 36.2491L272.208 36.2489L272.033 36.0696ZM271.543 33.3995L271.69 33.1969L271.69 33.1968L271.543 33.3995ZM268.646 33.3191L268.784 33.528L268.784 33.528L268.646 33.3191ZM268.562 33.3743L268.424 33.1654L268.424 33.1655L268.562 33.3743ZM266.523 34.5894L266.4 34.3715L266.399 34.3723L266.523 34.5894ZM266.523 34.5895L266.643 34.8093L266.648 34.8066L266.523 34.5895ZM266.523 34.5895L266.403 34.3698L266.4 34.3716L266.523 34.5895ZM265.567 35.1362L265.441 35.3525L265.567 35.4261L265.693 35.3523L265.567 35.1362ZM264.645 34.61L264.521 34.8273L264.522 34.8279L264.645 34.61ZM264.645 34.61L264.769 34.3926L264.768 34.392L264.645 34.61ZM262.571 33.3743L262.709 33.1655L262.709 33.1654L262.571 33.3743ZM262.488 33.3191L262.35 33.528L262.35 33.528L262.488 33.3191ZM259.591 33.3995L259.444 33.1968L259.444 33.1969L259.591 33.3995ZM259.1 36.0696L259.275 35.8904L259.274 35.89L259.1 36.0696ZM261.028 37.9701L260.852 38.1479L260.852 38.1485L261.028 37.9701ZM261.028 37.9703L261.204 37.7922L261.204 37.7919L261.028 37.9703ZM261.028 37.9704L260.852 38.1485L260.853 38.149L261.028 37.9704ZM261.028 37.9705L261.205 37.7928L261.204 37.7919L261.028 37.9705ZM261.85 38.7839L262.083 38.8759L262.144 38.7219L262.026 38.6057L261.85 38.7839ZM261.355 40.0198L261.587 40.1138L261.588 40.1133L261.355 40.0198ZM261.355 40.0199L261.123 39.926L261.123 39.9264L261.355 40.0199ZM260.346 42.614L260.581 42.6992L260.581 42.6991L260.346 42.614ZM261.013 43.6628L260.973 43.9099L260.974 43.9099L261.013 43.6628ZM262.75 43.8488L262.784 43.6005L262.773 43.5996L262.75 43.8488ZM262.751 43.8488L262.717 44.097L262.722 44.0975L262.751 43.8488ZM262.751 43.8489L262.722 44.0976L262.728 44.0981L262.751 43.8489ZM264.81 44.0802L264.855 43.834L264.855 43.834L264.81 44.0802ZM265.353 42.1249L265.103 42.1161L265.103 42.1161L265.353 42.1249ZM265.567 40.4137L265.79 40.2998L265.567 39.8632L265.344 40.2998L265.567 40.4137ZM265.78 42.122L265.53 42.1308L265.53 42.1308L265.78 42.122ZM266.324 44.0739L266.369 44.3201L266.369 44.3201L266.324 44.0739ZM268.379 43.8464V43.5961H268.367L268.356 43.5971L268.379 43.8464ZM268.379 43.8464V44.0968H268.39L268.401 44.0958L268.379 43.8464ZM270.121 43.6628L270.16 43.9099L270.16 43.9099L270.121 43.6628ZM270.788 42.614L270.552 42.6991L270.552 42.6992L270.788 42.614ZM269.778 40.02L269.544 40.1079L269.546 40.1134L269.778 40.02ZM269.778 40.0199L270.013 39.932L270.01 39.9264L269.778 40.0199ZM269.284 38.7839L269.108 38.6059L268.99 38.7222L269.051 38.8759L269.284 38.7839ZM269.946 38.1275L270.122 38.3051L270.123 38.3045L269.946 38.1275ZM260.069 35.3396L259.88 35.1763L259.716 35.3664L259.906 35.5297L260.069 35.3396ZM261.217 34.0097V33.7594H261.102L261.027 33.8461L261.217 34.0097ZM260.475 35.6955L260.309 35.8827L260.309 35.8827L260.475 35.6955ZM261.441 36.489L261.585 36.284L261.584 36.2838L261.441 36.489ZM262.234 36.661L262.166 36.4202L262.165 36.4205L262.234 36.661ZM263.836 36.1061L263.748 35.8719L263.748 35.8719L263.836 36.1061ZM264.491 35.8619L264.577 36.097L265.086 35.9112L264.614 35.6441L264.491 35.8619ZM261.219 34.0097L261.342 33.7919L261.285 33.7594H261.219V34.0097ZM263.903 37.844L264.013 38.0689L264.013 38.0689L263.903 37.844ZM262.607 37.6785L262.43 37.5014L262.26 37.6714L262.423 37.8481L262.607 37.6785ZM264.81 37.6197L264.776 37.8678L265.651 37.9852L264.968 37.4261L264.81 37.6197ZM264.228 37.1443L264.386 36.9503L264.386 36.9501L264.228 37.1443ZM264.227 37.144L264.069 37.3378L264.069 37.3382L264.227 37.144ZM264.227 37.1435L264.385 36.9497L264.385 36.9496L264.227 37.1435ZM264.226 37.143L264.384 36.9491L264.384 36.9491L264.226 37.143ZM263.811 36.8038L263.97 36.6103L263.821 36.4878L263.664 36.6012L263.811 36.8038ZM263.705 36.8806L263.852 37.0832L263.852 37.0832L263.705 36.8806ZM262.609 37.6764L262.462 37.4739L262.446 37.4855L262.432 37.4993L262.609 37.6764ZM267.342 36.1213L267.441 35.891L267.43 35.8871L267.342 36.1213ZM266.645 35.8619V35.6116L266.56 36.0972L266.645 35.8619ZM267.342 36.1213L267.243 36.3516L267.254 36.3555L267.342 36.1213ZM268.902 36.661L268.971 36.4204L268.97 36.4202L268.902 36.661ZM269.695 36.489L269.838 36.6944L269.838 36.6943L269.695 36.489ZM270.661 35.6955L270.827 35.8827L270.832 35.8778L270.838 35.8725L270.661 35.6955ZM270.661 35.6955L270.495 35.5083L270.489 35.5132L270.484 35.5185L270.661 35.6955ZM271.067 35.3396L271.229 35.5297L271.42 35.3664L271.256 35.1763L271.067 35.3396ZM270.621 34.8229L270.431 34.9865L270.431 34.9866L270.621 34.8229ZM270.62 34.8227L270.81 34.6591L270.81 34.659L270.62 34.8227ZM269.919 34.0097L270.109 33.8465L269.975 33.6906L269.796 33.792L269.919 34.0097ZM266.647 35.8619V36.1122H266.713L266.77 36.0797L266.647 35.8619ZM266.324 37.6197L266.291 37.3716L265.789 37.439L266.147 37.7967L266.324 37.6197ZM266.326 37.6218L266.149 37.7988L266.309 37.959L266.485 37.8156L266.326 37.6218ZM267.23 37.8439L267.12 38.0688L267.12 38.0688L267.23 37.8439ZM266.507 37.4739L266.665 37.6676L266.665 37.6676L266.507 37.4739ZM267.325 36.8059L267.472 36.6033L267.316 36.4904L267.167 36.6116L267.325 36.8059ZM267.43 36.8827L267.577 36.6801L267.577 36.6801L267.43 36.8827ZM268.526 37.6785L268.711 37.8481L268.901 37.6414L268.674 37.476L268.526 37.6785ZM276.603 40.8777C276.601 40.5664 276.485 40.2619 276.394 40.0139L275.924 40.1875C276.023 40.4546 276.101 40.6737 276.102 40.8809L276.603 40.8777ZM276.603 40.9642L276.603 40.8768L276.102 40.8818L276.103 40.9692L276.603 40.9642ZM276.359 42.4538C276.495 42.2276 276.555 41.9635 276.582 41.7112C276.609 41.4582 276.606 41.1945 276.603 40.9641L276.103 40.9694C276.105 41.2054 276.108 41.4391 276.084 41.6576C276.06 41.8768 276.013 42.0584 275.93 42.1952L276.359 42.4538ZM270.391 48.9718C272.772 47.1664 274.809 45.025 276.359 42.4537L275.93 42.1953C274.418 44.7043 272.427 46.8 270.089 48.5729L270.391 48.9718ZM269.444 49.4393C269.638 49.4235 269.818 49.3463 269.971 49.2595C270.126 49.1718 270.271 49.064 270.392 48.9712L270.088 48.5736C269.968 48.6653 269.847 48.7547 269.725 48.8238C269.601 48.8938 269.494 48.933 269.404 48.9403L269.444 49.4393ZM266.615 49.6118C267.555 49.5657 268.501 49.5194 269.445 49.4392L269.403 48.9404C268.469 49.0197 267.532 49.0656 266.591 49.1118L266.615 49.6118ZM266.617 49.6117L266.617 49.6117L266.589 49.1119L266.589 49.1119L266.617 49.6117ZM266.613 49.6119L266.613 49.6119L266.593 49.1117L266.593 49.1117L266.613 49.6119ZM265.58 49.6642C265.925 49.6456 266.269 49.6287 266.615 49.6118L266.59 49.1118C266.245 49.1287 265.899 49.1457 265.553 49.1643L265.58 49.6642ZM264.519 49.6118C264.864 49.6287 265.209 49.6456 265.553 49.6642L265.58 49.1643C265.234 49.1457 264.888 49.1287 264.543 49.1118L264.519 49.6118ZM264.52 49.6119L264.521 49.6119L264.541 49.1117L264.541 49.1117L264.52 49.6119ZM264.515 49.6116L264.515 49.6116L264.546 49.1119L264.546 49.1119L264.515 49.6116ZM264.515 49.6116L264.515 49.6116L264.546 49.112L264.546 49.112L264.515 49.6116ZM261.688 49.4392C262.632 49.5194 263.578 49.5657 264.518 49.6118L264.543 49.1118C263.601 49.0656 262.664 49.0197 261.731 48.9404L261.688 49.4392ZM260.742 48.972C260.863 49.0634 261.008 49.1705 261.162 49.2579C261.315 49.3445 261.495 49.422 261.687 49.4391L261.732 48.9405C261.641 48.9324 261.533 48.8925 261.409 48.8223C261.286 48.7528 261.165 48.6638 261.044 48.5728L260.742 48.972ZM254.774 42.4537C256.324 45.0249 258.361 47.1684 260.742 48.9719L261.045 48.5728C258.706 46.8021 256.716 44.7044 255.203 42.1953L254.774 42.4537ZM254.53 40.9642C254.528 41.1945 254.525 41.4577 254.552 41.7104C254.579 41.9626 254.638 42.2265 254.774 42.4533L255.203 42.1957C255.121 42.0576 255.073 41.8756 255.049 41.6568C255.026 41.4385 255.028 41.2053 255.031 40.9694L254.53 40.9642ZM254.531 40.8768L254.53 40.9643L255.031 40.9693L255.031 40.8818L254.531 40.8768ZM254.744 39.9996C254.651 40.252 254.533 40.5615 254.531 40.8777L255.031 40.8809C255.033 40.6692 255.113 40.4455 255.214 40.1738L254.744 39.9996ZM254.819 39.7932C254.796 39.8601 254.771 39.928 254.744 39.9996L255.214 40.1738C255.24 40.1032 255.267 40.0296 255.293 39.956L254.819 39.7932ZM255.209 35.1709C255.664 36.7765 255.347 38.2519 254.819 39.7935L255.293 39.9557C255.831 38.3845 256.188 36.7892 255.691 35.0344L255.209 35.1709ZM256.53 33.2156C256.249 33.2763 256.002 33.342 255.797 33.428C255.591 33.5143 255.411 33.6279 255.283 33.7942C255.018 34.1372 255.047 34.5986 255.21 35.171L255.691 35.0343C255.533 34.4762 255.574 34.2359 255.679 34.1002C255.735 34.0271 255.83 33.9571 255.99 33.8896C256.152 33.8219 256.363 33.7638 256.636 33.705L256.53 33.2156ZM257.099 32.6973C257.049 32.8028 256.957 32.9254 256.843 33.0285C256.727 33.1337 256.613 33.1973 256.529 33.2159L256.637 33.7047C256.838 33.6603 257.029 33.5362 257.18 33.3992C257.333 33.26 257.469 33.0858 257.552 32.9103L257.099 32.6973ZM258.245 30.1834C257.868 31.026 257.493 31.8656 257.099 32.6966L257.552 32.9109C257.948 32.0741 258.326 31.2296 258.702 30.3878L258.245 30.1834ZM258.243 30.1893L258.243 30.1893L258.705 30.3819L258.705 30.3818L258.243 30.1893ZM258.245 30.1832L258.245 30.1833L258.702 30.3879L258.702 30.3878L258.245 30.1832ZM259.354 27.7488C258.973 28.5568 258.608 29.3715 258.245 30.1833L258.702 30.3877C259.066 29.5751 259.428 28.765 259.807 27.9625L259.354 27.7488ZM260.282 26.8371C260.057 26.8862 259.862 27.0473 259.717 27.2066C259.566 27.3721 259.438 27.5704 259.354 27.7486L259.807 27.9627C259.871 27.8263 259.972 27.6701 260.087 27.5435C260.208 27.4108 260.316 27.3421 260.389 27.3262L260.282 26.8371ZM264.206 26.0956C262.898 26.3254 261.585 26.5563 260.283 26.837L260.388 27.3263C261.68 27.0481 262.983 26.8188 264.292 26.5886L264.206 26.0956ZM265.522 25.8621C265.084 25.9411 264.645 26.0183 264.206 26.0956L264.292 26.5886C264.732 26.5113 265.172 26.434 265.611 26.3547L265.522 25.8621ZM266.928 26.0956C266.488 26.0183 266.049 25.9411 265.611 25.8621L265.522 26.3547C265.962 26.434 266.402 26.5113 266.841 26.5886L266.928 26.0956ZM270.851 26.837C269.548 26.5563 268.235 26.3254 266.928 26.0956L266.841 26.5886C268.15 26.8188 269.454 27.0481 270.745 27.3263L270.851 26.837ZM271.779 27.7486C271.695 27.5704 271.567 27.3721 271.417 27.2066C271.272 27.0473 271.076 26.8862 270.851 26.8371L270.745 27.3262C270.817 27.3421 270.925 27.4108 271.046 27.5435C271.161 27.6701 271.262 27.8263 271.327 27.9627L271.779 27.7486ZM272.895 30.1969C272.529 29.3801 272.163 28.5605 271.779 27.7487L271.327 27.9626C271.708 28.7688 272.072 29.5836 272.438 30.4012L272.895 30.1969ZM272.897 30.202L272.897 30.202L272.435 30.3962L272.435 30.3963L272.897 30.202ZM272.894 30.1956L272.894 30.1955L272.438 30.4029L272.438 30.4031L272.894 30.1956ZM272.894 30.1962L272.894 30.1961L272.438 30.4026L272.438 30.4027L272.894 30.1962ZM274.034 32.6966C273.643 31.8704 273.269 31.0353 272.895 30.1973L272.438 30.4017C272.812 31.2388 273.188 32.079 273.582 32.9109L274.034 32.6966ZM274.602 33.2154C274.519 33.1977 274.405 33.1349 274.29 33.0296C274.177 32.9266 274.084 32.8034 274.035 32.6973L273.581 32.9103C273.664 33.0852 273.799 33.2599 273.952 33.3996C274.103 33.5371 274.295 33.662 274.499 33.7052L274.602 33.2154ZM275.924 35.1709C276.086 34.5976 276.116 34.1357 275.851 33.7926C275.722 33.6262 275.542 33.5127 275.336 33.4267C275.131 33.341 274.884 33.2757 274.603 33.2155L274.498 33.7051C274.771 33.7634 274.982 33.8211 275.143 33.8886C275.304 33.9557 275.398 34.0257 275.454 34.0986C275.559 34.2343 275.601 34.4751 275.442 35.0344L275.924 35.1709ZM276.314 39.7935C275.787 38.2519 275.469 36.7765 275.924 35.1709L275.442 35.0344C274.945 36.7892 275.303 38.3845 275.841 39.9557L276.314 39.7935ZM276.393 40.0138C276.365 39.9374 276.339 39.8654 276.315 39.7945L275.84 39.9546C275.867 40.0335 275.896 40.1122 275.924 40.1874L276.393 40.0138ZM276.395 40.0168L276.395 40.0167L275.923 40.1844L275.923 40.1846L276.395 40.0168ZM266.416 46.3178L266.416 46.3178L266.538 46.8034L266.538 46.8034L266.416 46.3178ZM266.416 46.3177L266.416 46.3178L266.538 46.8034L266.538 46.8034L266.416 46.3177ZM268.498 45.9723C267.833 46.1351 267.148 46.2228 266.446 46.3123L266.509 46.8089C267.206 46.72 267.92 46.6292 268.617 46.4586L268.498 45.9723ZM269.915 44.4829C269.847 44.95 269.668 45.2725 269.43 45.5007C269.187 45.732 268.868 45.8817 268.498 45.9724L268.618 46.4586C269.043 46.3542 269.451 46.1724 269.775 45.8626C270.103 45.5496 270.329 45.1212 270.41 44.5542L269.915 44.4829ZM265.593 45.252C267.107 45.0926 268.62 44.9332 270.189 44.7675L270.136 44.2696C268.567 44.4353 267.055 44.5947 265.541 44.7542L265.593 45.252ZM265.54 45.252L265.541 45.2521L265.593 44.7541L265.592 44.754L265.54 45.252ZM260.945 44.7675C262.511 44.9332 264.026 45.0925 265.54 45.2519L265.592 44.7541C264.078 44.5947 262.564 44.4353 260.997 44.2696L260.945 44.7675ZM262.635 45.9724C262.266 45.8817 261.946 45.732 261.704 45.5007C261.465 45.2725 261.286 44.95 261.219 44.4829L260.723 44.5542C260.805 45.1212 261.031 45.5496 261.358 45.8626C261.682 46.1724 262.091 46.3542 262.516 46.4586L262.635 45.9724ZM264.691 46.3122C263.988 46.2221 263.301 46.1338 262.635 45.9722L262.517 46.4587C263.215 46.628 263.929 46.7193 264.627 46.8088L264.691 46.3122ZM264.685 46.3116L264.685 46.3116L264.633 46.8094L264.633 46.8094L264.685 46.3116ZM264.659 46.3102H264.659V46.8108H264.659V46.3102ZM265.604 46.4357C265.299 46.3902 264.993 46.351 264.691 46.3122L264.627 46.8088C264.931 46.8477 265.231 46.8862 265.53 46.9308L265.604 46.4357ZM266.445 46.3123C266.142 46.351 265.835 46.3901 265.53 46.4357L265.604 46.9308C265.903 46.8861 266.204 46.8477 266.509 46.8089L266.445 46.3123ZM269.769 37.9504L269.769 37.9504L270.123 38.3044L270.123 38.3044L269.769 37.9504ZM269.769 37.9504L269.769 37.9504L270.123 38.3044L270.123 38.3044L269.769 37.9504ZM271.859 35.8902C271.129 36.6006 270.406 37.3175 269.769 37.9497L270.122 38.305C270.759 37.6726 271.48 36.9574 272.208 36.2491L271.859 35.8902ZM271.396 33.6021C271.523 33.6948 271.649 33.8555 271.755 34.0705C271.861 34.2828 271.94 34.5327 271.986 34.7848C272.032 35.0375 272.042 35.2825 272.015 35.4853C271.987 35.6943 271.925 35.8256 271.859 35.8904L272.208 36.2489C272.39 36.0714 272.477 35.8102 272.511 35.5511C272.547 35.2858 272.532 34.9872 272.479 34.6954C272.426 34.4029 272.332 34.1073 272.204 33.8478C272.076 33.591 271.906 33.3537 271.69 33.1969L271.396 33.6021ZM268.784 33.528C269.15 33.2859 269.41 33.1147 269.623 33.0031C269.833 32.8932 269.97 32.8564 270.091 32.8594C270.212 32.8625 270.351 32.9066 270.561 33.0285C270.773 33.1519 271.032 33.3384 271.396 33.6021L271.69 33.1968C271.334 32.9387 271.052 32.7346 270.812 32.5956C270.57 32.4552 270.346 32.3651 270.104 32.359C269.861 32.3529 269.634 32.4319 269.39 32.5596C269.15 32.6858 268.865 32.8741 268.508 33.1103L268.784 33.528ZM268.7 33.5831L268.784 33.528L268.508 33.1103L268.424 33.1654L268.7 33.5831ZM266.647 34.8073C267.335 34.4183 268.032 34.0244 268.7 33.5831L268.424 33.1655C267.773 33.5955 267.091 33.981 266.4 34.3715L266.647 34.8073ZM266.648 34.8066L266.648 34.8065L266.399 34.3723L266.399 34.3724L266.648 34.8066ZM266.643 34.8093L266.643 34.8093L266.403 34.3698L266.403 34.3698L266.643 34.8093ZM265.693 35.3523C266.008 35.1681 266.326 34.9883 266.646 34.8075L266.4 34.3716C266.081 34.5521 265.759 34.7337 265.44 34.9202L265.693 35.3523ZM264.522 34.8279C264.83 35.0022 265.137 35.1755 265.441 35.3525L265.693 34.92C265.386 34.741 265.076 34.566 264.768 34.3921L264.522 34.8279ZM264.521 34.8273L264.521 34.8273L264.769 34.3927L264.769 34.3927L264.521 34.8273ZM262.433 33.5831C263.112 34.0317 263.822 34.4324 264.522 34.8279L264.768 34.392C264.065 33.995 263.371 33.6028 262.709 33.1655L262.433 33.5831ZM262.35 33.528L262.433 33.5831L262.709 33.1654L262.626 33.1103L262.35 33.528ZM259.738 33.6021C260.101 33.3384 260.36 33.1519 260.573 33.0285C260.783 32.9066 260.921 32.8625 261.043 32.8594C261.163 32.8564 261.301 32.8932 261.511 33.0031C261.724 33.1147 261.984 33.2859 262.35 33.528L262.626 33.1103C262.268 32.8741 261.984 32.6858 261.743 32.5596C261.499 32.4319 261.273 32.3529 261.03 32.359C260.788 32.3651 260.563 32.4552 260.321 32.5956C260.082 32.7346 259.8 32.9387 259.444 33.1968L259.738 33.6021ZM259.274 35.89C259.208 35.8252 259.145 35.6941 259.117 35.4852C259.091 35.2825 259.101 35.0376 259.146 34.7849C259.192 34.5328 259.272 34.2829 259.378 34.0706C259.485 33.8556 259.61 33.6948 259.738 33.6021L259.444 33.1969C259.228 33.3537 259.057 33.5909 258.93 33.8477C258.801 34.1071 258.707 34.4027 258.654 34.6952C258.601 34.9871 258.586 35.2858 258.621 35.5512C258.656 35.8105 258.743 36.0718 258.926 36.2493L259.274 35.89ZM261.204 37.7924C260.607 37.2003 259.943 36.5421 259.275 35.8904L258.925 36.2489C259.592 36.8988 260.254 37.5555 260.852 38.1479L261.204 37.7924ZM261.204 37.7919L261.204 37.7917L260.852 38.1485L260.853 38.1487L261.204 37.7919ZM261.204 37.7923L261.204 37.7922L260.852 38.1484L260.852 38.1485L261.204 37.7923ZM261.204 37.7919L261.204 37.7918L260.853 38.149L260.853 38.1491L261.204 37.7919ZM262.026 38.6057C261.773 38.356 261.497 38.0823 261.205 37.7928L260.852 38.1482C261.144 38.4377 261.42 38.7118 261.674 38.9621L262.026 38.6057ZM261.588 40.1133C261.748 39.7151 261.913 39.3044 262.083 38.8759L261.617 38.6918C261.448 39.1187 261.284 39.528 261.123 39.9264L261.588 40.1133ZM261.587 40.1138L261.587 40.1138L261.123 39.9259L261.123 39.926L261.587 40.1138ZM260.581 42.6991C260.888 41.8518 261.225 41.0148 261.588 40.1134L261.123 39.9264C260.761 40.8264 260.421 41.6717 260.111 42.5288L260.581 42.6991ZM261.053 43.4156C260.793 43.3741 260.653 43.2769 260.587 43.1766C260.525 43.0811 260.498 42.9302 260.581 42.6992L260.111 42.5288C259.991 42.8599 259.996 43.1851 260.168 43.4494C260.336 43.7088 260.63 43.8549 260.973 43.9099L261.053 43.4156ZM262.773 43.5996C262.099 43.5384 261.456 43.4799 261.052 43.4156L260.974 43.9099C261.398 43.9776 262.062 44.0377 262.728 44.0981L262.773 43.5996ZM262.784 43.6007L262.784 43.6007L262.717 44.0969L262.717 44.097L262.784 43.6007ZM262.779 43.6002L262.779 43.6002L262.722 44.0975L262.722 44.0975L262.779 43.6002ZM264.855 43.834C264.362 43.7435 263.546 43.6697 262.773 43.5996L262.728 44.0981C263.512 44.1693 264.299 44.241 264.764 44.3264L264.855 43.834ZM265.103 42.1161C265.085 42.6314 265.067 43.1192 264.999 43.4683C264.964 43.6457 264.923 43.7548 264.884 43.8102C264.866 43.8348 264.857 43.8378 264.86 43.8363C264.866 43.8336 264.868 43.8364 264.855 43.834L264.764 44.3263C264.869 44.3457 264.975 44.3355 265.073 44.2893C265.169 44.2444 265.24 44.1735 265.293 44.0982C265.395 43.9538 265.452 43.7591 265.49 43.5638C265.567 43.1673 265.586 42.634 265.603 42.1338L265.103 42.1161ZM265.344 40.2998C265.238 40.5072 265.188 40.8033 265.158 41.1043C265.128 41.4141 265.115 41.7698 265.103 42.1161L265.603 42.1338C265.616 41.7831 265.628 41.4445 265.656 41.1536C265.686 40.8539 265.731 40.6428 265.79 40.5275L265.344 40.2998ZM266.031 42.1131C266.018 41.7676 266.006 41.4126 265.975 41.1033C265.945 40.8028 265.896 40.5071 265.79 40.2998L265.344 40.5275C265.403 40.6428 265.447 40.8536 265.477 41.1528C265.506 41.4431 265.518 41.781 265.53 42.1308L266.031 42.1131ZM266.279 43.8276C266.266 43.8299 266.268 43.8272 266.273 43.8298C266.276 43.8312 266.267 43.8281 266.25 43.8035C266.211 43.7482 266.169 43.6393 266.135 43.4623C266.067 43.114 266.049 42.6273 266.031 42.1131L265.53 42.1308C265.548 42.63 265.566 43.1622 265.643 43.558C265.681 43.753 265.739 43.9474 265.841 44.0917C265.893 44.1669 265.965 44.2377 266.06 44.2826C266.158 44.3288 266.264 44.3393 266.369 44.3201L266.279 43.8276ZM268.356 43.5971C267.585 43.6654 266.771 43.7373 266.279 43.8277L266.369 44.3201C266.833 44.235 267.618 44.1651 268.401 44.0958L268.356 43.5971ZM268.379 43.5961H268.379V44.0968H268.379V43.5961ZM270.081 43.4156C269.677 43.48 269.032 43.5372 268.356 43.5971L268.401 44.0958C269.068 44.0366 269.734 43.9778 270.16 43.9099L270.081 43.4156ZM270.552 42.6992C270.636 42.9302 270.608 43.0811 270.546 43.1766C270.481 43.2769 270.34 43.3741 270.081 43.4156L270.16 43.9099C270.503 43.8549 270.797 43.7088 270.966 43.4494C271.138 43.1851 271.143 42.8599 271.023 42.5288L270.552 42.6992ZM269.546 40.1134C269.909 41.0148 270.246 41.8518 270.552 42.6991L271.023 42.5288C270.713 41.6717 270.373 40.8264 270.01 39.9265L269.546 40.1134ZM269.544 40.1078L269.544 40.1078L270.013 39.9321L270.012 39.932L269.544 40.1078ZM269.051 38.8759C269.22 39.3045 269.386 39.7151 269.546 40.1134L270.01 39.9264C269.85 39.528 269.685 39.1187 269.516 38.6918L269.051 38.8759ZM269.769 37.9498C269.536 38.1814 269.314 38.4015 269.108 38.6059L269.46 38.9618C269.667 38.757 269.889 38.5366 270.122 38.3051L269.769 37.9498ZM269.769 37.9504L269.769 37.9505L270.123 38.3045L270.123 38.3044L269.769 37.9504ZM269.769 37.9504L269.769 37.9504L270.123 38.3044L270.123 38.3044L269.769 37.9504ZM260.259 35.5029C260.584 35.1255 260.966 34.683 261.406 34.1734L261.027 33.8461C260.587 34.3559 260.205 34.7986 259.88 35.1763L260.259 35.5029ZM260.641 35.5083C260.51 35.3915 260.374 35.2709 260.232 35.1495L259.906 35.5297C260.044 35.6478 260.177 35.7655 260.309 35.8827L260.641 35.5083ZM261.584 36.2838C261.263 36.0597 260.966 35.7967 260.641 35.5083L260.309 35.8827C260.63 36.1675 260.949 36.4506 261.298 36.6943L261.584 36.2838ZM262.165 36.4205C262.104 36.4381 262.004 36.439 261.885 36.4114C261.769 36.3845 261.659 36.3363 261.585 36.284L261.297 36.6941C261.432 36.7886 261.603 36.86 261.772 36.8991C261.939 36.9377 262.131 36.9511 262.303 36.9016L262.165 36.4205ZM263.748 35.8719C263.191 36.082 262.683 36.2734 262.166 36.4202L262.302 36.9018C262.844 36.7482 263.372 36.5489 263.925 36.3403L263.748 35.8719ZM264.405 35.6268C264.178 35.7096 263.96 35.7921 263.748 35.8719L263.925 36.3403C264.137 36.2603 264.353 36.1788 264.577 36.097L264.405 35.6268ZM261.095 34.2276C262.23 34.8694 263.327 35.4903 264.367 36.0797L264.614 35.6441C263.574 35.0546 262.477 34.4337 261.342 33.7919L261.095 34.2276ZM261.217 34.2601H261.219V33.7594H261.217V34.2601ZM263.793 37.6191C263.574 37.7263 263.429 37.7919 263.288 37.7934C263.17 37.7946 263.013 37.7495 262.791 37.5089L262.423 37.8481C262.709 38.1582 262.992 38.2971 263.293 38.294C263.568 38.2911 263.818 38.1642 264.013 38.0689L263.793 37.6191ZM264.843 37.3717C264.407 37.3132 264.055 37.4913 263.793 37.6191L264.013 38.0689C264.29 37.9337 264.511 37.8322 264.776 37.8678L264.843 37.3717ZM264.069 37.3382C264.227 37.4672 264.411 37.6172 264.651 37.8134L264.968 37.4261C264.728 37.2296 264.544 37.0793 264.386 36.9503L264.069 37.3382ZM264.069 37.3382L264.07 37.3385L264.386 36.9501L264.385 36.9498L264.069 37.3382ZM264.068 37.3374L264.069 37.3378L264.386 36.9501L264.385 36.9497L264.068 37.3374ZM264.068 37.337L264.069 37.3375L264.385 36.9496L264.384 36.9491L264.068 37.337ZM263.652 36.9973C263.785 37.106 263.914 37.2116 264.068 37.337L264.384 36.9491C264.231 36.8237 264.102 36.7185 263.97 36.6103L263.652 36.9973ZM263.852 37.0832L263.958 37.0064L263.664 36.6012L263.558 36.678L263.852 37.0832ZM262.757 37.8788C263.156 37.5881 263.49 37.3463 263.852 37.0832L263.558 36.678C263.196 36.9411 262.862 37.1831 262.462 37.4739L262.757 37.8788ZM262.784 37.8555L262.786 37.8534L262.432 37.4993L262.43 37.5014L262.784 37.8555ZM267.43 35.8871C267.205 35.8022 266.973 35.7144 266.73 35.6266L266.56 36.0972C266.799 36.1838 267.028 36.2705 267.254 36.3555L267.43 35.8871ZM267.441 35.8913L267.441 35.8912L267.243 36.3514L267.243 36.3514L267.441 35.8913ZM268.97 36.4202C268.465 36.2772 267.971 36.0909 267.43 35.8871L267.254 36.3555C267.79 36.5579 268.304 36.7521 268.834 36.9019L268.97 36.4202ZM269.552 36.2837C269.478 36.3353 269.369 36.3835 269.252 36.4107C269.132 36.4385 269.033 36.4381 268.971 36.4204L268.833 36.9017C269.006 36.9512 269.199 36.937 269.365 36.8983C269.534 36.8589 269.704 36.7876 269.838 36.6944L269.552 36.2837ZM270.495 35.5083C270.17 35.7967 269.873 36.0597 269.552 36.2838L269.838 36.6943C270.187 36.4506 270.506 36.1675 270.827 35.8827L270.495 35.5083ZM270.484 35.5185L270.484 35.5185L270.838 35.8725L270.838 35.8725L270.484 35.5185ZM270.904 35.1495C270.762 35.2709 270.626 35.3915 270.495 35.5083L270.827 35.8827C270.959 35.7655 271.092 35.6478 271.229 35.5297L270.904 35.1495ZM270.431 34.9866C270.59 35.1707 270.739 35.3427 270.877 35.5029L271.256 35.1763C271.118 35.0157 270.969 34.8433 270.81 34.6593L270.431 34.9866ZM270.431 34.9862L270.431 34.9865L270.81 34.6594L270.81 34.6591L270.431 34.9862ZM269.729 34.173C269.982 34.4662 270.216 34.7373 270.431 34.9863L270.81 34.659C270.595 34.41 270.361 34.1393 270.109 33.8465L269.729 34.173ZM266.77 36.0797C267.809 35.4924 268.906 34.8715 270.043 34.2275L269.796 33.792C268.659 34.4359 267.562 35.0567 266.524 35.644L266.77 36.0797ZM266.645 36.1122H266.647V35.6116H266.645V36.1122ZM266.357 37.8678C266.359 37.8676 266.36 37.8674 266.362 37.8672L266.298 37.3707C266.295 37.371 266.293 37.3713 266.291 37.3716L266.357 37.8678ZM266.503 37.4449L266.501 37.4428L266.147 37.7967L266.149 37.7988L266.503 37.4449ZM266.171 37.4253C266.17 37.4264 266.169 37.4271 266.168 37.4281L266.485 37.8156C266.486 37.8146 266.487 37.8135 266.488 37.8127L266.171 37.4253ZM266.362 37.8672C266.625 37.8333 266.845 37.9344 267.12 38.0688L267.34 37.619C267.08 37.492 266.73 37.315 266.298 37.3707L266.362 37.8672ZM266.348 37.2802C266.293 37.3257 266.234 37.374 266.171 37.4253L266.488 37.8127C266.551 37.7613 266.61 37.7131 266.665 37.6676L266.348 37.2802ZM267.167 36.6116C266.934 36.8006 266.711 36.9834 266.348 37.2802L266.665 37.6676C267.028 37.3706 267.251 37.1885 267.482 37.0001L267.167 36.6116ZM267.577 36.6801L267.472 36.6033L267.178 37.0085L267.283 37.0853L267.577 36.6801ZM268.674 37.476C268.274 37.1851 267.94 36.9431 267.577 36.6801L267.283 37.0853C267.646 37.3484 267.98 37.5902 268.379 37.8809L268.674 37.476ZM267.12 38.0688C267.316 38.1642 267.565 38.2911 267.841 38.294C268.141 38.2971 268.425 38.1581 268.711 37.8481L268.342 37.5088C268.121 37.7495 267.963 37.7946 267.846 37.7934C267.704 37.7919 267.56 37.7262 267.34 37.619L267.12 38.0688Z" fill="url(#paint28_linear_3572_15826)" mask="url(#path-39-inside-1_3572_15826)"/>
<mask id="path-41-inside-2_3572_15826" fill="white">
<path d="M268.513 25.7984L268.503 25.7784L268.508 25.8034L268.513 25.7984Z"/>
</mask>
<path d="M268.513 25.7984L268.503 25.7784L268.508 25.8034L268.513 25.7984Z" fill="#E5A70D"/>
<path d="M268.513 25.7984L268.69 25.9754L268.817 25.8478L268.737 25.6864L268.513 25.7984ZM268.503 25.7784L268.727 25.6665L268.257 25.8275L268.503 25.7784ZM268.508 25.8034L268.262 25.8524L268.354 26.3111L268.685 25.9803L268.508 25.8034ZM268.737 25.6864L268.727 25.6665L268.279 25.8904L268.289 25.9103L268.737 25.6864ZM268.257 25.8275L268.262 25.8524L268.753 25.7543L268.748 25.7294L268.257 25.8275ZM268.685 25.9803L268.69 25.9754L268.336 25.6214L268.331 25.6264L268.685 25.9803Z" fill="url(#paint29_linear_3572_15826)" mask="url(#path-41-inside-2_3572_15826)"/>
<path fill-rule="evenodd" clip-rule="evenodd" d="M267.648 18.015L281.376 25.9407C282.718 26.7157 283.545 28.148 283.545 29.698V45.5495C283.545 47.0995 282.718 48.5318 281.376 49.3069L267.648 57.2326C266.306 58.0076 264.652 58.0076 263.31 57.2326L249.582 49.3069C248.24 48.5318 247.413 47.0996 247.413 45.5495V29.698C247.413 28.148 248.24 26.7157 249.582 25.9407L263.31 18.015C264.652 17.24 266.306 17.24 267.648 18.015ZM267.148 18.8821C266.115 18.2859 264.843 18.2859 263.81 18.8821L250.083 26.8078C249.05 27.404 248.414 28.5057 248.414 29.698V45.5495C248.414 46.7419 249.05 47.8436 250.083 48.4398L263.81 56.3655C264.843 56.9617 266.115 56.9617 267.148 56.3655L280.876 48.4398C281.908 47.8436 282.544 46.7419 282.544 45.5495V29.698C282.544 28.5057 281.908 27.404 280.876 26.8078L267.148 18.8821Z" fill="url(#paint30_linear_3572_15826)"/>
</g>
<defs>
<linearGradient id="paint0_linear_3572_15826" x1="278.015" y1="25.6075" x2="278.015" y2="9.58811" gradientUnits="userSpaceOnUse">
<stop stop-color="#00438C"/>
<stop offset="1" stop-color="#E6F4FF"/>
</linearGradient>
<linearGradient id="paint1_linear_3572_15826" x1="278.015" y1="31.92" x2="278.015" y2="9.58811" gradientUnits="userSpaceOnUse">
<stop stop-color="#00438C"/>
<stop offset="1" stop-color="#B8DFFF"/>
</linearGradient>
<linearGradient id="paint2_linear_3572_15826" x1="252.651" y1="25.6075" x2="252.651" y2="9.58811" gradientUnits="userSpaceOnUse">
<stop stop-color="#00438C"/>
<stop offset="1" stop-color="#E6F4FF"/>
</linearGradient>
<linearGradient id="paint3_linear_3572_15826" x1="252.651" y1="31.92" x2="252.651" y2="9.58811" gradientUnits="userSpaceOnUse">
<stop stop-color="#00438C"/>
<stop offset="1" stop-color="#B8DFFF"/>
</linearGradient>
<linearGradient id="paint4_linear_3572_15826" x1="252.651" y1="27.4365" x2="252.651" y2="13.2602" gradientUnits="userSpaceOnUse">
<stop stop-color="#E8E6FF" stop-opacity="0"/>
<stop offset="1" stop-color="#E8E6FF"/>
</linearGradient>
<linearGradient id="paint5_linear_3572_15826" x1="278.05" y1="27.4365" x2="278.05" y2="13.2602" gradientUnits="userSpaceOnUse">
<stop stop-color="#E8E6FF" stop-opacity="0"/>
<stop offset="1" stop-color="#E8E6FF"/>
</linearGradient>
<linearGradient id="paint6_linear_3572_15826" x1="253.044" y1="43.6024" x2="253.044" y2="59.6219" gradientUnits="userSpaceOnUse">
<stop stop-color="#00438C"/>
<stop offset="1" stop-color="#B8DFFF"/>
</linearGradient>
<linearGradient id="paint7_linear_3572_15826" x1="253.044" y1="37.2899" x2="253.044" y2="59.6219" gradientUnits="userSpaceOnUse">
<stop offset="0.583333" stop-color="#00438C"/>
<stop offset="1" stop-color="#B8DFFF"/>
</linearGradient>
<linearGradient id="paint8_linear_3572_15826" x1="278.408" y1="43.6024" x2="278.408" y2="59.6219" gradientUnits="userSpaceOnUse">
<stop stop-color="#00438C"/>
<stop offset="1" stop-color="#B8DFFF"/>
</linearGradient>
<linearGradient id="paint9_linear_3572_15826" x1="278.408" y1="37.2899" x2="278.408" y2="59.6219" gradientUnits="userSpaceOnUse">
<stop offset="0.583333" stop-color="#00438C"/>
<stop offset="1" stop-color="#B8DFFF"/>
</linearGradient>
<linearGradient id="paint10_linear_3572_15826" x1="278.408" y1="41.7734" x2="278.408" y2="55.9497" gradientUnits="userSpaceOnUse">
<stop stop-color="#E8E6FF" stop-opacity="0"/>
<stop offset="1" stop-color="#E8E6FF"/>
</linearGradient>
<linearGradient id="paint11_linear_3572_15826" x1="253.009" y1="41.7734" x2="253.009" y2="55.9497" gradientUnits="userSpaceOnUse">
<stop stop-color="#E8E6FF" stop-opacity="0"/>
<stop offset="1" stop-color="#E8E6FF"/>
</linearGradient>
<linearGradient id="paint12_linear_3572_15826" x1="265.501" y1="69.4119" x2="265.501" y2="47.3017" gradientUnits="userSpaceOnUse">
<stop stop-color="#B8DFFF"/>
<stop offset="1" stop-color="#00438C"/>
</linearGradient>
<linearGradient id="paint13_linear_3572_15826" x1="265.501" y1="69.4119" x2="265.501" y2="47.3017" gradientUnits="userSpaceOnUse">
<stop stop-color="#00438C"/>
<stop offset="1" stop-color="#B8DFFF"/>
</linearGradient>
<linearGradient id="paint14_linear_3572_15826" x1="265.627" y1="65.6794" x2="265.627" y2="48.303" gradientUnits="userSpaceOnUse">
<stop stop-color="#B8DFFF"/>
<stop offset="1" stop-color="#005BB3"/>
</linearGradient>
<linearGradient id="paint15_linear_3572_15826" x1="246.892" y1="41.649" x2="240.146" y2="46.4594" gradientUnits="userSpaceOnUse">
<stop stop-color="#002A66"/>
<stop offset="0.771271" stop-color="#5CB6FF"/>
</linearGradient>
<linearGradient id="paint16_linear_3572_15826" x1="246.171" y1="38.1209" x2="247.183" y2="50.7965" gradientUnits="userSpaceOnUse">
<stop stop-color="#00438C"/>
<stop offset="1" stop-color="#B8DFFF"/>
</linearGradient>
<linearGradient id="paint17_linear_3572_15826" x1="233.716" y1="24.7006" x2="246.071" y2="33.9639" gradientUnits="userSpaceOnUse">
<stop stop-color="#B8DFFF"/>
<stop offset="1" stop-color="#00438C"/>
</linearGradient>
<linearGradient id="paint18_linear_3572_15826" x1="247.821" y1="31.7812" x2="236.069" y2="22.7308" gradientUnits="userSpaceOnUse">
<stop stop-color="#00438C"/>
<stop offset="1" stop-color="#8ACAFF"/>
</linearGradient>
<linearGradient id="paint19_linear_3572_15826" x1="241.762" y1="35.2052" x2="237.894" y2="26.1221" gradientUnits="userSpaceOnUse">
<stop stop-color="#E6F4FF" stop-opacity="0"/>
<stop offset="1" stop-color="white"/>
</linearGradient>
<linearGradient id="paint20_linear_3572_15826" x1="284.108" y1="41.649" x2="290.854" y2="46.4594" gradientUnits="userSpaceOnUse">
<stop stop-color="#002A66"/>
<stop offset="0.771271" stop-color="#5CB6FF"/>
</linearGradient>
<linearGradient id="paint21_linear_3572_15826" x1="284.829" y1="38.1209" x2="283.817" y2="50.7965" gradientUnits="userSpaceOnUse">
<stop stop-color="#00438C"/>
<stop offset="1" stop-color="#B8DFFF"/>
</linearGradient>
<linearGradient id="paint22_linear_3572_15826" x1="297.284" y1="24.7006" x2="284.929" y2="33.9639" gradientUnits="userSpaceOnUse">
<stop stop-color="#B8DFFF"/>
<stop offset="1" stop-color="#00438C"/>
</linearGradient>
<linearGradient id="paint23_linear_3572_15826" x1="283.179" y1="31.7812" x2="294.931" y2="22.7308" gradientUnits="userSpaceOnUse">
<stop stop-color="#00438C"/>
<stop offset="1" stop-color="#8ACAFF"/>
</linearGradient>
<linearGradient id="paint24_linear_3572_15826" x1="289.238" y1="35.2052" x2="293.106" y2="26.1221" gradientUnits="userSpaceOnUse">
<stop stop-color="#E6F4FF" stop-opacity="0"/>
<stop offset="1" stop-color="white"/>
</linearGradient>
<linearGradient id="paint25_linear_3572_15826" x1="277.598" y1="57.8321" x2="253.106" y2="15.4003" gradientUnits="userSpaceOnUse">
<stop stop-color="#00438C"/>
<stop offset="1" stop-color="#B8DFFF"/>
</linearGradient>
<linearGradient id="paint26_linear_3572_15826" x1="249.411" y1="23.584" x2="283.106" y2="63.3639" gradientUnits="userSpaceOnUse">
<stop stop-color="#B8DFFF"/>
<stop offset="1" stop-color="#005BB3"/>
</linearGradient>
<linearGradient id="paint27_linear_3572_15826" x1="262.914" y1="29.2372" x2="277.556" y2="54.2676" gradientUnits="userSpaceOnUse">
<stop stop-color="#B8DFFF"/>
<stop offset="1" stop-color="white" stop-opacity="0"/>
</linearGradient>
<linearGradient id="paint28_linear_3572_15826" x1="264.29" y1="35.1194" x2="258.158" y2="27.6102" gradientUnits="userSpaceOnUse">
<stop stop-color="white"/>
<stop offset="1" stop-color="#105196"/>
</linearGradient>
<linearGradient id="paint29_linear_3572_15826" x1="268.508" y1="25.7784" x2="268.508" y2="25.8034" gradientUnits="userSpaceOnUse">
<stop stop-color="white"/>
<stop offset="1" stop-color="#105196"/>
</linearGradient>
<linearGradient id="paint30_linear_3572_15826" x1="253.935" y1="19.6839" x2="276.711" y2="56.0317" gradientUnits="userSpaceOnUse">
<stop stop-color="#00438C"/>
<stop offset="1" stop-color="#B8DFFF"/>
</linearGradient>
<clipPath id="clip0_3572_15826">
<rect width="320" height="79" fill="white"/>
</clipPath>
</defs>
</svg>
