<svg width="280" height="234" viewBox="0 0 280 234" fill="none" xmlns="http://www.w3.org/2000/svg">
<g clip-path="url(#clip0_3572_15246)">
<g opacity="0.08">
<path d="M-6 195L140 49L286 195" stroke="white"/>
<path d="M-6 205.5L140 59.5L286 205.5" stroke="white"/>
<path d="M-6 216L140 70L286 216" stroke="white"/>
<path d="M-6 226.5L140 80.5L286 226.5" stroke="white"/>
<path d="M-6 237L140 91L286 237" stroke="white"/>
<path d="M-6 247.5L140 101.5L286 247.5" stroke="white"/>
<path d="M-6 258L140 112L286 258" stroke="white"/>
<path d="M-6 268.5L140 122.5L286 268.5" stroke="white"/>
<path d="M-6 279L140 133L286 279" stroke="white"/>
<path d="M-6 289.5L140 143.5L286 289.5" stroke="white"/>
<path d="M-6 300L140 154L286 300" stroke="white"/>
<path d="M-6 310.5L140 164.5L286 310.5" stroke="white"/>
<path d="M-6 321L140 175L286 321" stroke="white"/>
<path d="M-6 331.5L140 185.5L286 331.5" stroke="white"/>
<path d="M-6 342L140 196L286 342" stroke="white"/>
<path d="M-6 352.5L140 206.5L286 352.5" stroke="white"/>
<path d="M-6 363L140 217L286 363" stroke="white"/>
<path d="M-6 373.5L140 227.5L286 373.5" stroke="white"/>
</g>
<path fill-rule="evenodd" clip-rule="evenodd" d="M153.205 136.961C153.205 137.656 153.768 138.219 154.463 138.219L172.697 138.219C173.392 138.219 173.955 137.656 173.955 136.961L173.955 97.4038C173.955 96.4357 172.907 95.8307 172.068 96.3147L153.834 106.842C153.445 107.067 153.205 107.482 153.205 107.932L153.205 136.961Z" fill="url(#paint0_linear_3572_15246)"/>
<path fill-rule="evenodd" clip-rule="evenodd" d="M154.463 136.961L172.697 136.961L172.697 97.4038L154.463 107.932L154.463 136.961ZM154.463 138.219C153.768 138.219 153.205 137.656 153.205 136.961L153.205 107.932C153.205 107.482 153.445 107.067 153.834 106.842L172.068 96.3147C172.907 95.8307 173.955 96.4357 173.955 97.4038L173.955 136.961C173.955 137.656 173.392 138.219 172.697 138.219L154.463 138.219Z" fill="url(#paint1_linear_3572_15246)"/>
<path fill-rule="evenodd" clip-rule="evenodd" d="M126.167 136.961C126.167 137.656 125.604 138.219 124.91 138.219L106.675 138.219C105.981 138.219 105.417 137.656 105.417 136.961L105.417 97.4038C105.417 96.4357 106.465 95.8307 107.304 96.3147L125.539 106.842C125.928 107.067 126.167 107.482 126.167 107.932L126.167 136.961Z" fill="url(#paint2_linear_3572_15246)"/>
<path fill-rule="evenodd" clip-rule="evenodd" d="M124.91 136.961L106.675 136.961L106.675 97.4038L124.91 107.932L124.91 136.961ZM124.91 138.219C125.604 138.219 126.167 137.656 126.167 136.961L126.167 107.932C126.167 107.482 125.928 107.067 125.539 106.842L107.304 96.3147C106.465 95.8307 105.417 96.4357 105.417 97.4038L105.417 136.961C105.417 137.656 105.981 138.219 106.675 138.219L124.91 138.219Z" fill="url(#paint3_linear_3572_15246)"/>
<path fill-rule="evenodd" clip-rule="evenodd" d="M121.202 128.514L110.383 128.514L110.383 104.322L121.202 110.569L121.202 128.514ZM121.202 129.772C121.896 129.772 122.459 129.209 122.459 128.514L122.459 110.569C122.459 110.119 122.219 109.704 121.83 109.479L111.011 103.233C110.173 102.749 109.125 103.354 109.125 104.322L109.125 128.514C109.125 129.209 109.688 129.772 110.383 129.772L121.202 129.772Z" fill="url(#paint4_linear_3572_15246)"/>
<path fill-rule="evenodd" clip-rule="evenodd" d="M158.236 128.514L169.055 128.514L169.055 104.322L158.236 110.569L158.236 128.514ZM158.236 129.772C157.541 129.772 156.978 129.209 156.978 128.514L156.978 110.569C156.978 110.119 157.218 109.704 157.607 109.479L168.426 103.233C169.265 102.749 170.313 103.354 170.313 104.322L170.313 128.514C170.313 129.209 169.749 129.772 169.055 129.772L158.236 129.772Z" fill="url(#paint5_linear_3572_15246)"/>
<path fill-rule="evenodd" clip-rule="evenodd" d="M126.907 149.594C126.907 148.899 126.344 148.336 125.649 148.336L107.415 148.336C106.72 148.336 106.157 148.899 106.157 149.594L106.157 189.152C106.157 190.12 107.205 190.725 108.043 190.241L126.278 179.713C126.667 179.488 126.907 179.073 126.907 178.624L126.907 149.594Z" fill="url(#paint6_linear_3572_15246)"/>
<path fill-rule="evenodd" clip-rule="evenodd" d="M125.649 149.594L107.415 149.594L107.415 189.152L125.649 178.624L125.649 149.594ZM125.649 148.336C126.344 148.336 126.907 148.899 126.907 149.594L126.907 178.624C126.907 179.073 126.667 179.488 126.278 179.713L108.043 190.241C107.205 190.725 106.157 190.12 106.157 189.152L106.157 149.594C106.157 148.899 106.72 148.336 107.415 148.336L125.649 148.336Z" fill="url(#paint7_linear_3572_15246)"/>
<path fill-rule="evenodd" clip-rule="evenodd" d="M153.944 149.594C153.944 148.899 154.508 148.336 155.202 148.336L173.437 148.336C174.131 148.336 174.694 148.899 174.694 149.594L174.694 189.152C174.694 190.12 173.646 190.725 172.808 190.241L154.573 179.713C154.184 179.488 153.944 179.073 153.944 178.624L153.944 149.594Z" fill="url(#paint8_linear_3572_15246)"/>
<path fill-rule="evenodd" clip-rule="evenodd" d="M155.202 149.594L173.437 149.594L173.437 189.152L155.202 178.624L155.202 149.594ZM155.202 148.336C154.508 148.336 153.944 148.899 153.944 149.594L153.944 178.624C153.944 179.073 154.184 179.488 154.573 179.713L172.808 190.241C173.646 190.725 174.694 190.12 174.694 189.152L174.694 149.594C174.694 148.899 174.131 148.336 173.437 148.336L155.202 148.336Z" fill="url(#paint9_linear_3572_15246)"/>
<path fill-rule="evenodd" clip-rule="evenodd" d="M158.91 158.041L169.729 158.041L169.729 182.233L158.91 175.987L158.91 158.041ZM158.91 156.784C158.216 156.784 157.652 157.347 157.652 158.041L157.652 175.987C157.652 176.436 157.892 176.851 158.281 177.076L169.1 183.322C169.939 183.806 170.987 183.201 170.987 182.233L170.987 158.041C170.987 157.347 170.424 156.784 169.729 156.784L158.91 156.784Z" fill="url(#paint10_linear_3572_15246)"/>
<path fill-rule="evenodd" clip-rule="evenodd" d="M121.876 158.041H111.057V182.233L121.876 175.987L121.876 158.041ZM121.876 156.784C122.57 156.784 123.133 157.347 123.133 158.041V175.987C123.133 176.436 122.894 176.851 122.505 177.076L111.686 183.322C110.847 183.806 109.799 183.201 109.799 182.233V158.041C109.799 157.347 110.362 156.784 111.057 156.784H121.876Z" fill="url(#paint11_linear_3572_15246)"/>
<path fill-rule="evenodd" clip-rule="evenodd" d="M117.364 191.407C117.364 192.001 117.644 192.56 118.119 192.916L138.869 208.478C139.539 208.981 140.462 208.981 141.132 208.478L161.882 192.916C162.357 192.56 162.637 192.001 162.637 191.407L162.637 169.085C162.637 168.043 161.792 167.199 160.75 167.199L119.251 167.199C118.209 167.199 117.364 168.043 117.364 169.085L117.364 191.407Z" fill="url(#paint12_linear_3572_15246)"/>
<path fill-rule="evenodd" clip-rule="evenodd" d="M118.873 191.91L139.623 207.472C139.847 207.64 140.154 207.64 140.378 207.472L161.128 191.91C161.286 191.791 161.379 191.605 161.379 191.407L161.379 169.085C161.379 168.738 161.098 168.456 160.75 168.456L119.251 168.456C118.903 168.456 118.622 168.738 118.622 169.085L118.622 191.407C118.622 191.605 118.715 191.791 118.873 191.91ZM118.119 192.916C117.644 192.56 117.364 192.001 117.364 191.407L117.364 169.085C117.364 168.043 118.209 167.199 119.251 167.199L160.75 167.199C161.792 167.199 162.637 168.043 162.637 169.085L162.637 191.407C162.637 192.001 162.357 192.56 161.882 192.916L141.132 208.478C140.462 208.981 139.539 208.981 138.869 208.478L118.119 192.916Z" fill="url(#paint13_linear_3572_15246)"/>
<path fill-rule="evenodd" clip-rule="evenodd" d="M123.904 188.472L139.862 200.44C140.085 200.608 140.393 200.608 140.616 200.44L156.574 188.472C156.732 188.353 156.825 188.167 156.825 187.969L156.825 170.972C156.825 170.624 156.544 170.343 156.197 170.343L124.281 170.343C123.934 170.343 123.652 170.624 123.652 170.972L123.652 187.969C123.652 188.167 123.746 188.353 123.904 188.472ZM123.149 189.478C122.674 189.122 122.395 188.562 122.395 187.969L122.395 170.972C122.395 169.93 123.239 169.085 124.281 169.085L156.197 169.085C157.238 169.085 158.083 169.93 158.083 170.972L158.083 187.969C158.083 188.562 157.803 189.122 157.328 189.478L141.371 201.446C140.7 201.949 139.778 201.949 139.107 201.446L123.149 189.478Z" fill="url(#paint14_linear_3572_15246)"/>
<path fill-rule="evenodd" clip-rule="evenodd" d="M115.845 143.317C115.845 142.623 115.282 142.06 114.588 142.06H95.7795C95.085 142.06 94.522 142.623 94.522 143.317V164.53C94.522 164.977 94.7592 165.39 95.1452 165.616L113.953 176.604C114.792 177.093 115.845 176.489 115.845 175.518V143.317Z" fill="url(#paint15_linear_3572_15246)"/>
<path fill-rule="evenodd" clip-rule="evenodd" d="M114.588 143.317H95.7795L95.7795 164.53L114.588 175.518L114.588 143.317ZM114.588 142.06C115.282 142.06 115.845 142.623 115.845 143.317V175.518C115.845 176.489 114.792 177.093 113.953 176.604L95.1452 165.616C94.7592 165.39 94.522 164.977 94.522 164.53V143.317C94.522 142.623 95.085 142.06 95.7795 142.06H114.588Z" fill="url(#paint16_linear_3572_15246)"/>
<path fill-rule="evenodd" clip-rule="evenodd" d="M84.8677 121.301C84.0331 120.814 82.9925 121.416 82.9925 122.387L82.9925 139.992C82.9925 140.445 83.2323 140.864 83.6213 141.091L113.274 158.414C113.873 158.764 114.638 158.559 114.983 157.956L122.516 144.752C122.861 144.149 122.653 143.376 122.054 143.026L84.8677 121.301Z" fill="url(#paint17_linear_3572_15246)"/>
<path fill-rule="evenodd" clip-rule="evenodd" d="M84.2445 122.394L84.2445 139.999L113.897 157.322L121.43 144.118L84.2445 122.394ZM82.9925 122.387C82.9925 121.416 84.0331 120.814 84.8677 121.301L122.054 143.026C122.653 143.376 122.861 144.149 122.516 144.752L114.983 157.956C114.638 158.559 113.873 158.764 113.274 158.414L83.6213 141.091C83.2323 140.864 82.9925 140.445 82.9925 139.992L82.9925 122.387Z" fill="url(#paint18_linear_3572_15246)"/>
<path fill-rule="evenodd" clip-rule="evenodd" d="M88.1395 128.927L88.1395 137.942L104.659 147.592L108.517 140.831L88.1395 128.927ZM86.8876 128.92C86.8876 127.949 87.9281 127.347 88.7628 127.834L109.14 139.739C109.74 140.089 109.947 140.862 109.603 141.465L105.745 148.227C105.401 148.83 104.635 149.035 104.036 148.685L87.5163 139.034C87.1274 138.807 86.8876 138.388 86.8876 137.935L86.8876 128.92Z" fill="url(#paint19_linear_3572_15246)"/>
<path fill-rule="evenodd" clip-rule="evenodd" d="M164.155 143.317C164.155 142.623 164.718 142.06 165.412 142.06H184.22C184.915 142.06 185.478 142.623 185.478 143.317V164.53C185.478 164.977 185.241 165.39 184.855 165.616L166.047 176.604C165.208 177.093 164.155 176.489 164.155 175.518V143.317Z" fill="url(#paint20_linear_3572_15246)"/>
<path fill-rule="evenodd" clip-rule="evenodd" d="M165.412 143.317H184.22L184.22 164.53L165.412 175.518L165.412 143.317ZM165.412 142.06C164.718 142.06 164.155 142.623 164.155 143.317V175.518C164.155 176.489 165.208 177.093 166.047 176.604L184.855 165.616C185.241 165.39 185.478 164.977 185.478 164.53V143.317C185.478 142.623 184.915 142.06 184.22 142.06H165.412Z" fill="url(#paint21_linear_3572_15246)"/>
<path fill-rule="evenodd" clip-rule="evenodd" d="M195.132 121.301C195.967 120.814 197.007 121.416 197.007 122.387L197.007 139.992C197.007 140.445 196.768 140.864 196.379 141.091L166.726 158.414C166.127 158.764 165.362 158.559 165.017 157.956L157.484 144.752C157.139 144.149 157.347 143.376 157.946 143.026L195.132 121.301Z" fill="url(#paint22_linear_3572_15246)"/>
<path fill-rule="evenodd" clip-rule="evenodd" d="M195.756 122.394L195.756 139.999L166.103 157.322L158.57 144.118L195.756 122.394ZM197.007 122.387C197.007 121.416 195.967 120.814 195.132 121.301L157.946 143.026C157.347 143.376 157.139 144.149 157.484 144.752L165.017 157.956C165.362 158.559 166.127 158.764 166.726 158.414L196.379 141.091C196.768 140.864 197.007 140.445 197.007 139.992L197.007 122.387Z" fill="url(#paint23_linear_3572_15246)"/>
<path fill-rule="evenodd" clip-rule="evenodd" d="M191.86 128.927L191.86 137.942L175.341 147.592L171.483 140.831L191.86 128.927ZM193.112 128.92C193.112 127.949 192.072 127.347 191.237 127.834L170.86 139.739C170.26 140.089 170.053 140.862 170.397 141.465L174.255 148.227C174.599 148.83 175.365 149.035 175.964 148.685L192.484 139.034C192.873 138.807 193.112 138.388 193.112 137.935L193.112 128.92Z" fill="url(#paint24_linear_3572_15246)"/>
<path d="M136.724 103.62C138.669 102.496 141.066 102.496 143.011 103.62L177.449 123.502C179.395 124.625 180.593 126.701 180.593 128.948V168.713C180.593 170.959 179.395 173.035 177.449 174.158L143.011 194.041C141.066 195.164 138.669 195.164 136.724 194.041L102.286 174.158C100.34 173.035 99.1418 170.959 99.1418 168.713V128.948C99.1418 126.701 100.34 124.625 102.286 123.502L136.724 103.62Z" fill="url(#paint25_linear_3572_15246)"/>
<path d="M136.816 113.655C138.762 112.531 141.159 112.531 143.104 113.655L168.968 128.587C170.914 129.71 172.112 131.786 172.112 134.033V163.898C172.112 166.144 170.914 168.22 168.968 169.343L143.104 184.276C141.159 185.399 138.762 185.399 136.816 184.276L110.953 169.343C109.007 168.22 107.809 166.144 107.809 163.898V134.033C107.809 131.786 109.007 129.71 110.953 128.587L136.816 113.655Z" fill="url(#paint26_linear_3572_15246)"/>
<mask id="path-46-inside-1_3572_15246" fill="white">
<path fill-rule="evenodd" clip-rule="evenodd" d="M160.082 153.632C160.261 154.117 160.443 154.61 160.447 155.099L160.448 155.263C160.457 156.142 160.468 157.137 160.055 157.821C157.17 162.607 153.377 166.599 148.931 169.97C148.476 170.317 147.927 170.712 147.393 170.756C145.624 170.906 143.851 170.993 142.078 171.08C141.427 171.112 140.776 171.144 140.126 171.179C139.475 171.144 138.825 171.112 138.174 171.08C136.401 170.993 134.627 170.906 132.858 170.756C132.325 170.709 131.776 170.313 131.321 169.97C126.875 166.603 123.081 162.607 120.196 157.821C119.784 157.134 119.794 156.142 119.804 155.263L119.805 155.099C119.808 154.601 119.995 154.099 120.178 153.605L120.178 153.605L120.178 153.605C120.228 153.471 120.277 153.338 120.323 153.206C121.327 150.273 121.963 147.38 121.066 144.215C120.461 142.085 121.113 141.571 123.2 141.121C123.737 141.002 124.35 140.413 124.599 139.884C125.343 138.313 126.053 136.726 126.762 135.139L126.762 135.139L126.762 135.139C127.447 133.609 128.131 132.078 128.847 130.561C129.128 129.968 129.709 129.225 130.27 129.103C132.713 128.576 135.179 128.143 137.643 127.71C138.471 127.564 139.299 127.418 140.126 127.269C140.953 127.418 141.781 127.564 142.609 127.71L142.609 127.71L142.609 127.71L142.609 127.71C145.073 128.143 147.539 128.576 149.982 129.103C150.543 129.225 151.124 129.968 151.405 130.561C152.125 132.085 152.813 133.625 153.502 135.165L153.502 135.165L153.502 135.165C154.207 136.743 154.913 138.322 155.653 139.884C155.902 140.413 156.51 141.006 157.052 141.121C159.138 141.567 159.791 142.081 159.186 144.215C158.289 147.38 158.925 150.273 159.929 153.206C159.976 153.347 160.029 153.489 160.082 153.632ZM141.841 165.802C143.159 165.634 144.478 165.466 145.761 165.152C147.259 164.785 148.504 163.903 148.784 161.955C145.828 162.267 142.979 162.568 140.126 162.868C137.273 162.568 134.419 162.267 131.467 161.955C131.748 163.903 132.993 164.785 134.49 165.152C135.776 165.464 137.096 165.633 138.415 165.802H138.415L138.416 165.802L138.416 165.802C138.987 165.875 139.558 165.949 140.126 166.033C140.696 165.948 141.268 165.875 141.841 165.802ZM148.376 149.914L148.376 149.914C149.576 148.722 150.936 147.373 152.31 146.037C153.246 145.124 152.681 141.947 151.385 141.006C148.674 139.04 148.654 139.053 145.927 140.855L145.769 140.959C144.527 141.779 143.228 142.514 141.928 143.248C141.326 143.588 140.723 143.929 140.126 144.278C139.55 143.943 138.97 143.615 138.389 143.287L138.389 143.287L138.389 143.287C137.068 142.54 135.745 141.793 134.483 140.959L134.325 140.855C131.598 139.053 131.578 139.04 128.867 141.006C127.571 141.947 127.002 145.124 127.942 146.037C129.2 147.263 130.45 148.502 131.575 149.618L131.576 149.619C132.126 150.164 132.646 150.68 133.123 151.151C132.804 151.956 132.494 152.729 132.191 153.479L132.191 153.479C131.508 155.176 130.871 156.761 130.29 158.367C129.906 159.426 130.412 160.161 131.546 160.343C132.327 160.467 133.557 160.579 134.82 160.693L134.82 160.693C136.287 160.826 137.797 160.964 138.699 161.129C139.587 161.293 139.656 159.359 139.723 157.445C139.77 156.132 139.815 154.829 140.126 154.221C140.436 154.829 140.482 156.13 140.529 157.44C140.596 159.349 140.664 161.279 141.553 161.117C142.453 160.952 143.96 160.819 145.423 160.689L145.423 160.689C146.689 160.577 147.923 160.467 148.705 160.343C149.84 160.161 150.345 159.426 149.962 158.367C149.381 156.761 148.743 155.176 148.06 153.479L148.06 153.479L148.06 153.479C147.758 152.728 147.447 151.956 147.129 151.151C147.518 150.765 147.936 150.35 148.376 149.914L148.376 149.914L148.376 149.914ZM131.93 142.156C131.1 143.116 130.38 143.95 129.768 144.662C130.031 144.887 130.284 145.112 130.533 145.332C131.141 145.872 131.721 146.387 132.352 146.827C132.748 147.104 133.408 147.278 133.846 147.151C134.844 146.868 135.82 146.5 136.865 146.106L136.865 146.106C137.264 145.955 137.674 145.801 138.099 145.646C136.138 144.535 134.072 143.365 131.934 142.156H131.93ZM134.55 149.068C135.506 150.106 136.211 149.761 136.992 149.38C137.499 149.132 138.038 148.869 138.699 148.957C138.247 148.587 137.901 148.305 137.603 148.062L137.602 148.061L137.599 148.058L137.596 148.056C137.308 147.821 137.066 147.623 136.818 147.42L136.619 147.564L136.619 147.565L136.613 147.569L136.611 147.57C135.931 148.064 135.304 148.518 134.554 149.064L134.55 149.068ZM143.47 146.134L143.47 146.134C144.485 146.517 145.434 146.875 146.41 147.151C146.852 147.278 147.512 147.1 147.903 146.827C148.535 146.387 149.115 145.872 149.723 145.332C149.971 145.112 150.224 144.887 150.488 144.662C150.228 144.36 149.948 144.036 149.649 143.689L149.648 143.688L149.646 143.687C149.241 143.218 148.801 142.708 148.326 142.156C146.184 143.369 144.117 144.539 142.161 145.646H142.157C142.611 145.81 143.046 145.974 143.47 146.134ZM141.563 148.956C141.559 148.957 141.556 148.957 141.552 148.957L141.556 148.961C141.559 148.96 141.561 148.958 141.563 148.956ZM143.26 149.38C142.756 149.133 142.219 148.872 141.563 148.956C141.681 148.86 141.791 148.769 141.895 148.684C142.58 148.124 143 147.78 143.438 147.424L143.634 147.566C144.318 148.063 144.947 148.519 145.702 149.068C144.746 150.106 144.041 149.761 143.26 149.38Z"/>
</mask>
<path fill-rule="evenodd" clip-rule="evenodd" d="M160.082 153.632C160.261 154.117 160.443 154.61 160.447 155.099L160.448 155.263C160.457 156.142 160.468 157.137 160.055 157.821C157.17 162.607 153.377 166.599 148.931 169.97C148.476 170.317 147.927 170.712 147.393 170.756C145.624 170.906 143.851 170.993 142.078 171.08C141.427 171.112 140.776 171.144 140.126 171.179C139.475 171.144 138.825 171.112 138.174 171.08C136.401 170.993 134.627 170.906 132.858 170.756C132.325 170.709 131.776 170.313 131.321 169.97C126.875 166.603 123.081 162.607 120.196 157.821C119.784 157.134 119.794 156.142 119.804 155.263L119.805 155.099C119.808 154.601 119.995 154.099 120.178 153.605L120.178 153.605L120.178 153.605C120.228 153.471 120.277 153.338 120.323 153.206C121.327 150.273 121.963 147.38 121.066 144.215C120.461 142.085 121.113 141.571 123.2 141.121C123.737 141.002 124.35 140.413 124.599 139.884C125.343 138.313 126.053 136.726 126.762 135.139L126.762 135.139L126.762 135.139C127.447 133.609 128.131 132.078 128.847 130.561C129.128 129.968 129.709 129.225 130.27 129.103C132.713 128.576 135.179 128.143 137.643 127.71C138.471 127.564 139.299 127.418 140.126 127.269C140.953 127.418 141.781 127.564 142.609 127.71L142.609 127.71L142.609 127.71L142.609 127.71C145.073 128.143 147.539 128.576 149.982 129.103C150.543 129.225 151.124 129.968 151.405 130.561C152.125 132.085 152.813 133.625 153.502 135.165L153.502 135.165L153.502 135.165C154.207 136.743 154.913 138.322 155.653 139.884C155.902 140.413 156.51 141.006 157.052 141.121C159.138 141.567 159.791 142.081 159.186 144.215C158.289 147.38 158.925 150.273 159.929 153.206C159.976 153.347 160.029 153.489 160.082 153.632ZM141.841 165.802C143.159 165.634 144.478 165.466 145.761 165.152C147.259 164.785 148.504 163.903 148.784 161.955C145.828 162.267 142.979 162.568 140.126 162.868C137.273 162.568 134.419 162.267 131.467 161.955C131.748 163.903 132.993 164.785 134.49 165.152C135.776 165.464 137.096 165.633 138.415 165.802H138.415L138.416 165.802L138.416 165.802C138.987 165.875 139.558 165.949 140.126 166.033C140.696 165.948 141.268 165.875 141.841 165.802ZM148.376 149.914L148.376 149.914C149.576 148.722 150.936 147.373 152.31 146.037C153.246 145.124 152.681 141.947 151.385 141.006C148.674 139.04 148.654 139.053 145.927 140.855L145.769 140.959C144.527 141.779 143.228 142.514 141.928 143.248C141.326 143.588 140.723 143.929 140.126 144.278C139.55 143.943 138.97 143.615 138.389 143.287L138.389 143.287L138.389 143.287C137.068 142.54 135.745 141.793 134.483 140.959L134.325 140.855C131.598 139.053 131.578 139.04 128.867 141.006C127.571 141.947 127.002 145.124 127.942 146.037C129.2 147.263 130.45 148.502 131.575 149.618L131.576 149.619C132.126 150.164 132.646 150.68 133.123 151.151C132.804 151.956 132.494 152.729 132.191 153.479L132.191 153.479C131.508 155.176 130.871 156.761 130.29 158.367C129.906 159.426 130.412 160.161 131.546 160.343C132.327 160.467 133.557 160.579 134.82 160.693L134.82 160.693C136.287 160.826 137.797 160.964 138.699 161.129C139.587 161.293 139.656 159.359 139.723 157.445C139.77 156.132 139.815 154.829 140.126 154.221C140.436 154.829 140.482 156.13 140.529 157.44C140.596 159.349 140.664 161.279 141.553 161.117C142.453 160.952 143.96 160.819 145.423 160.689L145.423 160.689C146.689 160.577 147.923 160.467 148.705 160.343C149.84 160.161 150.345 159.426 149.962 158.367C149.381 156.761 148.743 155.176 148.06 153.479L148.06 153.479L148.06 153.479C147.758 152.728 147.447 151.956 147.129 151.151C147.518 150.765 147.936 150.35 148.376 149.914L148.376 149.914L148.376 149.914ZM131.93 142.156C131.1 143.116 130.38 143.95 129.768 144.662C130.031 144.887 130.284 145.112 130.533 145.332C131.141 145.872 131.721 146.387 132.352 146.827C132.748 147.104 133.408 147.278 133.846 147.151C134.844 146.868 135.82 146.5 136.865 146.106L136.865 146.106C137.264 145.955 137.674 145.801 138.099 145.646C136.138 144.535 134.072 143.365 131.934 142.156H131.93ZM134.55 149.068C135.506 150.106 136.211 149.761 136.992 149.38C137.499 149.132 138.038 148.869 138.699 148.957C138.247 148.587 137.901 148.305 137.603 148.062L137.602 148.061L137.599 148.058L137.596 148.056C137.308 147.821 137.066 147.623 136.818 147.42L136.619 147.564L136.619 147.565L136.613 147.569L136.611 147.57C135.931 148.064 135.304 148.518 134.554 149.064L134.55 149.068ZM143.47 146.134L143.47 146.134C144.485 146.517 145.434 146.875 146.41 147.151C146.852 147.278 147.512 147.1 147.903 146.827C148.535 146.387 149.115 145.872 149.723 145.332C149.971 145.112 150.224 144.887 150.488 144.662C150.228 144.36 149.948 144.036 149.649 143.689L149.648 143.688L149.646 143.687C149.241 143.218 148.801 142.708 148.326 142.156C146.184 143.369 144.117 144.539 142.161 145.646H142.157C142.611 145.81 143.046 145.974 143.47 146.134ZM141.563 148.956C141.559 148.957 141.556 148.957 141.552 148.957L141.556 148.961C141.559 148.96 141.561 148.958 141.563 148.956ZM143.26 149.38C142.756 149.133 142.219 148.872 141.563 148.956C141.681 148.86 141.791 148.769 141.895 148.684C142.58 148.124 143 147.78 143.438 147.424L143.634 147.566C144.318 148.063 144.947 148.519 145.702 149.068C144.746 150.106 144.041 149.761 143.26 149.38Z" fill="url(#paint27_linear_3572_15246)"/>
<path d="M160.447 155.099L159.975 155.101L159.975 155.103L160.447 155.099ZM160.082 153.632L160.524 153.468L160.524 153.468L160.082 153.632ZM160.448 155.263L159.977 155.268L159.977 155.268L160.448 155.263ZM160.055 157.821L159.652 157.578L159.651 157.578L160.055 157.821ZM148.931 169.97L148.646 169.594L148.644 169.595L148.931 169.97ZM147.393 170.756L147.355 170.286L147.354 170.286L147.393 170.756ZM142.078 171.08L142.101 171.551L142.101 171.551L142.078 171.08ZM140.126 171.179L140.101 171.65L140.126 171.651L140.151 171.65L140.126 171.179ZM138.174 171.08L138.151 171.551L138.151 171.551L138.174 171.08ZM132.858 170.756L132.817 171.226L132.818 171.226L132.858 170.756ZM131.321 169.97L131.036 170.345L131.037 170.346L131.321 169.97ZM120.196 157.821L119.792 158.064L119.793 158.065L120.196 157.821ZM119.804 155.263L120.275 155.268L120.275 155.268L119.804 155.263ZM119.805 155.099L120.277 155.103L120.277 155.101L119.805 155.099ZM120.178 153.605L120.62 153.769L120.623 153.761L120.626 153.752L120.178 153.605ZM120.178 153.605L119.734 153.445L119.73 153.458L120.178 153.605ZM120.178 153.605L119.736 153.441L119.735 153.445L120.178 153.605ZM120.323 153.206L120.769 153.359L120.769 153.358L120.323 153.206ZM121.066 144.215L121.52 144.086L121.52 144.086L121.066 144.215ZM123.2 141.121L123.299 141.582L123.302 141.581L123.2 141.121ZM124.599 139.884L124.173 139.682L124.172 139.683L124.599 139.884ZM126.762 135.139L127.193 135.332L127.196 135.325L126.762 135.139ZM126.762 135.139L126.331 134.949L126.329 134.954L126.762 135.139ZM126.762 135.139L126.332 134.947L126.331 134.949L126.762 135.139ZM128.847 130.561L128.421 130.359L128.421 130.36L128.847 130.561ZM130.27 129.103L130.171 128.642L130.169 128.642L130.27 129.103ZM137.643 127.71L137.561 127.245L137.561 127.245L137.643 127.71ZM140.126 127.269L140.21 126.805L140.126 126.79L140.042 126.805L140.126 127.269ZM142.609 127.71L142.699 127.247L142.69 127.245L142.609 127.71ZM142.609 127.71L142.518 128.172L142.528 128.174L142.609 127.71ZM142.609 127.71L142.528 128.174L142.532 128.175L142.609 127.71ZM142.609 127.71L142.691 127.245L142.685 127.244L142.609 127.71ZM149.982 129.103L150.083 128.642L150.081 128.642L149.982 129.103ZM151.405 130.561L151.831 130.36L151.831 130.359L151.405 130.561ZM153.502 135.165L153.933 134.975L153.932 134.972L153.502 135.165ZM153.502 135.165L153.95 135.018L153.942 134.996L153.933 134.975L153.502 135.165ZM153.502 135.165L153.054 135.312L153.061 135.335L153.071 135.358L153.502 135.165ZM155.653 139.884L156.08 139.683L156.079 139.682L155.653 139.884ZM157.052 141.121L157.151 140.66L157.15 140.659L157.052 141.121ZM159.186 144.215L159.64 144.344L159.64 144.344L159.186 144.215ZM159.929 153.206L160.376 153.055L160.375 153.053L159.929 153.206ZM145.761 165.152L145.873 165.61L145.874 165.61L145.761 165.152ZM141.841 165.802L141.901 166.27L141.901 166.27L141.841 165.802ZM148.784 161.955L149.251 162.022L149.338 161.422L148.735 161.486L148.784 161.955ZM140.126 162.868L140.077 163.337L140.126 163.342L140.175 163.337L140.126 162.868ZM131.467 161.955L131.517 161.486L130.914 161.422L131.001 162.022L131.467 161.955ZM134.49 165.152L134.378 165.61L134.379 165.61L134.49 165.152ZM138.415 165.802L138.355 166.27L138.385 166.274H138.415V165.802ZM138.415 165.802L138.462 165.333L138.439 165.331H138.415V165.802ZM138.416 165.802L138.476 165.334L138.463 165.333L138.416 165.802ZM140.126 166.033L140.056 166.5L140.126 166.51L140.195 166.5L140.126 166.033ZM148.376 149.914L148.044 149.579L148.043 149.58L148.376 149.914ZM152.31 146.037L152.638 146.375L152.639 146.375L152.31 146.037ZM151.385 141.006L151.662 140.624L151.662 140.624L151.385 141.006ZM145.927 140.855L146.186 141.248L146.187 141.248L145.927 140.855ZM145.769 140.959L145.509 140.565L145.509 140.565L145.769 140.959ZM141.928 143.248L142.16 143.659L142.16 143.659L141.928 143.248ZM140.126 144.278L139.888 144.686L140.126 144.824L140.364 144.685L140.126 144.278ZM138.389 143.287L138.128 143.679L138.142 143.689L138.157 143.697L138.389 143.287ZM138.389 143.287L138.651 142.894L138.636 142.885L138.621 142.876L138.389 143.287ZM134.483 140.959L134.743 140.565L134.743 140.565L134.483 140.959ZM134.325 140.855L134.065 141.248L134.065 141.248L134.325 140.855ZM128.867 141.006L128.59 140.624L128.59 140.624L128.867 141.006ZM127.942 146.037L128.271 145.699L128.271 145.698L127.942 146.037ZM131.575 149.618L131.907 149.283L131.907 149.283L131.575 149.618ZM131.576 149.619L131.243 149.953L131.244 149.953L131.576 149.619ZM133.123 151.151L133.562 151.324L133.676 151.034L133.454 150.815L133.123 151.151ZM132.191 153.479L131.754 153.303L131.753 153.306L132.191 153.479ZM132.191 153.479L132.629 153.655L132.63 153.653L132.191 153.479ZM130.29 158.367L130.733 158.527L130.733 158.527L130.29 158.367ZM131.546 160.343L131.472 160.808L131.472 160.808L131.546 160.343ZM134.82 160.693L134.869 160.224L134.863 160.224L134.82 160.693ZM134.82 160.693L134.771 161.162L134.778 161.163L134.82 160.693ZM138.699 161.129L138.785 160.665L138.784 160.665L138.699 161.129ZM139.723 157.445L140.194 157.462L140.194 157.462L139.723 157.445ZM140.126 154.221L140.546 154.007L140.126 153.184L139.706 154.007L140.126 154.221ZM140.529 157.44L141 157.423L141 157.423L140.529 157.44ZM141.553 161.117L141.637 161.581L141.638 161.581L141.553 161.117ZM145.423 160.689L145.383 160.219L145.382 160.219L145.423 160.689ZM145.423 160.689L145.464 161.159L145.465 161.159L145.423 160.689ZM148.705 160.343L148.78 160.808L148.78 160.808L148.705 160.343ZM149.962 158.367L149.519 158.527L149.519 158.527L149.962 158.367ZM148.06 153.479L147.621 153.65L147.623 153.655L148.06 153.479ZM148.06 153.479L148.5 153.308L148.497 153.302L148.06 153.479ZM148.06 153.479L147.623 153.655L147.623 153.656L148.06 153.479ZM147.129 151.151L146.797 150.815L146.576 151.034L146.69 151.324L147.129 151.151ZM148.376 149.914L148.708 150.249L148.709 150.248L148.376 149.914ZM129.768 144.662L129.411 144.354L129.102 144.712L129.461 145.02L129.768 144.662ZM131.93 142.156V141.684H131.714L131.573 141.848L131.93 142.156ZM130.533 145.332L130.22 145.685L130.22 145.685L130.533 145.332ZM132.352 146.827L132.623 146.441L132.622 146.44L132.352 146.827ZM133.846 147.151L133.718 146.698L133.716 146.698L133.846 147.151ZM136.865 146.106L137.032 146.547L137.054 146.538L137.076 146.528L136.865 146.106ZM136.865 146.106L136.699 145.665L136.676 145.673L136.654 145.684L136.865 146.106ZM138.099 145.646L138.26 146.089L139.219 145.738L138.331 145.235L138.099 145.646ZM131.934 142.156L132.166 141.746L132.058 141.684H131.934V142.156ZM136.992 149.38L136.785 148.956L136.785 148.956L136.992 149.38ZM134.55 149.068L134.216 148.734L133.896 149.055L134.203 149.388L134.55 149.068ZM138.699 148.957L138.637 149.425L140.285 149.646L138.998 148.592L138.699 148.957ZM137.603 148.062L137.901 147.696L137.9 147.696L137.603 148.062ZM137.602 148.061L137.304 148.427L137.305 148.427L137.602 148.061ZM137.599 148.058L137.897 147.693L137.897 147.693L137.599 148.058ZM137.596 148.056L137.297 148.421L137.298 148.421L137.596 148.056ZM136.818 147.42L137.117 147.055L136.836 146.825L136.541 147.038L136.818 147.42ZM136.619 147.564L136.896 147.946L136.896 147.946L136.619 147.564ZM136.619 147.565L136.342 147.183L136.342 147.183L136.619 147.565ZM136.613 147.569L136.89 147.951L136.89 147.95L136.613 147.569ZM136.611 147.57L136.335 147.188L136.334 147.188L136.611 147.57ZM134.554 149.064L134.276 148.683L134.247 148.704L134.22 148.73L134.554 149.064ZM143.47 146.134L143.303 146.575L143.304 146.576L143.47 146.134ZM143.47 146.134L143.637 145.693L143.637 145.693L143.47 146.134ZM146.41 147.151L146.539 146.698L146.538 146.697L146.41 147.151ZM147.903 146.827L148.173 147.214L148.173 147.214L147.903 146.827ZM149.723 145.332L149.41 144.979L149.41 144.979L149.723 145.332ZM150.488 144.662L150.795 145.02L151.154 144.712L150.845 144.354L150.488 144.662ZM149.649 143.689L150.005 143.381L150.005 143.38L149.649 143.689ZM149.648 143.688L149.291 143.997L149.291 143.997L149.648 143.688ZM149.646 143.687L149.29 143.995L149.29 143.995L149.646 143.687ZM148.326 142.156L148.684 141.849L148.431 141.555L148.094 141.746L148.326 142.156ZM142.161 145.646V146.117H142.285L142.393 146.056L142.161 145.646ZM142.157 145.646V145.174L141.997 146.089L142.157 145.646ZM141.552 148.957L141.49 148.49L140.545 148.617L141.219 149.291L141.552 148.957ZM141.556 148.961L141.223 149.295L141.525 149.597L141.855 149.326L141.556 148.961ZM143.26 149.38L143.467 148.956L143.467 148.956L143.26 149.38ZM141.895 148.684L141.597 148.319L141.597 148.319L141.895 148.684ZM143.438 147.424L143.714 147.042L143.421 146.83L143.14 147.058L143.438 147.424ZM143.634 147.566L143.357 147.948L143.357 147.948L143.634 147.566ZM145.702 149.068L146.049 149.388L146.408 148.998L145.979 148.687L145.702 149.068ZM160.918 155.096C160.914 154.509 160.697 153.935 160.524 153.468L159.639 153.795C159.825 154.298 159.973 154.711 159.975 155.101L160.918 155.096ZM160.92 155.259L160.918 155.094L159.975 155.103L159.977 155.268L160.92 155.259ZM160.459 158.065C160.716 157.639 160.828 157.141 160.879 156.666C160.93 156.189 160.924 155.692 160.92 155.258L159.977 155.268C159.981 155.713 159.985 156.153 159.941 156.565C159.897 156.978 159.807 157.32 159.652 157.578L160.459 158.065ZM149.216 170.345C153.702 166.944 157.539 162.909 160.459 158.065L159.651 157.578C156.802 162.305 153.051 166.253 148.646 169.594L149.216 170.345ZM147.432 171.226C147.795 171.196 148.135 171.051 148.424 170.887C148.716 170.722 148.989 170.519 149.217 170.344L148.644 169.595C148.418 169.768 148.19 169.936 147.959 170.066C147.727 170.198 147.525 170.272 147.355 170.286L147.432 171.226ZM142.101 171.551C143.873 171.464 145.654 171.377 147.433 171.226L147.354 170.286C145.594 170.436 143.829 170.522 142.055 170.609L142.101 171.551ZM140.151 171.65C140.8 171.615 141.45 171.583 142.101 171.551L142.055 170.609C141.404 170.641 140.752 170.673 140.101 170.708L140.151 171.65ZM138.151 171.551C138.802 171.583 139.451 171.615 140.101 171.65L140.151 170.708C139.499 170.673 138.847 170.641 138.197 170.609L138.151 171.551ZM132.818 171.226C134.597 171.377 136.379 171.464 138.151 171.551L138.197 170.609C136.422 170.522 134.658 170.436 132.898 170.286L132.818 171.226ZM131.037 170.346C131.264 170.518 131.537 170.72 131.828 170.884C132.116 171.047 132.454 171.194 132.817 171.226L132.9 170.286C132.729 170.271 132.526 170.196 132.292 170.064C132.061 169.933 131.832 169.765 131.606 169.593L131.037 170.346ZM119.793 158.065C122.713 162.909 126.55 166.948 131.036 170.345L131.606 169.594C127.201 166.257 123.45 162.305 120.6 157.578L119.793 158.065ZM119.332 155.258C119.327 155.692 119.322 156.188 119.373 156.664C119.424 157.14 119.536 157.637 119.792 158.064L120.601 157.579C120.445 157.318 120.355 156.976 120.311 156.563C120.266 156.152 120.27 155.713 120.275 155.268L119.332 155.258ZM119.334 155.094L119.332 155.259L120.275 155.268L120.277 155.103L119.334 155.094ZM119.736 153.441C119.559 153.917 119.337 154.5 119.334 155.096L120.277 155.101C120.279 154.703 120.43 154.281 120.62 153.769L119.736 153.441ZM119.73 153.458L119.73 153.458L120.626 153.752L120.626 153.752L119.73 153.458ZM119.735 153.445L119.735 153.445L120.622 153.765L120.622 153.765L119.735 153.445ZM119.877 153.052C119.834 153.178 119.786 153.306 119.736 153.441L120.62 153.769C120.67 153.636 120.721 153.498 120.769 153.359L119.877 153.052ZM120.612 144.344C121.469 147.369 120.871 150.148 119.877 153.053L120.769 153.358C121.782 150.398 122.457 147.392 121.52 144.086L120.612 144.344ZM123.1 140.66C122.571 140.774 122.105 140.898 121.719 141.06C121.331 141.222 120.992 141.436 120.75 141.75C120.251 142.396 120.306 143.265 120.612 144.344L121.52 144.086C121.221 143.035 121.299 142.582 121.497 142.326C121.603 142.189 121.781 142.057 122.084 141.93C122.388 141.802 122.786 141.693 123.299 141.582L123.1 140.66ZM124.172 139.683C124.079 139.882 123.905 140.113 123.691 140.307C123.472 140.505 123.257 140.625 123.098 140.66L123.302 141.581C123.681 141.498 124.04 141.264 124.325 141.006C124.613 140.743 124.87 140.415 125.026 140.084L124.172 139.683ZM126.332 134.947C125.622 136.534 124.914 138.116 124.173 139.682L125.025 140.086C125.772 138.509 126.484 136.918 127.193 135.332L126.332 134.947ZM126.329 134.954L126.329 134.954L127.196 135.325L127.196 135.325L126.329 134.954ZM126.331 134.949L126.331 134.949L127.194 135.33L127.194 135.33L126.331 134.949ZM128.421 130.36C127.702 131.882 127.016 133.417 126.332 134.947L127.193 135.332C127.878 133.801 128.56 132.275 129.274 130.762L128.421 130.36ZM130.169 128.642C129.745 128.735 129.378 129.038 129.105 129.338C128.821 129.65 128.58 130.024 128.421 130.359L129.273 130.763C129.395 130.506 129.585 130.212 129.802 129.973C130.03 129.723 130.233 129.594 130.37 129.564L130.169 128.642ZM137.561 127.245C135.098 127.678 132.624 128.113 130.171 128.642L130.369 129.564C132.802 129.04 135.259 128.608 137.725 128.174L137.561 127.245ZM140.042 126.805C139.216 126.954 138.39 127.099 137.561 127.245L137.725 128.174C138.553 128.028 139.381 127.883 140.21 127.733L140.042 126.805ZM142.69 127.245C141.862 127.099 141.035 126.954 140.21 126.805L140.042 127.733C140.87 127.883 141.699 128.028 142.527 128.174L142.69 127.245ZM142.699 127.247L142.699 127.247L142.518 128.172L142.518 128.172L142.699 127.247ZM142.689 127.245L142.689 127.245L142.528 128.174L142.528 128.174L142.689 127.245ZM142.685 127.244L142.685 127.244L142.532 128.175L142.533 128.175L142.685 127.244ZM150.081 128.642C147.628 128.113 145.153 127.678 142.691 127.245L142.527 128.174C144.993 128.608 147.45 129.04 149.883 129.564L150.081 128.642ZM151.831 130.359C151.672 130.024 151.431 129.65 151.147 129.338C150.874 129.038 150.506 128.735 150.083 128.642L149.881 129.564C150.019 129.594 150.222 129.723 150.45 129.973C150.667 130.212 150.857 130.506 150.978 130.763L151.831 130.359ZM153.932 134.972C153.244 133.433 152.554 131.889 151.831 130.36L150.978 130.763C151.696 132.282 152.382 133.817 153.071 135.357L153.932 134.972ZM153.933 134.975L153.933 134.975L153.07 135.355L153.07 135.355L153.933 134.975ZM153.95 135.018L153.95 135.018L153.054 135.312L153.054 135.312L153.95 135.018ZM156.079 139.682C155.342 138.125 154.638 136.552 153.932 134.973L153.071 135.358C153.776 136.935 154.484 138.518 155.227 140.086L156.079 139.682ZM157.15 140.659C156.992 140.626 156.778 140.508 156.56 140.309C156.347 140.115 156.174 139.883 156.08 139.683L155.226 140.084C155.381 140.414 155.636 140.743 155.925 141.006C156.209 141.265 156.57 141.501 156.954 141.582L157.15 140.659ZM159.64 144.344C159.946 143.263 160 142.393 159.501 141.747C159.259 141.433 158.92 141.219 158.533 141.057C158.146 140.896 157.68 140.773 157.151 140.66L156.953 141.582C157.467 141.692 157.865 141.8 158.169 141.928C158.471 142.054 158.649 142.186 158.755 142.323C158.952 142.579 159.031 143.033 158.732 144.086L159.64 144.344ZM160.375 153.053C159.381 150.148 158.782 147.369 159.64 144.344L158.732 144.086C157.795 147.392 158.469 150.398 159.483 153.358L160.375 153.053ZM160.524 153.468C160.471 153.324 160.421 153.188 160.376 153.055L159.482 153.356C159.532 153.505 159.587 153.653 159.639 153.795L160.524 153.468ZM145.649 164.694C144.396 165.001 143.104 165.166 141.781 165.335L141.901 166.27C143.214 166.103 144.559 165.932 145.873 165.61L145.649 164.694ZM148.318 161.888C148.191 162.768 147.853 163.376 147.404 163.805C146.947 164.241 146.345 164.523 145.649 164.694L145.874 165.61C146.675 165.414 147.444 165.071 148.055 164.487C148.672 163.898 149.097 163.09 149.251 162.022L148.318 161.888ZM140.175 163.337C143.029 163.037 145.878 162.736 148.834 162.424L148.735 161.486C145.779 161.798 142.93 162.099 140.077 162.399L140.175 163.337ZM131.418 162.424C134.37 162.736 137.223 163.037 140.077 163.337L140.175 162.399C137.322 162.099 134.469 161.798 131.517 161.486L131.418 162.424ZM134.603 164.694C133.906 164.523 133.304 164.241 132.848 163.805C132.398 163.376 132.061 162.768 131.934 161.888L131.001 162.022C131.154 163.09 131.58 163.898 132.197 164.487C132.808 165.071 133.577 165.414 134.378 165.61L134.603 164.694ZM138.475 165.334C137.151 165.165 135.857 164.998 134.602 164.694L134.379 165.61C135.694 165.929 137.04 166.101 138.355 166.27L138.475 165.334ZM138.415 165.331H138.415V166.274H138.415V165.331ZM138.462 165.333L138.462 165.333L138.368 166.271L138.369 166.272L138.462 165.333ZM138.463 165.333L138.462 165.333L138.369 166.272L138.369 166.272L138.463 165.333ZM140.195 165.567C139.622 165.481 139.046 165.408 138.476 165.335L138.356 166.27C138.928 166.343 139.494 166.416 140.056 166.5L140.195 165.567ZM141.781 165.335C141.21 165.408 140.632 165.481 140.056 165.567L140.195 166.5C140.759 166.416 141.327 166.343 141.901 166.27L141.781 165.335ZM148.043 149.58L148.043 149.58L148.71 150.247L148.71 150.247L148.043 149.58ZM151.981 145.699C150.605 147.037 149.244 148.388 148.044 149.579L148.708 150.248C149.909 149.057 151.266 147.709 152.638 146.375L151.981 145.699ZM151.108 141.388C151.349 141.562 151.584 141.865 151.785 142.27C151.984 142.67 152.134 143.141 152.221 143.616C152.307 144.092 152.326 144.554 152.275 144.936C152.223 145.33 152.106 145.577 151.98 145.699L152.639 146.375C152.982 146.04 153.145 145.548 153.21 145.06C153.276 144.56 153.248 143.998 153.149 143.448C153.049 142.897 152.873 142.34 152.63 141.851C152.39 141.367 152.069 140.92 151.662 140.624L151.108 141.388ZM146.187 141.248C146.877 140.792 147.366 140.47 147.767 140.259C148.163 140.052 148.423 139.983 148.65 139.989C148.878 139.994 149.139 140.077 149.535 140.307C149.935 140.54 150.423 140.891 151.108 141.388L151.662 140.624C150.991 140.138 150.46 139.753 150.009 139.492C149.553 139.227 149.13 139.057 148.674 139.046C148.216 139.034 147.79 139.183 147.33 139.424C146.876 139.661 146.34 140.016 145.667 140.461L146.187 141.248ZM146.029 141.352L146.186 141.248L145.667 140.461L145.509 140.565L146.029 141.352ZM142.16 143.659C143.457 142.926 144.771 142.184 146.029 141.352L145.509 140.565C144.283 141.375 142.998 142.102 141.696 142.837L142.16 143.659ZM140.364 144.685C140.958 144.338 141.557 143.999 142.16 143.659L141.696 142.837C141.094 143.178 140.488 143.52 139.888 143.871L140.364 144.685ZM138.157 143.697C138.738 144.026 139.316 144.352 139.888 144.686L140.363 143.871C139.785 143.534 139.201 143.204 138.621 142.876L138.157 143.697ZM138.127 143.679L138.128 143.679L138.651 142.894L138.651 142.894L138.127 143.679ZM138.127 143.679L138.127 143.679L138.651 142.894L138.651 142.894L138.127 143.679ZM134.223 141.352C135.502 142.197 136.838 142.952 138.157 143.697L138.621 142.876C137.297 142.128 135.989 141.389 134.743 140.565L134.223 141.352ZM134.065 141.248L134.223 141.352L134.743 140.565L134.585 140.461L134.065 141.248ZM129.144 141.388C129.829 140.891 130.316 140.54 130.717 140.307C131.113 140.077 131.374 139.994 131.602 139.989C131.829 139.983 132.089 140.052 132.484 140.259C132.886 140.47 133.375 140.792 134.065 141.248L134.585 140.461C133.912 140.016 133.376 139.661 132.922 139.424C132.462 139.183 132.036 139.034 131.578 139.046C131.122 139.057 130.699 139.227 130.243 139.492C129.792 139.753 129.261 140.138 128.59 140.624L129.144 141.388ZM128.271 145.698C128.145 145.576 128.027 145.329 127.975 144.936C127.924 144.554 127.943 144.092 128.03 143.616C128.116 143.141 128.267 142.671 128.466 142.27C128.667 141.866 128.903 141.563 129.144 141.388L128.59 140.624C128.183 140.92 127.862 141.367 127.621 141.851C127.378 142.339 127.202 142.896 127.102 143.447C127.002 143.997 126.974 144.56 127.04 145.06C127.105 145.549 127.269 146.041 127.614 146.375L128.271 145.698ZM131.907 149.283C130.782 148.167 129.531 146.927 128.271 145.699L127.613 146.375C128.869 147.599 130.117 148.837 131.243 149.953L131.907 149.283ZM131.908 149.284L131.907 149.283L131.243 149.953L131.243 149.953L131.908 149.284ZM133.454 150.815C132.978 150.345 132.458 149.829 131.908 149.284L131.244 149.953C131.793 150.499 132.314 151.015 132.792 151.486L133.454 150.815ZM132.629 153.655C132.931 152.905 133.242 152.131 133.562 151.324L132.685 150.977C132.367 151.781 132.056 152.553 131.754 153.303L132.629 153.655ZM132.63 153.653L132.63 153.652L131.753 153.306L131.753 153.306L132.63 153.653ZM130.733 158.527C131.311 156.931 131.945 155.354 132.629 153.655L131.754 153.303C131.072 154.999 130.43 156.591 129.846 158.206L130.733 158.527ZM131.621 159.877C131.133 159.799 130.867 159.616 130.744 159.427C130.627 159.247 130.576 158.963 130.733 158.527L129.846 158.206C129.62 158.83 129.63 159.443 129.954 159.941C130.271 160.429 130.826 160.705 131.472 160.808L131.621 159.877ZM134.863 160.224C133.592 160.108 132.382 159.998 131.62 159.877L131.472 160.808C132.273 160.936 133.522 161.049 134.777 161.163L134.863 160.224ZM134.87 160.224L134.869 160.224L134.771 161.162L134.771 161.162L134.87 160.224ZM138.784 160.665C137.855 160.495 136.318 160.356 134.863 160.224L134.778 161.163C136.255 161.297 137.738 161.432 138.614 161.593L138.784 160.665ZM139.252 157.429C139.218 158.399 139.184 159.319 139.056 159.976C138.991 160.311 138.912 160.516 138.839 160.621C138.806 160.667 138.789 160.672 138.795 160.67C138.806 160.665 138.809 160.67 138.785 160.665L138.614 161.593C138.812 161.629 139.011 161.61 139.196 161.523C139.376 161.439 139.51 161.305 139.61 161.163C139.801 160.891 139.91 160.524 139.982 160.156C140.127 159.409 140.161 158.405 140.194 157.462L139.252 157.429ZM139.706 154.007C139.506 154.397 139.412 154.955 139.356 155.522C139.298 156.106 139.275 156.776 139.252 157.429L140.194 157.462C140.218 156.801 140.24 156.163 140.295 155.615C140.351 155.051 140.435 154.653 140.546 154.436L139.706 154.007ZM141 157.423C140.977 156.772 140.953 156.103 140.896 155.521C140.839 154.954 140.745 154.397 140.546 154.007L139.706 154.436C139.817 154.653 139.901 155.05 139.957 155.614C140.011 156.161 140.034 156.797 140.057 157.456L141 157.423ZM141.468 160.653C141.444 160.658 141.447 160.652 141.457 160.657C141.463 160.66 141.445 160.654 141.413 160.608C141.34 160.504 141.261 160.298 141.196 159.965C141.068 159.309 141.034 158.392 141 157.423L140.057 157.456C140.091 158.397 140.125 159.4 140.27 160.145C140.341 160.513 140.45 160.879 140.642 161.151C140.741 161.293 140.876 161.426 141.055 161.511C141.24 161.598 141.439 161.617 141.637 161.581L141.468 160.653ZM145.382 160.219C143.929 160.348 142.395 160.483 141.467 160.653L141.638 161.581C142.511 161.421 143.99 161.289 145.465 161.159L145.382 160.219ZM145.383 160.219L145.383 160.219L145.464 161.159L145.464 161.159L145.383 160.219ZM148.631 159.877C147.869 159.998 146.655 160.106 145.382 160.219L145.465 161.159C146.723 161.047 147.977 160.936 148.78 160.808L148.631 159.877ZM149.519 158.527C149.676 158.963 149.624 159.247 149.508 159.427C149.385 159.616 149.119 159.799 148.631 159.877L148.78 160.808C149.426 160.705 149.981 160.429 150.298 159.941C150.622 159.443 150.631 158.83 150.406 158.206L149.519 158.527ZM147.623 153.655C148.306 155.354 148.941 156.931 149.519 158.527L150.406 158.206C149.821 156.591 149.18 154.999 148.498 153.303L147.623 153.655ZM147.621 153.65L147.621 153.65L148.5 153.308L148.5 153.308L147.621 153.65ZM147.623 153.656L147.623 153.657L148.497 153.302L148.497 153.301L147.623 153.656ZM146.69 151.324C147.009 152.131 147.321 152.905 147.623 153.655L148.498 153.303C148.196 152.552 147.885 151.781 147.567 150.977L146.69 151.324ZM148.044 149.579C147.604 150.016 147.186 150.43 146.797 150.815L147.46 151.486C147.85 151.1 148.269 150.685 148.708 150.249L148.044 149.579ZM148.043 149.58L148.042 149.581L148.709 150.248L148.709 150.247L148.043 149.58ZM148.043 149.58L148.043 149.58L148.709 150.247L148.71 150.247L148.043 149.58ZM130.125 144.969C130.738 144.258 131.457 143.425 132.286 142.464L131.573 141.848C130.743 142.808 130.023 143.642 129.411 144.354L130.125 144.969ZM130.846 144.979C130.598 144.759 130.342 144.532 130.075 144.303L129.461 145.02C129.721 145.242 129.971 145.464 130.22 145.685L130.846 144.979ZM132.622 146.44C132.017 146.018 131.458 145.523 130.846 144.979L130.22 145.685C130.824 146.221 131.425 146.755 132.083 147.214L132.622 146.44ZM133.716 146.698C133.601 146.731 133.414 146.733 133.189 146.681C132.97 146.63 132.764 146.539 132.623 146.441L132.082 147.214C132.336 147.392 132.658 147.526 132.977 147.6C133.291 147.672 133.653 147.698 133.977 147.604L133.716 146.698ZM136.699 145.665C135.65 146.06 134.693 146.421 133.718 146.698L133.975 147.605C134.996 147.315 135.99 146.94 137.032 146.547L136.699 145.665ZM136.654 145.684L136.654 145.684L137.076 146.528L137.076 146.528L136.654 145.684ZM137.937 145.203C137.509 145.359 137.097 145.514 136.699 145.665L137.032 146.547C137.431 146.396 137.838 146.243 138.26 146.089L137.937 145.203ZM131.701 142.567C133.839 143.776 135.906 144.945 137.866 146.056L138.331 145.235C136.371 144.125 134.304 142.955 132.166 141.746L131.701 142.567ZM131.93 142.628H131.934V141.684H131.93V142.628ZM136.785 148.956C136.371 149.158 136.099 149.282 135.832 149.285C135.611 149.287 135.314 149.202 134.897 148.748L134.203 149.388C134.741 149.972 135.276 150.233 135.841 150.228C136.361 150.222 136.831 149.983 137.199 149.804L136.785 148.956ZM138.762 148.49C137.94 148.38 137.278 148.715 136.785 148.956L137.199 149.804C137.72 149.549 138.136 149.358 138.637 149.425L138.762 148.49ZM137.305 148.427C137.603 148.67 137.949 148.953 138.401 149.322L138.998 148.592C138.546 148.222 138.199 147.939 137.901 147.696L137.305 148.427ZM137.305 148.427L137.306 148.428L137.9 147.696L137.9 147.695L137.305 148.427ZM137.3 148.423L137.304 148.427L137.901 147.696L137.897 147.693L137.3 148.423ZM137.298 148.421L137.3 148.423L137.897 147.693L137.894 147.69L137.298 148.421ZM136.519 147.785C136.767 147.988 137.01 148.186 137.297 148.421L137.894 147.69C137.606 147.455 137.365 147.258 137.117 147.055L136.519 147.785ZM136.896 147.946L137.095 147.802L136.541 147.038L136.342 147.183L136.896 147.946ZM136.895 147.947L136.896 147.946L136.343 147.182L136.342 147.183L136.895 147.947ZM136.89 147.95L136.896 147.947L136.342 147.183L136.336 147.187L136.89 147.95ZM136.888 147.952L136.89 147.951L136.337 147.187L136.335 147.188L136.888 147.952ZM134.831 149.445C135.581 148.9 136.208 148.446 136.888 147.952L136.334 147.188C135.654 147.682 135.027 148.137 134.276 148.683L134.831 149.445ZM134.883 149.402L134.887 149.398L134.22 148.73L134.216 148.734L134.883 149.402ZM143.638 145.693L143.637 145.693L143.303 146.575L143.303 146.575L143.638 145.693ZM146.538 146.697C145.585 146.428 144.655 146.077 143.637 145.693L143.304 146.576C144.315 146.957 145.283 147.323 146.281 147.605L146.538 146.697ZM147.634 146.44C147.494 146.537 147.289 146.628 147.069 146.68C146.844 146.732 146.656 146.731 146.539 146.698L146.28 147.605C146.606 147.698 146.969 147.671 147.283 147.598C147.601 147.524 147.921 147.39 148.173 147.214L147.634 146.44ZM149.41 144.979C148.798 145.523 148.239 146.018 147.633 146.44L148.173 147.214C148.831 146.755 149.431 146.221 150.036 145.685L149.41 144.979ZM150.181 144.303C149.914 144.532 149.658 144.759 149.41 144.979L150.036 145.685C150.285 145.464 150.535 145.242 150.795 145.02L150.181 144.303ZM149.292 143.997C149.591 144.344 149.871 144.668 150.131 144.969L150.845 144.354C150.585 144.052 150.305 143.727 150.005 143.381L149.292 143.997ZM149.291 143.997L149.292 143.998L150.005 143.38L150.004 143.379L149.291 143.997ZM149.29 143.995L149.291 143.997L150.004 143.38L150.003 143.378L149.29 143.995ZM147.969 142.464C148.443 143.016 148.884 143.526 149.29 143.995L150.003 143.378C149.598 142.909 149.158 142.4 148.684 141.849L147.969 142.464ZM142.393 146.056C144.35 144.949 146.417 143.78 148.559 142.566L148.094 141.746C145.952 142.959 143.885 144.129 141.929 145.235L142.393 146.056ZM142.157 146.117H142.161V145.174H142.157V146.117ZM143.637 145.693C143.213 145.533 142.775 145.368 142.318 145.202L141.997 146.089C142.446 146.252 142.879 146.415 143.304 146.575L143.637 145.693ZM141.615 149.425C141.618 149.424 141.621 149.424 141.623 149.424L141.503 148.488C141.498 148.489 141.494 148.489 141.49 148.49L141.615 149.425ZM141.89 148.628L141.886 148.624L141.219 149.291L141.223 149.295L141.89 148.628ZM141.264 148.591C141.262 148.593 141.26 148.595 141.258 148.596L141.855 149.326C141.857 149.325 141.86 149.323 141.862 149.321L141.264 148.591ZM141.623 149.424C142.12 149.36 142.534 149.55 143.053 149.804L143.467 148.956C142.977 148.717 142.318 148.383 141.503 148.488L141.623 149.424ZM141.597 148.319C141.492 148.404 141.382 148.495 141.264 148.591L141.862 149.321C141.979 149.225 142.09 149.134 142.194 149.049L141.597 148.319ZM143.14 147.058C142.701 147.414 142.281 147.759 141.597 148.319L142.194 149.049C142.879 148.488 143.298 148.145 143.735 147.79L143.14 147.058ZM143.911 147.185L143.714 147.042L143.161 147.806L143.357 147.948L143.911 147.185ZM145.979 148.687C145.225 148.138 144.595 147.681 143.911 147.185L143.357 147.948C144.041 148.445 144.67 148.901 145.425 149.449L145.979 148.687ZM143.053 149.804C143.421 149.983 143.891 150.222 144.41 150.228C144.976 150.234 145.51 149.972 146.049 149.388L145.355 148.749C144.937 149.202 144.641 149.287 144.42 149.285C144.153 149.282 143.88 149.158 143.467 148.956L143.053 149.804Z" fill="url(#paint28_linear_3572_15246)" mask="url(#path-46-inside-1_3572_15246)"/>
<mask id="path-48-inside-2_3572_15246" fill="white">
<path d="M145.677 126.685L145.658 126.647L145.667 126.694L145.677 126.685Z"/>
</mask>
<path d="M145.677 126.685L145.658 126.647L145.667 126.694L145.677 126.685Z" fill="#E5A70D"/>
<path d="M145.677 126.685L146.01 127.018L146.251 126.778L146.099 126.474L145.677 126.685ZM145.658 126.647L146.08 126.437L145.196 126.74L145.658 126.647ZM145.667 126.694L145.205 126.787L145.378 127.651L146.001 127.028L145.667 126.694ZM146.099 126.474L146.08 126.437L145.236 126.858L145.255 126.896L146.099 126.474ZM145.196 126.74L145.205 126.787L146.13 126.602L146.12 126.555L145.196 126.74ZM146.001 127.028L146.01 127.018L145.343 126.352L145.334 126.361L146.001 127.028Z" fill="url(#paint29_linear_3572_15246)" mask="url(#path-48-inside-2_3572_15246)"/>
<path fill-rule="evenodd" clip-rule="evenodd" d="M144.048 112.021L169.912 126.953C172.441 128.414 173.999 131.112 173.999 134.032V163.898C173.999 166.818 172.441 169.516 169.912 170.977L144.048 185.909C141.519 187.369 138.403 187.369 135.873 185.909L110.009 170.977C107.48 169.516 105.922 166.818 105.922 163.898V134.032C105.922 131.112 107.48 128.414 110.009 126.953L135.873 112.021C138.403 110.561 141.519 110.561 144.048 112.021ZM143.104 113.655C141.159 112.531 138.762 112.531 136.817 113.655L110.953 128.587C109.007 129.71 107.809 131.786 107.809 134.032V163.898C107.809 166.144 109.007 168.22 110.953 169.343L136.817 184.276C138.762 185.399 141.159 185.399 143.104 184.276L168.968 169.343C170.914 168.22 172.112 166.144 172.112 163.898V134.032C172.112 131.786 170.914 129.71 168.968 128.587L143.104 113.655Z" fill="url(#paint30_linear_3572_15246)"/>
</g>
<defs>
<linearGradient id="paint0_linear_3572_15246" x1="163.58" y1="126.326" x2="163.58" y2="96.1443" gradientUnits="userSpaceOnUse">
<stop stop-color="#00438C"/>
<stop offset="1" stop-color="#E6F4FF"/>
</linearGradient>
<linearGradient id="paint1_linear_3572_15246" x1="163.58" y1="138.219" x2="163.58" y2="96.1443" gradientUnits="userSpaceOnUse">
<stop stop-color="#00438C"/>
<stop offset="1" stop-color="#B8DFFF"/>
</linearGradient>
<linearGradient id="paint2_linear_3572_15246" x1="115.792" y1="126.326" x2="115.792" y2="96.1443" gradientUnits="userSpaceOnUse">
<stop stop-color="#00438C"/>
<stop offset="1" stop-color="#E6F4FF"/>
</linearGradient>
<linearGradient id="paint3_linear_3572_15246" x1="115.792" y1="138.219" x2="115.792" y2="96.1443" gradientUnits="userSpaceOnUse">
<stop stop-color="#00438C"/>
<stop offset="1" stop-color="#B8DFFF"/>
</linearGradient>
<linearGradient id="paint4_linear_3572_15246" x1="115.792" y1="129.772" x2="115.792" y2="103.063" gradientUnits="userSpaceOnUse">
<stop stop-color="#E8E6FF" stop-opacity="0"/>
<stop offset="1" stop-color="#E8E6FF"/>
</linearGradient>
<linearGradient id="paint5_linear_3572_15246" x1="163.645" y1="129.772" x2="163.645" y2="103.063" gradientUnits="userSpaceOnUse">
<stop stop-color="#E8E6FF" stop-opacity="0"/>
<stop offset="1" stop-color="#E8E6FF"/>
</linearGradient>
<linearGradient id="paint6_linear_3572_15246" x1="116.532" y1="160.23" x2="116.532" y2="190.411" gradientUnits="userSpaceOnUse">
<stop stop-color="#00438C"/>
<stop offset="1" stop-color="#B8DFFF"/>
</linearGradient>
<linearGradient id="paint7_linear_3572_15246" x1="116.532" y1="148.336" x2="116.532" y2="190.411" gradientUnits="userSpaceOnUse">
<stop offset="0.583333" stop-color="#00438C"/>
<stop offset="1" stop-color="#B8DFFF"/>
</linearGradient>
<linearGradient id="paint8_linear_3572_15246" x1="164.319" y1="160.23" x2="164.319" y2="190.411" gradientUnits="userSpaceOnUse">
<stop stop-color="#00438C"/>
<stop offset="1" stop-color="#B8DFFF"/>
</linearGradient>
<linearGradient id="paint9_linear_3572_15246" x1="164.319" y1="148.336" x2="164.319" y2="190.411" gradientUnits="userSpaceOnUse">
<stop offset="0.583333" stop-color="#00438C"/>
<stop offset="1" stop-color="#B8DFFF"/>
</linearGradient>
<linearGradient id="paint10_linear_3572_15246" x1="164.32" y1="156.784" x2="164.32" y2="183.493" gradientUnits="userSpaceOnUse">
<stop stop-color="#E8E6FF" stop-opacity="0"/>
<stop offset="1" stop-color="#E8E6FF"/>
</linearGradient>
<linearGradient id="paint11_linear_3572_15246" x1="116.466" y1="156.784" x2="116.466" y2="183.493" gradientUnits="userSpaceOnUse">
<stop stop-color="#E8E6FF" stop-opacity="0"/>
<stop offset="1" stop-color="#E8E6FF"/>
</linearGradient>
<linearGradient id="paint12_linear_3572_15246" x1="140.001" y1="208.856" x2="140.001" y2="167.199" gradientUnits="userSpaceOnUse">
<stop stop-color="#B8DFFF"/>
<stop offset="1" stop-color="#00438C"/>
</linearGradient>
<linearGradient id="paint13_linear_3572_15246" x1="140.001" y1="208.856" x2="140.001" y2="167.199" gradientUnits="userSpaceOnUse">
<stop stop-color="#00438C"/>
<stop offset="1" stop-color="#B8DFFF"/>
</linearGradient>
<linearGradient id="paint14_linear_3572_15246" x1="140.239" y1="201.823" x2="140.239" y2="169.085" gradientUnits="userSpaceOnUse">
<stop stop-color="#B8DFFF"/>
<stop offset="1" stop-color="#005BB3"/>
</linearGradient>
<linearGradient id="paint15_linear_3572_15246" x1="104.942" y1="156.549" x2="92.2318" y2="165.612" gradientUnits="userSpaceOnUse">
<stop stop-color="#002A66"/>
<stop offset="0.771271" stop-color="#5CB6FF"/>
</linearGradient>
<linearGradient id="paint16_linear_3572_15246" x1="103.583" y1="149.902" x2="105.49" y2="173.783" gradientUnits="userSpaceOnUse">
<stop stop-color="#00438C"/>
<stop offset="1" stop-color="#B8DFFF"/>
</linearGradient>
<linearGradient id="paint17_linear_3572_15246" x1="80.1179" y1="124.617" x2="103.394" y2="142.07" gradientUnits="userSpaceOnUse">
<stop stop-color="#B8DFFF"/>
<stop offset="1" stop-color="#00438C"/>
</linearGradient>
<linearGradient id="paint18_linear_3572_15246" x1="106.691" y1="137.957" x2="84.55" y2="120.906" gradientUnits="userSpaceOnUse">
<stop stop-color="#00438C"/>
<stop offset="1" stop-color="#8ACAFF"/>
</linearGradient>
<linearGradient id="paint19_linear_3572_15246" x1="95.2766" y1="144.408" x2="87.9892" y2="127.295" gradientUnits="userSpaceOnUse">
<stop stop-color="#E6F4FF" stop-opacity="0"/>
<stop offset="1" stop-color="white"/>
</linearGradient>
<linearGradient id="paint20_linear_3572_15246" x1="175.058" y1="156.549" x2="187.768" y2="165.612" gradientUnits="userSpaceOnUse">
<stop stop-color="#002A66"/>
<stop offset="0.771271" stop-color="#5CB6FF"/>
</linearGradient>
<linearGradient id="paint21_linear_3572_15246" x1="176.417" y1="149.902" x2="174.51" y2="173.783" gradientUnits="userSpaceOnUse">
<stop stop-color="#00438C"/>
<stop offset="1" stop-color="#B8DFFF"/>
</linearGradient>
<linearGradient id="paint22_linear_3572_15246" x1="199.882" y1="124.617" x2="176.606" y2="142.07" gradientUnits="userSpaceOnUse">
<stop stop-color="#B8DFFF"/>
<stop offset="1" stop-color="#00438C"/>
</linearGradient>
<linearGradient id="paint23_linear_3572_15246" x1="173.309" y1="137.957" x2="195.45" y2="120.906" gradientUnits="userSpaceOnUse">
<stop stop-color="#00438C"/>
<stop offset="1" stop-color="#8ACAFF"/>
</linearGradient>
<linearGradient id="paint24_linear_3572_15246" x1="184.723" y1="144.408" x2="192.011" y2="127.295" gradientUnits="userSpaceOnUse">
<stop stop-color="#E6F4FF" stop-opacity="0"/>
<stop offset="1" stop-color="white"/>
</linearGradient>
<linearGradient id="paint25_linear_3572_15246" x1="162.793" y1="187.039" x2="116.649" y2="107.095" gradientUnits="userSpaceOnUse">
<stop stop-color="#00438C"/>
<stop offset="1" stop-color="#B8DFFF"/>
</linearGradient>
<linearGradient id="paint26_linear_3572_15246" x1="109.687" y1="122.513" x2="173.172" y2="197.461" gradientUnits="userSpaceOnUse">
<stop stop-color="#B8DFFF"/>
<stop offset="1" stop-color="#005BB3"/>
</linearGradient>
<linearGradient id="paint27_linear_3572_15246" x1="135.127" y1="133.164" x2="162.715" y2="180.323" gradientUnits="userSpaceOnUse">
<stop stop-color="#B8DFFF"/>
<stop offset="1" stop-color="white" stop-opacity="0"/>
</linearGradient>
<linearGradient id="paint28_linear_3572_15246" x1="137.721" y1="144.246" x2="126.167" y2="130.099" gradientUnits="userSpaceOnUse">
<stop stop-color="white"/>
<stop offset="1" stop-color="#105196"/>
</linearGradient>
<linearGradient id="paint29_linear_3572_15246" x1="145.667" y1="126.647" x2="145.667" y2="126.694" gradientUnits="userSpaceOnUse">
<stop stop-color="white"/>
<stop offset="1" stop-color="#105196"/>
</linearGradient>
<linearGradient id="paint30_linear_3572_15246" x1="118.211" y1="115.165" x2="161.122" y2="183.647" gradientUnits="userSpaceOnUse">
<stop stop-color="#00438C"/>
<stop offset="1" stop-color="#B8DFFF"/>
</linearGradient>
<clipPath id="clip0_3572_15246">
<rect width="280" height="234" fill="white"/>
</clipPath>
</defs>
</svg>
