<svg width="109" height="93" viewBox="0 0 109 93" fill="none" xmlns="http://www.w3.org/2000/svg">
<path id="&#226;&#128;&#156;" d="M37.665 14.9668L36.8936 15.1484C29.2015 16.9567 23.1555 20.3298 18.6943 25.2324L18.6865 25.2412L18.6787 25.249C14.4642 29.6701 11.6318 34.9837 10.1855 41.2129H30.7354V91.6748H-17V60.9053C-17 42.057 -12.5734 26.5993 -3.63574 14.6152L-3.63379 14.6133L-3.2002 14.043C5.96491 2.13839 19.2146 -5.62895 36.4561 -9.30371L37.665 -9.56055V14.9668ZM108 14.9668L107.229 15.1484C99.5365 16.9567 93.4904 20.3298 89.0293 25.2324L89.0215 25.2412L89.0137 25.249C84.7992 29.6701 81.9677 34.9837 80.5215 41.2129H101.07V91.6748H52.9883V60.9053C52.9883 42.057 57.4158 26.5993 66.3535 14.6152L66.3555 14.6133L66.7891 14.043C75.9602 2.13529 89.3278 -5.63005 106.794 -9.30371L108 -9.55762V14.9668Z" stroke="#393939" stroke-width="2"/>
</svg>
