<svg width="320" height="79" viewBox="0 0 320 79" fill="none" xmlns="http://www.w3.org/2000/svg">
<g clip-path="url(#clip0_3572_15824)">
<g opacity="0.08">
<path d="M117 115.5L263 -30.5L409 115.5" stroke="white"/>
<path d="M117 126L263 -20L409 126" stroke="white"/>
<path d="M117 136.5L263 -9.5L409 136.5" stroke="white"/>
<path d="M117 147L263 1L409 147" stroke="white"/>
<path d="M117 157.5L263 11.5L409 157.5" stroke="white"/>
<path d="M117 168L263 22L409 168" stroke="white"/>
<path d="M117 178.5L263 32.5L409 178.5" stroke="white"/>
<path d="M117 189L263 43L409 189" stroke="white"/>
<path d="M117 199.5L263 53.5L409 199.5" stroke="white"/>
<path d="M117 210L263 64L409 210" stroke="white"/>
<path d="M117 220.5L263 74.5L409 220.5" stroke="white"/>
</g>
<path fill-rule="evenodd" clip-rule="evenodd" d="M272.509 31.1765C272.509 31.5485 272.808 31.8501 273.177 31.8501L282.855 31.8501C283.224 31.8501 283.522 31.5485 283.522 31.1765L283.522 9.98704C283.522 9.46848 282.966 9.14438 282.521 9.40366L272.843 15.043C272.636 15.1633 272.509 15.3857 272.509 15.6264L272.509 31.1765Z" fill="url(#paint0_linear_3572_15824)"/>
<path fill-rule="evenodd" clip-rule="evenodd" d="M273.177 31.1765L282.855 31.1765L282.855 9.98704L273.177 15.6264L273.177 31.1765ZM273.177 31.8501C272.808 31.8501 272.509 31.5485 272.509 31.1765L272.509 15.6264C272.509 15.3857 272.636 15.1633 272.843 15.043L282.521 9.40366C282.966 9.14438 283.522 9.46848 283.522 9.98704L283.522 31.1765C283.522 31.5485 283.224 31.8501 282.855 31.8501L273.177 31.8501Z" fill="url(#paint1_linear_3572_15824)"/>
<path fill-rule="evenodd" clip-rule="evenodd" d="M258.158 31.1765C258.158 31.5485 257.86 31.8501 257.491 31.8501L247.812 31.8501C247.444 31.8501 247.145 31.5485 247.145 31.1765L247.145 9.98704C247.145 9.46848 247.701 9.14438 248.146 9.40366L257.825 15.043C258.031 15.1633 258.158 15.3857 258.158 15.6264L258.158 31.1765Z" fill="url(#paint2_linear_3572_15824)"/>
<path fill-rule="evenodd" clip-rule="evenodd" d="M257.491 31.1765L247.812 31.1765L247.812 9.98704L257.491 15.6264L257.491 31.1765ZM257.491 31.8501C257.86 31.8501 258.158 31.5485 258.158 31.1765L258.158 15.6264C258.158 15.3857 258.031 15.1633 257.825 15.043L248.146 9.40366C247.701 9.14438 247.145 9.46848 247.145 9.98704L247.145 31.1765C247.145 31.5485 247.444 31.8501 247.812 31.8501L257.491 31.8501Z" fill="url(#paint3_linear_3572_15824)"/>
<path fill-rule="evenodd" clip-rule="evenodd" d="M255.523 26.6518L249.781 26.6518L249.781 13.6932L255.523 17.039L255.523 26.6518ZM255.523 27.3254C255.892 27.3254 256.191 27.0238 256.191 26.6518L256.191 17.039C256.191 16.7984 256.063 16.576 255.857 16.4557L250.114 13.1098C249.67 12.8505 249.113 13.1746 249.113 13.6932L249.113 26.6518C249.113 27.0238 249.412 27.3254 249.781 27.3254L255.523 27.3254Z" fill="url(#paint4_linear_3572_15824)"/>
<path fill-rule="evenodd" clip-rule="evenodd" d="M275.18 26.6518L280.922 26.6518L280.922 13.6932L275.18 17.039L275.18 26.6518ZM275.18 27.3254C274.811 27.3254 274.512 27.0238 274.512 26.6518L274.512 17.039C274.512 16.7984 274.639 16.576 274.846 16.4557L280.588 13.1098C281.033 12.8505 281.589 13.1746 281.589 13.6932L281.589 26.6518C281.589 27.0238 281.291 27.3254 280.922 27.3254L275.18 27.3254Z" fill="url(#paint5_linear_3572_15824)"/>
<path fill-rule="evenodd" clip-rule="evenodd" d="M258.551 37.9427C258.551 37.5706 258.253 37.269 257.884 37.269L248.206 37.269C247.837 37.269 247.538 37.5706 247.538 37.9427L247.538 59.1321C247.538 59.6507 248.094 59.9748 248.539 59.7155L258.218 54.0762C258.424 53.9558 258.551 53.7335 258.551 53.4928L258.551 37.9427Z" fill="url(#paint6_linear_3572_15824)"/>
<path fill-rule="evenodd" clip-rule="evenodd" d="M257.884 37.9427L248.206 37.9427L248.206 59.1321L257.884 53.4928L257.884 37.9427ZM257.884 37.269C258.253 37.269 258.551 37.5706 258.551 37.9427L258.551 53.4928C258.551 53.7335 258.424 53.9558 258.218 54.0762L248.539 59.7155C248.094 59.9748 247.538 59.6507 247.538 59.1321L247.538 37.9427C247.538 37.5706 247.837 37.269 248.206 37.269L257.884 37.269Z" fill="url(#paint7_linear_3572_15824)"/>
<path fill-rule="evenodd" clip-rule="evenodd" d="M272.902 37.9427C272.902 37.5706 273.2 37.269 273.569 37.269L283.248 37.269C283.616 37.269 283.915 37.5706 283.915 37.9427L283.915 59.1321C283.915 59.6507 283.359 59.9748 282.914 59.7155L273.235 54.0762C273.029 53.9558 272.902 53.7335 272.902 53.4928L272.902 37.9427Z" fill="url(#paint8_linear_3572_15824)"/>
<path fill-rule="evenodd" clip-rule="evenodd" d="M273.569 37.9427L283.248 37.9427L283.248 59.1321L273.569 53.4928L273.569 37.9427ZM273.569 37.269C273.2 37.269 272.902 37.5706 272.902 37.9427L272.902 53.4928C272.902 53.7335 273.029 53.9558 273.235 54.0762L282.914 59.7155C283.359 59.9748 283.915 59.6507 283.915 59.1321L283.915 37.9427C283.915 37.5706 283.616 37.269 283.248 37.269L273.569 37.269Z" fill="url(#paint9_linear_3572_15824)"/>
<path fill-rule="evenodd" clip-rule="evenodd" d="M275.537 42.4675L281.279 42.4674L281.279 55.4261L275.537 52.0802L275.537 42.4675ZM275.537 41.7938C275.168 41.7938 274.869 42.0954 274.869 42.4675L274.869 52.0802C274.869 52.3209 274.997 52.5433 275.203 52.6636L280.946 56.0095C281.391 56.2688 281.947 55.9447 281.947 55.4261L281.947 42.4674C281.947 42.0954 281.648 41.7938 281.279 41.7938L275.537 41.7938Z" fill="url(#paint10_linear_3572_15824)"/>
<path fill-rule="evenodd" clip-rule="evenodd" d="M255.881 42.4674H250.139V55.4261L255.881 52.0802L255.881 42.4674ZM255.881 41.7938C256.25 41.7938 256.549 42.0954 256.549 42.4674V52.0802C256.549 52.3209 256.421 52.5433 256.215 52.6636L250.472 56.0095C250.027 56.2688 249.471 55.9447 249.471 55.4261V42.4674C249.471 42.0954 249.77 41.7938 250.139 41.7938H255.881Z" fill="url(#paint11_linear_3572_15824)"/>
<path fill-rule="evenodd" clip-rule="evenodd" d="M253.485 60.3411C253.485 60.6591 253.634 60.9586 253.886 61.1494L264.899 69.4855C265.255 69.755 265.745 69.755 266.101 69.4855L277.114 61.1494C277.366 60.9586 277.515 60.6591 277.515 60.3411L277.515 48.3842C277.515 47.8261 277.066 47.3738 276.513 47.3738L254.487 47.3738C253.934 47.3738 253.485 47.8261 253.485 48.3842L253.485 60.3411Z" fill="url(#paint12_linear_3572_15824)"/>
<path fill-rule="evenodd" clip-rule="evenodd" d="M254.286 60.6105L265.3 68.9466C265.418 69.0365 265.582 69.0365 265.7 68.9466L276.714 60.6105C276.798 60.5469 276.847 60.4471 276.847 60.3411L276.847 48.3842C276.847 48.1982 276.698 48.0474 276.513 48.0474L254.487 48.0474C254.302 48.0474 254.153 48.1982 254.153 48.3842L254.153 60.3411C254.153 60.4471 254.202 60.5469 254.286 60.6105ZM253.886 61.1494C253.634 60.9586 253.485 60.6591 253.485 60.3411L253.485 48.3842C253.485 47.8261 253.934 47.3738 254.487 47.3738L276.513 47.3738C277.066 47.3738 277.515 47.8261 277.515 48.3842L277.515 60.3411C277.515 60.6591 277.366 60.9586 277.114 61.1494L266.101 69.4855C265.745 69.755 265.255 69.755 264.899 69.4855L253.886 61.1494Z" fill="url(#paint13_linear_3572_15824)"/>
<path fill-rule="evenodd" clip-rule="evenodd" d="M256.957 58.7689L265.427 65.1798C265.545 65.2696 265.709 65.2696 265.827 65.1798L274.297 58.7689C274.381 58.7052 274.431 58.6054 274.431 58.4994L274.431 49.3947C274.431 49.2087 274.281 49.0579 274.097 49.0579L257.157 49.0579C256.973 49.0579 256.823 49.2087 256.823 49.3947L256.823 58.4994C256.823 58.6054 256.873 58.7052 256.957 58.7689ZM256.556 59.3078C256.304 59.1169 256.156 58.8175 256.156 58.4994L256.156 49.3947C256.156 48.8366 256.604 48.3842 257.157 48.3842L274.097 48.3842C274.65 48.3842 275.098 48.8366 275.098 49.3947L275.098 58.4994C275.098 58.8174 274.95 59.1169 274.698 59.3078L266.228 65.7187C265.872 65.9881 265.382 65.9881 265.026 65.7187L256.556 59.3078Z" fill="url(#paint14_linear_3572_15824)"/>
<path fill-rule="evenodd" clip-rule="evenodd" d="M252.679 34.5813C252.679 34.2093 252.38 33.9077 252.012 33.9077H242.029C241.66 33.9077 241.361 34.2093 241.361 34.5813V45.9441C241.361 46.1835 241.487 46.405 241.692 46.5257L251.675 52.4115C252.12 52.6738 252.679 52.3499 252.679 51.8298V34.5813Z" fill="url(#paint15_linear_3572_15824)"/>
<path fill-rule="evenodd" clip-rule="evenodd" d="M252.012 34.5813H242.029L242.029 45.9441L252.012 51.8298L252.012 34.5813ZM252.012 33.9077C252.38 33.9077 252.679 34.2093 252.679 34.5813V51.8298C252.679 52.3499 252.12 52.6738 251.675 52.4115L241.692 46.5257C241.487 46.405 241.361 46.1835 241.361 45.9441V34.5813C241.361 34.2093 241.66 33.9077 242.029 33.9077H252.012Z" fill="url(#paint16_linear_3572_15824)"/>
<path fill-rule="evenodd" clip-rule="evenodd" d="M236.237 22.788C235.794 22.5268 235.242 22.8496 235.242 23.3697L235.242 32.8C235.242 33.0423 235.369 33.2668 235.576 33.3885L251.314 42.6678C251.633 42.8554 252.039 42.7456 252.221 42.4225L256.22 35.3498C256.403 35.0266 256.293 34.6125 255.975 34.4249L236.237 22.788Z" fill="url(#paint17_linear_3572_15824)"/>
<path fill-rule="evenodd" clip-rule="evenodd" d="M235.907 23.3731L235.907 32.8034L251.645 42.0827L255.644 35.01L235.907 23.3731ZM235.242 23.3697C235.242 22.8496 235.794 22.5268 236.237 22.788L255.975 34.4249C256.293 34.6125 256.403 35.0266 256.22 35.3498L252.221 42.4225C252.039 42.7456 251.633 42.8554 251.314 42.6678L235.576 33.3885C235.369 33.2668 235.242 33.0423 235.242 32.8L235.242 23.3697Z" fill="url(#paint18_linear_3572_15824)"/>
<path fill-rule="evenodd" clip-rule="evenodd" d="M237.974 26.8726L237.974 31.7016L246.742 36.8711L248.79 33.2494L237.974 26.8726ZM237.31 26.8691C237.31 26.349 237.862 26.0263 238.305 26.2875L249.121 32.6643C249.439 32.8519 249.549 33.266 249.366 33.5892L247.319 37.2109C247.136 37.5341 246.73 37.6439 246.411 37.4562L237.643 32.2867C237.437 32.165 237.31 31.9405 237.31 31.6982L237.31 26.8691Z" fill="url(#paint19_linear_3572_15824)"/>
<path fill-rule="evenodd" clip-rule="evenodd" d="M278.321 34.5815C278.321 34.2094 278.62 33.9078 278.988 33.9078H288.971C289.34 33.9078 289.639 34.2094 289.639 34.5815V45.9442C289.639 46.1836 289.513 46.4051 289.308 46.5259L279.325 52.4116C278.88 52.674 278.321 52.3501 278.321 51.83V34.5815Z" fill="url(#paint20_linear_3572_15824)"/>
<path fill-rule="evenodd" clip-rule="evenodd" d="M278.988 34.5815H288.971L288.971 45.9442L278.988 51.83L278.988 34.5815ZM278.988 33.9078C278.62 33.9078 278.321 34.2094 278.321 34.5815V51.83C278.321 52.3501 278.88 52.674 279.325 52.4116L289.308 46.5259C289.513 46.4051 289.639 46.1836 289.639 45.9442V34.5815C289.639 34.2094 289.34 33.9078 288.971 33.9078H278.988Z" fill="url(#paint21_linear_3572_15824)"/>
<path fill-rule="evenodd" clip-rule="evenodd" d="M294.763 22.7882C295.206 22.527 295.758 22.8497 295.758 23.3698L295.758 32.8001C295.758 33.0424 295.631 33.2669 295.424 33.3886L279.686 42.6679C279.367 42.8556 278.961 42.7457 278.779 42.4226L274.78 35.3499C274.597 35.0268 274.707 34.6127 275.025 34.425L294.763 22.7882Z" fill="url(#paint22_linear_3572_15824)"/>
<path fill-rule="evenodd" clip-rule="evenodd" d="M295.093 23.3732L295.093 32.8035L279.355 42.0828L275.356 35.0101L295.093 23.3732ZM295.758 23.3698C295.758 22.8497 295.206 22.527 294.763 22.7882L275.025 34.425C274.707 34.6127 274.597 35.0268 274.78 35.3499L278.779 42.4226C278.961 42.7457 279.367 42.8556 279.686 42.6679L295.424 33.3886C295.631 33.2669 295.758 33.0424 295.758 32.8001L295.758 23.3698Z" fill="url(#paint23_linear_3572_15824)"/>
<path fill-rule="evenodd" clip-rule="evenodd" d="M293.026 26.8727L293.026 31.7017L284.258 36.8713L282.21 33.2495L293.026 26.8727ZM293.69 26.8692C293.69 26.3492 293.138 26.0264 292.695 26.2876L281.879 32.6644C281.561 32.8521 281.451 33.2661 281.634 33.5893L283.681 37.2111C283.864 37.5342 284.27 37.644 284.589 37.4563L293.357 32.2868C293.563 32.1651 293.69 31.9406 293.69 31.6983L293.69 26.8692Z" fill="url(#paint24_linear_3572_15824)"/>
<path d="M263.762 13.3165C264.794 12.7148 266.066 12.7148 267.099 13.3165L285.378 23.9668C286.41 24.5685 287.046 25.6804 287.046 26.8837V48.1843C287.046 49.3876 286.41 50.4996 285.378 51.1012L267.099 61.7515C266.066 62.3532 264.794 62.3532 263.762 61.7515L245.483 51.1012C244.451 50.4996 243.814 49.3876 243.814 48.1843V26.8837C243.814 25.6804 244.451 24.5685 245.483 23.9668L263.762 13.3165Z" fill="url(#paint25_linear_3572_15824)"/>
<path d="M263.81 18.692C264.843 18.0903 266.115 18.0903 267.147 18.692L280.875 26.6907C281.908 27.2924 282.544 28.4043 282.544 29.6076V45.6051C282.544 46.8085 281.908 47.9204 280.875 48.522L267.147 56.5208C266.115 57.1224 264.843 57.1224 263.81 56.5208L250.082 48.522C249.05 47.9204 248.414 46.8085 248.414 45.6051V29.6076C248.414 28.4043 249.05 27.2924 250.082 26.6907L263.81 18.692Z" fill="url(#paint26_linear_3572_15824)"/>
<path d="M268.757 26.1804L268.758 26.1795L268.758 26.1795L268.757 26.1804ZM268.757 26.1804L268.759 26.1821M268.757 26.1804L268.759 26.182L268.759 26.1821M268.759 26.1821C268.759 26.1821 268.759 26.1821 268.759 26.1821L268.759 26.1821L268.759 26.1821ZM268.764 26.1877C268.767 26.2029 268.77 26.2181 268.773 26.2333C268.783 26.2829 268.794 26.3324 268.804 26.3819L268.815 26.3787C268.821 26.3769 268.825 26.3766 268.826 26.3766C268.827 26.3765 268.828 26.3766 268.828 26.3767C268.829 26.3769 268.835 26.3785 268.849 26.3881C268.865 26.3986 268.882 26.4133 268.908 26.4371C268.911 26.4397 268.914 26.4425 268.917 26.4455C268.939 26.4657 268.968 26.4929 268.999 26.5166L269 26.5175C269.018 26.5308 269.035 26.5442 269.053 26.5576M268.764 26.1877L266.186 23.2942C266.186 23.2943 266.186 23.2944 266.186 23.2945C267.54 24.5322 268.029 26.0803 267.823 27.9005C267.721 28.7934 267.462 29.647 267.136 30.4935L267.327 30.567M268.764 26.1877L268.902 26.3244L268.907 26.3194L268.767 26.1799C268.856 26.1571 268.923 26.1867 268.982 26.2314L268.764 26.1877ZM269.053 26.5576C269.065 26.6126 269.078 26.6679 269.09 26.7235C269.194 27.1758 269.302 27.6474 269.332 28.1239L269.332 28.1239C269.401 29.2594 269.221 30.356 268.433 31.2779C268.312 31.4202 268.154 31.5614 267.965 31.6362C267.766 31.7147 267.54 31.7159 267.315 31.5851L267.315 31.5849C267.2 31.5176 267.114 31.4315 267.059 31.3266C267.005 31.2223 266.99 31.1139 266.995 31.0134C267.002 30.8378 267.073 30.6571 267.125 30.5228C267.129 30.5127 267.133 30.5028 267.136 30.4933L267.327 30.567M269.053 26.5576C271.072 28.1147 272.227 30.2111 272.762 32.7051C273.042 34.01 273.131 35.3323 273.09 36.6717M269.053 26.5576L273.09 36.6717M267.327 30.567C267.656 29.7121 267.922 28.8405 268.026 27.9236L269.127 28.1365C269.196 29.2428 269.018 30.2787 268.277 31.1453C268.058 31.4034 267.749 31.6012 267.418 31.4084C267.078 31.2091 267.206 30.8807 267.318 30.5895C267.321 30.582 267.324 30.5745 267.327 30.567ZM273.09 36.6717C273.09 36.6718 273.09 36.6719 273.09 36.672L273.294 36.6783L273.09 36.6715C273.09 36.6716 273.09 36.6716 273.09 36.6717ZM269.535 41.5881C269.934 42.4319 269.75 43.2216 269.286 43.9384C269.068 44.2742 268.729 44.5313 268.277 44.5313H268.276C267.858 44.53 267.439 44.518 267.022 44.4979C267.123 44.5285 267.225 44.564 267.326 44.6047L267.326 44.6048C267.756 44.7789 268.063 45.0541 268.19 45.4191C268.316 45.7833 268.248 46.192 268.023 46.6008L269.535 41.5881ZM269.535 41.5881C269.547 41.5871 269.561 41.5852 269.574 41.5821C269.651 41.5647 269.707 41.518 269.745 41.4706C269.783 41.4246 269.811 41.3686 269.835 41.309L269.535 41.5881ZM266.072 44.3415C266.048 44.3282 266.025 44.3136 266.003 44.2978C265.833 44.1779 265.718 43.9951 265.693 43.7519M266.072 44.3415L266.603 41.546L266.601 41.3419L266.603 41.546C266.701 41.5454 266.751 41.5678 266.781 41.5922C266.814 41.6184 266.849 41.668 266.878 41.7685L266.878 41.769C266.903 41.8539 266.891 41.8974 266.876 41.9255C266.858 41.9617 266.816 42.005 266.731 42.0584L266.84 42.2315L266.732 42.0582C266.644 42.1134 266.557 42.1732 266.474 42.2301C266.449 42.2468 266.425 42.2633 266.402 42.2793C266.296 42.3517 266.195 42.4179 266.091 42.4737L266.177 42.6342L266.091 42.4738C265.945 42.5523 265.836 42.6507 265.762 42.768C265.688 42.8849 265.655 43.0089 265.644 43.1275C265.634 43.2441 265.643 43.3599 265.656 43.4631C265.662 43.5126 265.668 43.5551 265.674 43.5952C265.681 43.6482 265.688 43.697 265.693 43.7519M266.072 44.3415C265.915 44.3345 265.757 44.3357 265.599 44.3437L265.589 44.3442C265.42 44.3382 265.251 44.3379 265.081 44.3463C265.169 44.2992 265.245 44.2383 265.31 44.1621C265.45 43.999 265.514 43.7892 265.539 43.5593M266.072 44.3415L264.577 41.546C264.48 41.5455 264.43 41.5694 264.398 41.5958C264.364 41.6245 264.33 41.6764 264.304 41.772C264.283 41.8493 264.294 41.8942 264.311 41.9262C264.331 41.9642 264.374 42.0091 264.457 42.0582M265.693 43.7519L265.897 43.7317L265.693 43.752C265.693 43.752 265.693 43.7519 265.693 43.7519ZM265.539 43.5593C265.539 43.5594 265.539 43.5594 265.539 43.5595L265.336 43.5372L265.539 43.5592C265.539 43.5592 265.539 43.5593 265.539 43.5593ZM265.539 43.5593C265.564 43.3326 265.56 43.1009 265.475 42.8912C265.387 42.6732 265.22 42.5017 264.965 42.383M264.965 42.383C264.965 42.383 264.966 42.3831 264.966 42.3832L264.879 42.5684L264.965 42.383ZM264.965 42.383C264.889 42.3474 264.815 42.2988 264.731 42.24C264.718 42.2308 264.704 42.2213 264.69 42.2115C264.619 42.1619 264.54 42.1061 264.457 42.0582M264.457 42.0582C264.457 42.0581 264.457 42.058 264.457 42.0579L264.354 42.2348L264.458 42.0585C264.457 42.0584 264.457 42.0583 264.457 42.0582ZM261.969 41.3999C261.969 41.4003 261.968 41.4007 261.968 41.4011L261.969 41.3999ZM261.969 41.3999L261.936 41.3656L262.004 41.2434L262.005 41.2423L262.016 41.2224L261.992 41.2359L261.99 41.237L261.969 41.3999ZM267.762 38.8121C268.614 38.8674 269.29 38.611 269.702 37.8097L267.762 38.8121ZM267.762 38.8121C267.394 38.7888 267.242 38.9694 267.215 39.3375L267.762 38.8121ZM266.181 23.2933C266.181 23.2919 266.181 23.2906 266.18 23.2892L266.095 24.5638C266.202 24.1382 266.191 23.7002 266.181 23.2933ZM264.372 27.2132C265.16 26.4954 265.821 25.6644 266.095 24.5639L264.372 27.2132ZM264.091 44.5223C263.908 44.5834 263.728 44.6629 263.552 44.7649L263.552 44.765C263.348 44.8836 263.183 45.0351 263.076 45.2297C262.969 45.4253 262.929 45.6491 262.951 45.897L262.951 45.8972C263.005 46.4985 263.302 46.9636 263.791 47.275C264.779 47.9055 265.837 47.895 266.879 47.5462C267.366 47.3835 267.766 47.0696 268.023 46.6011L264.091 44.5223ZM269.829 37.441C269.899 37.3502 269.953 37.2503 269.99 37.1416C270.117 36.7625 270.004 36.342 269.711 35.9435L269.71 35.943C269.548 35.7236 269.379 35.4988 269.197 35.2849L269.196 35.2848C269.075 35.1428 268.925 35.0231 268.748 34.9604C268.566 34.8962 268.368 34.8962 268.167 34.9763L268.166 34.9764C267.972 35.054 267.773 35.1243 267.569 35.1963C267.555 35.2012 267.542 35.2061 267.528 35.211C267.311 35.2876 267.091 35.3664 266.873 35.4558C266.439 35.6348 266.009 35.8599 265.633 36.2103L265.633 36.2105C265.619 36.2235 265.608 36.2335 265.598 36.2412C265.239 35.9048 264.83 35.6824 264.415 35.5033C264.206 35.4128 263.992 35.3324 263.783 35.2545C263.761 35.2463 263.739 35.2382 263.718 35.2301C263.53 35.1603 263.346 35.092 263.165 35.0176C262.983 34.9423 262.79 34.9017 262.598 34.9255C262.402 34.9498 262.222 35.0401 262.073 35.2023L262.072 35.2026C261.744 35.5611 261.424 35.9524 261.189 36.4107L261.189 36.4113C261.109 36.5689 261.078 36.7277 261.102 36.8885C261.126 37.0457 261.201 37.1857 261.298 37.3133L261.298 37.3134C261.341 37.3702 261.386 37.4227 261.432 37.4712C261.385 37.449 261.332 37.4369 261.272 37.4405C261.186 37.4456 261.116 37.4832 261.064 37.5229C261.012 37.5626 260.967 37.6131 260.927 37.6644L260.926 37.6652C260.569 38.131 260.344 38.6813 260.581 39.3222L260.581 39.3224C260.696 39.6318 260.818 39.9384 260.939 40.2427L260.952 40.2748C261.077 40.5904 261.201 40.9036 261.317 41.2193C261.337 41.2728 261.36 41.3305 261.388 41.3807C261.414 41.4282 261.46 41.4943 261.536 41.5347C261.578 41.5566 261.62 41.5668 261.661 41.5683C261.236 42.4351 261.432 43.2423 261.925 43.9747C262.121 44.2667 262.423 44.5116 262.826 44.5245L269.829 37.441ZM261.65 37.6944C261.639 37.6757 261.627 37.6566 261.614 37.6376C262.032 37.9676 262.535 38.0411 263.039 38.0561L263.04 38.0561C263.538 38.07 263.787 38.2359 263.9 38.4688C263.952 38.5756 263.981 38.7084 263.985 38.8682C263.959 38.8261 263.927 38.787 263.887 38.7527C263.788 38.667 263.668 38.6341 263.545 38.6187C263.425 38.6036 263.274 38.6025 263.093 38.6025C262.791 38.6025 262.538 38.5455 262.327 38.4316C262.116 38.3183 261.934 38.1422 261.781 37.8849L261.781 37.8846C261.756 37.8427 261.728 37.8045 261.706 37.7758L261.702 37.7704C261.678 37.7378 261.662 37.716 261.65 37.6951L261.65 37.6944ZM269.045 37.9427C269.221 37.8866 269.38 37.8138 269.516 37.7249C269.328 38.0855 269.089 38.313 268.808 38.4478C268.523 38.5853 268.179 38.6342 267.775 38.608L267.775 38.608C267.561 38.5944 267.365 38.6373 267.221 38.7783C267.249 38.5466 267.312 38.4011 267.404 38.3036C267.536 38.1633 267.774 38.0745 268.226 38.0474C268.263 38.0453 268.301 38.0435 268.34 38.0416C268.557 38.0312 268.806 38.0193 269.045 37.9427ZM262.223 35.3407C261.899 35.6944 261.594 36.0699 261.371 36.504L262.223 35.3407Z" fill="url(#paint27_linear_3572_15824)" stroke="url(#paint28_linear_3572_15824)" stroke-width="0.409091"/>
<path d="M268.514 25.6722L268.503 25.6516L268.509 25.6773L268.514 25.6722Z" fill="#E5A70D"/>
<path fill-rule="evenodd" clip-rule="evenodd" d="M267.648 17.8168L281.376 25.8156C282.718 26.5978 283.545 28.0432 283.545 29.6076V45.6051C283.545 47.1694 282.718 48.6149 281.376 49.397L267.648 57.3958C266.306 58.1779 264.652 58.1779 263.31 57.3958L249.582 49.397C248.24 48.6149 247.413 47.1694 247.413 45.6051V29.6076C247.413 28.0432 248.24 26.5978 249.582 25.8156L263.31 17.8168C264.652 17.0347 266.306 17.0347 267.648 17.8168ZM267.148 18.6919C266.115 18.0902 264.843 18.0902 263.81 18.6919L250.083 26.6907C249.05 27.2923 248.414 28.4042 248.414 29.6076V45.6051C248.414 46.8084 249.05 47.9203 250.083 48.522L263.81 56.5207C264.843 57.1224 266.115 57.1224 267.148 56.5207L280.876 48.522C281.908 47.9203 282.544 46.8084 282.544 45.6051V29.6076C282.544 28.4042 281.908 27.2923 280.876 26.6907L267.148 18.6919Z" fill="url(#paint29_linear_3572_15824)"/>
</g>
<defs>
<linearGradient id="paint0_linear_3572_15824" x1="278.016" y1="25.4794" x2="278.016" y2="9.31241" gradientUnits="userSpaceOnUse">
<stop stop-color="#8C4500"/>
<stop offset="1" stop-color="#FFE2B8"/>
</linearGradient>
<linearGradient id="paint1_linear_3572_15824" x1="278.016" y1="31.8501" x2="278.016" y2="9.31241" gradientUnits="userSpaceOnUse">
<stop stop-color="#8C4500"/>
<stop offset="1" stop-color="#FFE2B8"/>
</linearGradient>
<linearGradient id="paint2_linear_3572_15824" x1="252.652" y1="25.4794" x2="252.652" y2="9.31241" gradientUnits="userSpaceOnUse">
<stop stop-color="#8C4500"/>
<stop offset="1" stop-color="#FFE2B8"/>
</linearGradient>
<linearGradient id="paint3_linear_3572_15824" x1="252.652" y1="31.8501" x2="252.652" y2="9.31241" gradientUnits="userSpaceOnUse">
<stop stop-color="#8C4500"/>
<stop offset="1" stop-color="#FFE2B8"/>
</linearGradient>
<linearGradient id="paint4_linear_3572_15824" x1="252.652" y1="27.3254" x2="252.652" y2="13.0185" gradientUnits="userSpaceOnUse">
<stop stop-color="#E8E6FF" stop-opacity="0"/>
<stop offset="1" stop-color="#E8E6FF"/>
</linearGradient>
<linearGradient id="paint5_linear_3572_15824" x1="278.051" y1="27.3254" x2="278.051" y2="13.0185" gradientUnits="userSpaceOnUse">
<stop stop-color="#E8E6FF" stop-opacity="0"/>
<stop offset="1" stop-color="#E8E6FF"/>
</linearGradient>
<linearGradient id="paint6_linear_3572_15824" x1="253.045" y1="43.6397" x2="253.045" y2="59.8067" gradientUnits="userSpaceOnUse">
<stop stop-color="#8C4500"/>
<stop offset="1" stop-color="#FFE2B8"/>
</linearGradient>
<linearGradient id="paint7_linear_3572_15824" x1="253.045" y1="37.269" x2="253.045" y2="59.8067" gradientUnits="userSpaceOnUse">
<stop offset="0.583333" stop-color="#8C4500"/>
<stop offset="1" stop-color="#FFE2B8"/>
</linearGradient>
<linearGradient id="paint8_linear_3572_15824" x1="278.408" y1="43.6397" x2="278.408" y2="59.8067" gradientUnits="userSpaceOnUse">
<stop stop-color="#8C4500"/>
<stop offset="1" stop-color="#FFE2B8"/>
</linearGradient>
<linearGradient id="paint9_linear_3572_15824" x1="278.408" y1="37.269" x2="278.408" y2="59.8067" gradientUnits="userSpaceOnUse">
<stop offset="0.583333" stop-color="#8C4500"/>
<stop offset="1" stop-color="#FFE2B8"/>
</linearGradient>
<linearGradient id="paint10_linear_3572_15824" x1="278.408" y1="41.7938" x2="278.408" y2="56.1007" gradientUnits="userSpaceOnUse">
<stop stop-color="#E8E6FF" stop-opacity="0"/>
<stop offset="1" stop-color="#E8E6FF"/>
</linearGradient>
<linearGradient id="paint11_linear_3572_15824" x1="253.01" y1="41.7938" x2="253.01" y2="56.1007" gradientUnits="userSpaceOnUse">
<stop stop-color="#E8E6FF" stop-opacity="0"/>
<stop offset="1" stop-color="#E8E6FF"/>
</linearGradient>
<linearGradient id="paint12_linear_3572_15824" x1="265.5" y1="69.6876" x2="265.5" y2="47.3738" gradientUnits="userSpaceOnUse">
<stop stop-color="#FFE2B8"/>
<stop offset="1" stop-color="#8C4500"/>
</linearGradient>
<linearGradient id="paint13_linear_3572_15824" x1="265.5" y1="69.6876" x2="265.5" y2="47.3738" gradientUnits="userSpaceOnUse">
<stop stop-color="#8C4500"/>
<stop offset="1" stop-color="#FFE2B8"/>
</linearGradient>
<linearGradient id="paint14_linear_3572_15824" x1="265.627" y1="65.9208" x2="265.627" y2="48.3842" gradientUnits="userSpaceOnUse">
<stop stop-color="#FFE2B8"/>
<stop offset="1" stop-color="#8C4500"/>
</linearGradient>
<linearGradient id="paint15_linear_3572_15824" x1="246.892" y1="41.6688" x2="240.104" y2="46.4647" gradientUnits="userSpaceOnUse">
<stop stop-color="#8C4500"/>
<stop offset="0.771271" stop-color="#FFCF8A"/>
</linearGradient>
<linearGradient id="paint16_linear_3572_15824" x1="246.171" y1="38.1082" x2="247.202" y2="50.8991" gradientUnits="userSpaceOnUse">
<stop stop-color="#8C4500"/>
<stop offset="1" stop-color="#FFE2B8"/>
</linearGradient>
<linearGradient id="paint17_linear_3572_15824" x1="233.716" y1="24.5641" x2="246.152" y2="33.8033" gradientUnits="userSpaceOnUse">
<stop stop-color="#FFE2B8"/>
<stop offset="1" stop-color="#8C4500"/>
</linearGradient>
<linearGradient id="paint18_linear_3572_15824" x1="247.821" y1="31.7099" x2="235.989" y2="22.681" gradientUnits="userSpaceOnUse">
<stop stop-color="#8C4500"/>
<stop offset="1" stop-color="#FFE2B8"/>
</linearGradient>
<linearGradient id="paint19_linear_3572_15824" x1="241.762" y1="35.1656" x2="237.834" y2="26.0248" gradientUnits="userSpaceOnUse">
<stop stop-color="#E6F4FF" stop-opacity="0"/>
<stop offset="1" stop-color="white"/>
</linearGradient>
<linearGradient id="paint20_linear_3572_15824" x1="284.108" y1="41.6689" x2="290.896" y2="46.4648" gradientUnits="userSpaceOnUse">
<stop stop-color="#8C4500"/>
<stop offset="0.771271" stop-color="#FFCF8A"/>
</linearGradient>
<linearGradient id="paint21_linear_3572_15824" x1="284.829" y1="38.1084" x2="283.798" y2="50.8992" gradientUnits="userSpaceOnUse">
<stop stop-color="#8C4500"/>
<stop offset="1" stop-color="#FFE2B8"/>
</linearGradient>
<linearGradient id="paint22_linear_3572_15824" x1="297.284" y1="24.5642" x2="284.848" y2="33.8034" gradientUnits="userSpaceOnUse">
<stop stop-color="#FFE2B8"/>
<stop offset="1" stop-color="#8C4500"/>
</linearGradient>
<linearGradient id="paint23_linear_3572_15824" x1="283.179" y1="31.71" x2="295.011" y2="22.6811" gradientUnits="userSpaceOnUse">
<stop stop-color="#8C4500"/>
<stop offset="1" stop-color="#FFE2B8"/>
</linearGradient>
<linearGradient id="paint24_linear_3572_15824" x1="289.238" y1="35.1657" x2="293.166" y2="26.0249" gradientUnits="userSpaceOnUse">
<stop stop-color="#E6F4FF" stop-opacity="0"/>
<stop offset="1" stop-color="white"/>
</linearGradient>
<linearGradient id="paint25_linear_3572_15824" x1="277.598" y1="58.0007" x2="252.768" y2="15.3752" gradientUnits="userSpaceOnUse">
<stop stop-color="#8C4500"/>
<stop offset="1" stop-color="#FFE2B8"/>
</linearGradient>
<linearGradient id="paint26_linear_3572_15824" x1="249.411" y1="23.4371" x2="283.467" y2="63.2754" gradientUnits="userSpaceOnUse">
<stop stop-color="#FFE2B8"/>
<stop offset="1" stop-color="#8C4500"/>
</linearGradient>
<linearGradient id="paint27_linear_3572_15824" x1="263.373" y1="29.6357" x2="274.172" y2="52.6739" gradientUnits="userSpaceOnUse">
<stop stop-color="#FFF5E6"/>
<stop offset="1" stop-color="white" stop-opacity="0.2"/>
</linearGradient>
<linearGradient id="paint28_linear_3572_15824" x1="264.124" y1="36.8351" x2="258.679" y2="29.6837" gradientUnits="userSpaceOnUse">
<stop stop-color="white"/>
<stop offset="1" stop-color="#8C4500"/>
</linearGradient>
<linearGradient id="paint29_linear_3572_15824" x1="253.935" y1="19.5012" x2="277.012" y2="55.9934" gradientUnits="userSpaceOnUse">
<stop stop-color="#8C4500"/>
<stop offset="1" stop-color="#FFE2B8"/>
</linearGradient>
<clipPath id="clip0_3572_15824">
<rect width="320" height="79" fill="white"/>
</clipPath>
</defs>
</svg>
