<svg width="280" height="234" viewBox="0 0 280 234" fill="none" xmlns="http://www.w3.org/2000/svg">
<g clip-path="url(#clip0_3572_15248)">
<g opacity="0.08">
<path d="M-6 195L140 49L286 195" stroke="white"/>
<path d="M-6 205.5L140 59.5L286 205.5" stroke="white"/>
<path d="M-6 216L140 70L286 216" stroke="white"/>
<path d="M-6 226.5L140 80.5L286 226.5" stroke="white"/>
<path d="M-6 237L140 91L286 237" stroke="white"/>
<path d="M-6 247.5L140 101.5L286 247.5" stroke="white"/>
<path d="M-6 258L140 112L286 258" stroke="white"/>
<path d="M-6 268.5L140 122.5L286 268.5" stroke="white"/>
<path d="M-6 279L140 133L286 279" stroke="white"/>
<path d="M-6 289.5L140 143.5L286 289.5" stroke="white"/>
<path d="M-6 300L140 154L286 300" stroke="white"/>
<path d="M-6 310.5L140 164.5L286 310.5" stroke="white"/>
<path d="M-6 321L140 175L286 321" stroke="white"/>
<path d="M-6 331.5L140 185.5L286 331.5" stroke="white"/>
<path d="M-6 342L140 196L286 342" stroke="white"/>
<path d="M-6 352.5L140 206.5L286 352.5" stroke="white"/>
<path d="M-6 363L140 217L286 363" stroke="white"/>
<path d="M-6 373.5L140 227.5L286 373.5" stroke="white"/>
</g>
<path fill-rule="evenodd" clip-rule="evenodd" d="M153.206 136.749C153.206 137.453 153.769 138.024 154.464 138.024L172.699 138.024C173.393 138.024 173.956 137.453 173.956 136.749L173.956 96.6516C173.956 95.6703 172.908 95.057 172.07 95.5477L153.835 106.219C153.446 106.447 153.206 106.868 153.206 107.323L153.206 136.749Z" fill="url(#paint0_linear_3572_15248)"/>
<path fill-rule="evenodd" clip-rule="evenodd" d="M154.464 136.749L172.699 136.749L172.699 96.6516L154.464 107.323L154.464 136.749ZM154.464 138.024C153.769 138.024 153.206 137.453 153.206 136.749L153.206 107.323C153.206 106.868 153.446 106.447 153.835 106.219L172.07 95.5477C172.908 95.057 173.956 95.6703 173.956 96.6516L173.956 136.749C173.956 137.453 173.393 138.024 172.699 138.024L154.464 138.024Z" fill="url(#paint1_linear_3572_15248)"/>
<path fill-rule="evenodd" clip-rule="evenodd" d="M126.168 136.749C126.168 137.453 125.605 138.024 124.911 138.024L106.676 138.024C105.981 138.024 105.418 137.453 105.418 136.749L105.418 96.6516C105.418 95.6703 106.466 95.057 107.305 95.5477L125.539 106.219C125.929 106.447 126.168 106.868 126.168 107.323L126.168 136.749Z" fill="url(#paint2_linear_3572_15248)"/>
<path fill-rule="evenodd" clip-rule="evenodd" d="M124.911 136.749L106.676 136.749L106.676 96.6516L124.911 107.323L124.911 136.749ZM124.911 138.024C125.605 138.024 126.168 137.453 126.168 136.749L126.168 107.323C126.168 106.868 125.929 106.447 125.539 106.219L107.305 95.5477C106.466 95.057 105.418 95.6703 105.418 96.6516L105.418 136.749C105.418 137.453 105.981 138.024 106.676 138.024L124.911 138.024Z" fill="url(#paint3_linear_3572_15248)"/>
<path fill-rule="evenodd" clip-rule="evenodd" d="M121.203 128.187L110.384 128.187L110.384 103.665L121.203 109.996L121.203 128.187ZM121.203 129.461C121.897 129.461 122.46 128.891 122.46 128.187L122.46 109.996C122.46 109.541 122.221 109.12 121.832 108.892L111.013 102.561C110.174 102.07 109.126 102.683 109.126 103.665L109.126 128.187C109.126 128.891 109.689 129.461 110.384 129.461L121.203 129.461Z" fill="url(#paint4_linear_3572_15248)"/>
<path fill-rule="evenodd" clip-rule="evenodd" d="M158.238 128.187L169.057 128.187L169.057 103.665L158.238 109.996L158.238 128.187ZM158.238 129.461C157.543 129.461 156.98 128.891 156.98 128.187L156.98 109.996C156.98 109.541 157.22 109.12 157.609 108.892L168.428 102.561C169.266 102.07 170.314 102.683 170.314 103.665L170.314 128.187C170.314 128.891 169.751 129.461 169.057 129.461L158.238 129.461Z" fill="url(#paint5_linear_3572_15248)"/>
<path fill-rule="evenodd" clip-rule="evenodd" d="M126.907 149.553C126.907 148.849 126.344 148.278 125.649 148.278L107.415 148.278C106.72 148.278 106.157 148.849 106.157 149.553L106.157 189.651C106.157 190.632 107.205 191.245 108.043 190.755L126.278 180.083C126.667 179.855 126.907 179.435 126.907 178.979L126.907 149.553Z" fill="url(#paint6_linear_3572_15248)"/>
<path fill-rule="evenodd" clip-rule="evenodd" d="M125.649 149.553L107.415 149.553L107.415 189.651L125.649 178.979L125.649 149.553ZM125.649 148.278C126.344 148.278 126.907 148.849 126.907 149.553L126.907 178.979C126.907 179.435 126.667 179.855 126.278 180.083L108.043 190.755C107.205 191.245 106.157 190.632 106.157 189.651L106.157 149.553C106.157 148.849 106.72 148.278 107.415 148.278L125.649 148.278Z" fill="url(#paint7_linear_3572_15248)"/>
<path fill-rule="evenodd" clip-rule="evenodd" d="M153.945 149.553C153.945 148.849 154.508 148.278 155.202 148.278L173.437 148.278C174.132 148.278 174.695 148.849 174.695 149.553L174.695 189.651C174.695 190.632 173.647 191.245 172.808 190.755L154.574 180.083C154.185 179.855 153.945 179.435 153.945 178.979L153.945 149.553Z" fill="url(#paint8_linear_3572_15248)"/>
<path fill-rule="evenodd" clip-rule="evenodd" d="M155.202 149.553L173.437 149.553L173.437 189.651L155.202 178.979L155.202 149.553ZM155.202 148.278C154.508 148.278 153.945 148.849 153.945 149.553L153.945 178.979C153.945 179.435 154.185 179.855 154.574 180.083L172.808 190.755C173.647 191.245 174.695 190.632 174.695 189.651L174.695 149.553C174.695 148.849 174.132 148.278 173.437 148.278L155.202 148.278Z" fill="url(#paint9_linear_3572_15248)"/>
<path fill-rule="evenodd" clip-rule="evenodd" d="M158.91 158.116L169.729 158.116L169.729 182.638L158.91 176.306L158.91 158.116ZM158.91 156.841C158.216 156.841 157.653 157.412 157.653 158.116L157.653 176.306C157.653 176.762 157.893 177.182 158.282 177.41L169.101 183.742C169.939 184.232 170.987 183.619 170.987 182.638L170.987 158.116C170.987 157.412 170.424 156.841 169.729 156.841L158.91 156.841Z" fill="url(#paint10_linear_3572_15248)"/>
<path fill-rule="evenodd" clip-rule="evenodd" d="M121.876 158.115H111.057V182.638L121.876 176.306L121.876 158.115ZM121.876 156.841C122.571 156.841 123.134 157.411 123.134 158.115V176.306C123.134 176.761 122.894 177.182 122.505 177.41L111.686 183.742C110.848 184.232 109.8 183.619 109.8 182.638V158.115C109.8 157.411 110.363 156.841 111.057 156.841H121.876Z" fill="url(#paint11_linear_3572_15248)"/>
<path fill-rule="evenodd" clip-rule="evenodd" d="M117.365 191.938C117.365 192.54 117.645 193.107 118.12 193.468L138.87 209.243C139.54 209.752 140.462 209.752 141.133 209.243L161.883 193.468C162.358 193.107 162.638 192.54 162.638 191.938L162.638 169.312C162.638 168.256 161.793 167.4 160.751 167.4L119.251 167.4C118.21 167.4 117.365 168.256 117.365 169.312L117.365 191.938Z" fill="url(#paint12_linear_3572_15248)"/>
<path fill-rule="evenodd" clip-rule="evenodd" d="M118.874 192.448L139.624 208.223C139.848 208.393 140.155 208.393 140.379 208.223L161.129 192.448C161.287 192.328 161.38 192.139 161.38 191.938L161.38 169.312C161.38 168.96 161.099 168.674 160.751 168.674L119.251 168.674C118.904 168.674 118.623 168.96 118.623 169.312L118.623 191.938C118.623 192.139 118.716 192.328 118.874 192.448ZM118.12 193.468C117.645 193.107 117.365 192.54 117.365 191.938L117.365 169.312C117.365 168.256 118.21 167.4 119.251 167.4L160.751 167.4C161.793 167.4 162.638 168.256 162.638 169.312L162.638 191.938C162.638 192.54 162.358 193.107 161.883 193.468L141.133 209.243C140.462 209.752 139.54 209.752 138.87 209.243L118.12 193.468Z" fill="url(#paint13_linear_3572_15248)"/>
<path fill-rule="evenodd" clip-rule="evenodd" d="M123.904 188.963L139.862 201.095C140.086 201.264 140.393 201.264 140.617 201.095L156.575 188.963C156.733 188.842 156.826 188.654 156.826 188.453L156.826 171.224C156.826 170.872 156.545 170.586 156.197 170.586L124.282 170.586C123.934 170.586 123.653 170.872 123.653 171.224L123.653 188.453C123.653 188.654 123.746 188.842 123.904 188.963ZM123.15 189.983C122.675 189.622 122.395 189.055 122.395 188.453L122.395 171.224C122.395 170.168 123.24 169.312 124.282 169.312L156.197 169.312C157.239 169.312 158.084 170.168 158.084 171.224L158.084 188.453C158.084 189.055 157.804 189.622 157.329 189.983L141.371 202.114C140.701 202.624 139.778 202.624 139.108 202.114L123.15 189.983Z" fill="url(#paint14_linear_3572_15248)"/>
<path fill-rule="evenodd" clip-rule="evenodd" d="M115.846 143.192C115.846 142.488 115.283 141.917 114.588 141.917H95.7798C95.0853 141.917 94.5222 142.488 94.5222 143.192V164.694C94.5222 165.147 94.7595 165.566 95.1454 165.795L113.954 176.932C114.792 177.429 115.846 176.816 115.846 175.832V143.192Z" fill="url(#paint15_linear_3572_15248)"/>
<path fill-rule="evenodd" clip-rule="evenodd" d="M114.588 143.192H95.7798L95.7798 164.694L114.588 175.832L114.588 143.192ZM114.588 141.917C115.283 141.917 115.846 142.488 115.846 143.192V175.832C115.846 176.816 114.792 177.429 113.954 176.932L95.1454 165.795C94.7595 165.566 94.5222 165.147 94.5222 164.694V143.192C94.5222 142.488 95.0853 141.917 95.7798 141.917H114.588Z" fill="url(#paint16_linear_3572_15248)"/>
<path fill-rule="evenodd" clip-rule="evenodd" d="M84.868 120.875C84.0333 120.381 82.9928 120.991 82.9928 121.976L82.9928 139.821C82.9928 140.28 83.2326 140.704 83.6216 140.935L113.274 158.494C113.874 158.849 114.639 158.642 114.983 158.03L122.517 144.646C122.861 144.035 122.654 143.251 122.054 142.896L84.868 120.875Z" fill="url(#paint17_linear_3572_15248)"/>
<path fill-rule="evenodd" clip-rule="evenodd" d="M84.2448 121.982L84.2448 139.827L113.897 157.387L121.431 144.003L84.2448 121.982ZM82.9928 121.976C82.9928 120.991 84.0333 120.381 84.868 120.875L122.054 142.896C122.654 143.251 122.861 144.035 122.517 144.646L114.983 158.03C114.639 158.642 113.874 158.849 113.274 158.494L83.6216 140.935C83.2326 140.704 82.9928 140.28 82.9928 139.821L82.9928 121.976Z" fill="url(#paint18_linear_3572_15248)"/>
<path fill-rule="evenodd" clip-rule="evenodd" d="M88.1402 128.604L88.1402 137.742L104.66 147.525L108.518 140.671L88.1402 128.604ZM86.8882 128.598C86.8882 127.614 87.9287 127.003 88.7634 127.497L109.141 139.564C109.74 139.919 109.948 140.703 109.603 141.314L105.746 148.168C105.401 148.779 104.636 148.987 104.036 148.632L87.5169 138.85C87.128 138.619 86.8882 138.195 86.8882 137.736L86.8882 128.598Z" fill="url(#paint19_linear_3572_15248)"/>
<path fill-rule="evenodd" clip-rule="evenodd" d="M164.155 143.192C164.155 142.488 164.718 141.917 165.412 141.917H184.22C184.915 141.917 185.478 142.488 185.478 143.192V164.694C185.478 165.147 185.241 165.566 184.855 165.795L166.047 176.932C165.208 177.429 164.155 176.816 164.155 175.832V143.192Z" fill="url(#paint20_linear_3572_15248)"/>
<path fill-rule="evenodd" clip-rule="evenodd" d="M165.412 143.192H184.22L184.22 164.694L165.412 175.832L165.412 143.192ZM165.412 141.917C164.718 141.917 164.155 142.488 164.155 143.192V175.832C164.155 176.816 165.208 177.429 166.047 176.932L184.855 165.795C185.241 165.566 185.478 165.147 185.478 164.694V143.192C185.478 142.488 184.915 141.917 184.22 141.917H165.412Z" fill="url(#paint21_linear_3572_15248)"/>
<path fill-rule="evenodd" clip-rule="evenodd" d="M195.132 120.875C195.967 120.381 197.007 120.991 197.007 121.976L197.007 139.821C197.007 140.28 196.768 140.704 196.379 140.935L166.726 158.494C166.127 158.849 165.361 158.642 165.017 158.03L157.483 144.646C157.139 144.035 157.346 143.251 157.946 142.896L195.132 120.875Z" fill="url(#paint22_linear_3572_15248)"/>
<path fill-rule="evenodd" clip-rule="evenodd" d="M195.755 121.982L195.755 139.827L166.103 157.387L158.569 144.003L195.755 121.982ZM197.007 121.976C197.007 120.991 195.967 120.381 195.132 120.875L157.946 142.896C157.346 143.251 157.139 144.035 157.483 144.646L165.017 158.03C165.361 158.642 166.127 158.849 166.726 158.494L196.379 140.935C196.768 140.704 197.007 140.28 197.007 139.821L197.007 121.976Z" fill="url(#paint23_linear_3572_15248)"/>
<path fill-rule="evenodd" clip-rule="evenodd" d="M191.86 128.604L191.86 137.742L175.341 147.525L171.483 140.671L191.86 128.604ZM193.112 128.598C193.112 127.614 192.072 127.003 191.237 127.497L170.86 139.564C170.26 139.919 170.053 140.703 170.397 141.314L174.255 148.168C174.599 148.779 175.364 148.987 175.964 148.632L192.484 138.85C192.872 138.619 193.112 138.195 193.112 137.736L193.112 128.598Z" fill="url(#paint24_linear_3572_15248)"/>
<path d="M136.724 102.952C138.67 101.814 141.067 101.814 143.012 102.952L177.45 123.106C179.396 124.245 180.594 126.349 180.594 128.626V168.934C180.594 171.211 179.396 173.315 177.45 174.454L143.012 194.608C141.067 195.746 138.67 195.746 136.724 194.608L102.286 174.454C100.341 173.315 99.1423 171.211 99.1423 168.934V128.626C99.1423 126.349 100.341 124.245 102.286 123.106L136.724 102.952Z" fill="url(#paint25_linear_3572_15248)"/>
<path d="M136.817 113.124C138.762 111.986 141.159 111.986 143.105 113.124L168.969 128.261C170.914 129.399 172.113 131.503 172.113 133.78V164.053C172.113 166.33 170.914 168.434 168.969 169.573L143.105 184.709C141.159 185.848 138.762 185.848 136.817 184.709L110.953 169.573C109.007 168.434 107.809 166.33 107.809 164.053V133.78C107.809 131.503 109.007 129.399 110.953 128.261L136.817 113.124Z" fill="url(#paint26_linear_3572_15248)"/>
<path d="M146.926 128.378C147.116 129.209 147.31 130.086 147.364 130.964L147.364 130.964C147.497 133.133 147.154 135.25 145.637 137.033C145.402 137.312 145.085 137.599 144.698 137.753C144.285 137.916 143.811 137.918 143.346 137.646L143.345 137.646C143.109 137.507 142.925 137.325 142.808 137.099C142.692 136.874 142.662 136.643 142.671 136.434C142.686 136.078 142.827 135.714 142.924 135.464C142.932 135.443 142.94 135.424 142.947 135.405L143.442 135.596M146.926 128.378L146.828 127.625C150.78 130.645 153.027 134.727 154.06 139.561C154.584 142.015 154.757 144.496 154.69 147.002C154.662 147.054 154.633 147.106 154.603 147.158L154.155 147.143C154.155 147.143 154.155 147.144 154.155 147.144M146.926 128.378C150.501 131.272 152.567 135.114 153.541 139.672M146.926 128.378L154.726 147.922M143.442 135.596L142.947 135.406C143.558 133.81 144.042 132.207 144.232 130.534C144.603 127.24 143.765 124.436 141.436 122.168C141.449 122.844 141.439 123.568 141.263 124.27C140.737 126.391 139.469 127.987 137.974 129.355C136.829 130.406 135.597 131.338 134.385 132.252L134.346 132.282C133.142 133.19 131.96 134.082 130.863 135.079C127.382 138.244 125.718 142.047 126.305 146.785L126.305 146.786C126.314 146.861 126.332 146.952 126.352 147.056C126.426 147.438 126.534 147.998 126.388 148.615L126.139 149.672L125.458 148.826C124.722 147.91 124.357 146.92 124.122 145.936C124.013 145.478 123.93 145.015 123.852 144.563C123.524 145.267 123.248 145.962 122.999 146.67L122.999 146.67C121.917 149.752 121.622 152.613 122.179 155.255C122.736 157.893 124.151 160.356 126.564 162.631C130.683 166.512 135.18 169.899 139.832 173.117C140.033 173.255 140.111 173.261 140.133 173.26C140.153 173.26 140.227 173.253 140.415 173.108L140.415 173.108C141.527 172.253 142.637 171.418 143.745 170.584C145.159 169.52 146.569 168.459 147.973 167.366L147.973 167.365C148.493 166.961 149.014 166.57 149.531 166.182C151.387 164.79 153.185 163.442 154.652 161.67L154.652 161.67C156.695 159.203 158.042 156.499 158.252 153.283C158.45 150.221 157.685 147.4 156.388 144.677M143.442 135.596C144.062 133.978 144.563 132.329 144.76 130.594L146.834 130.997C146.963 133.09 146.628 135.05 145.232 136.69C144.819 137.179 144.237 137.553 143.614 137.188C142.974 136.811 143.213 136.19 143.426 135.639C143.431 135.624 143.437 135.61 143.442 135.596ZM156.388 144.677C156.349 144.995 156.305 145.322 156.244 145.65C156.084 146.508 155.801 147.397 155.147 148.246L154.277 149.375L154.196 147.952C154.19 147.843 154.183 147.743 154.176 147.649C154.162 147.455 154.15 147.291 154.155 147.144M156.388 144.677C156.25 144.389 156.107 144.102 155.958 143.816C155.935 143.989 155.914 144.164 155.894 144.338C155.782 145.279 155.669 146.228 155.217 147.137M156.388 144.677L155.217 147.137M154.155 147.144C154.155 147.144 154.155 147.144 154.155 147.144L154.603 147.158C154.516 147.307 154.417 147.453 154.306 147.598L154.726 147.922M154.155 147.144C154.232 144.618 154.065 142.128 153.541 139.672M154.726 147.922L155.256 147.892C155.246 147.714 155.237 147.588 155.229 147.491C155.219 147.351 155.213 147.271 155.216 147.178L155.216 147.177C155.217 147.164 155.217 147.15 155.217 147.137M154.726 147.922L155.217 147.137M153.541 139.672L154.043 139.564L153.541 139.672C153.541 139.672 153.541 139.672 153.541 139.672ZM146.724 149.69C146.878 149.641 147.025 149.585 147.165 149.522C146.877 149.926 146.542 150.2 146.17 150.38C145.661 150.626 145.04 150.717 144.297 150.669L144.296 150.669C143.998 150.65 143.705 150.685 143.45 150.812C143.509 150.591 143.593 150.441 143.694 150.334C143.903 150.111 144.301 149.946 145.145 149.895L145.113 149.365M146.724 149.69C146.253 149.842 145.763 149.865 145.354 149.884C145.281 149.888 145.211 149.891 145.144 149.895L145.113 149.365M146.724 149.69C146.724 149.69 146.724 149.69 146.723 149.69L146.562 149.184M146.724 149.69C146.724 149.69 146.725 149.69 146.725 149.69L146.562 149.184M145.113 149.365C143.465 149.464 142.871 149.998 142.83 151.519L146.562 149.184M145.113 149.365C145.19 149.361 145.267 149.357 145.344 149.353C145.755 149.333 146.164 149.313 146.562 149.184M140.31 146.253C140.311 146.254 140.311 146.254 140.311 146.254C140.311 146.254 140.31 146.253 140.308 146.251L140.308 146.251M140.31 146.253L140.308 146.251M140.31 146.253L140.268 146.296L140.268 146.297L139.944 146.637L140.266 146.295L140.267 146.295L140.308 146.251M140.31 146.253L140.308 146.251M140.166 159.102C140.204 158.937 140.267 158.77 140.369 158.608C140.524 158.362 140.749 158.16 141.043 158.001C141.232 157.9 141.417 157.778 141.617 157.641C141.66 157.612 141.704 157.581 141.75 157.55C141.906 157.442 142.074 157.326 142.243 157.22M140.166 159.102L142.079 156.516C142.079 156.516 142.079 156.516 142.079 156.516M140.166 159.102C140.145 159.022 140.12 158.942 140.088 158.864C139.907 158.414 139.565 158.064 139.055 157.826L140.166 159.102ZM142.243 157.22L142.525 157.669L142.242 157.221C142.242 157.22 142.242 157.22 142.243 157.22ZM142.243 157.22C142.393 157.125 142.445 157.06 142.464 157.024L142.464 157.024C142.472 157.009 142.495 156.965 142.457 156.833L142.456 156.832C142.406 156.658 142.352 156.595 142.321 156.571C142.298 156.551 142.239 156.515 142.079 156.516M142.079 156.516C140.807 156.525 139.533 156.528 138.259 156.516M142.079 156.516L138.259 156.516M138.259 156.516C138.105 156.515 138.046 156.553 138.019 156.575C137.985 156.604 137.932 156.673 137.887 156.837C137.856 156.954 137.876 157.001 137.888 157.025C137.909 157.065 137.965 157.132 138.11 157.218C138.11 157.218 138.11 157.218 138.111 157.218L137.841 157.676C137.981 157.757 138.115 157.851 138.249 157.946C138.437 158.078 138.625 158.21 138.83 158.307L138.259 156.516ZM147.255 160.977C148.12 159.636 148.489 158.144 147.805 156.551L147.811 155.779L148.303 155.977C148.303 155.976 148.303 155.976 148.303 155.976C148.492 155.506 148.675 155.041 148.856 154.579C149.096 153.968 149.335 153.36 149.585 152.747L149.585 152.747C149.851 152.094 149.969 151.439 149.893 150.788C149.817 150.134 149.55 149.52 149.098 148.946C149.007 148.829 148.9 148.714 148.776 148.624C148.684 148.558 148.565 148.493 148.424 148.465C148.494 148.345 148.552 148.217 148.597 148.082C148.856 147.306 148.621 146.463 148.051 145.686L148.05 145.685C147.744 145.27 147.424 144.84 147.076 144.431L147.076 144.431C146.835 144.149 146.533 143.904 146.169 143.774C145.793 143.641 145.383 143.642 144.97 143.807L144.969 143.807C144.605 143.952 144.233 144.085 143.849 144.221L143.771 144.249C143.364 144.394 142.944 144.544 142.532 144.715C141.717 145.051 140.903 145.477 140.186 146.138C139.517 145.536 138.766 145.132 138.014 144.805C137.616 144.633 137.211 144.479 136.817 144.332C136.775 144.316 136.734 144.301 136.693 144.286C136.339 144.153 135.995 144.025 135.657 143.885C135.299 143.736 134.908 143.652 134.514 143.701C134.109 143.752 133.738 143.939 133.435 144.271L133.434 144.272C132.812 144.954 132.199 145.705 131.748 146.589L131.747 146.591C131.585 146.912 131.519 147.242 131.571 147.58C131.621 147.909 131.775 148.195 131.967 148.448L131.967 148.449C131.971 148.454 131.974 148.459 131.978 148.464C131.8 148.486 131.657 148.566 131.554 148.645C131.442 148.731 131.347 148.837 131.268 148.94L131.267 148.942C130.579 149.843 130.126 150.936 130.596 152.213L130.597 152.214C130.813 152.8 131.043 153.382 131.271 153.957L131.295 154.019C131.531 154.616 131.764 155.207 131.982 155.803C132.02 155.905 132.066 156.023 132.125 156.129C132.18 156.227 132.282 156.381 132.463 156.477C132.495 156.494 132.527 156.508 132.558 156.519C131.833 158.154 132.227 159.679 133.144 161.047C133.528 161.623 134.135 162.126 134.957 162.152C135.484 162.169 136.02 162.182 136.561 162.175C136.459 162.226 136.358 162.281 136.257 162.339L136.256 162.34C135.855 162.574 135.522 162.878 135.305 163.274C135.087 163.674 135.009 164.126 135.053 164.618L135.053 164.619C135.159 165.801 135.743 166.721 136.7 167.334C138.609 168.557 140.652 168.532 142.645 167.863C143.596 167.543 144.378 166.926 144.881 166.006C145.318 165.209 145.461 164.393 145.205 163.655C144.975 162.989 144.455 162.481 143.744 162.138C144.239 162.154 144.735 162.163 145.231 162.165H145.232C146.147 162.165 146.828 161.64 147.255 160.977ZM136.854 150.611C136.895 150.695 136.928 150.791 136.953 150.898C136.759 150.768 136.542 150.716 136.336 150.69C136.098 150.66 135.803 150.658 135.466 150.658C134.915 150.658 134.464 150.554 134.091 150.352C133.744 150.165 133.436 149.878 133.173 149.459C133.859 149.8 134.617 149.89 135.359 149.912L135.36 149.912C136.268 149.937 136.674 150.236 136.854 150.611ZM140.167 161.523C139.999 161.517 139.831 161.514 139.662 161.515C139.694 161.483 139.725 161.45 139.754 161.415C140.006 161.118 140.135 160.753 140.196 160.364C140.205 160.428 140.213 160.49 140.22 160.561C140.258 160.95 140.411 161.269 140.644 161.51C140.489 161.51 140.335 161.515 140.18 161.523L140.167 161.523Z" fill="url(#paint27_linear_3572_15248)" stroke="url(#paint28_linear_3572_15248)" stroke-width="1.06169"/>
<path d="M145.677 126.333L145.658 126.295L145.668 126.342L145.677 126.333Z" fill="#E5A70D"/>
<path fill-rule="evenodd" clip-rule="evenodd" d="M144.048 111.468L169.912 126.605C172.441 128.085 173.999 130.82 173.999 133.78V164.053C173.999 167.013 172.441 169.749 169.912 171.229L144.048 186.365C141.519 187.845 138.403 187.845 135.874 186.365L110.01 171.229C107.481 169.749 105.923 167.013 105.923 164.053V133.78C105.923 130.82 107.481 128.085 110.01 126.605L135.874 111.468C138.403 109.988 141.519 109.988 144.048 111.468ZM143.105 113.124C141.159 111.986 138.763 111.986 136.817 113.124L110.953 128.261C109.007 129.399 107.809 131.503 107.809 133.78V164.053C107.809 166.33 109.007 168.434 110.953 169.573L136.817 184.709C138.763 185.848 141.159 185.848 143.105 184.709L168.969 169.573C170.915 168.434 172.113 166.33 172.113 164.053V133.78C172.113 131.503 170.915 129.399 168.969 128.261L143.105 113.124Z" fill="url(#paint29_linear_3572_15248)"/>
</g>
<defs>
<linearGradient id="paint0_linear_3572_15248" x1="163.581" y1="125.968" x2="163.581" y2="95.375" gradientUnits="userSpaceOnUse">
<stop stop-color="#8C4500"/>
<stop offset="1" stop-color="#FFE2B8"/>
</linearGradient>
<linearGradient id="paint1_linear_3572_15248" x1="163.581" y1="138.024" x2="163.581" y2="95.375" gradientUnits="userSpaceOnUse">
<stop stop-color="#8C4500"/>
<stop offset="1" stop-color="#FFE2B8"/>
</linearGradient>
<linearGradient id="paint2_linear_3572_15248" x1="115.793" y1="125.968" x2="115.793" y2="95.375" gradientUnits="userSpaceOnUse">
<stop stop-color="#8C4500"/>
<stop offset="1" stop-color="#FFE2B8"/>
</linearGradient>
<linearGradient id="paint3_linear_3572_15248" x1="115.793" y1="138.024" x2="115.793" y2="95.375" gradientUnits="userSpaceOnUse">
<stop stop-color="#8C4500"/>
<stop offset="1" stop-color="#FFE2B8"/>
</linearGradient>
<linearGradient id="paint4_linear_3572_15248" x1="115.793" y1="129.461" x2="115.793" y2="102.388" gradientUnits="userSpaceOnUse">
<stop stop-color="#E8E6FF" stop-opacity="0"/>
<stop offset="1" stop-color="#E8E6FF"/>
</linearGradient>
<linearGradient id="paint5_linear_3572_15248" x1="163.647" y1="129.461" x2="163.647" y2="102.388" gradientUnits="userSpaceOnUse">
<stop stop-color="#E8E6FF" stop-opacity="0"/>
<stop offset="1" stop-color="#E8E6FF"/>
</linearGradient>
<linearGradient id="paint6_linear_3572_15248" x1="116.532" y1="160.334" x2="116.532" y2="190.927" gradientUnits="userSpaceOnUse">
<stop stop-color="#8C4500"/>
<stop offset="1" stop-color="#FFE2B8"/>
</linearGradient>
<linearGradient id="paint7_linear_3572_15248" x1="116.532" y1="148.278" x2="116.532" y2="190.927" gradientUnits="userSpaceOnUse">
<stop offset="0.583333" stop-color="#8C4500"/>
<stop offset="1" stop-color="#FFE2B8"/>
</linearGradient>
<linearGradient id="paint8_linear_3572_15248" x1="164.32" y1="160.334" x2="164.32" y2="190.927" gradientUnits="userSpaceOnUse">
<stop stop-color="#8C4500"/>
<stop offset="1" stop-color="#FFE2B8"/>
</linearGradient>
<linearGradient id="paint9_linear_3572_15248" x1="164.32" y1="148.278" x2="164.32" y2="190.927" gradientUnits="userSpaceOnUse">
<stop offset="0.583333" stop-color="#8C4500"/>
<stop offset="1" stop-color="#FFE2B8"/>
</linearGradient>
<linearGradient id="paint10_linear_3572_15248" x1="164.32" y1="156.841" x2="164.32" y2="183.914" gradientUnits="userSpaceOnUse">
<stop stop-color="#E8E6FF" stop-opacity="0"/>
<stop offset="1" stop-color="#E8E6FF"/>
</linearGradient>
<linearGradient id="paint11_linear_3572_15248" x1="116.467" y1="156.841" x2="116.467" y2="183.914" gradientUnits="userSpaceOnUse">
<stop stop-color="#E8E6FF" stop-opacity="0"/>
<stop offset="1" stop-color="#E8E6FF"/>
</linearGradient>
<linearGradient id="paint12_linear_3572_15248" x1="140.001" y1="209.625" x2="140.001" y2="167.4" gradientUnits="userSpaceOnUse">
<stop stop-color="#FFE2B8"/>
<stop offset="1" stop-color="#8C4500"/>
</linearGradient>
<linearGradient id="paint13_linear_3572_15248" x1="140.001" y1="209.625" x2="140.001" y2="167.4" gradientUnits="userSpaceOnUse">
<stop stop-color="#8C4500"/>
<stop offset="1" stop-color="#FFE2B8"/>
</linearGradient>
<linearGradient id="paint14_linear_3572_15248" x1="140.24" y1="202.497" x2="140.24" y2="169.312" gradientUnits="userSpaceOnUse">
<stop stop-color="#FFE2B8"/>
<stop offset="1" stop-color="#8C4500"/>
</linearGradient>
<linearGradient id="paint15_linear_3572_15248" x1="104.943" y1="156.604" x2="92.1165" y2="165.626" gradientUnits="userSpaceOnUse">
<stop stop-color="#8C4500"/>
<stop offset="0.771271" stop-color="#FFCF8A"/>
</linearGradient>
<linearGradient id="paint16_linear_3572_15248" x1="103.584" y1="149.866" x2="105.543" y2="174.069" gradientUnits="userSpaceOnUse">
<stop stop-color="#8C4500"/>
<stop offset="1" stop-color="#FFE2B8"/>
</linearGradient>
<linearGradient id="paint17_linear_3572_15248" x1="80.1182" y1="124.236" x2="103.621" y2="141.621" gradientUnits="userSpaceOnUse">
<stop stop-color="#FFE2B8"/>
<stop offset="1" stop-color="#8C4500"/>
</linearGradient>
<linearGradient id="paint18_linear_3572_15248" x1="106.692" y1="137.758" x2="84.3277" y2="120.767" gradientUnits="userSpaceOnUse">
<stop stop-color="#8C4500"/>
<stop offset="1" stop-color="#FFE2B8"/>
</linearGradient>
<linearGradient id="paint19_linear_3572_15248" x1="95.2773" y1="144.297" x2="87.8211" y2="127.024" gradientUnits="userSpaceOnUse">
<stop stop-color="#E6F4FF" stop-opacity="0"/>
<stop offset="1" stop-color="white"/>
</linearGradient>
<linearGradient id="paint20_linear_3572_15248" x1="175.058" y1="156.604" x2="187.884" y2="165.626" gradientUnits="userSpaceOnUse">
<stop stop-color="#8C4500"/>
<stop offset="0.771271" stop-color="#FFCF8A"/>
</linearGradient>
<linearGradient id="paint21_linear_3572_15248" x1="176.417" y1="149.866" x2="174.458" y2="174.069" gradientUnits="userSpaceOnUse">
<stop stop-color="#8C4500"/>
<stop offset="1" stop-color="#FFE2B8"/>
</linearGradient>
<linearGradient id="paint22_linear_3572_15248" x1="199.882" y1="124.236" x2="176.38" y2="141.621" gradientUnits="userSpaceOnUse">
<stop stop-color="#FFE2B8"/>
<stop offset="1" stop-color="#8C4500"/>
</linearGradient>
<linearGradient id="paint23_linear_3572_15248" x1="173.309" y1="137.758" x2="195.673" y2="120.767" gradientUnits="userSpaceOnUse">
<stop stop-color="#8C4500"/>
<stop offset="1" stop-color="#FFE2B8"/>
</linearGradient>
<linearGradient id="paint24_linear_3572_15248" x1="184.723" y1="144.297" x2="192.179" y2="127.024" gradientUnits="userSpaceOnUse">
<stop stop-color="#E6F4FF" stop-opacity="0"/>
<stop offset="1" stop-color="white"/>
</linearGradient>
<linearGradient id="paint25_linear_3572_15248" x1="162.794" y1="187.51" x2="115.705" y2="107.027" gradientUnits="userSpaceOnUse">
<stop stop-color="#8C4500"/>
<stop offset="1" stop-color="#FFE2B8"/>
</linearGradient>
<linearGradient id="paint26_linear_3572_15248" x1="109.687" y1="122.104" x2="174.177" y2="197.212" gradientUnits="userSpaceOnUse">
<stop stop-color="#FFE2B8"/>
<stop offset="1" stop-color="#8C4500"/>
</linearGradient>
<linearGradient id="paint27_linear_3572_15248" x1="135.992" y1="133.834" x2="156.485" y2="177.361" gradientUnits="userSpaceOnUse">
<stop stop-color="#FFF5E6"/>
<stop offset="1" stop-color="white" stop-opacity="0.2"/>
</linearGradient>
<linearGradient id="paint28_linear_3572_15248" x1="137.407" y1="147.457" x2="127.092" y2="133.968" gradientUnits="userSpaceOnUse">
<stop stop-color="white"/>
<stop offset="1" stop-color="#8C4500"/>
</linearGradient>
<linearGradient id="paint29_linear_3572_15248" x1="118.211" y1="114.656" x2="161.962" y2="183.538" gradientUnits="userSpaceOnUse">
<stop stop-color="#8C4500"/>
<stop offset="1" stop-color="#FFE2B8"/>
</linearGradient>
<clipPath id="clip0_3572_15248">
<rect width="280" height="234" fill="white"/>
</clipPath>
</defs>
</svg>
