<svg width="130" height="115" viewBox="0 0 130 115" fill="none" xmlns="http://www.w3.org/2000/svg">
<g id="Group 1000003357">
<g id="Group 1000003356">
<g id="Group 1000003352">
<path id="Subtract" fill-rule="evenodd" clip-rule="evenodd" d="M78.2063 41.7492C78.2063 42.4532 78.7693 43.0239 79.4639 43.0239L97.6987 43.0239C98.3933 43.0239 98.9563 42.4532 98.9563 41.7492L98.9563 1.6516C98.9563 0.670319 97.9083 0.0570107 97.0699 0.547653L78.8351 11.2192C78.446 11.4469 78.2063 11.8677 78.2063 12.3231L78.2063 41.7492Z" fill="url(#paint0_linear_3312_1497)"/>
<path id="Subtract (Stroke)" fill-rule="evenodd" clip-rule="evenodd" d="M79.4639 41.7492L97.6987 41.7492L97.6987 1.6516L79.4639 12.3231L79.4639 41.7492ZM79.4639 43.0239C78.7693 43.0239 78.2063 42.4532 78.2063 41.7492L78.2063 12.3231C78.2063 11.8677 78.446 11.4469 78.8351 11.2192L97.0699 0.547653C97.9083 0.0570107 98.9563 0.670315 98.9563 1.6516L98.9563 41.7492C98.9563 42.4532 98.3933 43.0239 97.6987 43.0239L79.4639 43.0239Z" fill="url(#paint1_linear_3312_1497)"/>
<path id="Subtract_2" fill-rule="evenodd" clip-rule="evenodd" d="M51.1682 41.7492C51.1682 42.4532 50.6052 43.0239 49.9106 43.0239L31.6758 43.0239C30.9812 43.0239 30.4182 42.4532 30.4182 41.7492L30.4182 1.6516C30.4182 0.670319 31.4662 0.0570106 32.3046 0.547653L50.5394 11.2192C50.9285 11.4469 51.1682 11.8677 51.1682 12.3231L51.1682 41.7492Z" fill="url(#paint2_linear_3312_1497)"/>
<path id="Subtract (Stroke)_2" fill-rule="evenodd" clip-rule="evenodd" d="M49.9106 41.7492L31.6758 41.7492L31.6758 1.6516L49.9106 12.3231L49.9106 41.7492ZM49.9106 43.0239C50.6052 43.0239 51.1682 42.4532 51.1682 41.7492L51.1682 12.3231C51.1682 11.8677 50.9285 11.4469 50.5394 11.2192L32.3046 0.547653C31.4662 0.0570106 30.4182 0.670315 30.4182 1.6516L30.4182 41.7492C30.4182 42.4532 30.9812 43.0239 31.6758 43.0239L49.9106 43.0239Z" fill="url(#paint3_linear_3312_1497)"/>
<path id="Subtract (Stroke)_3" fill-rule="evenodd" clip-rule="evenodd" d="M46.2028 33.1867L35.3838 33.1867L35.3838 8.66452L46.2028 14.9961L46.2028 33.1867ZM46.2028 34.4614C46.8974 34.4614 47.4604 33.8907 47.4604 33.1867L47.4604 14.9961C47.4604 14.5407 47.2207 14.1198 46.8316 13.8921L36.0126 7.56058C35.1742 7.06993 34.1262 7.68324 34.1262 8.66452L34.1262 33.1867C34.1262 33.8907 34.6893 34.4614 35.3838 34.4614L46.2028 34.4614Z" fill="url(#paint4_linear_3312_1497)"/>
<path id="Subtract (Stroke)_4" fill-rule="evenodd" clip-rule="evenodd" d="M83.2376 33.1867L94.0566 33.1867L94.0566 8.66452L83.2376 14.9961L83.2376 33.1867ZM83.2376 34.4614C82.5431 34.4614 81.98 33.8907 81.98 33.1867L81.98 14.9961C81.98 14.5407 82.2197 14.1198 82.6088 13.8921L93.4278 7.56058C94.2662 7.06993 95.3142 7.68324 95.3142 8.66452L95.3142 33.1867C95.3142 33.8907 94.7512 34.4614 94.0566 34.4614L83.2376 34.4614Z" fill="url(#paint5_linear_3312_1497)"/>
</g>
<g id="Group 1000003354">
<path id="Subtract_3" fill-rule="evenodd" clip-rule="evenodd" d="M51.907 54.553C51.907 53.849 51.3439 53.2783 50.6494 53.2783L32.4146 53.2783C31.72 53.2783 31.157 53.849 31.157 54.553L31.157 94.6506C31.157 95.6319 32.205 96.2452 33.0434 95.7546L51.2782 85.0831C51.6673 84.8554 51.907 84.4346 51.907 83.9791L51.907 54.553Z" fill="url(#paint6_linear_3312_1497)"/>
<path id="Subtract (Stroke)_5" fill-rule="evenodd" clip-rule="evenodd" d="M50.6494 54.553L32.4146 54.553L32.4146 94.6506L50.6494 83.9791L50.6494 54.553ZM50.6494 53.2783C51.3439 53.2783 51.907 53.849 51.907 54.553L51.907 83.9791C51.907 84.4346 51.6673 84.8554 51.2782 85.0831L33.0434 95.7546C32.205 96.2452 31.157 95.6319 31.157 94.6506L31.157 54.553C31.157 53.849 31.72 53.2783 32.4146 53.2783L50.6494 53.2783Z" fill="url(#paint7_linear_3312_1497)"/>
<path id="Subtract_4" fill-rule="evenodd" clip-rule="evenodd" d="M78.9448 54.5533C78.9448 53.8493 79.5079 53.2786 80.2024 53.2786L98.4372 53.2786C99.1318 53.2786 99.6948 53.8493 99.6948 54.5533L99.6948 94.6509C99.6948 95.6322 98.6469 96.2455 97.8085 95.7548L79.5736 85.0833C79.1845 84.8556 78.9448 84.4348 78.9448 83.9794L78.9448 54.5533Z" fill="url(#paint8_linear_3312_1497)"/>
<path id="Subtract (Stroke)_6" fill-rule="evenodd" clip-rule="evenodd" d="M80.2024 54.5533L98.4372 54.5533L98.4373 94.6509L80.2024 83.9794L80.2024 54.5533ZM80.2024 53.2786C79.5079 53.2786 78.9448 53.8493 78.9448 54.5533L78.9448 83.9794C78.9448 84.4348 79.1845 84.8556 79.5736 85.0833L97.8085 95.7548C98.6469 96.2455 99.6948 95.6322 99.6948 94.6509L99.6948 54.5533C99.6948 53.8493 99.1318 53.2786 98.4372 53.2786L80.2024 53.2786Z" fill="url(#paint9_linear_3312_1497)"/>
<path id="Subtract (Stroke)_7" fill-rule="evenodd" clip-rule="evenodd" d="M83.9105 63.1156L94.7295 63.1155L94.7295 87.6377L83.9105 81.3062L83.9105 63.1156ZM83.9105 61.8408C83.2159 61.8408 82.6529 62.4115 82.6529 63.1156L82.6529 81.3062C82.6529 81.7616 82.8926 82.1824 83.2817 82.4101L94.1007 88.7417C94.9391 89.2323 95.9871 88.619 95.9871 87.6377L95.9871 63.1155C95.9871 62.4115 95.424 61.8408 94.7295 61.8408L83.9105 61.8408Z" fill="url(#paint10_linear_3312_1497)"/>
<path id="Subtract (Stroke)_8" fill-rule="evenodd" clip-rule="evenodd" d="M46.8762 63.1155H36.0571V87.6377L46.8761 81.3062L46.8762 63.1155ZM46.8762 61.8408C47.5707 61.8408 48.1337 62.4115 48.1337 63.1155V81.3062C48.1337 81.7616 47.894 82.1824 47.5049 82.4101L36.6859 88.7417C35.8475 89.2323 34.7996 88.619 34.7996 87.6377V63.1155C34.7996 62.4115 35.3626 61.8408 36.0571 61.8408H46.8762Z" fill="url(#paint11_linear_3312_1497)"/>
</g>
<g id="Group 1000003343">
<path id="Union" fill-rule="evenodd" clip-rule="evenodd" d="M42.365 96.9381C42.365 97.54 42.6445 98.1067 43.1195 98.4678L63.8695 114.243C64.5402 114.752 65.4625 114.752 66.1332 114.243L86.8831 98.4678C87.3581 98.1067 87.6377 97.54 87.6377 96.9381L87.6377 74.3117C87.6377 73.2557 86.7931 72.3996 85.7513 72.3996L44.2513 72.3996C43.2095 72.3996 42.365 73.2557 42.365 74.3117L42.365 96.9381Z" fill="url(#paint12_linear_3312_1497)"/>
<path id="Union (Stroke)" fill-rule="evenodd" clip-rule="evenodd" d="M43.8741 97.448L64.6241 113.223C64.8476 113.393 65.155 113.393 65.3786 113.223L86.1286 97.448C86.2869 97.3277 86.3801 97.1387 86.3801 96.9381L86.3801 74.3117C86.3801 73.9597 86.0986 73.6743 85.7513 73.6743L44.2513 73.6743C43.9041 73.6743 43.6226 73.9597 43.6226 74.3117L43.6226 96.9381C43.6226 97.1388 43.7157 97.3277 43.8741 97.448ZM43.1195 98.4678C42.6445 98.1067 42.365 97.54 42.365 96.9381L42.365 74.3117C42.365 73.2557 43.2095 72.3996 44.2513 72.3996L85.7513 72.3996C86.7931 72.3996 87.6377 73.2557 87.6377 74.3117L87.6377 96.9381C87.6377 97.54 87.3581 98.1067 86.8831 98.4678L66.1332 114.243C65.4625 114.752 64.5402 114.752 63.8695 114.243L43.1195 98.4678Z" fill="url(#paint13_linear_3312_1497)"/>
<path id="Union (Stroke)_2" fill-rule="evenodd" clip-rule="evenodd" d="M48.9044 93.9627L64.8622 106.094C65.0858 106.264 65.3932 106.264 65.6168 106.094L81.5746 93.9627C81.733 93.8424 81.8262 93.6534 81.8262 93.4528L81.8262 76.2236C81.8262 75.8716 81.5446 75.5862 81.1974 75.5862L49.2816 75.5862C48.9344 75.5862 48.6529 75.8716 48.6529 76.2236L48.6529 93.4528C48.6529 93.6535 48.746 93.8424 48.9044 93.9627ZM48.1498 94.9825C47.6748 94.6214 47.3953 94.0547 47.3953 93.4528L47.3953 76.2236C47.3953 75.1676 48.2398 74.3115 49.2816 74.3115L81.1974 74.3115C82.2392 74.3115 83.0837 75.1676 83.0837 76.2236L83.0837 93.4528C83.0837 94.0547 82.8042 94.6214 82.3292 94.9825L66.3713 107.114C65.7006 107.624 64.7784 107.624 64.1077 107.114L48.1498 94.9825Z" fill="url(#paint14_linear_3312_1497)"/>
</g>
<g id="Group 1000003349">
<g id="Group 1000003346">
<g id="Group 1000003344">
<g id="Group 1000003339">
<path id="Subtract_5" fill-rule="evenodd" clip-rule="evenodd" d="M40.8456 48.1917C40.8456 47.4877 40.2826 46.917 39.588 46.917H20.7798C20.0853 46.917 19.5222 47.4877 19.5222 48.1917V69.6939C19.5222 70.147 19.7595 70.566 20.1454 70.7946L38.9537 81.9324C39.792 82.4289 40.8456 81.8159 40.8456 80.8317V48.1917Z" fill="url(#paint15_linear_3312_1497)"/>
<path id="Subtract (Stroke)_9" fill-rule="evenodd" clip-rule="evenodd" d="M39.588 48.1917H20.7798L20.7798 69.6939L39.588 80.8317V48.1917ZM39.588 46.917C40.2826 46.917 40.8456 47.4877 40.8456 48.1917V80.8317C40.8456 81.8159 39.792 82.4289 38.9537 81.9324L20.1454 70.7946C19.7595 70.566 19.5222 70.147 19.5222 69.6939V48.1917C19.5222 47.4877 20.0853 46.917 20.7798 46.917H39.588Z" fill="url(#paint16_linear_3312_1497)"/>
<path id="Subtract_6" fill-rule="evenodd" clip-rule="evenodd" d="M9.86801 25.875C9.03335 25.3807 7.99279 25.9915 7.99279 26.9756L7.99278 44.8209C7.99279 45.2795 8.23262 45.7044 8.62155 45.9347L38.274 63.4942C38.8737 63.8493 39.6389 63.6415 39.9831 63.03L47.5169 49.646C47.8611 49.0346 47.6539 48.251 47.0542 47.8958L9.86801 25.875Z" fill="url(#paint17_linear_3312_1497)"/>
<path id="Subtract (Stroke)_10" fill-rule="evenodd" clip-rule="evenodd" d="M9.24478 26.9822L9.24478 44.8275L38.8972 62.387L46.431 49.003L9.24478 26.9822ZM7.99279 26.9756C7.99279 25.9915 9.03335 25.3807 9.86801 25.875L47.0542 47.8958C47.6539 48.251 47.8611 49.0346 47.5169 49.646L39.9831 63.03C39.6389 63.6415 38.8737 63.8493 38.274 63.4942L8.62155 45.9347C8.23262 45.7044 7.99279 45.2795 7.99278 44.8209L7.99279 26.9756Z" fill="url(#paint18_linear_3312_1497)"/>
<path id="Subtract (Stroke)_11" fill-rule="evenodd" clip-rule="evenodd" d="M13.1402 33.6043L13.1402 42.7425L29.6597 52.5249L33.5176 45.6713L13.1402 33.6043ZM11.8882 33.5977C11.8882 32.6136 12.9287 32.0028 13.7634 32.4971L34.1408 44.5641C34.7405 44.9193 34.9476 45.7028 34.6034 46.3143L30.7455 53.168C30.4013 53.7794 29.6362 53.9873 29.0365 53.6321L12.5169 43.8496C12.128 43.6193 11.8882 43.1945 11.8882 42.7359L11.8882 33.5977Z" fill="url(#paint19_linear_3312_1497)"/>
</g>
</g>
<g id="Group 1000003345">
<g id="Group 1000003339_2">
<path id="Subtract_7" fill-rule="evenodd" clip-rule="evenodd" d="M89.1546 48.1917C89.1546 47.4877 89.7177 46.917 90.4122 46.917H109.22C109.915 46.917 110.478 47.4877 110.478 48.1917V69.6939C110.478 70.147 110.241 70.566 109.855 70.7946L91.0466 81.9324C90.2082 82.4289 89.1546 81.8159 89.1546 80.8317V48.1917Z" fill="url(#paint20_linear_3312_1497)"/>
<path id="Subtract (Stroke)_12" fill-rule="evenodd" clip-rule="evenodd" d="M90.4122 48.1917H109.22L109.22 69.6939L90.4122 80.8317V48.1917ZM90.4122 46.917C89.7177 46.917 89.1546 47.4877 89.1546 48.1917V80.8317C89.1546 81.8159 90.2082 82.4289 91.0466 81.9324L109.855 70.7946C110.241 70.566 110.478 70.147 110.478 69.6939V48.1917C110.478 47.4877 109.915 46.917 109.22 46.917H90.4122Z" fill="url(#paint21_linear_3312_1497)"/>
<path id="Subtract_8" fill-rule="evenodd" clip-rule="evenodd" d="M120.132 25.875C120.967 25.3807 122.007 25.9915 122.007 26.9756L122.007 44.8209C122.007 45.2795 121.768 45.7044 121.379 45.9347L91.7262 63.4942C91.1265 63.8493 90.3614 63.6415 90.0172 63.03L82.4834 49.646C82.1392 49.0346 82.3463 48.251 82.946 47.8958L120.132 25.875Z" fill="url(#paint22_linear_3312_1497)"/>
<path id="Subtract (Stroke)_13" fill-rule="evenodd" clip-rule="evenodd" d="M120.755 26.9822L120.755 44.8275L91.103 62.387L83.5692 49.003L120.755 26.9822ZM122.007 26.9756C122.007 25.9915 120.967 25.3807 120.132 25.875L82.946 47.8958C82.3463 48.251 82.1392 49.0346 82.4834 49.646L90.0172 63.03C90.3614 63.6415 91.1265 63.8493 91.7262 63.4942L121.379 45.9347C121.768 45.7044 122.007 45.2795 122.007 44.8209L122.007 26.9756Z" fill="url(#paint23_linear_3312_1497)"/>
<path id="Subtract (Stroke)_14" fill-rule="evenodd" clip-rule="evenodd" d="M116.86 33.6043L116.86 42.7425L100.341 52.5249L96.4829 45.6713L116.86 33.6043ZM118.112 33.5977C118.112 32.6136 117.072 32.0028 116.237 32.4971L95.8597 44.5641C95.26 44.9193 95.0529 45.7028 95.3971 46.3143L99.2549 53.168C99.5991 53.7794 100.364 53.9873 100.964 53.6321L117.484 43.8496C117.872 43.6193 118.112 43.1945 118.112 42.7359L118.112 33.5977Z" fill="url(#paint24_linear_3312_1497)"/>
</g>
</g>
</g>
<path id="Polygon 20" d="M61.7243 7.95205C63.6698 6.81351 66.0667 6.81351 68.0122 7.95205L102.45 28.1061C104.396 29.2446 105.594 31.3487 105.594 33.6258V73.9338C105.594 76.2109 104.396 78.315 102.45 79.4536L68.0122 99.6076C66.0667 100.746 63.6698 100.746 61.7243 99.6076L27.2863 79.4536C25.3408 78.315 24.1423 76.2109 24.1423 73.9338V33.6258C24.1423 31.3487 25.3408 29.2446 27.2863 28.1061L61.7243 7.95205Z" fill="url(#paint25_linear_3312_1497)"/>
<g id="Group 1000003331">
<path id="Polygon 14" d="M61.8169 18.1242C63.7624 16.9856 66.1593 16.9856 68.1048 18.1242L93.969 33.2605C95.9144 34.3991 97.1129 36.5032 97.1129 38.7803V69.053C97.1129 71.3301 95.9144 73.4342 93.969 74.5728L68.1048 89.7091C66.1593 90.8477 63.7624 90.8477 61.8169 89.7091L35.9528 74.5728C34.0073 73.4342 32.8088 71.3301 32.8088 69.053V38.7803C32.8088 36.5032 34.0073 34.3991 35.9528 33.2605L61.8169 18.1242Z" fill="url(#paint26_linear_3312_1497)"/>
<g id="xlWE70">
<g id="Group">
<path id="Vector" d="M71.9265 33.3776C72.1158 34.209 72.3101 35.086 72.3642 35.964L72.3642 35.9642C72.4971 38.1331 72.1543 40.2508 70.6365 42.0343C70.4009 42.3126 70.0851 42.599 69.6976 42.7527C69.2846 42.9164 68.8108 42.9185 68.3461 42.6463L68.345 42.6457C68.1091 42.5067 67.9252 42.3251 67.8083 42.0987C67.6923 41.8742 67.6616 41.6431 67.6706 41.4345C67.6861 41.0775 67.8271 40.7141 67.9243 40.4635C67.9322 40.4434 67.9397 40.424 67.9468 40.4054L68.4423 40.5959M71.9265 33.3776L55.8633 40.0783C56.9599 39.0823 58.1417 38.1904 59.3458 37.2817L59.3854 37.2518C60.5965 36.3378 61.8292 35.4057 62.9742 34.355C64.4687 32.9867 65.7366 31.3912 66.2631 29.2709C66.4386 28.5682 66.449 27.8442 66.436 27.1681C68.765 29.436 69.6035 32.2404 69.2323 35.5339C69.0421 37.2072 68.5579 38.81 67.9466 40.4061L68.4423 40.5959M71.9265 33.3776C75.5012 36.2719 77.567 40.1143 78.5406 44.6717C79.0651 47.1279 79.2321 49.6184 79.155 52.144C79.155 52.1442 79.155 52.1443 79.155 52.1445L79.6027 52.1582C79.5155 52.3067 79.4171 52.4533 79.3057 52.598L79.7262 52.9219L80.2562 52.8919C80.2461 52.7135 80.2367 52.5881 80.2295 52.4914C80.219 52.3508 80.213 52.2712 80.2161 52.1784L80.2162 52.1769C80.2166 52.1636 80.217 52.1504 80.2174 52.1371C80.6691 51.2284 80.7819 50.2794 80.8937 49.3383C80.9144 49.1637 80.9352 48.9894 80.958 48.8157C81.1069 49.102 81.2503 49.3892 81.3877 49.6775C81.3987 49.587 81.4094 49.4973 81.4199 49.4087L81.4212 49.3975L71.9265 33.3776ZM68.4423 40.5959C69.0619 38.9783 69.5626 37.3289 69.7597 35.5939L70.2322 41.6902C69.8192 42.1787 69.2371 42.553 68.6144 42.1882C67.9739 41.811 68.2134 41.1897 68.4259 40.6386C68.4314 40.6243 68.4369 40.6101 68.4423 40.5959ZM79.6901 52.0018C79.6623 52.0541 79.6333 52.1061 79.6029 52.1579L79.6901 52.0018ZM79.6901 52.0018C79.7566 49.4961 79.5837 47.0148 79.0597 44.5608L79.6901 52.0018ZM72.8054 61.5506C73.4885 63.1441 73.1197 64.6362 72.2555 65.9764C71.8276 66.6403 71.1466 67.1649 70.2322 67.1649H70.2306C69.7347 67.1634 69.2392 67.1539 68.7441 67.1377C69.4546 67.4809 69.9753 67.9895 70.2054 68.6547C70.4609 69.3931 70.3182 70.2087 69.8813 71.0057C69.3785 71.9262 68.5958 72.5434 67.6446 72.8625C65.6522 73.5323 63.6096 73.5575 61.7007 72.3339C60.7427 71.721 60.1587 70.8012 60.053 69.6185L60.053 69.6181C60.0093 69.1259 60.0872 68.6735 60.3052 68.2744C60.5217 67.878 60.8545 67.5741 61.256 67.3397L61.2567 67.3393C61.3575 67.2807 61.4589 67.2259 61.5608 67.1748C61.0199 67.1821 60.4839 67.1691 59.9574 67.1519C59.1352 67.1255 58.5281 66.6233 58.1442 66.0476M72.8054 61.5506L58.5853 65.7523M72.8054 61.5506C72.9421 61.4969 73.0426 61.4055 73.1124 61.3189C73.1952 61.2163 73.2556 61.0957 73.3035 60.9761M72.8054 61.5506L72.5761 61.0652C72.6524 61.0568 72.7296 60.9814 72.8107 60.7787M58.1442 66.0476C58.144 66.0473 58.1437 66.0469 58.1435 66.0466L58.5853 65.7523M58.1442 66.0476C58.1442 66.0477 58.1443 66.0477 58.1443 66.0478L58.5853 65.7523M58.1442 66.0476C57.2272 64.6792 56.8331 63.1544 57.5584 61.5192M58.5853 65.7523C57.6904 64.4169 57.3774 63.0086 58.1597 61.4924C58.167 61.4784 58.1743 61.4643 58.1814 61.4502C58.1646 61.4596 58.1475 61.4685 58.1301 61.4769C58.13 61.4769 58.1299 61.477 58.1299 61.477C58.112 61.4856 58.0939 61.4937 58.0754 61.5011C57.9243 61.5619 57.7412 61.5839 57.5584 61.5192M57.5584 61.5192C57.5266 61.5079 57.4948 61.4941 57.4632 61.4773C57.2822 61.3814 57.1802 61.2272 57.1251 61.1288C57.066 61.0233 57.0196 60.9049 56.9822 60.8026C56.7643 60.2072 56.5312 59.6162 56.2951 59.0188L56.2708 58.9574C56.0434 58.382 55.8134 57.8004 55.5965 57.2136L55.5963 57.2129C55.1263 55.9359 55.5787 54.8431 56.2671 53.9415L56.2685 53.9397C56.3474 53.8373 56.4419 53.7311 56.554 53.6453C56.6569 53.5664 56.8 53.4855 56.9783 53.4637M57.5584 61.5192L56.9783 53.4637M56.9783 53.4637C56.9745 53.4587 56.9706 53.4537 56.9668 53.4487L56.9666 53.4484C56.7752 53.1954 56.621 52.9086 56.5707 52.58C56.5189 52.242 56.585 51.9117 56.7474 51.591L56.7482 51.5895C57.1994 50.7053 57.8123 49.9537 58.434 49.2719L58.4346 49.2711C58.7381 48.9395 59.1092 48.7516 59.5143 48.7011C59.9077 48.652 60.2986 48.7362 60.6565 48.8853C60.9949 49.025 61.3391 49.1535 61.6933 49.2857C61.7343 49.301 61.7754 49.3164 61.8167 49.3318C62.2109 49.4792 62.6158 49.6325 63.0144 49.8055C63.7662 50.1317 64.5166 50.5363 65.1856 51.1379C65.9029 50.4768 66.7174 50.0512 67.5315 49.7146C67.9444 49.5439 68.364 49.3935 68.7714 49.2487L68.8489 49.2211C69.2327 49.0847 69.6049 48.9525 69.9694 48.8067L69.9698 48.8066C70.3827 48.6418 70.7928 48.6409 71.1685 48.7745C71.5332 48.9042 71.8354 49.1492 72.0757 49.4311L72.0759 49.4313C72.424 49.8403 72.7437 50.2695 73.0501 50.6845L73.0509 50.6857C73.6208 51.4625 73.8559 52.3063 73.5971 53.0824C73.5522 53.217 73.4941 53.3445 73.4239 53.465C73.5652 53.4934 73.6841 53.5575 73.7763 53.6241C73.9003 53.7134 74.0067 53.8286 74.0981 53.9453M56.9783 53.4637L73.6806 54.2732M74.0981 53.9453C74.0983 53.9455 74.0984 53.9458 74.0986 53.946L73.6806 54.2732M74.0981 53.9453C74.098 53.9452 74.098 53.9452 74.0979 53.9451L73.6806 54.2732M74.0981 53.9453C74.5495 54.5196 74.8171 55.1341 74.8932 55.7878C74.969 56.439 74.8508 57.0941 74.5854 57.7466L74.5851 57.7474C74.3346 58.3603 74.0961 58.9678 73.8561 59.5793C73.6747 60.0413 73.4924 60.5055 73.3035 60.9761M73.6806 54.2732C74.4786 55.2882 74.5724 56.3698 74.0937 57.5466C73.8433 58.1592 73.6012 58.776 73.359 59.3928C73.1774 59.8553 72.9958 60.3179 72.8107 60.7787M73.3035 60.9761L72.8107 60.7787M73.3035 60.9761C73.3034 60.9762 73.3034 60.9764 73.3033 60.9766L72.8107 60.7787M71.7241 54.6899C71.8779 54.6408 72.0254 54.5849 72.1655 54.5222C71.8774 54.9261 71.5421 55.2 71.1696 55.38C70.6611 55.6257 70.0403 55.7173 69.2967 55.6688L69.2959 55.6687C68.9976 55.6498 68.7048 55.6852 68.4497 55.8119C68.5086 55.5908 68.593 55.4414 68.6937 55.3342C68.9032 55.1114 69.3004 54.9458 70.1443 54.8951C70.2112 54.8912 70.2813 54.8878 70.3539 54.8844C70.7628 54.8649 71.253 54.8415 71.7241 54.6899ZM71.7241 54.6899C71.7239 54.69 71.7236 54.6901 71.7233 54.6901L71.5621 54.1844L71.7249 54.6896C71.7247 54.6897 71.7244 54.6898 71.7241 54.6899ZM67.829 56.8012L68.298 56.7934C68.3153 56.7351 68.3356 56.681 68.3593 56.631L67.8304 56.5194C67.828 56.6098 67.8276 56.7037 67.829 56.8012ZM67.829 56.8012C67.8311 56.9256 67.8362 57.0501 67.8434 57.1764L68.2977 56.7944L67.829 56.8012ZM65.3097 51.2528C65.3108 51.2536 65.3114 51.2541 65.3114 51.2541C65.3114 51.2541 65.3102 51.2532 65.3079 51.251L65.3076 51.2513L65.3097 51.2528ZM65.3097 51.2528L65.2682 51.2964L65.2678 51.2968L64.9439 51.6373L65.3097 51.2528ZM65.2198 65.5602C65.2582 65.9501 65.411 66.269 65.6441 66.5097C65.4894 66.5103 65.3346 66.5147 65.1798 66.5226L65.1671 66.5232C64.9992 66.5173 64.8307 66.5144 64.6619 66.5152C64.6938 66.4834 64.7247 66.45 64.7544 66.415C65.0063 66.1183 65.1355 65.7528 65.1962 65.3644C65.2049 65.4277 65.2128 65.4902 65.2198 65.5602ZM65.2198 65.5602L65.7481 65.508M65.2198 65.5602C65.2198 65.5603 65.2198 65.5605 65.2198 65.5606L65.7481 65.508M65.7481 65.508C65.7374 65.4011 65.7221 65.2918 65.7067 65.1817C65.6179 64.5474 65.5251 63.8847 66.2957 63.4685M65.7481 65.508C65.8169 66.2059 66.3802 66.485 67.0123 66.523M66.2957 63.4685L67.0067 66.6127L67.0123 66.523M66.2957 63.4685L66.0434 63.0014C65.7495 63.1602 65.5245 63.3625 65.3694 63.6085C65.2675 63.7702 65.2041 63.9375 65.1665 64.1019L63.249 62.9456C63.1153 62.8515 62.9814 62.7572 62.841 62.6755L63.1107 62.2183C63.1105 62.2182 63.1102 62.218 63.1099 62.2178C62.9655 62.1325 62.9094 62.0645 62.8885 62.025C62.8758 62.0009 62.8559 61.9535 62.8874 61.8365C62.9315 61.6725 62.9851 61.6043 63.0194 61.5753C63.046 61.5527 63.1052 61.5149 63.2591 61.5157C64.5335 61.5285 65.8069 61.5253 67.0786 61.5157C67.2393 61.5148 67.2976 61.5513 67.3215 61.5706C67.3515 61.5949 67.4065 61.6581 67.4564 61.8322L67.4567 61.8335C67.4948 61.965 67.4719 62.009 67.4641 62.0242L67.4639 62.0245C67.4455 62.0599 67.3927 62.1249 67.2424 62.2201C67.0736 62.3264 66.9062 62.4419 66.7499 62.5498C66.7045 62.5811 66.66 62.6118 66.6167 62.6415C66.4174 62.7778 66.2321 62.8995 66.0434 63.0014L66.2957 63.4685ZM67.0123 66.523L67.0069 66.6127L67.0123 66.523ZM61.8543 55.6106C61.8951 55.6953 61.9283 55.791 61.9527 55.8981C61.7588 55.7684 61.5417 55.7159 61.3358 55.6899C61.0977 55.6599 60.803 55.6582 60.466 55.6582C59.9154 55.6582 59.4643 55.5539 59.091 55.3524C58.7437 55.1649 58.4365 54.8785 58.1728 54.4591C58.8593 54.8001 59.6174 54.8895 60.3594 54.9116L60.3604 54.9117C61.2681 54.937 61.6738 55.2361 61.8543 55.6106Z" fill="url(#paint27_linear_3312_1497)" stroke="url(#paint28_linear_3312_1497)" stroke-width="1.06169"/>
<path id="Vector_2" d="M70.6774 31.3325L70.6584 31.2947L70.6679 31.342L70.6774 31.3325Z" fill="#E5A70D"/>
</g>
</g>
<path id="Polygon 14 (Stroke)" fill-rule="evenodd" clip-rule="evenodd" d="M69.0481 16.4682L94.9123 31.6046C97.4414 33.0847 98.9994 35.8201 98.9994 38.7803V69.053C98.9994 72.0132 97.4414 74.7486 94.9123 76.2287L69.0481 91.365C66.519 92.8451 63.403 92.8451 60.8739 91.365L35.0097 76.2287C32.4806 74.7486 30.9226 72.0132 30.9226 69.053V38.7803C30.9226 35.8201 32.4806 33.0847 35.0097 31.6046L60.8739 16.4682C63.403 14.9881 66.519 14.9881 69.0481 16.4682ZM68.1049 18.1242C66.1595 16.9856 63.7625 16.9856 61.8171 18.1242L35.9529 33.2605C34.0074 34.3991 32.809 36.5032 32.809 38.7803V69.053C32.809 71.3301 34.0074 73.4342 35.9529 74.5727L61.8171 89.7091C63.7625 90.8476 66.1595 90.8476 68.1049 89.7091L93.9691 74.5727C95.9146 73.4342 97.113 71.3301 97.113 69.053V38.7803C97.113 36.5032 95.9146 34.3991 93.9691 33.2605L68.1049 18.1242Z" fill="url(#paint29_linear_3312_1497)"/>
</g>
</g>
</g>
</g>
<defs>
<linearGradient id="paint0_linear_3312_1497" x1="88.5813" y1="30.9685" x2="88.5813" y2="0.37497" gradientUnits="userSpaceOnUse">
<stop stop-color="#8C4500"/>
<stop offset="1" stop-color="#FFE2B8"/>
</linearGradient>
<linearGradient id="paint1_linear_3312_1497" x1="88.5813" y1="43.0239" x2="88.5813" y2="0.37497" gradientUnits="userSpaceOnUse">
<stop stop-color="#8C4500"/>
<stop offset="1" stop-color="#FFE2B8"/>
</linearGradient>
<linearGradient id="paint2_linear_3312_1497" x1="40.7932" y1="30.9685" x2="40.7932" y2="0.374968" gradientUnits="userSpaceOnUse">
<stop stop-color="#8C4500"/>
<stop offset="1" stop-color="#FFE2B8"/>
</linearGradient>
<linearGradient id="paint3_linear_3312_1497" x1="40.7932" y1="43.0239" x2="40.7932" y2="0.374969" gradientUnits="userSpaceOnUse">
<stop stop-color="#8C4500"/>
<stop offset="1" stop-color="#FFE2B8"/>
</linearGradient>
<linearGradient id="paint4_linear_3312_1497" x1="40.7933" y1="34.4614" x2="40.7933" y2="7.38789" gradientUnits="userSpaceOnUse">
<stop stop-color="#E8E6FF" stop-opacity="0"/>
<stop offset="1" stop-color="#E8E6FF"/>
</linearGradient>
<linearGradient id="paint5_linear_3312_1497" x1="88.6471" y1="34.4614" x2="88.6471" y2="7.38789" gradientUnits="userSpaceOnUse">
<stop stop-color="#E8E6FF" stop-opacity="0"/>
<stop offset="1" stop-color="#E8E6FF"/>
</linearGradient>
<linearGradient id="paint6_linear_3312_1497" x1="41.532" y1="65.3338" x2="41.532" y2="95.9273" gradientUnits="userSpaceOnUse">
<stop stop-color="#8C4500"/>
<stop offset="1" stop-color="#FFE2B8"/>
</linearGradient>
<linearGradient id="paint7_linear_3312_1497" x1="41.532" y1="53.2783" x2="41.532" y2="95.9273" gradientUnits="userSpaceOnUse">
<stop offset="0.583333" stop-color="#8C4500"/>
<stop offset="1" stop-color="#FFE2B8"/>
</linearGradient>
<linearGradient id="paint8_linear_3312_1497" x1="89.3198" y1="65.334" x2="89.3198" y2="95.9275" gradientUnits="userSpaceOnUse">
<stop stop-color="#8C4500"/>
<stop offset="1" stop-color="#FFE2B8"/>
</linearGradient>
<linearGradient id="paint9_linear_3312_1497" x1="89.3198" y1="53.2786" x2="89.3198" y2="95.9275" gradientUnits="userSpaceOnUse">
<stop offset="0.583333" stop-color="#8C4500"/>
<stop offset="1" stop-color="#FFE2B8"/>
</linearGradient>
<linearGradient id="paint10_linear_3312_1497" x1="89.32" y1="61.8408" x2="89.32" y2="88.9144" gradientUnits="userSpaceOnUse">
<stop stop-color="#E8E6FF" stop-opacity="0"/>
<stop offset="1" stop-color="#E8E6FF"/>
</linearGradient>
<linearGradient id="paint11_linear_3312_1497" x1="41.4666" y1="61.8408" x2="41.4666" y2="88.9144" gradientUnits="userSpaceOnUse">
<stop stop-color="#E8E6FF" stop-opacity="0"/>
<stop offset="1" stop-color="#E8E6FF"/>
</linearGradient>
<linearGradient id="paint12_linear_3312_1497" x1="65.0013" y1="114.625" x2="65.0013" y2="72.3996" gradientUnits="userSpaceOnUse">
<stop stop-color="#FFE2B8"/>
<stop offset="1" stop-color="#8C4500"/>
</linearGradient>
<linearGradient id="paint13_linear_3312_1497" x1="65.0013" y1="114.625" x2="65.0013" y2="72.3996" gradientUnits="userSpaceOnUse">
<stop stop-color="#8C4500"/>
<stop offset="1" stop-color="#FFE2B8"/>
</linearGradient>
<linearGradient id="paint14_linear_3312_1497" x1="65.2395" y1="107.497" x2="65.2395" y2="74.3115" gradientUnits="userSpaceOnUse">
<stop stop-color="#FFE2B8"/>
<stop offset="1" stop-color="#8C4500"/>
</linearGradient>
<linearGradient id="paint15_linear_3312_1497" x1="29.9425" y1="61.6036" x2="17.1165" y2="70.6262" gradientUnits="userSpaceOnUse">
<stop stop-color="#8C4500"/>
<stop offset="0.771271" stop-color="#FFCF8A"/>
</linearGradient>
<linearGradient id="paint16_linear_3312_1497" x1="28.5836" y1="54.8658" x2="30.5427" y2="79.069" gradientUnits="userSpaceOnUse">
<stop stop-color="#8C4500"/>
<stop offset="1" stop-color="#FFE2B8"/>
</linearGradient>
<linearGradient id="paint17_linear_3312_1497" x1="5.11815" y1="29.2358" x2="28.6207" y2="46.621" gradientUnits="userSpaceOnUse">
<stop stop-color="#FFE2B8"/>
<stop offset="1" stop-color="#8C4500"/>
</linearGradient>
<linearGradient id="paint18_linear_3312_1497" x1="31.6916" y1="42.7582" x2="9.32771" y2="25.767" gradientUnits="userSpaceOnUse">
<stop stop-color="#8C4500"/>
<stop offset="1" stop-color="#FFE2B8"/>
</linearGradient>
<linearGradient id="paint19_linear_3312_1497" x1="20.2773" y1="49.2975" x2="12.8211" y2="32.0236" gradientUnits="userSpaceOnUse">
<stop stop-color="#E6F4FF" stop-opacity="0"/>
<stop offset="1" stop-color="white"/>
</linearGradient>
<linearGradient id="paint20_linear_3312_1497" x1="100.058" y1="61.6036" x2="112.884" y2="70.6262" gradientUnits="userSpaceOnUse">
<stop stop-color="#8C4500"/>
<stop offset="0.771271" stop-color="#FFCF8A"/>
</linearGradient>
<linearGradient id="paint21_linear_3312_1497" x1="101.417" y1="54.8658" x2="99.4575" y2="79.069" gradientUnits="userSpaceOnUse">
<stop stop-color="#8C4500"/>
<stop offset="1" stop-color="#FFE2B8"/>
</linearGradient>
<linearGradient id="paint22_linear_3312_1497" x1="124.882" y1="29.2358" x2="101.38" y2="46.621" gradientUnits="userSpaceOnUse">
<stop stop-color="#FFE2B8"/>
<stop offset="1" stop-color="#8C4500"/>
</linearGradient>
<linearGradient id="paint23_linear_3312_1497" x1="98.3087" y1="42.7582" x2="120.673" y2="25.767" gradientUnits="userSpaceOnUse">
<stop stop-color="#8C4500"/>
<stop offset="1" stop-color="#FFE2B8"/>
</linearGradient>
<linearGradient id="paint24_linear_3312_1497" x1="109.723" y1="49.2975" x2="117.179" y2="32.0236" gradientUnits="userSpaceOnUse">
<stop stop-color="#E6F4FF" stop-opacity="0"/>
<stop offset="1" stop-color="white"/>
</linearGradient>
<linearGradient id="paint25_linear_3312_1497" x1="87.7935" y1="92.5098" x2="40.7048" y2="12.0272" gradientUnits="userSpaceOnUse">
<stop stop-color="#8C4500"/>
<stop offset="1" stop-color="#FFE2B8"/>
</linearGradient>
<linearGradient id="paint26_linear_3312_1497" x1="34.6873" y1="27.1036" x2="99.1765" y2="102.212" gradientUnits="userSpaceOnUse">
<stop stop-color="#FFE2B8"/>
<stop offset="1" stop-color="#8C4500"/>
</linearGradient>
<linearGradient id="paint27_linear_3312_1497" x1="60.9921" y1="38.8337" x2="81.4854" y2="82.3607" gradientUnits="userSpaceOnUse">
<stop stop-color="#FFF5E6"/>
<stop offset="1" stop-color="white" stop-opacity="0.2"/>
</linearGradient>
<linearGradient id="paint28_linear_3312_1497" x1="62.4069" y1="52.4574" x2="52.0919" y2="38.9681" gradientUnits="userSpaceOnUse">
<stop stop-color="white"/>
<stop offset="1" stop-color="#8C4500"/>
</linearGradient>
<linearGradient id="paint29_linear_3312_1497" x1="43.211" y1="19.6555" x2="86.9623" y2="88.5382" gradientUnits="userSpaceOnUse">
<stop stop-color="#8C4500"/>
<stop offset="1" stop-color="#FFE2B8"/>
</linearGradient>
</defs>
</svg>
