<svg width="33" height="33" viewBox="0 0 33 33" fill="none" xmlns="http://www.w3.org/2000/svg">
<g id="linkedin-logo">
<g id="Vector">
<path fill-rule="evenodd" clip-rule="evenodd" d="M4 6.1748C4 5.07024 4.89543 4.1748 6 4.1748H27C28.1046 4.1748 29 5.07024 29 6.1748V27.1748C29 28.2794 28.1046 29.1748 27 29.1748H6C4.89543 29.1748 4 28.2794 4 27.1748V6.1748ZM27 6.1748H6V27.1748H27V6.1748Z" fill="white"/>
<path fill-rule="evenodd" clip-rule="evenodd" d="M15.5 13.6748C16.0523 13.6748 16.5 14.1225 16.5 14.6748V22.6748C16.5 23.2271 16.0523 23.6748 15.5 23.6748C14.9477 23.6748 14.5 23.2271 14.5 22.6748V14.6748C14.5 14.1225 14.9477 13.6748 15.5 13.6748Z" fill="white"/>
<path fill-rule="evenodd" clip-rule="evenodd" d="M11.5 13.6748C12.0523 13.6748 12.5 14.1225 12.5 14.6748V22.6748C12.5 23.2271 12.0523 23.6748 11.5 23.6748C10.9477 23.6748 10.5 23.2271 10.5 22.6748V14.6748C10.5 14.1225 10.9477 13.6748 11.5 13.6748Z" fill="white"/>
<path fill-rule="evenodd" clip-rule="evenodd" d="M19 15.6748C18.337 15.6748 17.7011 15.9382 17.2322 16.407C16.7634 16.8759 16.5 17.5118 16.5 18.1748C16.5 18.7271 16.0523 19.1748 15.5 19.1748C14.9477 19.1748 14.5 18.7271 14.5 18.1748C14.5 16.9813 14.9741 15.8367 15.818 14.9928C16.6619 14.1489 17.8065 13.6748 19 13.6748C20.1935 13.6748 21.3381 14.1489 22.182 14.9928C23.0259 15.8367 23.5 16.9813 23.5 18.1748V22.6748C23.5 23.2271 23.0523 23.6748 22.5 23.6748C21.9477 23.6748 21.5 23.2271 21.5 22.6748V18.1748C21.5 17.5118 21.2366 16.8759 20.7678 16.407C20.2989 15.9382 19.663 15.6748 19 15.6748Z" fill="white"/>
<path d="M11.5 12.1748C12.3284 12.1748 13 11.5032 13 10.6748C13 9.84638 12.3284 9.1748 11.5 9.1748C10.6716 9.1748 10 9.84638 10 10.6748C10 11.5032 10.6716 12.1748 11.5 12.1748Z" fill="white"/>
</g>
</g>
</svg>
