<svg width="20" height="21" viewBox="0 0 20 21" fill="none" xmlns="http://www.w3.org/2000/svg">
<g id="meta-8752492dd68a53ea56bd52efb43edd851cb914efea0dee425fdfcc46354290f2.svg.gz">
<path id="Vector" d="M10 19.6914C14.8325 19.6914 18.75 15.7739 18.75 10.9414C18.75 6.10891 14.8325 2.19141 10 2.19141C5.16751 2.19141 1.25 6.10891 1.25 10.9414C1.25 15.7739 5.16751 19.6914 10 19.6914Z" fill="url(#paint0_linear_2403_537)"/>
<path id="Vector_2" d="M13.2586 13.6174L13.6472 11.1477H11.2158V9.54578C11.2158 8.86997 11.5548 8.21083 12.6438 8.21083H13.75V6.10828C13.75 6.10828 12.7466 5.94141 11.7877 5.94141C9.78427 5.94141 8.47604 7.1245 8.47604 9.26544V11.1477H6.25V13.6174H8.47604V19.588C8.92294 19.6564 9.38015 19.6914 9.8459 19.6914C10.3117 19.6914 10.7689 19.6564 11.2158 19.588V13.6174H13.2586Z" fill="white"/>
</g>
<defs>
<linearGradient id="paint0_linear_2403_537" x1="10" y1="2.19141" x2="10" y2="19.6395" gradientUnits="userSpaceOnUse">
<stop stop-color="#18ACFE"/>
<stop offset="1" stop-color="#0163E0"/>
</linearGradient>
</defs>
</svg>
