<svg width="78" height="24" viewBox="0 0 78 24" fill="none" xmlns="http://www.w3.org/2000/svg">
<g id="Wordmark">
<path id="Vector" d="M0.253418 0.104736H4.8708L12.722 14.2777L20.5731 0.104748H25.0905V23.3936H21.3233V5.54443L14.4389 17.9042H10.905L4.02063 5.54443V23.3936H0.253418V0.104736Z" fill="#1C2B33"/>
<path id="Vector_2" d="M37.2422 23.8095C35.4974 23.8095 33.9639 23.4241 32.6416 22.6533C31.319 21.8826 30.2883 20.8152 29.5494 19.4511C28.8103 18.087 28.4408 16.5233 28.4409 14.7601C28.4409 12.9747 28.8021 11.3944 29.5244 10.0191C30.2467 8.64418 31.2497 7.56842 32.5332 6.79186C33.8168 6.01579 35.292 5.62765 36.9589 5.62744C38.6146 5.62744 40.0398 6.01834 41.2346 6.80015C42.429 7.58216 43.3485 8.67732 43.9933 10.0856C44.6377 11.4942 44.9599 13.1466 44.9601 15.0429V16.0741H32.1748C32.4082 17.4938 32.9833 18.6112 33.9001 19.4261C34.8169 20.2412 35.9754 20.6488 37.3756 20.6487C38.4979 20.6487 39.4648 20.4823 40.2761 20.1496C41.0872 19.817 41.8484 19.3124 42.5598 18.636L44.5601 21.0812C42.5707 22.9002 40.1314 23.8096 37.2422 23.8095ZM39.9927 9.99406C39.2035 9.19017 38.1701 8.78815 36.8922 8.788C35.6475 8.788 34.6057 9.19838 33.7668 10.0191C32.9276 10.8398 32.3969 11.9433 32.1748 13.3295H41.3429C41.2317 11.9099 40.7816 10.7981 39.9927 9.99406Z" fill="#1C2B33"/>
<path id="Vector_3" d="M49.5278 9.12097H46.0605V6.04347H49.5278V0.953247H53.1617V6.04347H58.4291V9.12097H53.1617V16.9227C53.1617 18.2201 53.3839 19.146 53.8284 19.7006C54.2727 20.2553 55.034 20.5325 56.1121 20.5323C56.5898 20.5323 56.9954 20.5129 57.329 20.4741C57.6624 20.4355 58.0291 20.3828 58.4291 20.3161V23.3602C57.9726 23.492 57.5075 23.5921 57.0372 23.6598C56.4991 23.7388 55.9559 23.7777 55.412 23.7762C51.489 23.7762 49.5276 21.6359 49.5278 17.3552V9.12097Z" fill="#1C2B33"/>
<path id="Vector_4" d="M77.3657 23.3936H73.7985V20.9649C73.1651 21.8744 72.3594 22.5758 71.3815 23.0692C70.4035 23.5625 69.2922 23.8093 68.0476 23.8096C66.5141 23.8096 65.1556 23.4186 63.972 22.6367C62.7885 21.8549 61.8578 20.7792 61.1799 19.4096C60.502 18.04 60.1631 16.4735 60.1631 14.7103C60.1631 12.9359 60.5076 11.3667 61.1966 10.0025C61.8855 8.63857 62.8384 7.5684 64.0554 6.79198C65.2722 6.01592 66.6696 5.62778 68.2476 5.62756C69.4367 5.62756 70.5035 5.85772 71.4481 6.31802C72.38 6.76785 73.187 7.43897 73.7985 8.27253V6.04353H77.3657V23.3936ZM73.7319 12.1152C73.3427 11.1282 72.7287 10.3491 71.8899 9.77791C71.0507 9.20685 70.0811 8.92132 68.9811 8.92132C67.4251 8.92132 66.1861 9.44252 65.2639 10.4849C64.3414 11.5274 63.8802 12.9359 63.8804 14.7103C63.8804 16.4959 64.3249 17.9099 65.2139 18.9522C66.1028 19.9947 67.3086 20.5159 68.8312 20.5158C69.9534 20.5158 70.9535 20.2275 71.8316 19.6507C72.7093 19.0744 73.3427 18.2981 73.7319 17.3219L73.7319 12.1152Z" fill="#1C2B33"/>
</g>
</svg>
