<svg width="144" height="31" viewBox="0 0 144 31" fill="none" xmlns="http://www.w3.org/2000/svg">
<g id="microsoft_logo.svg" clip-path="url(#clip0_2807_1577)">
<path id="Vector" d="M50.713 17.6933L49.8582 20.1101H49.7869C49.6445 19.5651 49.3833 18.7358 48.9558 17.7407L44.3731 6.24925H39.8853V24.5645H42.8534V13.2626C42.8534 12.5518 42.8534 11.7462 42.8296 10.7511C42.8059 10.2535 42.7584 9.87438 42.7347 9.59006H42.8059C42.9484 10.3009 43.1146 10.8221 43.2333 11.1538L48.7421 24.5171H50.8317L56.2931 11.0354C56.4118 10.7274 56.5305 10.1113 56.6492 9.59006H56.7205C56.6492 10.9406 56.6017 12.149 56.578 12.8835V24.4934H59.7361V6.20186H55.4145L50.713 17.6933ZM62.7279 11.3671H65.8148V24.4934H62.7279V11.3671ZM64.2951 5.82276C63.7727 5.82276 63.3453 6.01231 62.9891 6.34402C62.633 6.67573 62.443 7.10222 62.443 7.62348C62.443 8.12105 62.633 8.54754 62.9891 8.87925C63.3453 9.21096 63.7727 9.37682 64.2951 9.37682C64.8175 9.37682 65.2687 9.18727 65.6011 8.87925C65.9573 8.54754 66.1472 8.12105 66.1472 7.62348C66.1472 7.12591 65.9573 6.69943 65.6011 6.34402C65.2924 6.01231 64.8413 5.82276 64.2951 5.82276ZM76.7612 11.2486C76.1914 11.1302 75.5977 11.0591 75.0279 11.0591C73.6269 11.0591 72.3447 11.3671 71.2761 11.9831C70.2076 12.5992 69.3528 13.4521 68.8067 14.5184C68.2368 15.6083 67.9518 16.864 67.9518 18.3093C67.9518 19.5651 68.2368 20.6787 68.7829 21.6975C69.3291 22.6927 70.0889 23.4983 71.1099 24.0432C72.0835 24.5882 73.2232 24.8725 74.5055 24.8725C75.9777 24.8725 77.2362 24.5645 78.2334 23.9958L78.2572 23.9721V21.1289L78.1385 21.2237C77.6873 21.5554 77.1649 21.8397 76.6425 22.0056C76.0964 22.1951 75.5977 22.2899 75.1703 22.2899C73.9356 22.2899 72.962 21.9345 72.2734 21.1526C71.5611 20.3944 71.2049 19.3519 71.2049 18.0487C71.2049 16.6982 71.5611 15.632 72.2972 14.8501C73.0333 14.0682 74.0068 13.6654 75.1941 13.6654C76.1914 13.6654 77.2124 13.9971 78.1385 14.6605L78.2572 14.7553V11.7462L78.2334 11.7225C77.8298 11.5566 77.3786 11.3671 76.7612 11.2486ZM86.9479 11.1538C86.188 11.1538 85.4757 11.3908 84.8583 11.8884C84.3359 12.3148 83.9797 12.9309 83.671 13.6654H83.6473V11.3671H80.5604V24.4934H83.6473V17.7881C83.6473 16.6508 83.8848 15.703 84.4071 15.0159C84.9295 14.3051 85.5944 13.9497 86.4017 13.9497C86.6867 13.9497 86.9716 14.0208 87.3278 14.0682C87.6602 14.1629 87.8977 14.2577 88.0639 14.3762L88.1826 14.471V11.3908L88.1114 11.3671C87.8977 11.2249 87.4702 11.1538 86.9479 11.1538ZM95.3536 11.0828C93.1928 11.0828 91.4594 11.7225 90.2484 12.9783C89.0137 14.234 88.42 15.9637 88.42 18.1435C88.42 20.1811 89.0374 21.8397 90.2247 23.0481C91.4119 24.2328 93.0266 24.8488 95.0449 24.8488C97.1582 24.8488 98.8441 24.2091 100.055 22.9296C101.29 21.6502 101.883 19.9442 101.883 17.8355C101.883 15.7504 101.314 14.0919 100.15 12.8835C99.0341 11.6751 97.3957 11.0828 95.3536 11.0828ZM97.8231 21.1763C97.2532 21.9108 96.3509 22.2662 95.2349 22.2662C94.1189 22.2662 93.2165 21.9108 92.5754 21.1289C91.9343 20.3944 91.6256 19.3282 91.6256 17.9776C91.6256 16.5797 91.9581 15.5135 92.5754 14.7553C93.2165 13.9971 94.0951 13.618 95.2111 13.618C96.3034 13.618 97.1582 13.9734 97.7756 14.7079C98.393 15.4424 98.7254 16.5086 98.7254 17.9066C98.6779 19.3282 98.4167 20.4418 97.8231 21.1763ZM108.77 16.8166C107.796 16.4138 107.179 16.1058 106.894 15.8452C106.656 15.6083 106.537 15.2766 106.537 14.8501C106.537 14.4947 106.68 14.1393 107.036 13.9023C107.392 13.6654 107.796 13.5469 108.39 13.5469C108.912 13.5469 109.458 13.6417 109.981 13.7838C110.503 13.926 110.978 14.1393 111.358 14.4236L111.476 14.5184V11.6277L111.405 11.604C111.049 11.4619 110.574 11.3197 110.004 11.2012C109.434 11.1065 108.912 11.0591 108.485 11.0591C107.012 11.0591 105.801 11.4145 104.852 12.1964C103.902 12.9309 103.451 13.926 103.451 15.087C103.451 15.703 103.546 16.248 103.759 16.6982C103.973 17.1484 104.282 17.5748 104.709 17.9302C105.137 18.262 105.754 18.6411 106.609 18.9965C107.321 19.3045 107.867 19.5414 108.2 19.731C108.532 19.9205 108.746 20.1338 108.912 20.2996C109.031 20.4892 109.102 20.7261 109.102 21.0341C109.102 21.9108 108.437 22.3373 107.084 22.3373C106.561 22.3373 106.015 22.2425 105.374 22.0293C104.733 21.816 104.139 21.508 103.641 21.1526L103.522 21.0578V24.0669L103.593 24.0906C104.044 24.3039 104.59 24.446 105.255 24.6119C105.92 24.7303 106.514 24.8251 107.036 24.8251C108.627 24.8251 109.933 24.4697 110.859 23.6878C111.809 22.9296 112.308 21.9582 112.308 20.7024C112.308 19.8257 112.07 19.0439 111.548 18.4515C110.859 17.8829 110.004 17.2905 108.77 16.8166ZM120.452 11.0828C118.291 11.0828 116.558 11.7225 115.347 12.9783C114.136 14.234 113.519 15.9637 113.519 18.1435C113.519 20.1811 114.136 21.8397 115.323 23.0481C116.51 24.2328 118.125 24.8488 120.143 24.8488C122.257 24.8488 123.943 24.2091 125.154 22.9296C126.388 21.6502 126.982 19.9442 126.982 17.8355C126.982 15.7504 126.412 14.0919 125.249 12.8835C124.133 11.6751 122.494 11.0828 120.452 11.0828ZM122.898 21.1763C122.328 21.9108 121.426 22.2662 120.31 22.2662C119.17 22.2662 118.291 21.9108 117.65 21.1289C117.009 20.3944 116.7 19.3282 116.7 17.9776C116.7 16.5797 117.033 15.5135 117.65 14.7553C118.291 13.9971 119.17 13.618 120.286 13.618C121.354 13.618 122.233 13.9734 122.85 14.7079C123.468 15.4424 123.8 16.5086 123.8 17.9066C123.8 19.3282 123.491 20.4418 122.898 21.1763ZM143.485 13.9023V11.3671H140.374V7.48132L140.279 7.50501L137.335 8.38168L137.264 8.40537V11.3671H132.61V9.70853C132.61 8.95033 132.799 8.35799 133.132 7.97889C133.464 7.59979 133.963 7.41024 134.58 7.41024C135.008 7.41024 135.459 7.50501 135.958 7.71826L136.076 7.78934V5.11195L136.005 5.08826C135.578 4.94609 135.008 4.85132 134.272 4.85132C133.346 4.85132 132.538 5.06456 131.802 5.41997C131.066 5.82276 130.52 6.36772 130.116 7.10222C129.713 7.81303 129.499 8.61862 129.499 9.54267V11.3671H127.338V13.8786H129.499V24.4934H132.61V13.9023H137.264V20.655C137.264 23.4272 138.57 24.8251 141.181 24.8251C141.609 24.8251 142.06 24.754 142.487 24.683C142.939 24.5882 143.271 24.4697 143.461 24.3749L143.485 24.3512V21.816L143.366 21.9108C143.176 22.0293 143.01 22.124 142.725 22.1951C142.487 22.2662 142.274 22.2899 142.108 22.2899C141.49 22.2899 141.063 22.1477 140.754 21.7923C140.469 21.4606 140.327 20.9157 140.327 20.1101V13.9023H143.485Z" fill="#737373"/>
<path id="Vector_2" d="M0.0888672 0.0893555H14.6446V14.6136H0.0888672V0.0893555Z" fill="#F25022"/>
<path id="Vector_3" d="M16.1641 0.0893555H30.7198V14.6136H16.1641V0.0893555Z" fill="#7FBA00"/>
<path id="Vector_4" d="M0.0888672 16.1295H14.6446V30.6538H0.0888672V16.1295Z" fill="#00A4EF"/>
<path id="Vector_5" d="M16.1641 16.1295H30.7198V30.6538H16.1641V16.1295Z" fill="#FFB900"/>
</g>
<defs>
<clipPath id="clip0_2807_1577">
<rect width="143.42" height="30.5649" fill="white" transform="translate(0.0888672 0.0893555)"/>
</clipPath>
</defs>
</svg>
