<svg width="21" height="20" viewBox="0 0 21 20" fill="none" xmlns="http://www.w3.org/2000/svg">
<g id="MoneyWavy">
<path id="Vector" d="M19.5813 4.68748C19.4913 4.63132 19.3885 4.59899 19.2826 4.59352C19.1766 4.58805 19.0711 4.60963 18.9758 4.65623C15.6219 6.29685 13.2266 5.5281 10.6945 4.71716C8.03125 3.86951 5.28125 2.9906 1.47578 4.84841C1.37068 4.89973 1.28209 4.9795 1.22008 5.07866C1.15807 5.17782 1.12513 5.2924 1.125 5.40935V14.7789C1.12499 14.8849 1.15195 14.9892 1.20336 15.082C1.25477 15.1747 1.32894 15.2529 1.41887 15.309C1.50881 15.3652 1.61157 15.3976 1.71747 15.4031C1.82336 15.4086 1.92893 15.3871 2.02422 15.3406C5.37813 13.7 7.77344 14.4687 10.3094 15.2797C11.8125 15.7601 13.3438 16.25 15.075 16.25C16.4102 16.25 17.8664 15.9593 19.5211 15.1515C19.6262 15.1002 19.7148 15.0204 19.7768 14.9213C19.8388 14.8221 19.8717 14.7076 19.8719 14.5906V5.22107C19.8728 5.11475 19.8466 5.00995 19.7958 4.91658C19.7449 4.82321 19.6711 4.74435 19.5813 4.68748ZM4.25 11.875C4.25 12.0407 4.18415 12.1997 4.06694 12.3169C3.94973 12.4341 3.79076 12.5 3.625 12.5C3.45924 12.5 3.30027 12.4341 3.18306 12.3169C3.06585 12.1997 3 12.0407 3 11.875V6.87498C3 6.70921 3.06585 6.55024 3.18306 6.43303C3.30027 6.31582 3.45924 6.24998 3.625 6.24998C3.79076 6.24998 3.94973 6.31582 4.06694 6.43303C4.18415 6.55024 4.25 6.70921 4.25 6.87498V11.875ZM10.5 12.5C10.0055 12.5 9.5222 12.3534 9.11107 12.0786C8.69995 11.8039 8.37952 11.4135 8.1903 10.9567C8.00108 10.4999 7.95157 9.9972 8.04804 9.51225C8.1445 9.0273 8.3826 8.58184 8.73223 8.23221C9.08186 7.88258 9.52732 7.64447 10.0123 7.54801C10.4972 7.45155 10.9999 7.50106 11.4567 7.69028C11.9135 7.8795 12.304 8.19993 12.5787 8.61105C12.8534 9.02217 13 9.50552 13 9.99997C13 10.663 12.7366 11.2989 12.2678 11.7677C11.7989 12.2366 11.163 12.5 10.5 12.5ZM18 13.125C18 13.2907 17.9342 13.4497 17.8169 13.5669C17.6997 13.6841 17.5408 13.75 17.375 13.75C17.2092 13.75 17.0503 13.6841 16.9331 13.5669C16.8158 13.4497 16.75 13.2907 16.75 13.125V8.12498C16.75 7.95921 16.8158 7.80024 16.9331 7.68303C17.0503 7.56582 17.2092 7.49998 17.375 7.49998C17.5408 7.49998 17.6997 7.56582 17.8169 7.68303C17.9342 7.80024 18 7.95921 18 8.12498V13.125Z" fill="black"/>
</g>
</svg>
