<svg width="128" height="160" viewBox="0 0 128 160" fill="none" xmlns="http://www.w3.org/2000/svg">
<g id="Group 1000004798">
<g id="Group">
<g id="Group_2">
<path id="Vector" d="M34.3934 69.3421C34.3934 69.3421 21.1256 70.3858 15.1021 78.7211C9.07857 87.0565 1.65435 94.5889 7.03061 103.128C11.2115 109.768 24.3434 117.356 24.3434 117.356L29.9137 103.128L23.0107 96.1537L34.3934 69.3421Z" fill="white"/>
<path id="Vector_2" d="M24.3407 117.666C24.2869 117.666 24.233 117.652 24.1849 117.624C23.6453 117.312 10.9383 109.921 6.76446 103.292C1.96605 95.6708 7.07462 88.8932 12.4835 81.7176C13.2652 80.681 14.0725 79.609 14.8472 78.537C20.8863 70.1819 34.2321 69.0405 34.3666 69.0291C34.4757 69.0206 34.5805 69.0688 34.6442 69.158C34.708 69.2472 34.7207 69.3619 34.6782 69.4611L23.3762 96.08L30.1333 102.906C30.2197 102.994 30.2466 103.124 30.2027 103.239L24.6324 117.466C24.5999 117.551 24.5305 117.617 24.4455 117.646C24.4115 117.658 24.3775 117.663 24.3421 117.663L24.3407 117.666ZM33.8964 69.7075C31.4009 70.0091 20.5507 71.7084 15.3514 78.9038C14.5739 79.9801 13.7638 81.0549 12.9806 82.0943C7.70488 89.0943 2.72235 95.7047 7.29132 102.962C11.0261 108.895 22.1695 115.702 24.1835 116.901L29.547 103.203L22.7856 96.3732C22.6964 96.2839 22.6709 96.148 22.7204 96.0319L33.8964 69.7089V69.7075Z" fill="#021028"/>
</g>
<path id="Vector_3" d="M34.3925 69.3419C34.3925 69.3419 49.7154 67.2093 62.0343 70.9861L72.5899 157.901C72.5899 157.901 61.9847 161.06 61.4111 148.073C61.4111 148.073 57.9653 161.448 35.4065 159.871C12.8478 158.293 10.3707 153.971 10.3707 153.971L34.3925 69.3405V69.3419Z" fill="#0080FF"/>
<g id="Group_3">
<g id="Group_4">
<path id="Vector_4" d="M62.0344 70.9861C53.4714 87.3594 54.6526 99.6882 58.0163 100.66C61.38 101.63 64.5865 96.1536 64.5865 96.1536C65.6445 96.9777 67.2407 97.9464 69.1626 98.847C74.5176 92.7917 76.1704 83.4466 76.6633 79.1105C70.1596 74.1568 62.0344 70.9875 62.0344 70.9875V70.9861Z" fill="white"/>
<path id="Vector_5" d="M69.162 99.1575C69.1167 99.1575 69.0727 99.1476 69.0303 99.1278C67.631 98.4721 66.3294 97.7456 65.2643 97.0262C65.1213 96.93 65.0845 96.7359 65.1808 96.5943C65.2771 96.4513 65.4711 96.4145 65.6127 96.5108C66.5985 97.1764 67.7938 97.849 69.0827 98.4636C74.2663 92.4564 75.8724 83.1751 76.3341 79.251C69.9622 74.4404 62.0012 71.308 61.9219 71.2768C61.7618 71.2145 61.6825 71.0332 61.7448 70.8732C61.8072 70.7132 61.9884 70.6339 62.1485 70.6962C62.2306 70.7288 70.3899 73.9391 76.8539 78.8616C76.9417 78.9281 76.987 79.0358 76.9743 79.1448C76.4219 84.005 74.7039 93.0526 69.3971 99.0527C69.3362 99.1207 69.2512 99.1575 69.1634 99.1575H69.162Z" fill="#021028"/>
<g id="Group_5">
<g id="Group_6">
<path id="Vector_6" d="M88.9845 70.6233C88.9845 70.6233 91.8893 63.7933 92.6158 60.8945C93.3424 57.9957 87.8174 54.3902 85.1562 54.2514C82.495 54.1127 82.4171 57.289 82.4171 57.289C79.6695 57.0412 80.6836 60.4201 80.6836 60.4201C79.1851 60.0349 79.3905 62.4947 79.3905 62.4947C78.0322 62.5216 78.6427 64.837 78.6427 64.837C75.8483 70.9334 79.11 81.1409 79.11 81.1409C78.3367 80.4342 77.5139 79.7573 76.6627 79.1087C76.1698 83.4449 74.517 92.79 69.162 98.8453C75.4914 101.809 85.3658 104.035 91.3143 97.9574C99.0699 90.0328 88.9845 70.6233 88.9845 70.6233Z" fill="white"/>
<path id="Vector_7" d="M81.2981 102.14C76.0777 102.14 71.0824 100.091 69.0288 99.129C68.9396 99.088 68.8758 99.0058 68.856 98.9095C68.8362 98.8132 68.8631 98.7141 68.9282 98.6405C74.3144 92.5497 75.9148 82.9285 76.3539 79.0752C76.3666 78.9634 76.4374 78.8685 76.5408 78.8246C76.6442 78.7807 76.7632 78.7948 76.8524 78.8628C77.4345 79.3061 77.9911 79.755 78.5137 80.201C77.7659 77.4438 76.0664 69.8647 78.3154 64.8092C78.229 64.4268 78.0166 63.2571 78.5038 62.6127C78.6468 62.423 78.8395 62.2927 79.0703 62.2304C79.0661 61.7376 79.134 60.7817 79.6765 60.3229C79.8096 60.211 80.0079 60.0977 80.2855 60.075C80.168 59.4519 80.0603 58.3077 80.6481 57.5883C80.9852 57.1762 81.4837 56.9666 82.1352 56.9666C82.2003 56.4271 82.4241 55.3225 83.2016 54.6031C83.7186 54.1245 84.3843 53.9007 85.176 53.9432C87.0851 54.0423 90.4517 55.821 92.1017 58.0528C92.8594 59.0781 93.1426 60.0878 92.9203 60.9729C92.2447 63.672 89.7534 69.6141 89.3314 70.6124C90.2803 72.4775 99.1137 90.4382 91.5394 98.1774C88.6161 101.164 84.9055 102.141 81.301 102.141L81.2981 102.14ZM69.6675 98.7368C73.4547 100.447 84.4565 104.519 91.0904 97.7398C98.601 90.0644 88.8073 70.9594 88.7068 70.7668C88.6643 70.6847 88.66 70.587 88.6969 70.502C88.7252 70.434 91.6003 63.6607 92.3127 60.8199C92.5336 59.9363 92.045 59.0285 91.5975 58.421C90.0721 56.3591 86.8741 54.6541 85.1406 54.5635C84.5245 54.5323 84.0132 54.6966 83.6237 55.0563C82.7782 55.8366 82.73 57.2824 82.73 57.298C82.7272 57.3844 82.6904 57.4651 82.6252 57.5232C82.5615 57.5798 82.4723 57.6081 82.3901 57.6011C81.8009 57.5487 81.3789 57.6761 81.1282 57.982C80.6197 58.6037 80.8506 59.8909 80.9823 60.3342C81.0149 60.4418 80.9866 60.5579 80.9087 60.6387C80.8308 60.7194 80.7161 60.7534 80.607 60.725C80.3039 60.6472 80.1594 60.7307 80.0773 60.7987C79.6864 61.1286 79.6751 62.1426 79.702 62.4725C79.7091 62.5589 79.6807 62.6425 79.6227 62.7076C79.5646 62.7713 79.4839 62.8082 79.3975 62.811C79.1595 62.8152 79.0576 62.9158 79.0009 62.9894C78.6851 63.4058 78.8593 64.4353 78.9443 64.7624C78.9627 64.8318 78.9556 64.9054 78.9259 64.9706C76.2137 70.8886 79.3748 80.9488 79.4074 81.0493C79.4499 81.1838 79.3975 81.3297 79.2785 81.4062C79.1595 81.4826 79.0052 81.4685 78.9004 81.3736C78.2914 80.8171 77.6214 80.2535 76.9062 79.6941C76.3 84.5712 74.5707 92.9632 69.6675 98.7382V98.7368Z" fill="#021028"/>
</g>
<path id="Vector_8" d="M81.4327 66.6757C81.2996 66.6757 81.1764 66.5908 81.1353 66.4562C81.0843 66.292 81.1764 66.1178 81.3407 66.0668C82.5813 65.6816 83.5671 64.5275 84.356 62.5392C84.4678 62.256 84.5755 61.9685 84.6831 61.6796C85.1788 60.3513 85.6915 58.9763 86.7212 57.9496C87.3061 57.3647 88.289 56.8478 89.1303 57.3123C90.0141 57.8023 90.0438 58.972 89.9886 59.8089L89.6402 65.0727C89.6288 65.244 89.4702 65.3743 89.3087 65.363C89.1374 65.3517 89.0071 65.203 89.0184 65.0316L89.3668 59.7679C89.4362 58.7072 89.2648 58.0997 88.8286 57.8575C88.3244 57.5785 87.629 57.9241 87.1616 58.39C86.2283 59.3218 85.7397 60.6317 85.2666 61.8977C85.1576 62.1909 85.0485 62.4826 84.9352 62.7687C84.0727 64.9424 82.9581 66.2155 81.5262 66.6616C81.495 66.6715 81.4639 66.6757 81.4341 66.6757H81.4327Z" fill="#021028"/>
<path id="Vector_9" d="M81.0699 66.7426C80.7526 66.7426 80.4339 66.669 80.1224 66.5203C78.9879 65.9807 78.2571 64.6227 78.182 64.0463C78.1608 63.8749 78.2812 63.7192 78.4511 63.6979C78.6225 63.6753 78.7783 63.7971 78.7995 63.967C78.8491 64.3494 79.4666 65.5191 80.3886 65.9581C80.907 66.2045 81.4296 66.1677 81.9423 65.8505C82.0882 65.7598 82.2808 65.8051 82.3714 65.951C82.4621 66.0969 82.4167 66.2894 82.2709 66.3801C81.8814 66.6222 81.4749 66.7426 81.0684 66.7426H81.0699Z" fill="#021028"/>
<path id="Vector_10" d="M82.2033 65.2495C81.7444 65.2495 81.2785 65.1405 80.8592 64.9153C79.9032 64.4013 79.2163 63.3335 79.0648 62.1298C79.0435 61.9584 79.1639 61.8027 79.3353 61.7814C79.5067 61.7588 79.661 61.8805 79.6837 62.0519C79.8098 63.0602 80.3734 63.9467 81.1552 64.3673C81.988 64.8148 83.0927 64.6647 83.6677 64.026C83.7839 63.8985 83.9807 63.8886 84.1082 64.0033C84.2357 64.118 84.2456 64.3149 84.1309 64.4437C83.655 64.9705 82.9398 65.2509 82.2047 65.2509L82.2033 65.2495Z" fill="#021028"/>
<path id="Vector_11" d="M83.463 63.2389C82.8059 63.2389 82.1501 62.9712 81.6898 62.5775C81.0086 61.9955 80.5384 61.0849 80.2905 59.8699C80.2565 59.7014 80.3642 59.5371 80.5327 59.5017C80.7013 59.4677 80.8656 59.5753 80.8995 59.7439C81.1205 60.8187 81.5213 61.6132 82.0935 62.1017C82.6912 62.6129 83.7052 62.8339 84.368 62.3184C84.504 62.2122 84.6995 62.2377 84.8057 62.3736C84.9119 62.5096 84.8864 62.705 84.7504 62.8112C84.3638 63.1114 83.9134 63.2374 83.463 63.2374V63.2389Z" fill="#021028"/>
<path id="Vector_12" d="M84.7917 60.7563C84.0311 60.7563 83.2833 60.3159 82.85 59.765C82.3118 59.081 82.231 58.3716 82.1446 57.6196L82.1107 57.3279C82.0894 57.1565 82.2112 57.0022 82.3812 56.9809C82.5539 56.9597 82.7069 57.0815 82.7282 57.2514L82.7636 57.5474C82.8457 58.2668 82.9109 58.8346 83.34 59.3798C83.7748 59.9321 84.6104 60.3442 85.3044 60.0228C85.4602 59.9505 85.6457 60.0185 85.718 60.1743C85.7902 60.3301 85.7222 60.5156 85.5664 60.5878C85.3143 60.7039 85.0523 60.7563 84.7917 60.7563Z" fill="#021028"/>
<path id="Vector_13" d="M86.5455 58.7754C86.4209 58.7754 86.3034 58.7003 86.2552 58.5771L85.142 55.7463C85.0797 55.5862 85.1576 55.405 85.3176 55.3427C85.4762 55.2804 85.6589 55.3582 85.7213 55.5183L86.8345 58.3491C86.8968 58.5091 86.8189 58.6904 86.6589 58.7527C86.622 58.7669 86.5824 58.7739 86.5441 58.7739L86.5455 58.7754Z" fill="#021028"/>
</g>
<path id="Vector_14" d="M83.7743 85.7593C83.6992 85.7593 83.6228 85.7324 83.5633 85.6771L78.8994 81.3721C78.7734 81.256 78.7649 81.0577 78.8824 80.9317C78.9986 80.8056 79.1968 80.7971 79.3229 80.9147L83.9867 85.2197C84.1128 85.3358 84.1213 85.5341 84.0037 85.6601C83.9428 85.7267 83.8593 85.7607 83.7743 85.7607V85.7593Z" fill="#021028"/>
</g>
<g id="Group_7">
<path id="Vector_15" d="M103.07 48.9952C99.4853 48.9952 95.8482 48.2064 92.4123 46.5396C86.5234 43.6833 82.1003 38.7042 79.9574 32.5214C77.8146 26.3386 78.2069 19.6899 81.0636 13.803C86.9624 1.64838 101.649 -3.44118 113.805 2.45558C119.694 5.31191 124.117 10.291 126.26 16.4738C128.403 22.6566 128.011 29.3054 125.154 35.1922C120.924 43.9113 112.168 48.9952 103.07 48.9952ZM103.146 0.621691C94.279 0.621691 85.7487 5.57531 81.6244 14.0735C78.84 19.8116 78.4576 26.2904 80.5466 32.3161C82.6356 38.3417 86.9468 43.1947 92.6857 45.9789C96.0338 47.6032 99.5788 48.3721 103.073 48.3721C111.94 48.3721 120.472 43.4185 124.595 34.9203C127.379 29.1822 127.762 22.7034 125.673 16.6777C123.584 10.6521 119.272 5.79905 113.534 3.01495C110.185 1.39065 106.64 0.621691 103.146 0.621691Z" fill="#021028"/>
<path id="Vector_16" d="M88.9791 57.5856C87.992 57.2897 87.594 57.4454 86.5148 58.448L85.5857 56.2247L90.8132 45.4522L94.2619 47.1247L88.9791 57.5856Z" fill="#021028"/>
</g>
</g>
</g>
<g id="Group_8">
<path id="Vector_17" d="M60.2155 61.7006L56.8022 69.3435L58.8559 70.1521C58.8559 70.1521 54.8081 77.6944 45.3501 76.7498C35.8906 75.8052 49.2307 59.8087 49.2307 59.8087C49.2307 59.8087 57.863 57.9011 60.2169 61.7006H60.2155Z" fill="white"/>
<path id="Vector_18" d="M45.3489 77.0617C45.339 77.0617 45.3277 77.0617 45.3178 77.0603C43.5531 76.8847 42.4101 76.1851 41.9172 74.9829C40.0477 70.4116 48.6234 60.0484 48.9902 59.6094C49.0341 59.557 49.095 59.5201 49.163 59.5046C49.5242 59.4253 58.0389 57.5956 60.4806 61.5367C60.5344 61.6245 60.5429 61.7336 60.5005 61.8284L57.2203 69.1739L58.6338 69.7304C58.7938 69.7942 58.8717 69.974 58.8094 70.134C58.7457 70.2941 58.5658 70.3719 58.4058 70.3096L56.6892 69.6327C56.6099 69.6016 56.5476 69.5393 56.515 69.46C56.4824 69.3806 56.4838 69.2928 56.5192 69.215L59.8631 61.7279C57.6693 58.5487 50.3612 59.8968 49.4024 60.0908C48.5866 61.0892 40.8494 70.7203 42.4965 74.7464C42.9002 75.732 43.8434 76.2857 45.3815 76.44C45.5529 76.457 45.6775 76.61 45.6605 76.7813C45.6449 76.9414 45.509 77.0617 45.3503 77.0617H45.3489Z" fill="#021028"/>
<path id="Vector_19" d="M62.3155 46.0155C63.0732 44.8925 63.9938 43.6973 63.8451 42.3505C63.6029 40.1711 60.8652 39.3243 58.6714 39.3455C50.8209 39.4234 43.6927 43.9621 37.8731 49.2329C32.0536 54.5037 27.0172 60.6766 20.6241 65.2352C16.0282 68.5121 10.7921 70.9068 6.58858 74.6737C2.3836 78.4406 -0.733665 84.2028 0.752028 89.6492C2.03661 94.3564 6.573 97.6815 11.3601 98.6317C16.1471 99.5819 21.1226 98.5071 25.6986 96.8077C41.673 90.877 54.4154 76.8219 58.8612 60.3821C59.4744 58.1149 58.8937 56.1408 59.2507 53.8523C59.6869 51.0597 60.7349 48.3592 62.3155 46.0155Z" fill="#021028"/>
<path id="Vector_20" d="M41.9259 43.736C42.542 42.9204 42.6397 41.7974 42.3862 40.8075C42.1327 39.8162 41.5676 38.9354 40.9543 38.1183C39.5848 36.2915 37.9249 34.6827 36.0582 33.37C34.683 32.4028 33.169 31.5857 31.5204 31.2515C29.8732 30.9173 28.0745 31.1056 26.6625 32.019C24.8596 33.1873 23.9121 35.4729 24.1854 37.6028C24.4573 39.7327 25.8637 41.6444 27.7304 42.7065C29.5956 43.7672 31.8008 44.0108 33.9366 44.2331C35.9874 44.4455 40.3977 45.7554 41.9245 43.736H41.9259Z" fill="#021028"/>
<g id="Group_9">
<g id="Group_10">
<path id="Vector_21" d="M61.2305 47.8381C61.2305 47.8381 56.4789 49.5686 56.9222 51.9378C57.364 54.307 57.3782 55.5036 56.2692 56.5133C56.2692 56.5133 52.1266 55.2204 51.6719 58.0937C51.2187 60.967 54.2921 62.0617 56.5766 61.2219C56.5766 61.2219 59.0239 63.7965 62.8451 61.9059C66.6677 60.0154 64.5376 53.783 61.2305 47.8381Z" fill="white"/>
<path id="Vector_22" d="M60.1024 62.9041C58.2131 62.9041 56.9257 61.944 56.5022 61.5758C55.0519 62.0431 53.4189 61.7996 52.3822 60.9485C51.5381 60.256 51.1769 59.225 51.3625 58.044C51.4814 57.2934 51.8369 56.7284 52.4204 56.3659C53.6682 55.5913 55.5844 56.0062 56.1793 56.1648C57.0531 55.2783 57.0206 54.1765 56.6127 51.9943C56.1283 49.3957 60.9168 47.6185 61.1207 47.5448C61.2652 47.4924 61.4252 47.5519 61.5003 47.6864C64.585 53.2306 65.7478 57.3288 64.9575 59.868C64.6303 60.9187 63.9661 61.6976 62.9817 62.1847C61.9167 62.7115 60.9479 62.9056 60.101 62.9056L60.1024 62.9041ZM56.5773 60.9102C56.6608 60.9102 56.743 60.9442 56.8024 61.0065C56.8959 61.1042 59.1478 63.3856 62.707 61.6254C63.544 61.2119 64.085 60.576 64.364 59.6824C65.0807 57.3812 63.9491 53.4232 61.0896 48.226C59.7129 48.7783 56.9257 50.2581 57.2287 51.881C57.6905 54.3521 57.6905 55.6422 56.4795 56.744C56.3974 56.819 56.2812 56.8431 56.1779 56.8105C56.1566 56.8035 53.9699 56.1379 52.7518 56.8955C52.3241 57.1617 52.072 57.5696 51.9814 58.1403C51.8284 59.1061 52.1046 59.9104 52.7802 60.4656C53.6809 61.2048 55.1978 61.396 56.471 60.9272C56.5064 60.9145 56.5418 60.9074 56.5787 60.9074L56.5773 60.9102Z" fill="#021028"/>
</g>
<path id="Vector_23" d="M56.2361 59.5243C56.1667 59.5243 56.0973 59.5017 56.0392 59.4549C55.4104 58.9437 54.4827 58.8078 53.7335 59.1165C53.5749 59.1816 53.3922 59.1066 53.327 58.9465C53.2619 58.7879 53.3369 58.6052 53.497 58.5401C54.4671 58.1408 55.62 58.3107 56.4329 58.9706C56.5661 59.0796 56.5859 59.2751 56.4783 59.4082C56.4159 59.4832 56.3267 59.5229 56.2361 59.5229V59.5243Z" fill="#021028"/>
</g>
</g>
</g>
</svg>
