<svg width="60" height="60" viewBox="0 0 60 60" fill="none" xmlns="http://www.w3.org/2000/svg">
<g id="BookOpenText" clip-path="url(#clip0_2403_11616)">
<g id="Vector">
<path d="M30 20.7407C30 18.7762 30.7804 16.8921 32.1696 15.5029C33.5587 14.1137 35.4428 13.3333 37.4074 13.3333H54.0741V46.6666H37.4074C35.4428 46.6666 33.5587 47.4471 32.1696 48.8362C30.7804 50.2254 30 52.1095 30 54.0741" fill="url(#paint0_linear_2403_11616)"/>
<path d="M30 20.7407C30 18.7762 30.7804 16.8921 32.1696 15.5029C33.5587 14.1137 35.4428 13.3333 37.4074 13.3333H54.0741V46.6666H37.4074C35.4428 46.6666 33.5587 47.4471 32.1696 48.8362C30.7804 50.2254 30 52.1095 30 54.0741" stroke="white" stroke-width="1.48148" stroke-linecap="round" stroke-linejoin="round"/>
</g>
<path id="Vector_2" d="M5.92603 46.6666H22.5927C24.5573 46.6666 26.4414 47.4471 27.8305 48.8362C29.2197 50.2254 30.0001 52.1095 30.0001 54.0741V20.7407C30.0001 18.7762 29.2197 16.8921 27.8305 15.5029C26.4414 14.1137 24.5573 13.3333 22.5927 13.3333H5.92603V46.6666Z" fill="url(#paint1_linear_2403_11616)" stroke="white" stroke-width="1.48148" stroke-linecap="round" stroke-linejoin="round"/>
<path id="Vector_3" d="M37.4075 22.5926H46.6667" stroke="white" stroke-width="1.48148" stroke-linecap="round" stroke-linejoin="round"/>
<path id="Vector_4" d="M37.4075 30H46.6667" stroke="white" stroke-width="1.48148" stroke-linecap="round" stroke-linejoin="round"/>
<path id="Vector_5" d="M37.4075 37.4074H46.6667" stroke="white" stroke-width="1.48148" stroke-linecap="round" stroke-linejoin="round"/>
</g>
<defs>
<linearGradient id="paint0_linear_2403_11616" x1="42.037" y1="13.3333" x2="42.037" y2="54.0741" gradientUnits="userSpaceOnUse">
<stop stop-color="#C32742"/>
<stop offset="1" stop-color="#F5F5F5"/>
</linearGradient>
<linearGradient id="paint1_linear_2403_11616" x1="17.9631" y1="13.3333" x2="17.9631" y2="46.6666" gradientUnits="userSpaceOnUse">
<stop stop-color="#C32742"/>
<stop offset="1" stop-color="#F5F5F5"/>
</linearGradient>
<clipPath id="clip0_2403_11616">
<rect width="59.2593" height="59.2593" fill="white" transform="translate(0.370361 0.370361)"/>
</clipPath>
</defs>
</svg>
