<svg width="141" height="39" viewBox="0 0 141 39" fill="none" xmlns="http://www.w3.org/2000/svg">
<g id="paypal_logo.svg">
<path id="Vector" d="M128.479 9.31873L125.352 28.9206C125.34 28.9926 125.344 29.0663 125.364 29.1365C125.384 29.2066 125.419 29.2717 125.467 29.3269C125.514 29.3822 125.574 29.4264 125.64 29.4564C125.707 29.4864 125.779 29.5016 125.852 29.5007H129.554C129.684 29.5019 129.811 29.4563 129.911 29.3723C130.011 29.2882 130.077 29.1713 130.098 29.0427L133.225 9.44082C133.237 9.36884 133.233 9.29518 133.213 9.22499C133.193 9.15481 133.158 9.0898 133.11 9.03453C133.063 8.97926 133.004 8.93506 132.937 8.90503C132.87 8.875 132.798 8.85987 132.725 8.8607H129.023C128.893 8.85812 128.765 8.90317 128.665 8.98745C128.565 9.07174 128.499 9.18949 128.479 9.31873ZM124.527 15.039H121.015C120.885 15.0378 120.758 15.0832 120.659 15.1671C120.559 15.251 120.493 15.3678 120.472 15.4963L120.356 16.2179C120.356 16.2179 117.628 13.2676 112.799 15.2614C110.028 16.403 108.698 18.7616 108.132 20.4895C108.132 20.4895 106.336 25.7409 110.399 28.6313C110.399 28.6313 114.165 31.4114 118.407 28.4603L118.334 28.9206C118.317 29.0288 118.336 29.1395 118.388 29.2358C118.44 29.3322 118.522 29.4088 118.622 29.4541C118.688 29.4852 118.761 29.5007 118.834 29.5007H122.348C122.479 29.5033 122.607 29.4583 122.707 29.374C122.807 29.2897 122.873 29.172 122.892 29.0427L125.03 15.6191C125.042 15.5472 125.038 15.4736 125.018 15.4035C124.997 15.3335 124.962 15.2687 124.914 15.214C124.866 15.1582 124.807 15.1136 124.74 15.0832C124.673 15.0529 124.601 15.0383 124.527 15.039ZM119.359 22.4577C119.222 23.3956 118.747 24.2514 118.023 24.8645C117.295 25.4798 116.369 25.8121 115.415 25.8C115.041 25.8043 114.668 25.7503 114.311 25.6398C112.795 25.1576 111.93 23.7159 112.178 22.1529C112.316 21.2154 112.792 20.3603 113.517 19.7476C114.244 19.1319 115.169 18.7986 116.123 18.809C116.497 18.8052 116.869 18.8597 117.227 18.9708C118.752 19.4498 119.614 20.8939 119.363 22.4585H119.359V22.4577ZM100.607 22.8286C102.511 22.8286 104.353 22.1536 105.8 20.9265C107.244 19.7035 108.2 18.0043 108.494 16.1378C109.109 12.2551 106.046 8.86614 101.704 8.86614H94.7094C94.5789 8.8649 94.4522 8.91045 94.3525 8.99451C94.2528 9.07857 94.1866 9.19556 94.1661 9.32417L91.0378 28.9261C91.0208 29.0342 91.0398 29.1449 91.0919 29.2413C91.144 29.3376 91.2263 29.4143 91.3262 29.4595C91.3933 29.4906 91.465 29.5062 91.5382 29.5062H95.2419C95.3724 29.5074 95.4991 29.4619 95.5988 29.3778C95.6985 29.2938 95.7647 29.1768 95.7852 29.0482L96.7035 23.2921C96.7228 23.1627 96.7887 23.0448 96.8889 22.9603C96.989 22.8759 97.1165 22.8307 97.2476 22.8333L100.607 22.8286ZM103.705 15.9613C103.476 17.3968 102.355 18.4536 100.211 18.4536H97.469L98.3016 13.2334H100.994C103.211 13.2372 103.933 14.532 103.705 15.9652V15.9613Z" fill="#0070E0"/>
<path id="Vector_2" d="M86.819 15.3763L82.583 22.4567L80.433 15.4284C80.3993 15.3162 80.33 15.218 80.2355 15.1486C80.141 15.0792 80.0265 15.0423 79.9091 15.0435H76.0862C75.9873 15.0421 75.8913 15.0765 75.8158 15.1402C75.7403 15.204 75.6904 15.2928 75.6754 15.3903C75.6661 15.455 75.6728 15.5209 75.6949 15.5824L79.5474 27.4211L76.0628 32.9999C76.0332 33.0458 76.0134 33.0973 76.0044 33.1511C75.9955 33.205 75.9976 33.2601 76.0108 33.3131C76.0239 33.3661 76.0477 33.4159 76.0808 33.4593C76.1139 33.5028 76.1555 33.5391 76.2031 33.566C76.2669 33.6026 76.3393 33.6214 76.4128 33.6204H80.5304C80.6479 33.6209 80.7635 33.591 80.8661 33.5338C80.9687 33.4766 81.0547 33.3939 81.1158 33.2938L91.8767 15.6671C91.9157 15.6058 91.9371 15.5349 91.9386 15.4623C91.9401 15.3896 91.9217 15.3179 91.8853 15.255C91.8489 15.1918 91.7963 15.1396 91.7328 15.1036C91.6693 15.0676 91.5973 15.0493 91.5243 15.0505H87.4083C87.2903 15.0494 87.1739 15.0788 87.0706 15.1359C86.9674 15.193 86.8807 15.2758 86.819 15.3763ZM73.9191 15.0435H70.4041C70.2733 15.0422 70.1465 15.0879 70.0466 15.1721C69.9468 15.2563 69.8805 15.3735 69.86 15.5023L69.7462 16.2231C69.7462 16.2231 67.0162 13.2728 62.1869 15.2667C59.4172 16.4082 58.0865 18.7668 57.5229 20.4947C57.5229 20.4947 55.7252 25.7461 59.7867 28.6366C59.7867 28.6366 63.5542 31.4166 67.7957 28.4655L67.7225 28.9259C67.7052 29.034 67.7241 29.1448 67.7762 29.2412C67.8284 29.3376 67.9108 29.4143 68.0109 29.4593C68.0772 29.4904 68.1496 29.506 68.2229 29.506H71.7371C71.8676 29.5069 71.9941 29.4612 72.0937 29.3772C72.1934 29.2932 72.2596 29.1764 72.2805 29.0479L74.4188 15.6244C74.4362 15.5161 74.4174 15.4051 74.3652 15.3085C74.3131 15.212 74.2306 15.1352 74.1303 15.0901C74.0638 15.0596 73.9923 15.0437 73.9191 15.0435ZM68.7507 22.4637C68.6123 23.4004 68.1368 24.2549 67.413 24.8674C66.6858 25.4827 65.7605 25.8156 64.807 25.8052C64.4334 25.8093 64.0615 25.7553 63.7047 25.645C62.1892 25.1629 61.3247 23.7211 61.5734 22.1573C61.7119 21.2178 62.1895 20.3611 62.9166 19.7482C63.6464 19.1325 64.5747 18.8008 65.5304 18.8142C65.9046 18.8103 66.278 18.8648 66.635 18.976C68.145 19.455 69.0048 20.8983 68.7554 22.4637H68.7507ZM49.9987 22.8338C51.8999 22.8329 53.7389 22.1579 55.1874 20.9294C56.6299 19.7065 57.5847 18.0079 57.8784 16.1423C58.4942 12.2603 55.4306 8.87137 51.0901 8.87137H44.0944C43.9639 8.87006 43.8372 8.91548 43.7374 8.99937C43.6375 9.08326 43.5712 9.20008 43.5503 9.32862L40.4321 28.9251C40.4147 29.0334 40.4335 29.1444 40.4856 29.2409C40.5378 29.3375 40.6203 29.4142 40.7205 29.4593C40.7868 29.4896 40.8593 29.506 40.9326 29.506H44.6339C44.7646 29.5072 44.8915 29.4616 44.9913 29.3774C45.0912 29.2932 45.1574 29.176 45.178 29.0472L46.0947 23.2911C46.1142 23.1619 46.1802 23.0441 46.2803 22.9598C46.3804 22.8755 46.5079 22.8305 46.6389 22.8331L49.9987 22.8338ZM53.0966 15.9658C52.8682 17.4013 51.748 18.4581 49.6035 18.4581H46.8618L47.6928 13.2378H50.3854C52.6032 13.2417 53.3242 14.5372 53.0966 15.9696V15.9658Z" fill="#003087"/>
<path id="Vector_3" d="M26.0702 9.88614C26.1536 5.55782 22.5747 2.2373 17.6535 2.2373H7.47415C7.23693 2.23719 7.00748 2.32158 6.82711 2.47528C6.64675 2.62897 6.52732 2.84186 6.49036 3.0756L2.41177 28.4989C2.39352 28.6141 2.40052 28.7319 2.43228 28.8441C2.46404 28.9564 2.51981 29.0604 2.59575 29.1491C2.67169 29.2378 2.766 29.309 2.87218 29.3579C2.97836 29.4067 3.09388 29.432 3.21081 29.4321H9.24138L8.29891 35.3188C8.28066 35.434 8.28765 35.5518 8.31942 35.664C8.35118 35.7763 8.40695 35.8803 8.48289 35.969C8.55883 36.0577 8.65313 36.1289 8.75931 36.1777C8.86549 36.2266 8.98102 36.2519 9.09794 36.2519H14.0106C14.2476 36.2519 14.4589 36.1672 14.6397 36.014C14.819 35.86 14.8487 35.6477 14.8861 35.4136L16.3282 26.9498C16.3649 26.7165 16.4841 26.4133 16.6642 26.2593C16.8443 26.1053 17.0018 26.0213 17.2395 26.0213H20.2455C25.0654 26.0213 29.1541 22.6036 29.9017 17.8507C30.431 14.4773 28.9811 11.408 26.0702 9.88614Z" fill="#001C64"/>
<path id="Vector_4" d="M10.5465 20.0569L9.04435 29.5581L8.1011 35.5179C8.08297 35.6331 8.09008 35.7509 8.12194 35.8631C8.1538 35.9753 8.20966 36.0793 8.28568 36.1679C8.36169 36.2565 8.45605 36.3277 8.56226 36.3764C8.66847 36.4252 8.784 36.4504 8.90092 36.4503H14.1005C14.3375 36.4502 14.5666 36.3657 14.7467 36.212C14.9268 36.0583 15.0459 35.8456 15.0827 35.612L16.4532 26.9499C16.4901 26.7163 16.6094 26.5035 16.7896 26.3499C16.9698 26.1962 17.1991 26.1117 17.4362 26.1116H20.4967C25.3166 26.1116 29.4053 22.6045 30.1537 17.8516C30.6838 14.4782 28.9812 11.4081 26.0704 9.88623C26.0626 10.2455 26.0314 10.604 25.9761 10.9594C25.2285 15.7107 21.1382 19.2187 16.3199 19.2187H11.5295C11.2924 19.2189 11.0631 19.3036 10.8829 19.4574C10.7027 19.6112 10.5835 19.8233 10.5465 20.0569Z" fill="#0070E0"/>
<path id="Vector_5" d="M9.04362 29.5459H2.99434C2.87744 29.5459 2.76193 29.5206 2.65579 29.4717C2.54964 29.4229 2.45537 29.3517 2.37949 29.263C2.30361 29.1742 2.24792 29.0702 2.21626 28.9579C2.18459 28.8457 2.17771 28.7279 2.19608 28.6127L6.27467 2.81229C6.31161 2.57868 6.43092 2.3659 6.61113 2.21222C6.79133 2.05855 7.0206 1.97407 7.25768 1.974H17.6537C22.575 1.974 26.1539 5.54646 26.0705 9.87402C24.8458 9.23324 23.4068 8.86698 21.8305 8.86698H13.1635C12.9263 8.86686 12.6969 8.95125 12.5165 9.10495C12.3361 9.25864 12.2167 9.47153 12.1797 9.70527L10.5474 20.0447L9.04284 29.5459H9.04362Z" fill="#003087"/>
</g>
</svg>
