<svg width="146" height="72" viewBox="0 0 146 72" fill="none" xmlns="http://www.w3.org/2000/svg">
<g id="Frame 1321318050">
<g id="Group">
<path id="Vector" d="M131.482 25.3316C130.379 22.23 127.472 19.9788 124.014 19.9788H123.914C121.659 19.9788 119.654 20.9293 118.2 22.4301C116.747 20.9293 114.742 19.9788 112.487 19.9788H112.386C110.432 19.9788 108.627 20.7292 107.224 21.8798V21.2795C107.174 20.6791 106.673 20.1789 106.071 20.1789H100.809C100.157 20.1789 99.6558 20.7292 99.6558 21.3795V50.3449C99.6558 50.9952 100.207 51.5455 100.809 51.5455H106.071C106.673 51.5455 107.174 51.0953 107.224 50.495V29.7339C107.224 29.6339 107.224 29.5839 107.224 29.5338C107.324 28.6334 107.976 27.8329 109.028 27.7329H109.981C110.432 27.7829 110.782 27.933 111.083 28.1831C111.534 28.5333 111.785 29.1336 111.785 29.7339L111.835 50.445C111.835 51.0953 112.386 51.6456 112.988 51.6456H118.25C118.902 51.6456 119.403 51.1453 119.403 50.495V29.7339C119.403 29.0336 119.704 28.4333 120.255 28.0831C120.506 27.883 120.857 27.7829 121.207 27.7329H122.16C123.312 27.8329 124.014 28.6834 123.964 29.7339L124.014 50.3949C124.014 51.0453 124.565 51.5956 125.167 51.5956H130.43C131.081 51.5956 131.582 51.0453 131.582 50.3949V28.1331C131.883 26.6323 131.733 25.982 131.482 25.3316Z" fill="#00BCF1"/>
<path id="Vector_2" d="M95.7467 20.3306H92.7395V15.3779C92.7395 14.7776 92.2884 14.2773 91.687 14.2773C91.6368 14.2773 91.5366 14.2773 91.4865 14.3274C88.1284 15.2278 88.8301 19.9303 82.7155 20.3306H82.0639C81.9637 20.3306 81.9135 20.3306 81.8133 20.3806C81.262 20.4806 80.9111 20.9809 80.9111 21.5312V26.884C80.9111 27.5344 81.4625 28.0847 82.0639 28.0847H85.2716V50.6967C85.2716 51.347 85.7728 51.8473 86.4243 51.8473H91.6368C92.2884 51.8473 92.7896 51.297 92.7896 50.6967V27.9846H95.7467C96.3983 27.9846 96.8995 27.4343 96.8995 26.784V21.4812C96.8995 20.8308 96.3983 20.3306 95.7467 20.3306Z" fill="#00BCF1"/>
<path id="Vector_3" d="M76.7508 20.3297H71.4882C70.8366 20.3297 70.3354 20.88 70.3354 21.5303V32.5862C70.3354 33.2866 69.7841 33.8369 69.0824 33.8369H66.8771C66.1754 33.8369 65.6241 33.2866 65.6241 32.5862L65.574 21.5804C65.574 20.93 65.0227 20.3797 64.4212 20.3797H59.1586C58.5071 20.3797 58.0059 20.93 58.0059 21.5804V33.6868C58.0059 38.2893 61.2637 41.541 65.7745 41.541C65.7745 41.541 69.1827 41.541 69.2829 41.591C69.8843 41.6911 70.3855 42.1913 70.3855 42.8417C70.3855 43.492 69.9345 43.9923 69.2829 44.0923C69.2328 44.0923 69.2328 44.0923 69.1827 44.0923L61.4642 44.1424C60.8126 44.1424 60.3114 44.6927 60.3114 45.343V50.6458C60.3114 51.2962 60.8627 51.8465 61.4642 51.8465H70.0848C74.3951 51.8465 77.8534 48.2946 77.8534 43.9923V21.4803C77.9036 20.83 77.3522 20.3297 76.7508 20.3297Z" fill="#172B75"/>
<path id="Vector_4" d="M26.0793 20.3297H14.5517C13.9001 20.3297 13.3989 20.83 13.3989 21.4803V26.6831V26.7331V26.7831V50.4457C13.3989 51.0961 13.85 51.5963 14.4514 51.6464H19.8143C20.4659 51.6464 20.9671 51.0961 20.9671 50.4457L21.0172 42.3414H26.0793C30.2894 42.3414 33.2465 39.3898 33.2465 35.0876V27.5836C33.2465 23.2813 30.2894 20.3297 26.0793 20.3297ZM25.6282 30.0849V33.3867C25.6282 34.087 25.0769 34.6373 24.3752 34.6373H21.0172V28.0338H24.3752C25.0769 28.0338 25.6282 28.5841 25.6282 29.2845V30.0849Z" fill="#172B75"/>
<path id="Vector_5" d="M46.6785 20.3297H39.361C38.7094 20.3297 38.2082 20.83 38.2082 21.4303V23.5314V23.5814V26.433C38.2082 27.0833 38.7595 27.5836 39.4612 27.5836H46.4279C46.9792 27.6836 47.4303 28.0838 47.4804 28.7342V29.4346C47.4303 30.0349 46.9792 30.4851 46.478 30.5351H43.0197C38.4087 30.5351 35.1509 33.6368 35.1509 37.9391V44.1424C35.1509 48.4447 37.9576 51.4963 42.5185 51.4963H52.0915C53.7956 51.4963 55.1989 50.1956 55.1989 48.5447V28.334C55.1989 23.4314 52.6929 20.3297 46.6785 20.3297ZM47.5306 42.5915V43.442C47.5306 43.492 47.5306 43.5921 47.4804 43.6421C47.4804 43.6921 47.4303 43.7422 47.4303 43.7922C47.28 44.2424 46.7788 44.5926 46.2776 44.5926H44.0723C43.3706 44.5926 42.8193 44.0423 42.8193 43.442V42.3914V39.69V38.8396C42.8193 38.1892 43.3706 37.6889 44.0723 37.6889H46.2776C46.9792 37.6889 47.5306 38.2392 47.5306 38.8396V42.5915Z" fill="#172B75"/>
</g>
</g>
</svg>
