<svg width="320" height="79" viewBox="0 0 320 79" fill="none" xmlns="http://www.w3.org/2000/svg">
<g clip-path="url(#clip0_3572_15825)">
<g opacity="0.08">
<path d="M117 115.5L263 -30.5L409 115.5" stroke="white"/>
<path d="M117 126L263 -20L409 126" stroke="white"/>
<path d="M117 136.5L263 -9.5L409 136.5" stroke="white"/>
<path d="M117 147L263 1L409 147" stroke="white"/>
<path d="M117 157.5L263 11.5L409 157.5" stroke="white"/>
<path d="M117 168L263 22L409 168" stroke="white"/>
<path d="M117 178.5L263 32.5L409 178.5" stroke="white"/>
<path d="M117 189L263 43L409 189" stroke="white"/>
<path d="M117 199.5L263 53.5L409 199.5" stroke="white"/>
<path d="M117 210L263 64L409 210" stroke="white"/>
<path d="M117 220.5L263 74.5L409 220.5" stroke="white"/>
</g>
<path fill-rule="evenodd" clip-rule="evenodd" d="M272.509 31.2529C272.509 31.6216 272.807 31.9204 273.176 31.9204L282.854 31.9204C283.223 31.9204 283.522 31.6216 283.522 31.2529L283.522 10.257C283.522 9.74313 282.966 9.42199 282.521 9.6789L272.842 15.2667C272.636 15.386 272.509 15.6063 272.509 15.8448L272.509 31.2529Z" fill="url(#paint0_linear_3572_15825)"/>
<path fill-rule="evenodd" clip-rule="evenodd" d="M273.176 31.2529L282.854 31.2529L282.854 10.257L273.176 15.8448L273.176 31.2529ZM273.176 31.9204C272.807 31.9204 272.509 31.6216 272.509 31.2529L272.509 15.8448C272.509 15.6063 272.636 15.386 272.842 15.2667L282.521 9.6789C282.966 9.42199 283.522 9.74313 283.522 10.257L283.522 31.2529C283.522 31.6216 283.223 31.9204 282.854 31.9204L273.176 31.9204Z" fill="url(#paint1_linear_3572_15825)"/>
<path fill-rule="evenodd" clip-rule="evenodd" d="M258.158 31.2529C258.158 31.6216 257.859 31.9204 257.49 31.9204L247.812 31.9204C247.443 31.9204 247.145 31.6216 247.145 31.2529L247.145 10.257C247.145 9.74313 247.701 9.42199 248.146 9.6789L257.824 15.2667C258.031 15.386 258.158 15.6063 258.158 15.8448L258.158 31.2529Z" fill="url(#paint2_linear_3572_15825)"/>
<path fill-rule="evenodd" clip-rule="evenodd" d="M257.49 31.2529L247.812 31.2529L247.812 10.257L257.49 15.8448L257.49 31.2529ZM257.49 31.9204C257.859 31.9204 258.158 31.6216 258.158 31.2529L258.158 15.8448C258.158 15.6063 258.031 15.386 257.824 15.2667L248.146 9.6789C247.701 9.42199 247.145 9.74313 247.145 10.257L247.145 31.2529C247.145 31.6216 247.443 31.9204 247.812 31.9204L257.49 31.9204Z" fill="url(#paint3_linear_3572_15825)"/>
<path fill-rule="evenodd" clip-rule="evenodd" d="M255.522 26.7694L249.78 26.7694L249.78 13.9291L255.522 17.2444L255.522 26.7694ZM255.522 27.4369C255.891 27.4369 256.19 27.138 256.19 26.7694L256.19 17.2444C256.19 17.0059 256.062 16.7856 255.856 16.6664L250.114 13.351C249.669 13.0941 249.112 13.4152 249.112 13.9291L249.112 26.7694C249.112 27.1381 249.411 27.4369 249.78 27.4369L255.522 27.4369Z" fill="url(#paint4_linear_3572_15825)"/>
<path fill-rule="evenodd" clip-rule="evenodd" d="M275.179 26.7694L280.921 26.7694L280.921 13.9291L275.179 17.2444L275.179 26.7694ZM275.179 27.4369C274.81 27.4369 274.512 27.138 274.512 26.7694L274.512 17.2444C274.512 17.0059 274.639 16.7856 274.845 16.6664L280.588 13.351C281.033 13.0941 281.589 13.4152 281.589 13.9291L281.589 26.7694C281.589 27.1381 281.29 27.4369 280.921 27.4369L275.179 27.4369Z" fill="url(#paint5_linear_3572_15825)"/>
<path fill-rule="evenodd" clip-rule="evenodd" d="M258.55 37.957C258.55 37.5884 258.252 37.2895 257.883 37.2895L248.205 37.2896C247.836 37.2896 247.537 37.5884 247.537 37.957L247.537 58.953C247.537 59.4668 248.093 59.788 248.538 59.5311L258.217 53.9432C258.423 53.824 258.55 53.6036 258.55 53.3652L258.55 37.957Z" fill="url(#paint6_linear_3572_15825)"/>
<path fill-rule="evenodd" clip-rule="evenodd" d="M257.883 37.957L248.205 37.957L248.205 58.953L257.883 53.3652L257.883 37.957ZM257.883 37.2895C258.252 37.2895 258.55 37.5884 258.55 37.957L258.55 53.3652C258.55 53.6036 258.423 53.824 258.217 53.9432L248.538 59.5311C248.093 59.788 247.537 59.4668 247.537 58.953L247.537 37.957C247.537 37.5884 247.836 37.2896 248.205 37.2896L257.883 37.2895Z" fill="url(#paint7_linear_3572_15825)"/>
<path fill-rule="evenodd" clip-rule="evenodd" d="M272.901 37.9572C272.901 37.5885 273.2 37.2897 273.569 37.2897L283.247 37.2897C283.616 37.2897 283.915 37.5885 283.915 37.9571L283.915 58.9531C283.915 59.467 283.358 59.7881 282.913 59.5312L273.235 53.9434C273.028 53.8241 272.901 53.6038 272.901 53.3653L272.901 37.9572Z" fill="url(#paint8_linear_3572_15825)"/>
<path fill-rule="evenodd" clip-rule="evenodd" d="M273.569 37.9572L283.247 37.9571L283.247 58.9531L273.569 53.3653L273.569 37.9572ZM273.569 37.2897C273.2 37.2897 272.901 37.5885 272.901 37.9572L272.901 53.3653C272.901 53.6038 273.028 53.8241 273.235 53.9434L282.913 59.5312C283.358 59.7881 283.915 59.467 283.915 58.9531L283.915 37.9571C283.915 37.5885 283.616 37.2897 283.247 37.2897L273.569 37.2897Z" fill="url(#paint9_linear_3572_15825)"/>
<path fill-rule="evenodd" clip-rule="evenodd" d="M275.536 42.4407L281.279 42.4407L281.279 55.281L275.536 51.9657L275.536 42.4407ZM275.536 41.7732C275.168 41.7732 274.869 42.072 274.869 42.4407L274.869 51.9657C274.869 52.2041 274.996 52.4245 275.203 52.5437L280.945 55.8591C281.39 56.116 281.946 55.7948 281.946 55.281L281.946 42.4407C281.946 42.072 281.647 41.7732 281.279 41.7732L275.536 41.7732Z" fill="url(#paint10_linear_3572_15825)"/>
<path fill-rule="evenodd" clip-rule="evenodd" d="M255.88 42.4407H250.138V55.281L255.88 51.9657L255.88 42.4407ZM255.88 41.7732C256.249 41.7732 256.548 42.072 256.548 42.4407V51.9657C256.548 52.2041 256.42 52.4245 256.214 52.5437L250.471 55.8591C250.026 56.116 249.47 55.7948 249.47 55.281V42.4407C249.47 42.072 249.769 41.7732 250.138 41.7732H255.88Z" fill="url(#paint11_linear_3572_15825)"/>
<path fill-rule="evenodd" clip-rule="evenodd" d="M253.486 60.1504C253.486 60.4655 253.634 60.7623 253.886 60.9514L264.9 69.2114C265.256 69.4784 265.745 69.4784 266.101 69.2114L277.115 60.9514C277.367 60.7623 277.515 60.4655 277.515 60.1504L277.515 48.3027C277.515 47.7497 277.067 47.3015 276.514 47.3015L254.487 47.3015C253.934 47.3015 253.486 47.7497 253.486 48.3027L253.486 60.1504Z" fill="url(#paint12_linear_3572_15825)"/>
<path fill-rule="evenodd" clip-rule="evenodd" d="M254.287 60.4174L265.3 68.6774C265.419 68.7664 265.582 68.7664 265.701 68.6774L276.714 60.4174C276.798 60.3544 276.848 60.2554 276.848 60.1504L276.848 48.3027C276.848 48.1184 276.698 47.9689 276.514 47.9689L254.487 47.9689C254.303 47.9689 254.153 48.1184 254.153 48.3027L254.153 60.1504C254.153 60.2554 254.203 60.3544 254.287 60.4174ZM253.886 60.9514C253.634 60.7623 253.486 60.4655 253.486 60.1504L253.486 48.3027C253.486 47.7497 253.934 47.3015 254.487 47.3015L276.514 47.3015C277.067 47.3015 277.515 47.7497 277.515 48.3027L277.515 60.1504C277.515 60.4655 277.367 60.7623 277.115 60.9514L266.101 69.2114C265.745 69.4784 265.256 69.4784 264.9 69.2114L253.886 60.9514Z" fill="url(#paint13_linear_3572_15825)"/>
<path fill-rule="evenodd" clip-rule="evenodd" d="M256.957 58.5925L265.427 64.9449C265.545 65.0339 265.709 65.0339 265.827 64.9449L274.297 58.5925C274.381 58.5294 274.431 58.4305 274.431 58.3255L274.431 49.3039C274.431 49.1195 274.281 48.9701 274.097 48.9701L257.157 48.9701C256.973 48.9701 256.823 49.1195 256.823 49.3039L256.823 58.3255C256.823 58.4305 256.873 58.5294 256.957 58.5925ZM256.556 59.1264C256.304 58.9374 256.156 58.6406 256.156 58.3255L256.156 49.3039C256.156 48.7509 256.604 48.3026 257.157 48.3026L274.097 48.3026C274.65 48.3026 275.098 48.7509 275.098 49.3039L275.098 58.3255C275.098 58.6406 274.95 58.9373 274.698 59.1264L266.228 65.4788C265.872 65.7458 265.382 65.7458 265.026 65.4788L256.556 59.1264Z" fill="url(#paint14_linear_3572_15825)"/>
<path fill-rule="evenodd" clip-rule="evenodd" d="M252.679 34.6265C252.679 34.2578 252.38 33.959 252.012 33.959H242.029C241.66 33.959 241.361 34.2578 241.361 34.6265V45.8855C241.361 46.1227 241.487 46.3421 241.692 46.4618L251.675 52.2938C252.12 52.5538 252.679 52.2328 252.679 51.7175V34.6265Z" fill="url(#paint15_linear_3572_15825)"/>
<path fill-rule="evenodd" clip-rule="evenodd" d="M252.012 34.6265H242.029L242.029 45.8855L252.012 51.7175L252.012 34.6265ZM252.012 33.959C252.38 33.959 252.679 34.2578 252.679 34.6265V51.7175C252.679 52.2328 252.12 52.5538 251.675 52.2938L241.692 46.4618C241.487 46.3421 241.361 46.1227 241.361 45.8855V34.6265C241.361 34.2578 241.66 33.959 242.029 33.959H252.012Z" fill="url(#paint16_linear_3572_15825)"/>
<path fill-rule="evenodd" clip-rule="evenodd" d="M236.237 22.9408C235.794 22.682 235.242 23.0018 235.242 23.5171L235.242 32.8613C235.242 33.1014 235.369 33.3239 235.576 33.4445L251.314 42.639C251.633 42.825 252.039 42.7161 252.221 42.396L256.22 35.3878C256.403 35.0676 256.293 34.6573 255.975 34.4714L236.237 22.9408Z" fill="url(#paint17_linear_3572_15825)"/>
<path fill-rule="evenodd" clip-rule="evenodd" d="M235.907 23.5205L235.907 32.8647L251.645 42.0593L255.644 35.0511L235.907 23.5205ZM235.242 23.5171C235.242 23.0018 235.794 22.682 236.237 22.9408L255.975 34.4714C256.293 34.6573 256.403 35.0676 256.22 35.3878L252.221 42.396C252.039 42.7161 251.633 42.825 251.314 42.639L235.576 33.4445C235.369 33.3239 235.242 33.1014 235.242 32.8613L235.242 23.5171Z" fill="url(#paint18_linear_3572_15825)"/>
<path fill-rule="evenodd" clip-rule="evenodd" d="M237.974 26.9879L237.974 31.7729L246.742 36.8952L248.789 33.3065L237.974 26.9879ZM237.309 26.9845C237.309 26.4692 237.862 26.1494 238.305 26.4082L249.12 32.7267C249.438 32.9127 249.548 33.323 249.366 33.6432L247.318 37.2319C247.135 37.5521 246.729 37.6609 246.411 37.4749L237.643 32.3526C237.437 32.232 237.309 32.0096 237.309 31.7694L237.309 26.9845Z" fill="url(#paint19_linear_3572_15825)"/>
<path fill-rule="evenodd" clip-rule="evenodd" d="M278.321 34.6265C278.321 34.2578 278.62 33.959 278.988 33.959H288.971C289.34 33.959 289.639 34.2578 289.639 34.6265V45.8855C289.639 46.1227 289.513 46.3421 289.308 46.4618L279.325 52.2938C278.88 52.5538 278.321 52.2328 278.321 51.7175V34.6265Z" fill="url(#paint20_linear_3572_15825)"/>
<path fill-rule="evenodd" clip-rule="evenodd" d="M278.988 34.6265H288.971L288.971 45.8855L278.988 51.7175L278.988 34.6265ZM278.988 33.959C278.62 33.959 278.321 34.2578 278.321 34.6265V51.7175C278.321 52.2328 278.88 52.5538 279.325 52.2938L289.308 46.4618C289.513 46.3421 289.639 46.1227 289.639 45.8855V34.6265C289.639 34.2578 289.34 33.959 288.971 33.959H278.988Z" fill="url(#paint21_linear_3572_15825)"/>
<path fill-rule="evenodd" clip-rule="evenodd" d="M294.763 22.9408C295.206 22.682 295.758 23.0018 295.758 23.5171L295.758 32.8613C295.758 33.1014 295.631 33.3239 295.424 33.4445L279.686 42.639C279.367 42.825 278.961 42.7161 278.779 42.396L274.78 35.3878C274.597 35.0676 274.707 34.6573 275.025 34.4714L294.763 22.9408Z" fill="url(#paint22_linear_3572_15825)"/>
<path fill-rule="evenodd" clip-rule="evenodd" d="M295.093 23.5205L295.093 32.8647L279.355 42.0593L275.356 35.0511L295.093 23.5205ZM295.758 23.5171C295.758 23.0018 295.206 22.682 294.763 22.9408L275.025 34.4714C274.707 34.6573 274.597 35.0676 274.78 35.3878L278.779 42.396C278.961 42.7161 279.367 42.825 279.686 42.639L295.424 33.4445C295.631 33.3239 295.758 33.1014 295.758 32.8613L295.758 23.5171Z" fill="url(#paint23_linear_3572_15825)"/>
<path fill-rule="evenodd" clip-rule="evenodd" d="M293.026 26.9879L293.026 31.7729L284.258 36.8952L282.21 33.3065L293.026 26.9879ZM293.69 26.9845C293.69 26.4692 293.138 26.1494 292.695 26.4082L281.879 32.7267C281.561 32.9127 281.451 33.323 281.634 33.6432L283.681 37.2319C283.864 37.5521 284.27 37.6609 284.589 37.4749L293.357 32.3526C293.563 32.232 293.69 32.0096 293.69 31.7694L293.69 26.9845Z" fill="url(#paint24_linear_3572_15825)"/>
<path d="M263.761 13.556C264.794 12.9598 266.066 12.9598 267.099 13.556L285.377 24.1091C286.41 24.7053 287.046 25.807 287.046 26.9994V48.1055C287.046 49.2979 286.41 50.3996 285.377 50.9958L267.099 61.5489C266.066 62.145 264.794 62.145 263.761 61.5489L245.483 50.9958C244.45 50.3996 243.814 49.2979 243.814 48.1055V26.9994C243.814 25.807 244.45 24.7053 245.483 24.1091L263.761 13.556Z" fill="url(#paint25_linear_3572_15825)"/>
<path d="M263.81 18.8602C264.843 18.264 266.115 18.264 267.147 18.8602L280.875 26.7859C281.908 27.3821 282.544 28.4839 282.544 29.6762V45.5277C282.544 46.72 281.908 47.8218 280.875 48.4179L267.147 56.3437C266.115 56.9398 264.843 56.9398 263.81 56.3437L250.082 48.4179C249.05 47.8218 248.414 46.72 248.414 45.5277V29.6762C248.414 28.4839 249.05 27.3821 250.082 26.7859L263.81 18.8602Z" fill="url(#paint26_linear_3572_15825)"/>
<path d="M264.251 34.8371C264.212 34.859 264.174 34.8781 264.137 34.8946L264.184 34.9176C264.472 35.0593 264.709 35.1746 264.924 35.28C265.066 35.3492 265.199 35.4141 265.332 35.4794L265.69 35.655L265.296 35.7154C265.262 35.7205 265.227 35.7265 265.19 35.7326C265.114 35.7456 265.032 35.7594 264.954 35.7677C264.837 35.7803 264.711 35.7831 264.589 35.7526C264.464 35.7214 264.346 35.6565 264.245 35.5415C264.146 35.4284 264.067 35.2721 264.008 35.064L263.976 34.9507C263.866 34.9792 263.759 34.9858 263.654 34.9765C263.469 34.9601 263.292 34.8948 263.118 34.8278C262.74 34.6836 262.446 34.6718 262.206 34.7674C261.999 34.8495 261.815 35.0182 261.646 35.2912L264.251 34.8371ZM264.251 34.8371C264.251 34.8371 264.251 34.8372 264.251 34.8372L264.189 34.7283L264.251 34.8371ZM257.696 32.4908C257.692 32.4912 257.689 32.4916 257.686 32.492L257.699 32.6164L257.824 32.6142C257.824 32.6041 257.824 32.594 257.824 32.584C257.949 32.5279 258.01 32.414 258.069 32.3041C258.1 32.247 258.13 32.191 258.168 32.1448C258.298 31.9871 258.428 31.8296 258.558 31.6722C259.214 30.8779 259.871 30.0837 260.47 29.2493C261.614 27.6564 261.783 27.063 261.932 24.6406L257.696 32.4908ZM257.696 32.4908C257.668 31.7326 257.505 31.0244 257.018 30.3573L257.696 32.4908ZM269.291 37.5207C269.241 37.5484 269.191 37.573 269.141 37.5949C269.193 37.6169 269.246 37.6379 269.3 37.658C269.347 37.6334 269.395 37.6063 269.443 37.5764C269.391 37.5588 269.341 37.5402 269.291 37.5207ZM267.619 37.7256C267.53 37.7189 267.446 37.7154 267.376 37.7219C267.31 37.728 267.227 37.7445 267.169 37.8045C267.1 37.8749 267.1 37.9666 267.12 38.0432C267.14 38.1177 267.185 38.2027 267.247 38.2979L267.247 38.298C267.495 38.6772 267.66 39.0943 267.812 39.5281C267.848 39.6314 267.884 39.7361 267.919 39.8415C268.032 40.174 268.147 40.5131 268.292 40.8376L268.322 40.9039L268.395 40.911C269.346 41.0032 270.179 40.5431 270.729 39.8054C271.279 39.0686 271.551 38.0497 271.388 37.0023C271.292 36.3876 271.068 35.8404 270.807 35.3205C270.683 35.0747 270.55 34.8336 270.419 34.5947L270.397 34.5543C270.258 34.3014 270.121 34.0506 269.995 33.7945L269.996 33.7942L269.988 33.7824C269.933 33.6968 269.879 33.6113 269.824 33.5258C268.672 31.7263 267.538 29.954 267.325 27.7887C267.21 26.6164 267.632 25.6421 268.495 24.6963C268.349 26.5228 268.974 28.0198 269.946 29.3653C270.519 30.1601 271.149 30.9179 271.795 31.6961C272.086 32.0463 272.38 32.4007 272.674 32.7645L272.886 33.0261L272.897 32.6898C272.923 31.8723 273.101 31.1659 273.53 30.4794C273.535 30.507 273.539 30.5346 273.544 30.5621C273.682 31.409 273.814 32.2208 274.188 32.9661C274.291 33.1959 274.397 33.4234 274.502 33.6501C274.777 34.2457 275.051 34.836 275.274 35.448L275.271 35.4474L275.341 35.6531C275.795 36.9788 275.879 38.2137 275.608 39.362C275.337 40.5106 274.709 41.5815 273.726 42.5756C272.765 43.5472 271.646 44.3262 270.516 45.1124C270.47 45.1442 270.424 45.1761 270.379 45.2079C268.498 46.5161 266.677 47.9159 265.456 49.9402L265.452 49.9466L265.449 49.9534C265.402 50.057 265.355 50.1616 265.305 50.2752C265.292 50.3038 265.279 50.3331 265.266 50.363C265.199 50.2566 265.133 50.1505 265.067 50.045C264.832 49.6656 264.601 49.294 264.343 48.9456L264.343 48.9454C263.155 47.3424 261.547 46.2105 259.962 45.0939C259.86 45.0222 259.758 44.9506 259.657 44.879C258.474 44.0436 257.314 43.2078 256.373 42.1194C255.441 41.0412 254.93 39.9101 254.783 38.7318C254.635 37.5525 254.849 36.3169 255.382 35.0292L255.382 35.0292C255.527 34.6771 255.684 34.3344 255.842 33.9893C255.951 33.7515 256.06 33.5126 256.167 33.2686C256.425 32.6765 256.66 32.0687 256.805 31.4233C256.859 31.1828 256.906 30.9396 256.958 30.6677C256.967 30.6219 256.976 30.5753 256.985 30.5278C257.425 31.1763 257.561 31.8667 257.574 32.6186L257.576 32.7555L257.713 32.7409C257.911 32.7195 258.024 32.6125 258.101 32.4985C258.131 32.4531 258.157 32.4041 258.18 32.3622C258.184 32.355 258.187 32.348 258.191 32.3413C258.218 32.2921 258.24 32.2543 258.264 32.2245L258.265 32.2243C258.394 32.0671 258.524 31.91 258.654 31.7528C259.31 30.9586 259.97 30.1605 260.571 29.3222C261.159 28.5049 261.498 27.9382 261.707 27.2482C261.899 26.6139 261.979 25.8814 262.05 24.7629C262.869 25.6393 263.265 26.6111 263.182 27.7769L263.182 27.7769C263.062 29.4501 262.265 30.8749 261.427 32.3106L261.427 32.3106C261.249 32.615 261.064 32.918 260.878 33.2224C260.312 34.1459 259.739 35.0819 259.357 36.1074C258.447 38.5434 260.088 40.9477 262.285 40.7539C262.285 40.7539 262.285 40.7539 262.285 40.7539L262.274 40.6292C263.577 40.5148 264.25 40.0119 264.211 38.641C264.161 36.8633 263.293 35.7603 261.58 35.4052L267.619 37.7256ZM256.884 30.3876C256.867 30.4774 256.85 30.5634 256.835 30.6466C256.783 30.9173 256.737 31.1573 256.683 31.3958C256.483 32.2872 256.107 33.11 255.73 33.933C255.571 34.2807 255.412 34.6285 255.266 34.9814C254.189 37.5868 254.385 40.0119 256.278 42.2012C257.23 43.3028 258.403 44.1466 259.585 44.9812L256.884 30.3876Z" fill="url(#paint27_linear_3572_15825)" stroke="url(#paint28_linear_3572_15825)" stroke-width="0.250304"/>
<path fill-rule="evenodd" clip-rule="evenodd" d="M267.648 17.9932L281.376 25.919C282.718 26.694 283.545 28.1263 283.545 29.6763V45.5278C283.545 47.0778 282.718 48.5101 281.376 49.2851L267.648 57.2109C266.306 57.9859 264.652 57.9859 263.31 57.2109L249.582 49.2851C248.24 48.5101 247.413 47.0778 247.413 45.5278V29.6763C247.413 28.1263 248.24 26.694 249.582 25.919L263.31 17.9932C264.652 17.2182 266.306 17.2182 267.648 17.9932ZM267.148 18.8603C266.115 18.2642 264.843 18.2642 263.81 18.8603L250.083 26.7861C249.05 27.3822 248.414 28.484 248.414 29.6763V45.5278C248.414 46.7201 249.05 47.8219 250.083 48.4181L263.81 56.3438C264.843 56.9399 266.115 56.9399 267.148 56.3438L280.876 48.418C281.908 47.8219 282.544 46.7201 282.544 45.5278V29.6763C282.544 28.484 281.908 27.3822 280.876 26.7861L267.148 18.8603Z" fill="url(#paint29_linear_3572_15825)"/>
</g>
<defs>
<linearGradient id="paint0_linear_3572_15825" x1="278.015" y1="25.6079" x2="278.015" y2="9.58848" gradientUnits="userSpaceOnUse">
<stop stop-color="#880007"/>
<stop offset="1" stop-color="#FFE6E9"/>
</linearGradient>
<linearGradient id="paint1_linear_3572_15825" x1="278.015" y1="31.9204" x2="278.015" y2="9.58848" gradientUnits="userSpaceOnUse">
<stop stop-color="#880007"/>
<stop offset="1" stop-color="#FCB8C0"/>
</linearGradient>
<linearGradient id="paint2_linear_3572_15825" x1="252.651" y1="25.6079" x2="252.651" y2="9.58848" gradientUnits="userSpaceOnUse">
<stop stop-color="#880007"/>
<stop offset="1" stop-color="#FFE6E9"/>
</linearGradient>
<linearGradient id="paint3_linear_3572_15825" x1="252.651" y1="31.9204" x2="252.651" y2="9.58848" gradientUnits="userSpaceOnUse">
<stop stop-color="#880007"/>
<stop offset="1" stop-color="#FCB8C0"/>
</linearGradient>
<linearGradient id="paint4_linear_3572_15825" x1="252.651" y1="27.4369" x2="252.651" y2="13.2606" gradientUnits="userSpaceOnUse">
<stop stop-color="#E8E6FF" stop-opacity="0"/>
<stop offset="1" stop-color="#E8E6FF"/>
</linearGradient>
<linearGradient id="paint5_linear_3572_15825" x1="278.05" y1="27.4369" x2="278.05" y2="13.2606" gradientUnits="userSpaceOnUse">
<stop stop-color="#E8E6FF" stop-opacity="0"/>
<stop offset="1" stop-color="#E8E6FF"/>
</linearGradient>
<linearGradient id="paint6_linear_3572_15825" x1="253.044" y1="43.6021" x2="253.044" y2="59.6215" gradientUnits="userSpaceOnUse">
<stop stop-color="#880007"/>
<stop offset="1" stop-color="#FCB8C0"/>
</linearGradient>
<linearGradient id="paint7_linear_3572_15825" x1="253.044" y1="37.2895" x2="253.044" y2="59.6215" gradientUnits="userSpaceOnUse">
<stop offset="0.583333" stop-color="#880007"/>
<stop offset="1" stop-color="#FCB8C0"/>
</linearGradient>
<linearGradient id="paint8_linear_3572_15825" x1="278.408" y1="43.6022" x2="278.408" y2="59.6216" gradientUnits="userSpaceOnUse">
<stop stop-color="#880007"/>
<stop offset="1" stop-color="#FCB8C0"/>
</linearGradient>
<linearGradient id="paint9_linear_3572_15825" x1="278.408" y1="37.2897" x2="278.408" y2="59.6216" gradientUnits="userSpaceOnUse">
<stop offset="0.583333" stop-color="#880007"/>
<stop offset="1" stop-color="#FCB8C0"/>
</linearGradient>
<linearGradient id="paint10_linear_3572_15825" x1="278.408" y1="41.7732" x2="278.408" y2="55.9495" gradientUnits="userSpaceOnUse">
<stop stop-color="#E8E6FF" stop-opacity="0"/>
<stop offset="1" stop-color="#E8E6FF"/>
</linearGradient>
<linearGradient id="paint11_linear_3572_15825" x1="253.009" y1="41.7732" x2="253.009" y2="55.9495" gradientUnits="userSpaceOnUse">
<stop stop-color="#E8E6FF" stop-opacity="0"/>
<stop offset="1" stop-color="#E8E6FF"/>
</linearGradient>
<linearGradient id="paint12_linear_3572_15825" x1="265.501" y1="69.4116" x2="265.501" y2="47.3015" gradientUnits="userSpaceOnUse">
<stop stop-color="#FCB8C0"/>
<stop offset="1" stop-color="#880007"/>
</linearGradient>
<linearGradient id="paint13_linear_3572_15825" x1="265.501" y1="69.4116" x2="265.501" y2="47.3015" gradientUnits="userSpaceOnUse">
<stop stop-color="#880007"/>
<stop offset="1" stop-color="#FCB8C0"/>
</linearGradient>
<linearGradient id="paint14_linear_3572_15825" x1="265.627" y1="65.6791" x2="265.627" y2="48.3026" gradientUnits="userSpaceOnUse">
<stop stop-color="#FCB8C0"/>
<stop offset="1" stop-color="#880007"/>
</linearGradient>
<linearGradient id="paint15_linear_3572_15825" x1="246.892" y1="41.6492" x2="240.146" y2="46.4597" gradientUnits="userSpaceOnUse">
<stop stop-color="#880007"/>
<stop offset="0.771271" stop-color="#F88A97"/>
</linearGradient>
<linearGradient id="paint16_linear_3572_15825" x1="246.171" y1="38.1212" x2="247.183" y2="50.7967" gradientUnits="userSpaceOnUse">
<stop stop-color="#880007"/>
<stop offset="1" stop-color="#FCB8C0"/>
</linearGradient>
<linearGradient id="paint17_linear_3572_15825" x1="233.716" y1="24.7006" x2="246.071" y2="33.9639" gradientUnits="userSpaceOnUse">
<stop stop-color="#FCB8C0"/>
<stop offset="1" stop-color="#880007"/>
</linearGradient>
<linearGradient id="paint18_linear_3572_15825" x1="247.821" y1="31.7812" x2="236.069" y2="22.7308" gradientUnits="userSpaceOnUse">
<stop stop-color="#880007"/>
<stop offset="1" stop-color="#FCB8C0"/>
</linearGradient>
<linearGradient id="paint19_linear_3572_15825" x1="241.762" y1="35.2052" x2="237.894" y2="26.1221" gradientUnits="userSpaceOnUse">
<stop stop-color="#E6F4FF" stop-opacity="0"/>
<stop offset="1" stop-color="white"/>
</linearGradient>
<linearGradient id="paint20_linear_3572_15825" x1="284.108" y1="41.6492" x2="290.854" y2="46.4597" gradientUnits="userSpaceOnUse">
<stop stop-color="#880007"/>
<stop offset="0.771271" stop-color="#F88A97"/>
</linearGradient>
<linearGradient id="paint21_linear_3572_15825" x1="284.829" y1="38.1212" x2="283.817" y2="50.7967" gradientUnits="userSpaceOnUse">
<stop stop-color="#880007"/>
<stop offset="1" stop-color="#FCB8C0"/>
</linearGradient>
<linearGradient id="paint22_linear_3572_15825" x1="297.284" y1="24.7006" x2="284.929" y2="33.9639" gradientUnits="userSpaceOnUse">
<stop stop-color="#FCB8C0"/>
<stop offset="1" stop-color="#880007"/>
</linearGradient>
<linearGradient id="paint23_linear_3572_15825" x1="283.179" y1="31.7812" x2="294.931" y2="22.7308" gradientUnits="userSpaceOnUse">
<stop stop-color="#880007"/>
<stop offset="1" stop-color="#FCB8C0"/>
</linearGradient>
<linearGradient id="paint24_linear_3572_15825" x1="289.238" y1="35.2052" x2="293.106" y2="26.1221" gradientUnits="userSpaceOnUse">
<stop stop-color="#E6F4FF" stop-opacity="0"/>
<stop offset="1" stop-color="white"/>
</linearGradient>
<linearGradient id="paint25_linear_3572_15825" x1="277.598" y1="57.8323" x2="253.106" y2="15.4005" gradientUnits="userSpaceOnUse">
<stop stop-color="#880007"/>
<stop offset="1" stop-color="#FCB8C0"/>
</linearGradient>
<linearGradient id="paint26_linear_3572_15825" x1="249.411" y1="23.562" x2="283.106" y2="63.3419" gradientUnits="userSpaceOnUse">
<stop stop-color="#FCB8C0"/>
<stop offset="1" stop-color="#880007"/>
</linearGradient>
<linearGradient id="paint27_linear_3572_15825" x1="265.125" y1="25.7214" x2="272.759" y2="56.5088" gradientUnits="userSpaceOnUse">
<stop stop-color="#FFE6E9"/>
<stop offset="1" stop-color="white" stop-opacity="0"/>
</linearGradient>
<linearGradient id="paint28_linear_3572_15825" x1="262.496" y1="37.3605" x2="255.488" y2="29.2257" gradientUnits="userSpaceOnUse">
<stop stop-color="white"/>
<stop offset="1" stop-color="#880007"/>
</linearGradient>
<linearGradient id="paint29_linear_3572_15825" x1="253.935" y1="19.6622" x2="276.711" y2="56.01" gradientUnits="userSpaceOnUse">
<stop stop-color="#880007"/>
<stop offset="1" stop-color="#FCB8C0"/>
</linearGradient>
<clipPath id="clip0_3572_15825">
<rect width="320" height="79" fill="white"/>
</clipPath>
</defs>
</svg>
