<svg width="280" height="234" viewBox="0 0 280 234" fill="none" xmlns="http://www.w3.org/2000/svg">
<g clip-path="url(#clip0_3572_15247)">
<g opacity="0.08">
<path d="M-6 195L140 49L286 195" stroke="white"/>
<path d="M-6 205.5L140 59.5L286 205.5" stroke="white"/>
<path d="M-6 216L140 70L286 216" stroke="white"/>
<path d="M-6 226.5L140 80.5L286 226.5" stroke="white"/>
<path d="M-6 237L140 91L286 237" stroke="white"/>
<path d="M-6 247.5L140 101.5L286 247.5" stroke="white"/>
<path d="M-6 258L140 112L286 258" stroke="white"/>
<path d="M-6 268.5L140 122.5L286 268.5" stroke="white"/>
<path d="M-6 279L140 133L286 279" stroke="white"/>
<path d="M-6 289.5L140 143.5L286 289.5" stroke="white"/>
<path d="M-6 300L140 154L286 300" stroke="white"/>
<path d="M-6 310.5L140 164.5L286 310.5" stroke="white"/>
<path d="M-6 321L140 175L286 321" stroke="white"/>
<path d="M-6 331.5L140 185.5L286 331.5" stroke="white"/>
<path d="M-6 342L140 196L286 342" stroke="white"/>
<path d="M-6 352.5L140 206.5L286 352.5" stroke="white"/>
<path d="M-6 363L140 217L286 363" stroke="white"/>
<path d="M-6 373.5L140 227.5L286 373.5" stroke="white"/>
</g>
<path fill-rule="evenodd" clip-rule="evenodd" d="M153.205 136.962C153.205 137.656 153.768 138.219 154.463 138.219L172.698 138.219C173.392 138.219 173.955 137.656 173.955 136.962L173.955 97.4043C173.955 96.4362 172.907 95.8311 172.069 96.3152L153.834 106.843C153.445 107.068 153.205 107.483 153.205 107.932L153.205 136.962Z" fill="url(#paint0_linear_3572_15247)"/>
<path fill-rule="evenodd" clip-rule="evenodd" d="M154.463 136.962L172.698 136.962L172.698 97.4043L154.463 107.932L154.463 136.962ZM154.463 138.219C153.768 138.219 153.205 137.656 153.205 136.962L153.205 107.932C153.205 107.483 153.445 107.068 153.834 106.843L172.069 96.3152C172.907 95.8311 173.955 96.4362 173.955 97.4043L173.955 136.962C173.955 137.656 173.392 138.219 172.698 138.219L154.463 138.219Z" fill="url(#paint1_linear_3572_15247)"/>
<path fill-rule="evenodd" clip-rule="evenodd" d="M126.167 136.962C126.167 137.656 125.604 138.219 124.91 138.219L106.675 138.219C105.981 138.219 105.417 137.656 105.417 136.962L105.417 97.4043C105.417 96.4362 106.465 95.8311 107.304 96.3152L125.539 106.843C125.928 107.068 126.167 107.483 126.167 107.932L126.167 136.962Z" fill="url(#paint2_linear_3572_15247)"/>
<path fill-rule="evenodd" clip-rule="evenodd" d="M124.91 136.962L106.675 136.962L106.675 97.4043L124.91 107.932L124.91 136.962ZM124.91 138.219C125.604 138.219 126.167 137.656 126.167 136.962L126.167 107.932C126.167 107.483 125.928 107.068 125.539 106.843L107.304 96.3152C106.465 95.8311 105.417 96.4362 105.417 97.4043L105.417 136.962C105.417 137.656 105.981 138.219 106.675 138.219L124.91 138.219Z" fill="url(#paint3_linear_3572_15247)"/>
<path fill-rule="evenodd" clip-rule="evenodd" d="M121.202 128.515L110.383 128.515L110.383 104.323L121.202 110.569L121.202 128.515ZM121.202 129.772C121.896 129.772 122.459 129.209 122.459 128.515L122.459 110.569C122.459 110.12 122.219 109.705 121.83 109.48L111.011 103.234C110.173 102.75 109.125 103.355 109.125 104.323L109.125 128.515C109.125 129.209 109.688 129.772 110.383 129.772L121.202 129.772Z" fill="url(#paint4_linear_3572_15247)"/>
<path fill-rule="evenodd" clip-rule="evenodd" d="M158.236 128.515L169.055 128.515L169.055 104.323L158.236 110.569L158.236 128.515ZM158.236 129.772C157.541 129.772 156.978 129.209 156.978 128.515L156.978 110.569C156.978 110.12 157.218 109.705 157.607 109.48L168.426 103.234C169.265 102.75 170.313 103.355 170.313 104.323L170.313 128.515C170.313 129.209 169.749 129.772 169.055 129.772L158.236 129.772Z" fill="url(#paint5_linear_3572_15247)"/>
<path fill-rule="evenodd" clip-rule="evenodd" d="M126.907 149.593C126.907 148.899 126.344 148.336 125.649 148.336L107.414 148.336C106.72 148.336 106.157 148.899 106.157 149.593L106.157 189.151C106.157 190.119 107.205 190.724 108.043 190.24L126.278 179.712C126.667 179.488 126.907 179.072 126.907 178.623L126.907 149.593Z" fill="url(#paint6_linear_3572_15247)"/>
<path fill-rule="evenodd" clip-rule="evenodd" d="M125.649 149.593L107.414 149.593L107.414 189.151L125.649 178.623L125.649 149.593ZM125.649 148.336C126.344 148.336 126.907 148.899 126.907 149.593L126.907 178.623C126.907 179.072 126.667 179.488 126.278 179.712L108.043 190.24C107.205 190.724 106.157 190.119 106.157 189.151L106.157 149.593C106.157 148.899 106.72 148.336 107.414 148.336L125.649 148.336Z" fill="url(#paint7_linear_3572_15247)"/>
<path fill-rule="evenodd" clip-rule="evenodd" d="M153.944 149.593C153.944 148.899 154.508 148.336 155.202 148.336L173.437 148.336C174.131 148.336 174.694 148.899 174.694 149.593L174.694 189.151C174.694 190.119 173.646 190.724 172.808 190.24L154.573 179.712C154.184 179.488 153.944 179.072 153.944 178.623L153.944 149.593Z" fill="url(#paint8_linear_3572_15247)"/>
<path fill-rule="evenodd" clip-rule="evenodd" d="M155.202 149.593L173.437 149.593L173.437 189.151L155.202 178.623L155.202 149.593ZM155.202 148.336C154.508 148.336 153.944 148.899 153.944 149.593L153.944 178.623C153.944 179.072 154.184 179.488 154.573 179.712L172.808 190.24C173.646 190.724 174.694 190.119 174.694 189.151L174.694 149.593C174.694 148.899 174.131 148.336 173.437 148.336L155.202 148.336Z" fill="url(#paint9_linear_3572_15247)"/>
<path fill-rule="evenodd" clip-rule="evenodd" d="M158.91 158.04L169.729 158.04L169.729 182.232L158.91 175.986L158.91 158.04ZM158.91 156.783C158.215 156.783 157.652 157.346 157.652 158.04L157.652 175.986C157.652 176.435 157.892 176.851 158.281 177.075L169.1 183.321C169.938 183.805 170.986 183.2 170.986 182.232L170.986 158.04C170.986 157.346 170.423 156.783 169.729 156.783L158.91 156.783Z" fill="url(#paint10_linear_3572_15247)"/>
<path fill-rule="evenodd" clip-rule="evenodd" d="M121.876 158.04H111.057V182.232L121.876 175.986L121.876 158.04ZM121.876 156.783C122.57 156.783 123.133 157.346 123.133 158.04V175.986C123.133 176.435 122.894 176.851 122.505 177.075L111.686 183.321C110.847 183.805 109.799 183.2 109.799 182.232V158.04C109.799 157.346 110.362 156.783 111.057 156.783H121.876Z" fill="url(#paint11_linear_3572_15247)"/>
<path fill-rule="evenodd" clip-rule="evenodd" d="M117.364 191.407C117.364 192 117.644 192.559 118.119 192.916L138.869 208.478C139.539 208.981 140.462 208.981 141.132 208.478L161.882 192.916C162.357 192.559 162.637 192 162.637 191.407L162.637 169.085C162.637 168.043 161.792 167.198 160.75 167.198L119.251 167.198C118.209 167.198 117.364 168.043 117.364 169.085L117.364 191.407Z" fill="url(#paint12_linear_3572_15247)"/>
<path fill-rule="evenodd" clip-rule="evenodd" d="M118.873 191.91L139.623 207.472C139.847 207.64 140.154 207.64 140.378 207.472L161.128 191.91C161.286 191.791 161.379 191.604 161.379 191.407L161.379 169.085C161.379 168.738 161.098 168.456 160.75 168.456L119.251 168.456C118.903 168.456 118.622 168.738 118.622 169.085L118.622 191.407C118.622 191.604 118.715 191.791 118.873 191.91ZM118.119 192.916C117.644 192.559 117.364 192 117.364 191.407L117.364 169.085C117.364 168.043 118.209 167.198 119.251 167.198L160.75 167.198C161.792 167.198 162.637 168.043 162.637 169.085L162.637 191.407C162.637 192 162.357 192.559 161.882 192.916L141.132 208.478C140.462 208.981 139.539 208.981 138.869 208.478L118.119 192.916Z" fill="url(#paint13_linear_3572_15247)"/>
<path fill-rule="evenodd" clip-rule="evenodd" d="M123.904 188.471L139.862 200.44C140.085 200.607 140.393 200.607 140.616 200.44L156.574 188.471C156.732 188.353 156.825 188.166 156.825 187.968L156.825 170.971C156.825 170.624 156.544 170.342 156.197 170.342L124.281 170.342C123.934 170.342 123.652 170.624 123.652 170.971L123.652 187.968C123.652 188.166 123.746 188.353 123.904 188.471ZM123.149 189.477C122.674 189.121 122.395 188.562 122.395 187.968L122.395 170.971C122.395 169.929 123.239 169.085 124.281 169.085L156.197 169.085C157.238 169.085 158.083 169.929 158.083 170.971L158.083 187.968C158.083 188.562 157.803 189.121 157.328 189.477L141.371 201.446C140.7 201.949 139.778 201.949 139.107 201.446L123.149 189.477Z" fill="url(#paint14_linear_3572_15247)"/>
<path fill-rule="evenodd" clip-rule="evenodd" d="M115.845 143.318C115.845 142.624 115.282 142.061 114.588 142.061H95.7795C95.085 142.061 94.522 142.624 94.522 143.318V164.531C94.522 164.978 94.7592 165.391 95.1452 165.617L113.953 176.604C114.792 177.094 115.845 176.49 115.845 175.519V143.318Z" fill="url(#paint15_linear_3572_15247)"/>
<path fill-rule="evenodd" clip-rule="evenodd" d="M114.588 143.318H95.7795L95.7795 164.531L114.588 175.519L114.588 143.318ZM114.588 142.061C115.282 142.061 115.845 142.624 115.845 143.318V175.519C115.845 176.49 114.792 177.094 113.953 176.604L95.1452 165.617C94.7592 165.391 94.522 164.978 94.522 164.531V143.318C94.522 142.624 95.085 142.061 95.7795 142.061H114.588Z" fill="url(#paint16_linear_3572_15247)"/>
<path fill-rule="evenodd" clip-rule="evenodd" d="M84.8677 121.302C84.0331 120.814 82.9925 121.417 82.9925 122.388L82.9925 139.993C82.9925 140.445 83.2323 140.864 83.6213 141.091L113.274 158.414C113.873 158.765 114.638 158.56 114.983 157.956L122.516 144.753C122.861 144.149 122.653 143.376 122.054 143.026L84.8677 121.302Z" fill="url(#paint17_linear_3572_15247)"/>
<path fill-rule="evenodd" clip-rule="evenodd" d="M84.2445 122.394L84.2445 139.999L113.897 157.322L121.43 144.118L84.2445 122.394ZM82.9925 122.388C82.9925 121.417 84.0331 120.814 84.8677 121.302L122.054 143.026C122.653 143.376 122.861 144.149 122.516 144.753L114.983 157.956C114.638 158.56 113.873 158.765 113.274 158.414L83.6213 141.091C83.2323 140.864 82.9925 140.445 82.9925 139.993L82.9925 122.388Z" fill="url(#paint18_linear_3572_15247)"/>
<path fill-rule="evenodd" clip-rule="evenodd" d="M88.1395 128.927L88.1395 137.942L104.659 147.593L108.517 140.831L88.1395 128.927ZM86.8876 128.92C86.8876 127.949 87.9281 127.347 88.7628 127.835L109.14 139.739C109.74 140.089 109.947 140.862 109.603 141.466L105.745 148.227C105.401 148.83 104.635 149.035 104.036 148.685L87.5163 139.034C87.1274 138.807 86.8876 138.388 86.8876 137.935L86.8876 128.92Z" fill="url(#paint19_linear_3572_15247)"/>
<path fill-rule="evenodd" clip-rule="evenodd" d="M164.155 143.318C164.155 142.624 164.718 142.061 165.412 142.061H184.22C184.915 142.061 185.478 142.624 185.478 143.318V164.531C185.478 164.978 185.241 165.391 184.855 165.617L166.047 176.604C165.208 177.094 164.155 176.49 164.155 175.519V143.318Z" fill="url(#paint20_linear_3572_15247)"/>
<path fill-rule="evenodd" clip-rule="evenodd" d="M165.412 143.318H184.22L184.22 164.531L165.412 175.519L165.412 143.318ZM165.412 142.061C164.718 142.061 164.155 142.624 164.155 143.318V175.519C164.155 176.49 165.208 177.094 166.047 176.604L184.855 165.617C185.241 165.391 185.478 164.978 185.478 164.531V143.318C185.478 142.624 184.915 142.061 184.22 142.061H165.412Z" fill="url(#paint21_linear_3572_15247)"/>
<path fill-rule="evenodd" clip-rule="evenodd" d="M195.132 121.302C195.967 120.814 197.007 121.417 197.007 122.388L197.007 139.993C197.007 140.445 196.768 140.864 196.379 141.091L166.726 158.414C166.127 158.765 165.362 158.56 165.017 157.956L157.484 144.753C157.139 144.149 157.347 143.376 157.946 143.026L195.132 121.302Z" fill="url(#paint22_linear_3572_15247)"/>
<path fill-rule="evenodd" clip-rule="evenodd" d="M195.756 122.394L195.756 139.999L166.103 157.322L158.57 144.118L195.756 122.394ZM197.007 122.388C197.007 121.417 195.967 120.814 195.132 121.302L157.946 143.026C157.347 143.376 157.139 144.149 157.484 144.753L165.017 157.956C165.362 158.56 166.127 158.765 166.726 158.414L196.379 141.091C196.768 140.864 197.007 140.445 197.007 139.993L197.007 122.388Z" fill="url(#paint23_linear_3572_15247)"/>
<path fill-rule="evenodd" clip-rule="evenodd" d="M191.86 128.927L191.86 137.942L175.341 147.593L171.483 140.831L191.86 128.927ZM193.112 128.92C193.112 127.949 192.072 127.347 191.237 127.835L170.86 139.739C170.26 140.089 170.053 140.862 170.397 141.466L174.255 148.227C174.599 148.83 175.365 149.035 175.964 148.685L192.484 139.034C192.873 138.807 193.112 138.388 193.112 137.935L193.112 128.92Z" fill="url(#paint24_linear_3572_15247)"/>
<path d="M136.724 103.62C138.669 102.497 141.066 102.497 143.012 103.62L177.449 123.503C179.395 124.626 180.593 126.702 180.593 128.948V168.714C180.593 170.96 179.395 173.036 177.449 174.159L143.012 194.042C141.066 195.165 138.669 195.165 136.724 194.042L102.286 174.159C100.341 173.036 99.1421 170.96 99.1421 168.714V128.948C99.1421 126.702 100.341 124.626 102.286 123.503L136.724 103.62Z" fill="url(#paint25_linear_3572_15247)"/>
<path d="M136.816 113.614C138.762 112.49 141.159 112.49 143.104 113.614L168.968 128.546C170.914 129.669 172.112 131.745 172.112 133.992V163.857C172.112 166.103 170.914 168.179 168.968 169.302L143.104 184.235C141.159 185.358 138.762 185.358 136.816 184.235L110.953 169.302C109.007 168.179 107.809 166.103 107.809 163.857V133.992C107.809 131.745 109.007 129.669 110.953 128.546L136.816 113.614Z" fill="url(#paint26_linear_3572_15247)"/>
<path d="M146.86 148.911C145.546 148.355 144.525 147.494 143.533 146.658C143.509 146.638 143.485 146.618 143.461 146.598L143.461 146.598C143.269 146.436 143.08 146.273 142.892 146.111C141.896 145.253 140.928 144.421 139.741 143.874L139.741 143.874C138.988 143.527 138.263 143.366 137.647 143.715M146.86 148.911L137.141 143.681C137.266 143.642 137.395 143.587 137.53 143.51L137.646 143.715C137.646 143.715 137.647 143.715 137.647 143.715M146.86 148.911C145.963 149.305 145.055 149.237 144.097 149.165C144.062 149.162 144.027 149.16 143.992 149.157C143.825 149.144 143.666 149.138 143.533 149.15C143.41 149.162 143.253 149.193 143.144 149.306C143.014 149.438 143.013 149.611 143.052 149.755C143.089 149.896 143.174 150.056 143.291 150.235L143.291 150.236C143.758 150.95 144.07 151.736 144.356 152.553C144.424 152.748 144.491 152.945 144.558 153.144C144.771 153.77 144.987 154.409 145.261 155.02L145.317 155.145L145.453 155.159C147.245 155.332 148.815 154.466 149.852 153.076C150.887 151.687 151.401 149.768 151.093 147.794L151.093 147.794C150.912 146.636 150.49 145.605 149.998 144.626C149.765 144.163 149.515 143.708 149.268 143.258L149.226 143.182C148.964 142.706 148.706 142.233 148.468 141.751L148.463 141.739L148.456 141.728C148.353 141.567 148.249 141.405 148.146 141.244C145.977 137.854 143.84 134.515 143.438 130.435C143.222 128.227 144.017 126.391 145.642 124.609C145.368 128.05 146.546 130.871 148.377 133.406C149.456 134.903 150.642 136.331 151.86 137.797C152.408 138.457 152.963 139.125 153.517 139.81L153.915 140.303L153.936 139.669C153.985 138.129 154.321 136.798 155.129 135.505C155.138 135.557 155.146 135.609 155.154 135.661C155.414 137.256 155.663 138.786 156.369 140.19C156.563 140.623 156.761 141.051 156.959 141.479C157.479 142.601 157.994 143.713 158.415 144.866L158.408 144.865L158.541 145.252C159.397 147.75 159.555 150.077 159.044 152.24C158.533 154.404 157.35 156.422 155.498 158.295C153.687 160.125 151.578 161.593 149.45 163.074C149.364 163.134 149.278 163.194 149.191 163.254C145.648 165.719 142.217 168.356 139.916 172.17L139.909 172.182L139.903 172.195C139.815 172.39 139.727 172.587 139.632 172.801C139.608 172.855 139.583 172.91 139.558 172.967C139.432 172.766 139.308 172.566 139.184 172.368C138.74 171.653 138.306 170.953 137.821 170.296L137.82 170.296C135.581 167.276 132.553 165.143 129.565 163.039C129.373 162.904 129.182 162.769 128.991 162.634C126.762 161.061 124.576 159.486 122.803 157.435C121.047 155.404 120.086 153.273 119.808 151.053C119.529 148.831 119.933 146.503 120.936 144.077L120.936 144.077C121.21 143.414 121.506 142.768 121.803 142.118C122.008 141.67 122.214 141.22 122.415 140.76C122.902 139.644 123.345 138.499 123.617 137.283C123.72 136.83 123.808 136.372 123.906 135.86C123.923 135.773 123.939 135.686 123.957 135.596C124.785 136.818 125.042 138.119 125.067 139.535L125.071 139.793L125.328 139.766C125.701 139.725 125.915 139.524 126.059 139.309C126.116 139.223 126.166 139.131 126.208 139.052C126.216 139.039 126.223 139.025 126.229 139.013C126.28 138.92 126.321 138.849 126.368 138.793L126.368 138.792C126.611 138.496 126.856 138.2 127.101 137.904C128.338 136.408 129.58 134.904 130.714 133.325C131.82 131.785 132.461 130.717 132.854 129.417C133.216 128.222 133.366 126.842 133.499 124.735C135.043 126.386 135.789 128.217 135.632 130.413L135.632 130.413C135.406 133.566 133.904 136.25 132.326 138.955L132.326 138.955C131.991 139.528 131.642 140.099 131.291 140.673C130.226 142.413 129.146 144.176 128.426 146.108C126.711 150.698 129.804 155.228 133.942 154.863C135.188 154.753 136.185 154.455 136.858 153.813C137.538 153.163 137.845 152.204 137.808 150.875C137.758 149.122 137.294 147.683 136.387 146.602C135.536 145.588 134.315 144.911 132.739 144.571M137.647 143.715C137.574 143.756 137.502 143.792 137.432 143.823L137.52 143.867C138.064 144.134 138.509 144.351 138.915 144.549C139.182 144.68 139.432 144.802 139.683 144.925L140.358 145.256L139.615 145.37C139.552 145.379 139.485 145.391 139.417 145.402C139.272 145.427 139.117 145.453 138.971 145.468C138.75 145.492 138.513 145.497 138.283 145.44C138.047 145.381 137.826 145.259 137.636 145.042C137.449 144.829 137.3 144.535 137.189 144.143L137.129 143.929M137.647 143.715L137.129 143.929M137.129 143.929C136.921 143.983 136.72 143.995 136.521 143.978C136.174 143.947 135.841 143.824 135.511 143.698M137.129 143.929L135.595 143.477M135.511 143.698L135.595 143.477M135.511 143.698C135.511 143.698 135.511 143.698 135.511 143.698L135.595 143.477M135.511 143.698C134.799 143.426 134.245 143.404 133.793 143.584C133.404 143.738 133.056 144.056 132.739 144.571M135.595 143.477C134.187 142.939 133.226 143.283 132.493 144.521C132.576 144.537 132.658 144.553 132.739 144.571M132.739 144.571C132.697 144.639 132.655 144.71 132.614 144.785C132.534 144.769 132.454 144.753 132.372 144.738" fill="url(#paint27_linear_3572_15247)" stroke="url(#paint28_linear_3572_15247)" stroke-width="0.471588"/>
<path fill-rule="evenodd" clip-rule="evenodd" d="M144.048 111.98L169.912 126.913C172.441 128.373 173.999 131.071 173.999 133.992V163.857C173.999 166.777 172.441 169.476 169.912 170.936L144.048 185.868C141.519 187.329 138.403 187.329 135.873 185.868L110.009 170.936C107.48 169.476 105.922 166.777 105.922 163.857V133.992C105.922 131.071 107.48 128.373 110.009 126.913L135.873 111.98C138.403 110.52 141.519 110.52 144.048 111.98ZM143.104 113.614C141.159 112.491 138.762 112.491 136.817 113.614L110.953 128.546C109.007 129.67 107.809 131.745 107.809 133.992V163.857C107.809 166.103 109.007 168.179 110.953 169.302L136.817 184.235C138.762 185.358 141.159 185.358 143.104 184.235L168.968 169.302C170.914 168.179 172.112 166.103 172.112 163.857V133.992C172.112 131.745 170.914 129.67 168.968 128.546L143.104 113.614Z" fill="url(#paint29_linear_3572_15247)"/>
</g>
<defs>
<linearGradient id="paint0_linear_3572_15247" x1="163.58" y1="126.326" x2="163.58" y2="96.1448" gradientUnits="userSpaceOnUse">
<stop stop-color="#880007"/>
<stop offset="1" stop-color="#FFE6E9"/>
</linearGradient>
<linearGradient id="paint1_linear_3572_15247" x1="163.58" y1="138.219" x2="163.58" y2="96.1448" gradientUnits="userSpaceOnUse">
<stop stop-color="#880007"/>
<stop offset="1" stop-color="#FCB8C0"/>
</linearGradient>
<linearGradient id="paint2_linear_3572_15247" x1="115.792" y1="126.326" x2="115.792" y2="96.1448" gradientUnits="userSpaceOnUse">
<stop stop-color="#880007"/>
<stop offset="1" stop-color="#FFE6E9"/>
</linearGradient>
<linearGradient id="paint3_linear_3572_15247" x1="115.792" y1="138.219" x2="115.792" y2="96.1448" gradientUnits="userSpaceOnUse">
<stop stop-color="#880007"/>
<stop offset="1" stop-color="#FCB8C0"/>
</linearGradient>
<linearGradient id="paint4_linear_3572_15247" x1="115.792" y1="129.772" x2="115.792" y2="103.063" gradientUnits="userSpaceOnUse">
<stop stop-color="#E8E6FF" stop-opacity="0"/>
<stop offset="1" stop-color="#E8E6FF"/>
</linearGradient>
<linearGradient id="paint5_linear_3572_15247" x1="163.645" y1="129.772" x2="163.645" y2="103.063" gradientUnits="userSpaceOnUse">
<stop stop-color="#E8E6FF" stop-opacity="0"/>
<stop offset="1" stop-color="#E8E6FF"/>
</linearGradient>
<linearGradient id="paint6_linear_3572_15247" x1="116.532" y1="160.229" x2="116.532" y2="190.41" gradientUnits="userSpaceOnUse">
<stop stop-color="#880007"/>
<stop offset="1" stop-color="#FCB8C0"/>
</linearGradient>
<linearGradient id="paint7_linear_3572_15247" x1="116.532" y1="148.336" x2="116.532" y2="190.41" gradientUnits="userSpaceOnUse">
<stop offset="0.583333" stop-color="#880007"/>
<stop offset="1" stop-color="#FCB8C0"/>
</linearGradient>
<linearGradient id="paint8_linear_3572_15247" x1="164.319" y1="160.229" x2="164.319" y2="190.41" gradientUnits="userSpaceOnUse">
<stop stop-color="#880007"/>
<stop offset="1" stop-color="#FCB8C0"/>
</linearGradient>
<linearGradient id="paint9_linear_3572_15247" x1="164.319" y1="148.336" x2="164.319" y2="190.41" gradientUnits="userSpaceOnUse">
<stop offset="0.583333" stop-color="#880007"/>
<stop offset="1" stop-color="#FCB8C0"/>
</linearGradient>
<linearGradient id="paint10_linear_3572_15247" x1="164.319" y1="156.783" x2="164.319" y2="183.492" gradientUnits="userSpaceOnUse">
<stop stop-color="#E8E6FF" stop-opacity="0"/>
<stop offset="1" stop-color="#E8E6FF"/>
</linearGradient>
<linearGradient id="paint11_linear_3572_15247" x1="116.466" y1="156.783" x2="116.466" y2="183.492" gradientUnits="userSpaceOnUse">
<stop stop-color="#E8E6FF" stop-opacity="0"/>
<stop offset="1" stop-color="#E8E6FF"/>
</linearGradient>
<linearGradient id="paint12_linear_3572_15247" x1="140.001" y1="208.855" x2="140.001" y2="167.198" gradientUnits="userSpaceOnUse">
<stop stop-color="#FCB8C0"/>
<stop offset="1" stop-color="#880007"/>
</linearGradient>
<linearGradient id="paint13_linear_3572_15247" x1="140.001" y1="208.855" x2="140.001" y2="167.198" gradientUnits="userSpaceOnUse">
<stop stop-color="#880007"/>
<stop offset="1" stop-color="#FCB8C0"/>
</linearGradient>
<linearGradient id="paint14_linear_3572_15247" x1="140.239" y1="201.823" x2="140.239" y2="169.085" gradientUnits="userSpaceOnUse">
<stop stop-color="#FCB8C0"/>
<stop offset="1" stop-color="#880007"/>
</linearGradient>
<linearGradient id="paint15_linear_3572_15247" x1="104.942" y1="156.549" x2="92.2318" y2="165.613" gradientUnits="userSpaceOnUse">
<stop stop-color="#880007"/>
<stop offset="0.771271" stop-color="#F88A97"/>
</linearGradient>
<linearGradient id="paint16_linear_3572_15247" x1="103.583" y1="149.902" x2="105.49" y2="173.784" gradientUnits="userSpaceOnUse">
<stop stop-color="#880007"/>
<stop offset="1" stop-color="#FCB8C0"/>
</linearGradient>
<linearGradient id="paint17_linear_3572_15247" x1="80.1179" y1="124.617" x2="103.394" y2="142.07" gradientUnits="userSpaceOnUse">
<stop stop-color="#FCB8C0"/>
<stop offset="1" stop-color="#880007"/>
</linearGradient>
<linearGradient id="paint18_linear_3572_15247" x1="106.691" y1="137.958" x2="84.55" y2="120.906" gradientUnits="userSpaceOnUse">
<stop stop-color="#880007"/>
<stop offset="1" stop-color="#FCB8C0"/>
</linearGradient>
<linearGradient id="paint19_linear_3572_15247" x1="95.2766" y1="144.409" x2="87.9892" y2="127.296" gradientUnits="userSpaceOnUse">
<stop stop-color="#E6F4FF" stop-opacity="0"/>
<stop offset="1" stop-color="white"/>
</linearGradient>
<linearGradient id="paint20_linear_3572_15247" x1="175.058" y1="156.549" x2="187.768" y2="165.613" gradientUnits="userSpaceOnUse">
<stop stop-color="#880007"/>
<stop offset="0.771271" stop-color="#F88A97"/>
</linearGradient>
<linearGradient id="paint21_linear_3572_15247" x1="176.417" y1="149.902" x2="174.51" y2="173.784" gradientUnits="userSpaceOnUse">
<stop stop-color="#880007"/>
<stop offset="1" stop-color="#FCB8C0"/>
</linearGradient>
<linearGradient id="paint22_linear_3572_15247" x1="199.882" y1="124.617" x2="176.606" y2="142.07" gradientUnits="userSpaceOnUse">
<stop stop-color="#FCB8C0"/>
<stop offset="1" stop-color="#880007"/>
</linearGradient>
<linearGradient id="paint23_linear_3572_15247" x1="173.309" y1="137.958" x2="195.45" y2="120.906" gradientUnits="userSpaceOnUse">
<stop stop-color="#880007"/>
<stop offset="1" stop-color="#FCB8C0"/>
</linearGradient>
<linearGradient id="paint24_linear_3572_15247" x1="184.723" y1="144.409" x2="192.011" y2="127.296" gradientUnits="userSpaceOnUse">
<stop stop-color="#E6F4FF" stop-opacity="0"/>
<stop offset="1" stop-color="white"/>
</linearGradient>
<linearGradient id="paint25_linear_3572_15247" x1="162.793" y1="187.039" x2="116.649" y2="107.095" gradientUnits="userSpaceOnUse">
<stop stop-color="#880007"/>
<stop offset="1" stop-color="#FCB8C0"/>
</linearGradient>
<linearGradient id="paint26_linear_3572_15247" x1="109.687" y1="122.472" x2="173.172" y2="197.42" gradientUnits="userSpaceOnUse">
<stop stop-color="#FCB8C0"/>
<stop offset="1" stop-color="#880007"/>
</linearGradient>
<linearGradient id="paint27_linear_3572_15247" x1="139.293" y1="126.541" x2="153.676" y2="184.546" gradientUnits="userSpaceOnUse">
<stop stop-color="#FFE6E9"/>
<stop offset="1" stop-color="white" stop-opacity="0"/>
</linearGradient>
<linearGradient id="paint28_linear_3572_15247" x1="134.341" y1="148.469" x2="121.136" y2="133.143" gradientUnits="userSpaceOnUse">
<stop stop-color="white"/>
<stop offset="1" stop-color="#880007"/>
</linearGradient>
<linearGradient id="paint29_linear_3572_15247" x1="118.211" y1="115.125" x2="161.122" y2="183.606" gradientUnits="userSpaceOnUse">
<stop stop-color="#880007"/>
<stop offset="1" stop-color="#FCB8C0"/>
</linearGradient>
<clipPath id="clip0_3572_15247">
<rect width="280" height="234" fill="white"/>
</clipPath>
</defs>
</svg>
