<svg width="20" height="21" viewBox="0 0 20 21" fill="none" xmlns="http://www.w3.org/2000/svg">
<g id="quora-21fec2d5835dca7a08e891597e96293ad1e89313d9c1fcc7bc78e4fb16ff4ee2.svg.gz">
<path id="Vector" d="M14.75 1.5918H5.25C3.04086 1.5918 1.25 3.38266 1.25 5.5918V15.0918C1.25 17.3009 3.04086 19.0918 5.25 19.0918H14.75C16.9591 19.0918 18.75 17.3009 18.75 15.0918V5.5918C18.75 3.38266 16.9591 1.5918 14.75 1.5918Z" fill="#B92B27"/>
<path id="Vector_2" d="M10.3963 13.8386C9.94915 12.9863 9.4232 12.1226 8.39887 12.1226C8.19618 12.1204 7.99513 12.158 7.80791 12.2332L7.45925 11.5582C7.88277 11.2055 8.56828 10.929 9.42911 10.929C10.7982 10.929 11.5014 11.5678 12.0608 12.3838C12.3918 11.6879 12.5494 10.7479 12.5494 9.58105C12.5494 6.6715 11.6097 5.19575 9.41335 5.19575C7.2465 5.19575 6.31476 6.69056 6.31476 9.58105C6.31476 12.4715 7.25044 13.953 9.41335 13.953C9.73142 13.9571 10.0485 13.9173 10.3549 13.8348L10.3963 13.8386ZM10.9321 14.8548C10.4503 14.9801 9.95364 15.0442 9.45472 15.0455C6.57281 15.0474 3.75 12.8204 3.75 9.58295C3.75 6.31686 6.57281 4.0918 9.45472 4.0918C12.3839 4.0918 15.1752 6.30351 15.1752 9.58295C15.1825 10.408 14.9914 11.2234 14.617 11.9646C14.2427 12.7058 13.6953 13.3526 13.0182 13.8538C13.4122 14.4525 13.8574 14.851 14.4503 14.851C15.0964 14.851 15.3564 14.3667 15.4017 13.9873H16.2448C16.2941 14.4926 16.0321 16.5918 13.6781 16.5918C12.2519 16.5918 11.4975 15.7929 10.9321 14.8548Z" fill="white"/>
</g>
</svg>
