<svg width="146" height="29" viewBox="0 0 146 29" fill="none" xmlns="http://www.w3.org/2000/svg">
<g id="razorpay_logo.svg" clip-path="url(#clip0_2807_1605)">
<path id="Vector" d="M39.0542 11.1656C39.5355 9.51006 39.3367 8.24332 38.4573 7.36545C37.5781 6.48757 36.0409 6.04569 33.8462 6.03979H25.4355L20.3652 23.506H24.4374L26.4879 16.4358H29.177C29.669 16.4132 30.1592 16.5054 30.6018 16.7039C30.7814 16.8071 30.9312 16.9485 31.0384 17.1163C31.1457 17.2839 31.2073 17.473 31.218 17.6673L31.9527 23.506H36.317L35.6046 18.0826C35.4634 16.8718 34.857 16.1589 33.8044 15.9439C35.0779 15.6213 36.24 15.0047 37.1803 14.1528C38.0887 13.3317 38.7366 12.2991 39.0542 11.1656ZM35.1554 11.2275C34.9798 11.9436 34.5021 12.5665 33.8268 12.9597C33.185 13.3309 32.2481 13.5135 31.0574 13.5135H27.2774L28.6058 8.95034H32.3893C33.5765 8.95034 34.3917 9.13594 34.8409 9.50416C35.2901 9.87241 35.3864 10.4557 35.1554 11.2275Z" fill="#0C2651"/>
<path id="Vector_2" d="M50.8113 11.0213L50.2945 12.7888C50.0792 12.1571 49.6237 11.6176 49.0109 11.2688C48.2963 10.875 47.4724 10.6805 46.6396 10.709C45.4712 10.7093 44.3229 10.9896 43.3087 11.5221C42.2047 12.1033 41.2512 12.8973 40.5137 13.8494C39.7008 14.8787 39.1055 16.0388 38.7583 17.2695C38.3942 18.3649 38.3172 19.5236 38.5336 20.6514C38.6989 21.5422 39.2181 22.3451 39.9906 22.905C40.8302 23.4562 41.8475 23.7322 42.8787 23.6887C43.7995 23.6906 44.7098 23.5096 45.5473 23.1583C46.3848 22.8068 47.1295 22.2934 47.7306 21.653L47.1979 23.4972H51.1674L54.7871 11.0213H50.8113ZM49.0078 17.2078C48.7623 18.2235 48.2159 19.1574 47.4289 19.9062C47.0901 20.2107 46.6885 20.4503 46.2479 20.6112C45.8071 20.7719 45.336 20.8508 44.8618 20.8429C43.851 20.8429 43.1706 20.5483 42.8048 19.9208C42.4391 19.2934 42.4293 18.4185 42.7632 17.2695C43.017 16.2446 43.5719 15.3032 44.3676 14.5475C44.7076 14.2338 45.1123 13.9855 45.5581 13.8171C46.0038 13.6486 46.4816 13.5635 46.9637 13.5666C47.952 13.5666 48.6259 13.8818 48.9724 14.5092C49.3191 15.1367 49.3544 16.0234 49.0142 17.2048L49.0078 17.2078Z" fill="#0C2651"/>
<path id="Vector_3" d="M68.9487 11.0302H57.5152L56.6713 13.9407H63.3266L54.5757 20.949L53.8281 23.5208H65.6371L66.481 20.6102H59.3411L68.2364 13.5017L68.9487 11.0302Z" fill="#0C2651"/>
<path id="Vector_4" d="M81.4535 11.4868C80.3917 10.9298 79.1807 10.6582 77.9589 10.7032C76.5807 10.6922 75.2168 10.9597 73.9638 11.4868C72.7451 12.0085 71.6742 12.7818 70.8351 13.7463C69.9584 14.758 69.3253 15.9286 68.9771 17.1812C68.6025 18.2951 68.5561 19.4803 68.8422 20.616C69.1049 21.5589 69.7575 22.3705 70.6617 22.8785C71.5817 23.399 72.7583 23.6592 74.1916 23.6592C75.5551 23.6702 76.9042 23.4036 78.1419 22.8785C79.3568 22.3567 80.4225 21.5821 81.2545 20.616C82.1329 19.605 82.7672 18.4342 83.1158 17.1812C83.491 16.0672 83.5364 14.8817 83.2474 13.7463C82.9946 12.8066 82.3505 11.9953 81.4535 11.4868ZM79.1366 17.1752C78.7805 18.4007 78.2574 19.3198 77.5513 19.9268C76.8701 20.5225 75.9603 20.8476 75.0195 20.8311C72.9445 20.8311 72.2608 19.6125 72.9689 17.1752C73.3177 15.9655 73.8526 15.0533 74.5735 14.4386C75.2635 13.8327 76.186 13.5013 77.1406 13.5165C78.129 13.5165 78.8029 13.8111 79.1494 14.4386C79.4961 15.066 79.4863 15.9645 79.1366 17.1752Z" fill="#0C2651"/>
<path id="Vector_5" d="M124.68 11.0214L124.163 12.789C123.948 12.1573 123.492 11.6177 122.879 11.2689C122.166 10.8716 121.342 10.674 120.508 10.7003C119.338 10.7027 118.188 10.986 117.174 11.5222C116.069 12.1033 115.114 12.8973 114.376 13.8495C113.564 14.8795 112.969 16.0394 112.62 17.2696C112.259 18.3655 112.182 19.5236 112.396 20.6515C112.561 21.5423 113.08 22.3452 113.853 22.9052C114.703 23.4609 115.733 23.7369 116.776 23.6888C117.676 23.6857 118.565 23.5069 119.385 23.1644C120.23 22.8161 120.981 22.3 121.583 21.6531L121.05 23.4973H125.02L128.643 11.0214H124.68ZM122.867 17.2079C122.622 18.2233 122.077 19.1572 121.291 19.9063C120.951 20.2099 120.55 20.4488 120.109 20.6097C119.669 20.7704 119.198 20.8498 118.724 20.843C117.71 20.843 117.029 20.5484 116.664 19.9209C116.298 19.2936 116.291 18.4186 116.622 17.2696C116.877 16.2453 117.432 15.3041 118.226 14.5477C118.567 14.2341 118.973 13.9859 119.419 13.8175C119.865 13.6491 120.343 13.5638 120.826 13.5667C121.814 13.5667 122.484 13.8809 122.835 14.5094C123.207 15.1192 123.216 16.0236 122.867 17.2049V17.2079Z" fill="#0C2651"/>
<path id="Vector_6" d="M95.5831 14.3797L96.5972 10.9831C96.1696 10.8054 95.7026 10.7217 95.2334 10.7386C94.3162 10.7395 93.4145 10.9566 92.6149 11.369C91.8856 11.7358 91.2526 12.2446 90.7602 12.8596L91.2831 11.0302H87.3169L83.665 23.506H87.6891L89.5793 16.9927C89.8007 16.1236 90.319 15.3422 91.0586 14.7627C91.819 14.2174 92.764 13.9348 93.7284 13.9644C94.3744 13.9619 95.0111 14.1045 95.5831 14.3797Z" fill="#0C2651"/>
<path id="Vector_7" d="M109.606 11.5487C108.785 10.9726 107.769 10.6796 106.737 10.7209C105.732 10.7219 104.742 10.942 103.849 11.3631C102.953 11.7673 102.181 12.3696 101.603 13.1159L101.619 13.0304L102.296 11.0302H98.3487L97.341 14.4975C97.341 14.5358 97.3186 14.577 97.309 14.6153L93.1694 28.9029H97.2126L99.3017 21.7032C99.5014 22.3384 99.9615 22.8779 100.585 23.2085C101.309 23.5903 102.135 23.7782 102.97 23.7505C104.142 23.7535 105.296 23.4861 106.326 22.9728C107.423 22.418 108.369 21.6438 109.095 20.7074C109.894 19.6833 110.479 18.5313 110.819 17.3109C111.185 16.1991 111.269 15.0249 111.063 13.8789C110.894 12.968 110.377 12.142 109.606 11.5487ZM106.747 17.2519C106.5 18.2517 105.957 19.1692 105.177 19.9033C104.487 20.5089 103.565 20.8393 102.61 20.8224C101.615 20.8224 100.941 20.507 100.585 19.8855C100.229 19.264 100.21 18.3684 100.56 17.1871C100.81 16.1634 101.365 15.2239 102.164 14.4739C102.503 14.1696 102.905 13.9298 103.345 13.768C103.786 13.6063 104.257 13.5258 104.731 13.5312C105.694 13.5312 106.365 13.8612 106.714 14.5122C107.064 15.1633 107.087 16.0853 106.747 17.2519Z" fill="#0C2651"/>
<path id="Vector_8" d="M145.521 10.6147H141.349L140.707 11.8461C140.656 11.908 140.608 11.9699 140.55 12.0465L140.483 12.1466L135.348 18.7395L134.283 11.0301H130.073L132.213 22.8549L127.48 28.9029H131.533L132.704 27.368C132.739 27.3209 132.775 27.2825 132.807 27.2326L134.177 25.4385L134.222 25.3914L140.341 17.3755L145.521 10.6147Z" fill="#0C2651"/>
<path id="Vector_9" d="M10.0578 8.03419L8.83838 12.1113L15.7184 8.01356L11.2259 23.506H15.7858L22.4251 0.622314L10.0578 8.03419Z" fill="#3395FF"/>
<path id="Vector_10" d="M2.64474 16.9896L0.751465 23.5059H10.1056L13.9339 10.2494L2.64474 16.9896Z" fill="#0C2651"/>
</g>
<defs>
<clipPath id="clip0_2807_1605">
<rect width="144.938" height="28.2806" fill="white" transform="translate(0.751465 0.622314)"/>
</clipPath>
</defs>
</svg>
