<svg width="150" height="93" viewBox="0 0 150 93" fill="none" xmlns="http://www.w3.org/2000/svg">
<path id="&#226;&#128;&#156;" d="M105.646 115.47L106.417 115.288C117.94 112.585 127.029 107.533 133.743 100.169L133.759 100.151C140.226 93.3802 144.523 85.2143 146.649 75.6289L115.955 75.6289L115.955 1.6709L186 1.6709L186 46.874C186 74.7856 179.432 97.628 166.212 115.318L166.21 115.321L165.569 116.162C152.016 133.732 132.413 145.213 106.854 150.649L105.646 150.906L105.646 115.47ZM0.999997 115.47L1.77148 115.288C13.2948 112.585 22.3831 107.533 29.0977 100.169L29.1133 100.151C35.5809 93.3802 39.8788 85.2144 42.0049 75.6289L11.3096 75.6289L11.3096 1.67091L81.8701 1.67091L81.8701 46.874C81.8701 74.7855 75.3026 97.628 62.083 115.318L62.0811 115.321L61.4395 116.162C47.8782 133.735 28.1004 145.214 2.20508 150.649L1 150.902L0.999997 115.47Z" stroke="#393939" stroke-width="2"/>
</svg>
