<svg width="20" height="20" viewBox="0 0 20 20" fill="none" xmlns="http://www.w3.org/2000/svg">
<g id="rocket-launch">
<g id="Vector">
<path d="M7.54639 13.8281C7.46897 13.8012 7.38696 13.79 7.30516 13.7951C7.22336 13.8002 7.1434 13.8216 7.06995 13.858C6.9965 13.8943 6.93102 13.945 6.87734 14.0069C6.82367 14.0688 6.78287 14.1409 6.75732 14.2187C6.2417 15.7578 4.57764 16.2344 3.6167 16.3828C3.76514 15.4219 4.2417 13.7578 5.78076 13.2422C5.86503 13.2218 5.94414 13.184 6.01304 13.1314C6.08194 13.0787 6.13914 13.0123 6.18099 12.9364C6.22285 12.8605 6.24844 12.7766 6.25615 12.6903C6.26385 12.6039 6.2535 12.5169 6.22576 12.4347C6.19801 12.3526 6.15347 12.2771 6.09498 12.2131C6.03648 12.1491 5.96531 12.098 5.88598 12.063C5.80666 12.0279 5.72091 12.0098 5.6342 12.0097C5.54749 12.0097 5.46172 12.0276 5.38232 12.0625C4.10107 12.4844 3.16357 13.5 2.66357 14.9922C2.44203 15.6634 2.32093 16.3637 2.3042 17.0703C2.3042 17.2361 2.37005 17.395 2.48726 17.5122C2.60447 17.6294 2.76344 17.6953 2.9292 17.6953C3.63583 17.6786 4.33611 17.5575 5.00732 17.3359C6.49951 16.8359 7.51514 15.8984 7.93701 14.6172C7.96392 14.5397 7.97514 14.4577 7.97001 14.3759C7.96488 14.2941 7.94351 14.2142 7.90715 14.1407C7.87079 14.0673 7.82016 14.0018 7.75822 13.9481C7.69628 13.8945 7.62427 13.8536 7.54639 13.8281Z" fill="#212121"/>
<path d="M17.7803 3.26558C17.7437 3.00086 17.6216 2.75535 17.4326 2.56638C17.2437 2.37741 16.9981 2.25533 16.7334 2.2187C15.8506 2.08589 13.5616 2.02339 11.3272 4.25776L10.6241 4.95308H5.83499C5.50403 4.95533 5.18712 5.08715 4.95218 5.32026L2.42874 7.85151C2.26873 8.01065 2.15509 8.21037 2.10004 8.42922C2.04498 8.64808 2.05058 8.87779 2.11624 9.0937C2.18139 9.31117 2.30453 9.5068 2.47245 9.65958C2.64037 9.81236 2.84672 9.91652 3.06937 9.96089L6.1553 10.5781L9.42093 13.8437L10.0381 16.9296C10.0825 17.1523 10.1867 17.3586 10.3394 17.5266C10.4922 17.6945 10.6878 17.8176 10.9053 17.8828C11.0214 17.92 11.1427 17.9384 11.2647 17.9375C11.429 17.9389 11.5919 17.9071 11.7436 17.844C11.8953 17.7809 12.0327 17.6878 12.1475 17.5703L14.6787 15.0468C14.9119 14.8119 15.0437 14.495 15.0459 14.164V9.37495L15.7412 8.67183C17.9756 6.43745 17.9131 4.14839 17.7803 3.26558ZM5.83499 6.20308H9.37405L6.25687 9.32026L3.31155 8.73433L5.83499 6.20308ZM13.7959 14.164L11.2647 16.6875L10.6787 13.7421L13.7959 10.625V14.164Z" fill="#212121"/>
</g>
</g>
</svg>
