<svg width="25" height="24" viewBox="0 0 25 24" fill="none" xmlns="http://www.w3.org/2000/svg">
<g id="scroll">
<path id="Vector" d="M21.4762 16.0031C21.4076 15.9237 21.3227 15.86 21.2273 15.8163C21.1318 15.7726 21.0281 15.75 20.9231 15.75H19.995V6C19.9925 5.20511 19.6757 4.44349 19.1136 3.88141C18.5515 3.31934 17.7899 3.00247 16.995 3H4.24499C3.45011 3.00247 2.68848 3.31934 2.12641 3.88141C1.56433 4.44349 1.24747 5.20511 1.245 6C1.24261 6.73832 1.51688 7.45075 2.01375 7.99688C2.07813 8.07051 2.15647 8.13066 2.24423 8.17385C2.332 8.21704 2.42744 8.24242 2.52507 8.24852C2.62269 8.25462 2.72056 8.24132 2.81301 8.20939C2.90547 8.17747 2.99069 8.12754 3.06375 8.0625C3.13767 7.99729 3.19802 7.91814 3.24134 7.82959C3.28465 7.74103 3.31008 7.64481 3.31618 7.54642C3.32227 7.44803 3.30891 7.3494 3.27686 7.25618C3.2448 7.16295 3.19469 7.07696 3.12937 7.00312C2.96675 6.82219 2.85058 6.60441 2.79087 6.36857C2.73116 6.13273 2.72972 5.88591 2.78665 5.64939C2.84359 5.41286 2.9572 5.19374 3.11769 5.01091C3.27817 4.82807 3.48073 4.68702 3.70787 4.5999C3.93502 4.51279 4.17995 4.48223 4.42153 4.51086C4.66312 4.5395 4.89412 4.62646 5.09461 4.76426C5.2951 4.90205 5.45907 5.08654 5.57238 5.30183C5.68568 5.51711 5.74492 5.75672 5.74499 6V18C5.74747 18.7949 6.06433 19.5565 6.62641 20.1186C7.18848 20.6807 7.95011 20.9975 8.745 21H19.245C20.0399 20.9975 20.8015 20.6807 21.3636 20.1186C21.9257 19.5565 22.2425 18.7949 22.245 18C22.2474 17.2617 21.9731 16.5492 21.4762 16.0031ZM10.245 9H16.245C16.4439 9 16.6347 9.07902 16.7753 9.21967C16.916 9.36032 16.995 9.55109 16.995 9.75C16.995 9.94891 16.916 10.1397 16.7753 10.2803C16.6347 10.421 16.4439 10.5 16.245 10.5H10.245C10.0461 10.5 9.85532 10.421 9.71467 10.2803C9.57401 10.1397 9.495 9.94891 9.495 9.75C9.495 9.55109 9.57401 9.36032 9.71467 9.21967C9.85532 9.07902 10.0461 9 10.245 9ZM9.495 12.75C9.495 12.5511 9.57401 12.3603 9.71467 12.2197C9.85532 12.079 10.0461 12 10.245 12H16.245C16.4439 12 16.6347 12.079 16.7753 12.2197C16.916 12.3603 16.995 12.5511 16.995 12.75C16.995 12.9489 16.916 13.1397 16.7753 13.2803C16.6347 13.421 16.4439 13.5 16.245 13.5H10.245C10.0461 13.5 9.85532 13.421 9.71467 13.2803C9.57401 13.1397 9.495 12.9489 9.495 12.75ZM19.245 19.5H11.3419C11.6048 19.0437 11.7438 18.5266 11.745 18C11.7467 17.747 11.7152 17.4948 11.6512 17.25H20.5481C20.677 17.4788 20.7439 17.7372 20.7423 17.9998C20.7407 18.2623 20.6707 18.5199 20.5391 18.7471C20.4075 18.9743 20.2189 19.1633 19.992 19.2953C19.765 19.4274 19.5075 19.4979 19.245 19.5Z" fill="white"/>
</g>
</svg>
