<svg width="37" height="37" viewBox="0 0 37 37" fill="none" xmlns="http://www.w3.org/2000/svg">
<g id="SealCheck">
<path id="Vector" d="M32.4281 15.1002C31.8979 14.5461 31.3495 13.9752 31.1428 13.4731C30.9515 13.0133 30.9403 12.2511 30.929 11.5128C30.9079 10.1403 30.8854 8.58502 29.804 7.50361C28.7226 6.42221 27.1673 6.39971 25.7948 6.37861C25.0565 6.36736 24.2943 6.35611 23.8345 6.16486C23.3338 5.95814 22.7615 5.40971 22.2074 4.87955C21.2371 3.94721 20.1346 2.89111 18.6665 2.89111C17.1984 2.89111 16.0973 3.94721 15.1256 4.87955C14.5715 5.40971 14.0006 5.95814 13.4985 6.16486C13.0415 6.35611 12.2765 6.36736 11.5382 6.37861C10.1657 6.39971 8.61041 6.42221 7.529 7.50361C6.4476 8.58502 6.43213 10.1403 6.404 11.5128C6.39275 12.2511 6.3815 13.0133 6.19025 13.4731C5.98354 13.9738 5.4351 14.5461 4.90494 15.1002C3.9726 16.0705 2.9165 17.173 2.9165 18.6411C2.9165 20.1092 3.9726 21.2103 4.90494 22.182C5.4351 22.7361 5.98354 23.3071 6.19025 23.8091C6.3815 24.2689 6.39275 25.0311 6.404 25.7694C6.4251 27.1419 6.4476 28.6972 7.529 29.7786C8.61041 30.86 10.1657 30.8825 11.5382 30.9036C12.2765 30.9149 13.0387 30.9261 13.4985 31.1174C13.9992 31.3241 14.5715 31.8725 15.1256 32.4027C16.0959 33.335 17.1984 34.3911 18.6665 34.3911C20.1346 34.3911 21.2357 33.335 22.2074 32.4027C22.7615 31.8725 23.3324 31.3241 23.8345 31.1174C24.2943 30.9261 25.0565 30.9149 25.7948 30.9036C27.1673 30.8825 28.7226 30.86 29.804 29.7786C30.8854 28.6972 30.9079 27.1419 30.929 25.7694C30.9403 25.0311 30.9515 24.2689 31.1428 23.8091C31.3495 23.3085 31.8979 22.7361 32.4281 22.182C33.3604 21.2117 34.4165 20.1092 34.4165 18.6411C34.4165 17.173 33.3604 16.0719 32.4281 15.1002ZM30.8038 20.6253C30.1303 21.3285 29.4328 22.0555 29.0629 22.9485C28.7085 23.8063 28.6931 24.7864 28.679 25.7356C28.6649 26.72 28.6495 27.7508 28.2121 28.1867C27.7748 28.6227 26.751 28.6396 25.761 28.6536C24.8118 28.6677 23.8317 28.6831 22.9738 29.0375C22.0809 29.4074 21.3538 30.1049 20.6507 30.7785C19.9476 31.4521 19.229 32.1411 18.6665 32.1411C18.104 32.1411 17.3798 31.4492 16.6823 30.7785C15.9848 30.1077 15.2521 29.4074 14.3592 29.0375C13.5013 28.6831 12.5212 28.6677 11.572 28.6536C10.5876 28.6396 9.55682 28.6241 9.12088 28.1867C8.68494 27.7494 8.66807 26.7256 8.654 25.7356C8.63994 24.7864 8.62447 23.8063 8.2701 22.9485C7.90025 22.0555 7.20275 21.3285 6.52916 20.6253C5.85557 19.9222 5.1665 19.2036 5.1665 18.6411C5.1665 18.0786 5.85838 17.3544 6.52916 16.6569C7.19994 15.9594 7.90025 15.2267 8.2701 14.3338C8.62447 13.476 8.63994 12.4958 8.654 11.5466C8.66807 10.5622 8.68354 9.53143 9.12088 9.09549C9.55822 8.65955 10.582 8.64268 11.572 8.62861C12.5212 8.61455 13.5013 8.59908 14.3592 8.24471C15.2521 7.87486 15.9792 7.17736 16.6823 6.50377C17.3854 5.83018 18.104 5.14111 18.6665 5.14111C19.229 5.14111 19.9532 5.83299 20.6507 6.50377C21.3482 7.17455 22.0809 7.87486 22.9738 8.24471C23.8317 8.59908 24.8118 8.61455 25.761 8.62861C26.7454 8.64268 27.7762 8.65814 28.2121 9.09549C28.6481 9.53283 28.6649 10.5566 28.679 11.5466C28.6931 12.4958 28.7085 13.476 29.0629 14.3338C29.4328 15.2267 30.1303 15.9538 30.8038 16.6569C31.4774 17.36 32.1665 18.0786 32.1665 18.6411C32.1665 19.2036 31.4746 19.9278 30.8038 20.6253ZM25.0874 14.4702C25.192 14.5747 25.275 14.6987 25.3316 14.8353C25.3882 14.9719 25.4174 15.1183 25.4174 15.2661C25.4174 15.414 25.3882 15.5603 25.3316 15.6969C25.275 15.8335 25.192 15.9576 25.0874 16.0621L17.2124 23.9371C17.108 24.0416 16.9839 24.1246 16.8473 24.1812C16.7107 24.2379 16.5643 24.267 16.4165 24.267C16.2687 24.267 16.1223 24.2379 15.9857 24.1812C15.8491 24.1246 15.725 24.0416 15.6206 23.9371L12.2456 20.5621C12.0345 20.351 11.9159 20.0646 11.9159 19.7661C11.9159 19.4676 12.0345 19.1813 12.2456 18.9702C12.4567 18.7591 12.743 18.6405 13.0415 18.6405C13.34 18.6405 13.6263 18.7591 13.8374 18.9702L16.4165 21.5506L23.4956 14.4702C23.6 14.3656 23.7241 14.2826 23.8607 14.226C23.9973 14.1694 24.1437 14.1402 24.2915 14.1402C24.4393 14.1402 24.5857 14.1694 24.7223 14.226C24.8589 14.2826 24.983 14.3656 25.0874 14.4702Z" fill="white"/>
</g>
</svg>
