<svg width="21" height="20" viewBox="0 0 21 20" fill="none" xmlns="http://www.w3.org/2000/svg">
<g id="ShootingStar">
<path id="Vector" d="M18.8785 6.5922L16.6863 8.4422L17.355 11.207C17.4035 11.4072 17.3917 11.6173 17.3209 11.8107C17.2501 12.0041 17.1236 12.1722 16.9574 12.2938C16.7892 12.4174 16.5881 12.4885 16.3796 12.498C16.1711 12.5076 15.9644 12.4553 15.7855 12.3477L13.3128 10.8594L10.8402 12.3485C10.6614 12.4564 10.4547 12.5089 10.2461 12.4993C10.0375 12.4897 9.83641 12.4184 9.66832 12.2945C9.50177 12.1732 9.375 12.0052 9.30407 11.8117C9.23314 11.6182 9.22124 11.4081 9.26988 11.2078L9.93863 8.44298L7.74722 6.5922C7.58852 6.45806 7.47337 6.27969 7.41645 6.07984C7.35952 5.87999 7.36341 5.66771 7.42761 5.47008C7.49181 5.27245 7.61342 5.09841 7.77692 4.97017C7.94043 4.84193 8.13842 4.76528 8.34566 4.75001L11.2316 4.52189L12.3418 1.8922C12.4228 1.70177 12.5581 1.53938 12.7308 1.42524C12.9035 1.3111 13.1059 1.25024 13.3128 1.25024C13.5198 1.25024 13.7222 1.3111 13.8949 1.42524C14.0676 1.53938 14.2029 1.70177 14.2839 1.8922L15.3941 4.52189L18.28 4.75001C18.4873 4.76528 18.6853 4.84193 18.8488 4.97017C19.0123 5.09841 19.1339 5.27245 19.1981 5.47008C19.2623 5.66771 19.2662 5.87999 19.2092 6.07984C19.1523 6.27969 19.0372 6.45806 18.8785 6.5922ZM7.38394 8.74142C7.3259 8.68331 7.25697 8.63721 7.18109 8.60576C7.10522 8.57431 7.02389 8.55812 6.94175 8.55812C6.85962 8.55812 6.77829 8.57431 6.70242 8.60576C6.62654 8.63721 6.55761 8.68331 6.49957 8.74142L1.93316 13.3078C1.81588 13.4251 1.75 13.5842 1.75 13.75C1.75 13.9159 1.81588 14.0749 1.93316 14.1922C2.05044 14.3095 2.2095 14.3754 2.37535 14.3754C2.5412 14.3754 2.70026 14.3095 2.81754 14.1922L7.38394 9.6258C7.44205 9.56775 7.48815 9.49882 7.5196 9.42295C7.55106 9.34707 7.56725 9.26574 7.56725 9.18361C7.56725 9.10147 7.55106 9.02014 7.5196 8.94427C7.48815 8.8684 7.44205 8.79947 7.38394 8.74142ZM7.34488 13.5219L3.18316 17.6828C3.12509 17.7409 3.07903 17.8098 3.0476 17.8857C3.01618 17.9616 3 18.0429 3 18.125C3 18.2071 3.01618 18.2885 3.0476 18.3643C3.07903 18.4402 3.12509 18.5091 3.18316 18.5672C3.30044 18.6845 3.4595 18.7504 3.62535 18.7504C3.70747 18.7504 3.78879 18.7342 3.86466 18.7028C3.94053 18.6713 4.00947 18.6253 4.06753 18.5672L8.22847 14.4055C8.34073 14.2873 8.4024 14.13 8.40031 13.967C8.39822 13.804 8.33255 13.6483 8.2173 13.5331C8.10205 13.4178 7.94634 13.3521 7.78336 13.3501C7.62039 13.348 7.46304 13.4096 7.34488 13.5219ZM13.048 13.4438L8.8066 17.6844C8.74853 17.7425 8.70247 17.8114 8.67104 17.8873C8.63961 17.9631 8.62344 18.0445 8.62344 18.1266C8.62344 18.2087 8.63961 18.29 8.67104 18.3659C8.70247 18.4418 8.74853 18.5107 8.8066 18.5688C8.92387 18.686 9.08293 18.7519 9.24879 18.7519C9.33091 18.7519 9.41222 18.7357 9.48809 18.7043C9.56397 18.6729 9.6329 18.6268 9.69097 18.5688L13.9316 14.3281C14.0489 14.211 14.1148 14.052 14.1149 13.8862C14.1149 13.7204 14.0492 13.5614 13.932 13.4442C13.8148 13.3269 13.6559 13.261 13.4901 13.2609C13.3243 13.2608 13.1653 13.3266 13.048 13.4438Z" fill="black"/>
</g>
</svg>
