<svg width="341" height="98" viewBox="0 0 341 98" fill="none" xmlns="http://www.w3.org/2000/svg">
<g clip-path="url(#clip0_4058_35770)">
<g clip-path="url(#clip1_4058_35770)">
<g clip-path="url(#clip2_4058_35770)">
<mask id="mask0_4058_35770" style="mask-type:luminance" maskUnits="userSpaceOnUse" x="3" y="0" width="333" height="98">
<path d="M3.47388 0.439941H335.973V97.0637H3.47388V0.439941Z" fill="white"/>
</mask>
<g mask="url(#mask0_4058_35770)">
<path d="M126.623 29.2881C119.962 28.1091 118.841 27.1585 118.841 25.4689C118.841 22.871 121.977 22.3284 124.608 22.3284C129.939 22.3284 131.207 24.2296 131.746 26.0872L131.832 26.3874H141.237L141.193 25.9333C140.947 23.4393 139.039 15.3032 124.882 15.3032C115.384 15.3032 109.245 19.6163 109.245 26.2912C109.245 30.7685 111.051 35.2176 124.155 37.4293C131.567 38.6724 132.926 39.963 132.926 42.0529C132.926 43.5603 132.231 45.5654 126.229 45.5654C121.13 45.5654 118.364 44.1081 117.263 40.8341L117.17 40.5519H107.74L107.824 41.0342C109.536 51.0819 119.584 52.5829 125.422 52.5829C140.903 52.5829 142.576 44.6148 142.576 41.1882C142.576 35.5858 139.908 31.6435 126.631 29.2893M223.419 52.3263H212.759L209.99 44.0683H196.377L193.545 52.3263H183.124L197.096 15.7433H209.505L223.419 52.3263ZM198.302 37.5833H208.061L203.181 22.7825L198.302 37.5833ZM238.429 44.9548H258.366V52.3263H228.065V15.7445H238.429V44.9548ZM263.2 52.3263V15.7445H294.16V23.1161H273.56V30.5414H292.827V37.4742H273.56V44.9561H294.105V52.3276L263.2 52.3263ZM335.282 52.325L324.927 37.5538C326.497 37.0714 327.862 36.3966 329.02 35.5281C331.63 33.5704 332.937 30.7262 332.937 26.9917C332.937 23.5933 331.619 20.8671 328.991 18.8158C326.362 16.7644 322.675 15.7394 317.94 15.7394H298.966V52.3224H309.144V38.9649H315.352L323.84 52.3211H335.286L335.282 52.325ZM309.141 22.9493H316.489C318.498 22.9493 320.004 23.3213 321.006 24.0577C322.008 24.7941 322.512 25.9628 322.512 27.5485C322.512 29.1341 322.009 30.3567 321.006 31.0969C320.003 31.8372 318.494 32.2041 316.489 32.2041H309.141V22.9454V22.9493Z" fill="white"/>
<path d="M164.471 44.4224C158.853 44.4224 154.559 40.2235 154.559 34.1066C154.559 27.9898 158.856 23.7909 164.471 23.7909C168.289 23.7909 171.293 25.3984 172.767 28.9584L181.096 26.1719C178.409 18.454 171.391 15.8421 164.467 15.8421C153.108 15.8421 145.304 23.2636 145.304 34.1079C145.304 44.9522 153.112 52.3738 164.467 52.3738C173.437 52.3738 180.452 48.0928 181.978 37.4524H173.099C171.778 41.6937 168.597 44.4237 164.467 44.4237M115.927 66.206C115.17 65.984 114.472 65.8737 113.839 65.8737C112.959 65.8737 112.253 66.0417 111.728 66.3779C111.204 66.714 110.939 67.1707 110.939 67.757C110.939 68.2855 111.098 68.714 111.417 69.0501C111.746 69.3933 112.144 69.6626 112.585 69.8404C113.217 70.0931 113.859 70.3174 114.511 70.5126L117.001 71.4094C117.638 71.6961 118.195 72.1328 118.627 72.682C119.076 73.2465 119.296 73.9893 119.296 74.9155C119.296 75.7699 119.061 76.5204 118.594 77.1593C118.127 77.7982 117.468 78.2959 116.625 78.6462C115.782 78.9964 114.812 79.1683 113.716 79.1683C112.619 79.1683 111.522 78.9541 110.469 78.5282C109.415 78.1022 108.507 77.5313 107.74 76.8206L108.67 75.0477C109.374 75.7336 110.2 76.2814 111.106 76.6628C112.008 77.0413 112.883 77.2273 113.737 77.2273C114.747 77.2273 115.544 77.031 116.13 76.6372C116.716 76.2433 117.006 75.7148 117.006 75.0477C117.006 74.523 116.847 74.0868 116.529 73.743C116.193 73.3878 115.782 73.111 115.327 72.9322C114.842 72.732 114.19 72.5139 113.369 72.2715C112.36 71.9713 111.537 71.6788 110.901 71.3965C110.268 71.1152 109.715 70.682 109.29 70.1355C108.848 69.5812 108.631 68.8461 108.631 67.934C108.62 67.1749 108.855 66.4325 109.301 65.8185C109.75 65.2079 110.376 64.7358 111.183 64.4073C111.99 64.0789 112.928 63.9147 113.995 63.9147C114.902 63.9145 115.803 64.0481 116.67 64.3111C117.492 64.5523 118.275 64.9082 118.997 65.3682L118.133 67.2053C117.427 66.7653 116.692 66.433 115.935 66.2124L115.927 66.2085V66.206ZM127.171 69.444C126.421 69.444 125.752 69.6082 125.169 69.9366C124.588 70.2602 124.111 70.7425 123.794 71.3273C123.46 71.9277 123.295 72.6166 123.295 73.3991C123.295 74.1817 123.458 74.8719 123.784 75.4723C124.11 76.0727 124.555 76.5371 125.127 76.8732C125.699 77.2093 126.351 77.3774 127.085 77.3774C127.766 77.3873 128.442 77.2635 129.076 77.0131C129.644 76.7881 130.149 76.429 130.548 75.9662L131.695 77.1208C131.174 77.761 130.515 78.2536 129.716 78.5961C128.917 78.9387 128.007 79.1106 126.997 79.1106C125.886 79.1106 124.899 78.8681 124.033 78.3858C123.167 77.9034 122.491 77.2286 122.01 76.3665C121.528 75.5044 121.286 74.5191 121.286 73.4081C121.286 72.2971 121.528 71.3067 122.01 70.4382C122.479 69.5842 123.18 68.8805 124.033 68.4087C124.897 67.9225 125.886 67.6838 126.997 67.6838C127.963 67.6838 128.832 67.8301 129.607 68.1239C130.382 68.4177 131.026 68.8385 131.543 69.3965L130.438 70.7654C129.53 69.8968 128.441 69.4607 127.169 69.4607V69.4465L127.171 69.444ZM144.225 68.8372C144.989 69.612 145.372 70.6845 145.372 72.0534V79.0426H143.359V72.5896C143.359 71.6352 143.089 70.8924 142.549 70.3561C142.009 69.8199 141.261 69.5556 140.309 69.5556C139.198 69.5697 138.318 69.9417 137.666 70.6666C137.014 71.3914 136.692 72.3318 136.692 73.4864V79.0426H134.679V63.1847H136.692V70.1739C137.457 68.5344 138.915 67.7018 141.066 67.6723C142.408 67.6723 143.461 68.0623 144.225 68.8372ZM156.776 68.3959C157.644 68.8613 158.363 69.5609 158.853 70.4151C159.348 71.2772 159.6 72.2625 159.6 73.3735C159.6 74.4845 159.349 75.4749 158.853 76.3434C158.356 77.2119 157.662 77.8906 156.776 78.3729C155.889 78.8553 154.876 79.0978 153.735 79.0978C152.595 79.0978 151.56 78.8553 150.673 78.3729C149.805 77.9071 149.086 77.2076 148.595 76.3536C148.096 75.4928 147.85 74.4999 147.85 73.3735C147.85 72.2471 148.1 71.276 148.595 70.4151C149.086 69.5612 149.805 68.8616 150.673 68.3959C151.56 67.9096 152.581 67.671 153.735 67.671C154.89 67.671 155.889 67.9135 156.776 68.3959ZM151.734 69.9148C151.155 70.2516 150.682 70.744 150.369 71.3362C150.043 71.9443 149.88 72.6294 149.88 73.3979C149.88 74.1663 150.043 74.8809 150.369 75.4915C150.695 76.1022 151.147 76.5782 151.734 76.913C152.345 77.2548 153.036 77.4288 153.735 77.4172C154.485 77.4172 155.133 77.2491 155.715 76.913C156.297 76.5769 156.754 76.106 157.08 75.4915C157.406 74.877 157.569 74.1804 157.569 73.3979C157.569 72.6153 157.406 71.9405 157.08 71.3362C156.754 70.732 156.301 70.2573 155.715 69.9148C155.129 69.5723 154.471 69.4042 153.735 69.4042C153 69.4042 152.317 69.5761 151.734 69.9148ZM170.216 68.3959C171.103 68.8821 171.797 69.553 172.294 70.4151C172.79 71.2772 173.039 72.2625 173.039 73.3735C173.039 74.4845 172.79 75.4749 172.294 76.3434C171.807 77.2029 171.086 77.9066 170.216 78.3729C169.328 78.8553 168.316 79.0978 167.175 79.0978C166.035 79.0978 165.001 78.8553 164.113 78.3729C163.225 77.8906 162.535 77.2158 162.036 76.3536C161.537 75.4915 161.29 74.4999 161.29 73.3735C161.29 72.2471 161.539 71.276 162.036 70.4151C162.532 69.5543 163.226 68.8782 164.113 68.3959C164.999 67.9135 166.02 67.671 167.175 67.671C168.33 67.671 169.329 67.9135 170.216 68.3959ZM165.174 69.9148C164.591 70.2573 164.135 70.7294 163.809 71.3362C163.483 71.9431 163.32 72.6294 163.32 73.3979C163.32 74.1663 163.483 74.8809 163.809 75.4915C164.135 76.1022 164.587 76.5782 165.174 76.913C165.76 77.2478 166.426 77.4172 167.175 77.4172C167.869 77.4301 168.553 77.2559 169.156 76.913C169.738 76.5769 170.195 76.106 170.52 75.4915C170.844 74.877 171.008 74.1804 171.008 73.3979C171.008 72.6153 170.845 71.9405 170.52 71.3362C170.194 70.732 169.742 70.2573 169.156 69.9148C168.554 69.569 167.869 69.3926 167.175 69.4042C166.44 69.4042 165.756 69.5761 165.174 69.9148ZM175.968 63.1847H177.981V79.0426H175.968V63.1847ZM195.503 68.3959C196.39 68.8821 197.085 69.553 197.581 70.4151C198.077 71.2772 198.326 72.2625 198.326 73.3735C198.326 74.4845 198.077 75.4749 197.581 76.3434C197.094 77.2029 196.373 77.9066 195.503 78.3729C194.615 78.8553 193.603 79.0978 192.462 79.0978C191.322 79.0978 190.288 78.8553 189.4 78.3729C188.512 77.8906 187.822 77.2158 187.323 76.3536C186.824 75.4915 186.578 74.4999 186.578 73.3735C186.578 72.2471 186.826 71.276 187.323 70.4151C187.819 69.5543 188.513 68.8782 189.4 68.3959C190.286 67.9135 191.308 67.671 192.462 67.671C193.617 67.671 194.616 67.9135 195.503 68.3959ZM190.461 69.9148C189.878 70.2573 189.422 70.7294 189.096 71.3362C188.77 71.9431 188.607 72.6294 188.607 73.3979C188.607 74.1663 188.77 74.8809 189.096 75.4915C189.422 76.1022 189.875 76.5782 190.461 76.913C191.047 77.2478 191.713 77.4172 192.462 77.4172C193.211 77.4172 193.859 77.2491 194.443 76.913C195.027 76.5769 195.481 76.106 195.807 75.4915C196.133 74.877 196.296 74.1804 196.296 73.3979C196.296 72.6153 196.133 71.9405 195.807 71.3362C195.494 70.7442 195.022 70.2517 194.443 69.9148C193.841 69.569 193.156 69.3926 192.462 69.4042C191.727 69.4042 191.043 69.5761 190.461 69.9148ZM203.885 65.2989C203.539 65.6133 203.364 66.0597 203.364 66.646V68.1213H206.524V69.6403H203.364V79.0413H201.351V69.6403H199.857V68.1213H201.351V66.9026C201.351 66.0777 201.53 65.3734 201.88 64.7973C202.23 64.2213 202.698 63.7864 203.277 63.4926C203.854 63.1996 204.492 63.0487 205.139 63.0526C205.8 63.0526 206.438 63.2245 207.13 63.567L206.651 65.1925C206.13 64.95 205.641 64.8281 205.178 64.8281C204.656 64.8281 204.226 64.9859 203.879 65.3002L203.885 65.2964V65.2989ZM212.293 64.0789H224.134V65.9584H219.24V79.0362H217.162V65.9584H212.291V64.0789H212.293ZM234.936 69.2182C235.845 70.2509 236.301 71.6878 236.301 73.5236L236.279 74.1637H227.23C227.389 75.1747 227.82 75.979 228.518 76.5794C229.216 77.1798 230.082 77.4762 231.107 77.4762C231.756 77.4819 232.399 77.358 232.999 77.1118C233.573 76.8777 234.093 76.5289 234.527 76.0868L235.632 77.2196C235.06 77.823 234.367 78.2971 233.597 78.6103C232.804 78.9387 231.921 79.1029 230.954 79.1029C229.829 79.1029 228.83 78.863 227.957 78.3883C227.085 77.9137 226.405 77.2376 225.923 76.369C225.44 75.5005 225.199 74.5114 225.199 73.3991C225.199 72.2869 225.442 71.3016 225.923 70.4408C226.396 69.5895 227.097 68.8867 227.947 68.4112C228.812 67.9186 229.8 67.6749 230.911 67.6749C232.685 67.6749 234.028 68.1932 234.936 69.2259V69.2182ZM234.48 72.6268C234.422 71.6018 234.074 70.7936 233.442 70.2009C232.809 69.6082 231.968 69.3144 230.929 69.3144C229.889 69.3144 229.08 69.6146 228.406 70.2112C227.733 70.8077 227.335 71.6159 227.204 72.6268H234.477H234.48ZM243.805 69.444C243.056 69.444 242.386 69.6082 241.804 69.9366C241.223 70.2611 240.746 70.7432 240.427 71.3273C240.095 71.9277 239.928 72.6166 239.928 73.3991C239.928 74.1817 240.091 74.8719 240.417 75.4723C240.743 76.0727 241.188 76.5371 241.76 76.8732C242.332 77.2093 242.983 77.3774 243.718 77.3774C244.453 77.3774 245.119 77.2555 245.709 77.0131C246.277 76.7881 246.782 76.429 247.182 75.9662L248.33 77.1208C247.801 77.7684 247.121 78.2753 246.349 78.5961C245.548 78.9387 244.645 79.1106 243.634 79.1106C242.523 79.1106 241.536 78.8681 240.671 78.3858C239.819 77.9169 239.117 77.2169 238.646 76.3665C238.162 75.5057 237.923 74.5191 237.923 73.4081C237.923 72.2971 238.165 71.3067 238.646 70.4382C239.128 69.5697 239.805 68.891 240.671 68.4087C241.537 67.9263 242.523 67.6838 243.634 67.6838C244.602 67.6838 245.47 67.8301 246.245 68.1239C247.02 68.4177 247.664 68.8385 248.181 69.3965L247.078 70.7654C246.646 70.3425 246.135 70.0094 245.574 69.7855C245.013 69.5615 244.413 69.4511 243.809 69.4607L243.805 69.4465V69.444ZM260.86 68.8372C261.623 69.612 262.007 70.6845 262.007 72.0534V79.0426H259.995V72.5896C259.995 71.6352 259.723 70.8924 259.184 70.3561C258.645 69.8199 257.895 69.5556 256.943 69.5556C255.832 69.5697 254.952 69.9417 254.304 70.6666C253.656 71.3914 253.33 72.3318 253.33 73.4864V79.0426H251.318V63.1847H253.33V70.1739C254.095 68.5344 255.554 67.7018 257.704 67.6723C259.046 67.6723 260.099 68.0623 260.864 68.8372H260.86ZM275.129 68.8359C275.893 69.6108 276.276 70.6833 276.276 72.0521V79.0413H274.263V72.5884C274.263 71.6339 273.993 70.8911 273.453 70.3548C272.913 69.8186 272.165 69.5543 271.213 69.5543C270.188 69.5684 269.355 69.8943 268.711 70.5267C268.067 71.1592 267.705 71.9841 267.618 72.9963V79.0452H265.605V67.739H267.618V70.1329C268.381 68.5216 269.834 67.7031 271.968 67.6749C273.312 67.6749 274.365 68.0649 275.129 68.8397V68.8359ZM287.676 68.3959C288.544 68.8616 289.264 69.5612 289.754 70.4151C290.253 71.276 290.5 72.2625 290.5 73.3735C290.5 74.4845 290.25 75.4749 289.754 76.3434C289.268 77.2029 288.547 77.9066 287.676 78.3729C286.79 78.8553 285.776 79.0978 284.636 79.0978C283.495 79.0978 282.46 78.8553 281.573 78.3729C280.706 77.9071 279.986 77.2076 279.495 76.3536C278.996 75.4928 278.75 74.4999 278.75 73.3735C278.75 72.2471 279 71.276 279.495 70.4151C279.986 69.5612 280.706 68.8616 281.573 68.3959C282.46 67.9096 283.481 67.671 284.636 67.671C285.79 67.671 286.79 67.9135 287.676 68.3959ZM282.634 69.9148C282.055 70.2516 281.582 70.744 281.269 71.3362C280.943 71.9443 280.781 72.6294 280.781 73.3979C280.781 74.1663 280.943 74.8809 281.269 75.4915C281.595 76.1022 282.048 76.5782 282.634 76.913C283.221 77.2478 283.886 77.4172 284.636 77.4172C285.385 77.4172 286.033 77.2491 286.615 76.913C287.198 76.5769 287.654 76.106 287.98 75.4915C288.306 74.877 288.469 74.1804 288.469 73.3979C288.469 72.6153 288.306 71.9405 287.98 71.3362C287.654 70.732 287.201 70.2573 286.615 69.9148C286.029 69.5723 285.371 69.4042 284.636 69.4042C283.901 69.4042 283.217 69.5761 282.634 69.9148ZM293.429 63.1847H295.44V79.0426H293.429V63.1847ZM307.28 68.3959C308.168 68.8821 308.862 69.553 309.358 70.4151C309.855 71.2772 310.104 72.2625 310.104 73.3735C310.104 74.4845 309.854 75.4749 309.358 76.3434C308.87 77.202 308.15 77.9055 307.28 78.3729C306.394 78.8591 305.38 79.0978 304.24 79.0978C303.099 79.0978 302.065 78.8553 301.177 78.3729C300.29 77.8906 299.599 77.2158 299.1 76.3536C298.601 75.4915 298.354 74.4999 298.354 73.3735C298.354 72.2471 298.604 71.276 299.1 70.4151C299.597 69.5543 300.291 68.8782 301.177 68.3959C302.064 67.9135 303.085 67.671 304.24 67.671C305.394 67.671 306.394 67.9135 307.28 68.3959ZM302.238 69.9148C301.656 70.2573 301.199 70.7294 300.873 71.3362C300.547 71.9431 300.384 72.6294 300.384 73.3979C300.384 74.1663 300.547 74.8809 300.873 75.4915C301.199 76.1022 301.652 76.5782 302.238 76.913C302.825 77.2478 303.49 77.4172 304.24 77.4172C304.989 77.4172 305.637 77.2491 306.22 76.913C306.804 76.5769 307.258 76.106 307.584 75.4915C307.91 74.877 308.073 74.1804 308.073 73.3979C308.073 72.6153 307.91 71.9405 307.584 71.3362C307.271 70.7442 306.799 70.2517 306.22 69.9148C305.618 69.569 304.934 69.3926 304.24 69.4042C303.504 69.4042 302.821 69.5761 302.238 69.9148ZM323.061 67.7313V77.8829C323.061 78.9656 322.818 79.9124 322.336 80.7232C321.854 81.5343 321.142 82.1846 320.291 82.5924C319.412 83.0285 318.387 83.2428 317.219 83.2428C315.532 83.2428 313.958 82.7142 312.498 81.6597L313.385 80.2049C313.909 80.6382 314.5 80.9812 315.136 81.2197C315.775 81.4465 316.449 81.559 317.128 81.5519C318.312 81.5519 319.256 81.2235 319.961 80.5692C320.667 79.915 321.022 79.0362 321.022 77.9393V76.3562C320.631 77.0281 320.061 77.5783 319.375 77.9457C318.68 78.3203 317.888 78.5102 316.994 78.5102C315.969 78.5102 315.065 78.278 314.276 77.8174C313.487 77.3569 312.879 76.7103 312.448 75.8841C312.016 75.0579 311.8 74.1124 311.8 73.0438C311.8 71.9751 312.016 71.0566 312.448 70.2458C312.863 69.4508 313.498 68.7912 314.276 68.3445C315.061 67.8904 315.965 67.6582 316.994 67.6582C317.902 67.6582 318.699 67.8442 319.387 68.2124C320.067 68.5793 320.633 69.1271 321.022 69.7955V67.7236H323.057L323.061 67.7313ZM319.271 76.4281C319.818 76.0996 320.248 75.6493 320.559 75.0708C320.871 74.4922 321.026 73.8417 321.026 73.1156C321.026 72.3895 320.871 71.7147 320.559 71.14C320.262 70.5782 319.816 70.1085 319.271 69.7814C318.722 69.4517 318.095 69.2887 317.388 69.2887C316.681 69.2887 316.049 69.453 315.496 69.7814C314.943 70.1067 314.49 70.5764 314.185 71.14C313.866 71.7147 313.707 72.3767 313.707 73.1156C313.721 74.2266 314.069 75.1387 314.746 75.852C315.424 76.5653 316.306 76.9207 317.385 76.9207C318.091 76.9207 318.721 76.7565 319.267 76.4281H319.271ZM329.296 82.6078C328.695 83.0478 327.992 83.2684 327.185 83.2684C326.693 83.2684 326.248 83.1966 325.842 83.0542C325.419 82.8998 325.024 82.6766 324.674 82.3935L325.538 80.8322C326.045 81.1902 326.556 81.3685 327.078 81.3685C327.942 81.3685 328.594 80.8823 329.025 79.9137L329.459 78.9092L324.717 67.7326H326.838L330.476 76.795L333.918 67.7326H335.975L330.736 80.6398C330.375 81.5083 329.897 82.1652 329.296 82.6052V82.6078ZM42.733 95.7138C42.3494 95.5458 33.1909 91.4969 23.9502 84.8079C10.3617 74.9745 3.47388 64.5485 3.47388 53.8145V0.440918H88.1347V53.8145C88.1347 64.5485 81.2468 74.9758 67.6622 84.8092C58.4215 91.4982 49.263 95.547 48.8794 95.7151L45.8068 97.0621L42.7343 95.7151L42.733 95.7138ZM45.8056 94.6593L47.9736 93.7086C48.3495 93.5444 57.2939 89.5893 66.3473 83.0388C79.3314 73.6416 85.9114 63.8082 85.9114 53.817V2.63852H5.6997V53.8145C5.6997 63.8082 12.2835 73.6429 25.2638 83.0362C34.3172 89.5854 43.2616 93.5419 43.6375 93.7061L45.8056 94.6567V94.6606V94.6593ZM11.0391 7.90865V53.8145C11.0391 73.639 45.8068 88.8927 45.8068 88.8927C45.8068 88.8927 80.5746 73.639 80.5746 53.8145V7.90865H11.0391Z" fill="white"/>
<path d="M42.8793 16.6909L22.0913 37.2121V65.6334H50.882L71.6701 45.1122V16.6909H42.8793ZM42.2456 57.1047H30.7278V45.7344H42.2456V57.1047ZM60.5717 52.4234L50.882 61.9886V37.2083H25.9246L35.6143 27.643H60.5717V52.4234Z" fill="#0245B9"/>
</g>
</g>
</g>
</g>
<defs>
<clipPath id="clip0_4058_35770">
<rect width="340.5" height="97.5" fill="white"/>
</clipPath>
<clipPath id="clip1_4058_35770">
<rect width="340.5" height="97.5" fill="white"/>
</clipPath>
<clipPath id="clip2_4058_35770">
<rect width="333.553" height="97.5" fill="white" transform="translate(3.47363)"/>
</clipPath>
</defs>
</svg>
