<svg fill="none" height="24" viewBox="0 0 25 24" width="25" xmlns="http://www.w3.org/2000/svg"><path d="m4.50002 21.8174c.60258.1826 1.41647.1826 2.79998.1826h10.4c1.3835 0 2.1974 0 2.8-.1826m-15.99998 0c-.1292-.0391-.24869-.0866-.36199-.1444-.56449-.2876-1.02343-.7465-1.31105-1.311-.32698-.6418-.32698-1.4818-.32698-3.162v-10.4c0-1.68016 0-2.52024.32698-3.16197.28762-.56449.74656-1.02343 1.31105-1.31105.64173-.32698 1.48181-.32698 3.16197-.32698h10.4c1.6802 0 2.5202 0 3.162.32698.5645.28762 1.0234.74656 1.311 1.31105.327.64173.327 1.48181.327 3.16197v10.4c0 1.6802 0 2.5202-.327 3.162-.2876.5645-.7465 1.0234-1.311 1.311-.1133.0578-.2328.1053-.362.1444m-15.99998 0c.00033-.8093.00519-1.2375.07684-1.5978.31563-1.5867 1.55602-2.8271 3.14278-3.1427.38639-.0769.85105-.0769 1.78036-.0769h6c.9293 0 1.394 0 1.7804.0769 1.5867.3156 2.8271 1.556 3.1427 3.1427.0717.3603.0765.7885.0769 1.5978m-4-12.3174c0 2.2091-1.7909 4-4 4s-4-1.7909-4-4c0-2.20914 1.7909-4 4-4s4 1.79086 4 4z" stroke="#1a2c47" stroke-linecap="round" stroke-linejoin="round" stroke-width="2"/></svg>