<svg width="320" height="79" viewBox="0 0 320 79" fill="none" xmlns="http://www.w3.org/2000/svg">
<g clip-path="url(#clip0_3572_15827)">
<g opacity="0.08">
<path d="M117 115.5L263 -30.5L409 115.5" stroke="white"/>
<path d="M117 126L263 -20L409 126" stroke="white"/>
<path d="M117 136.5L263 -9.5L409 136.5" stroke="white"/>
<path d="M117 147L263 1L409 147" stroke="white"/>
<path d="M117 157.5L263 11.5L409 157.5" stroke="white"/>
<path d="M117 168L263 22L409 168" stroke="white"/>
<path d="M117 178.5L263 32.5L409 178.5" stroke="white"/>
<path d="M117 189L263 43L409 189" stroke="white"/>
<path d="M117 199.5L263 53.5L409 199.5" stroke="white"/>
<path d="M117 210L263 64L409 210" stroke="white"/>
<path d="M117 220.5L263 74.5L409 220.5" stroke="white"/>
</g>
<path fill-rule="evenodd" clip-rule="evenodd" d="M272.509 31.2526C272.509 31.6212 272.807 31.92 273.176 31.92L282.854 31.92C283.223 31.92 283.522 31.6212 283.522 31.2526L283.522 10.2566C283.522 9.74277 282.966 9.42163 282.521 9.67854L272.842 15.2664C272.636 15.3856 272.509 15.606 272.509 15.8444L272.509 31.2526Z" fill="url(#paint0_linear_3572_15827)"/>
<path fill-rule="evenodd" clip-rule="evenodd" d="M273.176 31.2526L282.854 31.2526L282.854 10.2566L273.176 15.8444L273.176 31.2526ZM273.176 31.92C272.807 31.92 272.509 31.6212 272.509 31.2526L272.509 15.8444C272.509 15.606 272.636 15.3856 272.842 15.2664L282.521 9.67854C282.966 9.42163 283.522 9.74277 283.522 10.2566L283.522 31.2526C283.522 31.6212 283.223 31.92 282.854 31.92L273.176 31.92Z" fill="url(#paint1_linear_3572_15827)"/>
<path fill-rule="evenodd" clip-rule="evenodd" d="M258.158 31.2526C258.158 31.6212 257.859 31.92 257.49 31.92L247.812 31.92C247.443 31.92 247.145 31.6212 247.145 31.2526L247.145 10.2566C247.145 9.74277 247.701 9.42163 248.146 9.67854L257.824 15.2664C258.031 15.3856 258.158 15.606 258.158 15.8444L258.158 31.2526Z" fill="url(#paint2_linear_3572_15827)"/>
<path fill-rule="evenodd" clip-rule="evenodd" d="M257.49 31.2526L247.812 31.2526L247.812 10.2566L257.49 15.8444L257.49 31.2526ZM257.49 31.92C257.859 31.92 258.158 31.6212 258.158 31.2526L258.158 15.8444C258.158 15.606 258.031 15.3856 257.824 15.2664L248.146 9.67854C247.701 9.42163 247.145 9.74277 247.145 10.2566L247.145 31.2526C247.145 31.6212 247.443 31.92 247.812 31.92L257.49 31.92Z" fill="url(#paint3_linear_3572_15827)"/>
<path fill-rule="evenodd" clip-rule="evenodd" d="M255.522 26.769L249.78 26.769L249.78 13.9287L255.522 17.244L255.522 26.769ZM255.522 27.4365C255.891 27.4365 256.19 27.1377 256.19 26.769L256.19 17.244C256.19 17.0056 256.062 16.7852 255.856 16.666L250.114 13.3507C249.669 13.0937 249.112 13.4149 249.112 13.9287L249.112 26.769C249.112 27.1377 249.411 27.4365 249.78 27.4365L255.522 27.4365Z" fill="url(#paint4_linear_3572_15827)"/>
<path fill-rule="evenodd" clip-rule="evenodd" d="M275.179 26.769L280.921 26.769L280.921 13.9287L275.179 17.244L275.179 26.769ZM275.179 27.4365C274.81 27.4365 274.511 27.1377 274.511 26.769L274.511 17.244C274.511 17.0056 274.638 16.7852 274.845 16.666L280.587 13.3507C281.032 13.0937 281.588 13.4149 281.588 13.9287L281.588 26.769C281.588 27.1377 281.29 27.4365 280.921 27.4365L275.179 27.4365Z" fill="url(#paint5_linear_3572_15827)"/>
<path fill-rule="evenodd" clip-rule="evenodd" d="M258.55 37.958C258.55 37.5894 258.252 37.2905 257.883 37.2905L248.205 37.2905C247.836 37.2905 247.537 37.5894 247.537 37.958L247.537 58.954C247.537 59.4678 248.093 59.7889 248.538 59.532L258.217 53.9442C258.423 53.825 258.55 53.6046 258.55 53.3661L258.55 37.958Z" fill="url(#paint6_linear_3572_15827)"/>
<path fill-rule="evenodd" clip-rule="evenodd" d="M257.883 37.958L248.205 37.958L248.205 58.954L257.883 53.3661L257.883 37.958ZM257.883 37.2905C258.252 37.2905 258.55 37.5894 258.55 37.958L258.55 53.3661C258.55 53.6046 258.423 53.825 258.217 53.9442L248.538 59.532C248.093 59.7889 247.537 59.4678 247.537 58.954L247.537 37.958C247.537 37.5894 247.836 37.2905 248.205 37.2905L257.883 37.2905Z" fill="url(#paint7_linear_3572_15827)"/>
<path fill-rule="evenodd" clip-rule="evenodd" d="M272.901 37.958C272.901 37.5894 273.2 37.2905 273.569 37.2905L283.247 37.2905C283.616 37.2905 283.915 37.5894 283.915 37.958L283.915 58.954C283.915 59.4678 283.358 59.7889 282.913 59.532L273.235 53.9442C273.028 53.825 272.901 53.6046 272.901 53.3662L272.901 37.958Z" fill="url(#paint8_linear_3572_15827)"/>
<path fill-rule="evenodd" clip-rule="evenodd" d="M273.569 37.958L283.247 37.958L283.247 58.954L273.569 53.3662L273.569 37.958ZM273.569 37.2905C273.2 37.2905 272.901 37.5894 272.901 37.958L272.901 53.3662C272.901 53.6046 273.028 53.825 273.235 53.9442L282.913 59.532C283.358 59.7889 283.915 59.4678 283.915 58.954L283.915 37.958C283.915 37.5894 283.616 37.2905 283.247 37.2905L273.569 37.2905Z" fill="url(#paint9_linear_3572_15827)"/>
<path fill-rule="evenodd" clip-rule="evenodd" d="M275.537 42.4414L281.279 42.4414L281.279 55.2817L275.537 51.9664L275.537 42.4414ZM275.537 41.7739C275.168 41.7739 274.869 42.0728 274.869 42.4414L274.869 51.9664C274.869 52.2049 274.997 52.4252 275.203 52.5445L280.946 55.8598C281.391 56.1167 281.947 55.7956 281.947 55.2817L281.947 42.4414C281.947 42.0728 281.648 41.7739 281.279 41.7739L275.537 41.7739Z" fill="url(#paint10_linear_3572_15827)"/>
<path fill-rule="evenodd" clip-rule="evenodd" d="M255.88 42.4414H250.138V55.2817L255.88 51.9664L255.88 42.4414ZM255.88 41.7739C256.249 41.7739 256.548 42.0728 256.548 42.4414V51.9664C256.548 52.2049 256.42 52.4252 256.214 52.5445L250.471 55.8598C250.026 56.1167 249.47 55.7956 249.47 55.2817V42.4414C249.47 42.0728 249.769 41.7739 250.138 41.7739H255.88Z" fill="url(#paint11_linear_3572_15827)"/>
<path fill-rule="evenodd" clip-rule="evenodd" d="M253.486 60.1506C253.486 60.4658 253.634 60.7625 253.886 60.9516L264.9 69.2116C265.256 69.4786 265.745 69.4786 266.101 69.2116L277.115 60.9516C277.367 60.7625 277.515 60.4658 277.515 60.1506L277.515 48.3029C277.515 47.75 277.067 47.3017 276.514 47.3017L254.487 47.3017C253.934 47.3017 253.486 47.75 253.486 48.3029L253.486 60.1506Z" fill="url(#paint12_linear_3572_15827)"/>
<path fill-rule="evenodd" clip-rule="evenodd" d="M254.287 60.4176L265.3 68.6776C265.419 68.7666 265.582 68.7666 265.701 68.6776L276.714 60.4176C276.798 60.3546 276.848 60.2557 276.848 60.1506L276.848 48.3029C276.848 48.1186 276.698 47.9692 276.514 47.9692L254.487 47.9692C254.303 47.9692 254.153 48.1186 254.153 48.3029L254.153 60.1506C254.153 60.2557 254.203 60.3546 254.287 60.4176ZM253.886 60.9516C253.634 60.7625 253.486 60.4658 253.486 60.1506L253.486 48.3029C253.486 47.75 253.934 47.3017 254.487 47.3017L276.514 47.3017C277.067 47.3017 277.515 47.75 277.515 48.3029L277.515 60.1506C277.515 60.4658 277.367 60.7625 277.115 60.9516L266.101 69.2116C265.745 69.4786 265.256 69.4786 264.9 69.2116L253.886 60.9516Z" fill="url(#paint13_linear_3572_15827)"/>
<path fill-rule="evenodd" clip-rule="evenodd" d="M256.957 58.5928L265.427 64.9452C265.545 65.0342 265.709 65.0342 265.827 64.9452L274.297 58.5928C274.381 58.5298 274.431 58.4309 274.431 58.3258L274.431 49.3042C274.431 49.1199 274.281 48.9705 274.097 48.9705L257.157 48.9705C256.973 48.9705 256.823 49.1199 256.823 49.3042L256.823 58.3258C256.823 58.4309 256.873 58.5298 256.957 58.5928ZM256.556 59.1268C256.304 58.9377 256.156 58.641 256.156 58.3258L256.156 49.3042C256.156 48.7513 256.604 48.303 257.157 48.303L274.097 48.303C274.65 48.303 275.098 48.7513 275.098 49.3042L275.098 58.3258C275.098 58.641 274.95 58.9377 274.698 59.1268L266.228 65.4792C265.872 65.7462 265.382 65.7462 265.026 65.4792L256.556 59.1268Z" fill="url(#paint14_linear_3572_15827)"/>
<path fill-rule="evenodd" clip-rule="evenodd" d="M252.68 34.6261C252.68 34.2575 252.381 33.9586 252.013 33.9586H242.03C241.661 33.9586 241.362 34.2575 241.362 34.6261V45.8851C241.362 46.1224 241.488 46.3418 241.693 46.4614L251.676 52.2934C252.121 52.5534 252.68 52.2325 252.68 51.7171V34.6261Z" fill="url(#paint15_linear_3572_15827)"/>
<path fill-rule="evenodd" clip-rule="evenodd" d="M252.013 34.6261H242.03L242.03 45.8851L252.013 51.7171L252.013 34.6261ZM252.013 33.9586C252.381 33.9586 252.68 34.2575 252.68 34.6261V51.7171C252.68 52.2325 252.121 52.5534 251.676 52.2934L241.693 46.4614C241.488 46.3418 241.362 46.1224 241.362 45.8851V34.6261C241.362 34.2575 241.661 33.9586 242.03 33.9586H252.013Z" fill="url(#paint16_linear_3572_15827)"/>
<path fill-rule="evenodd" clip-rule="evenodd" d="M236.238 22.9408C235.795 22.682 235.243 23.0018 235.243 23.5171L235.243 32.8613C235.243 33.1014 235.37 33.3239 235.576 33.4445L251.315 42.639C251.633 42.825 252.039 42.7161 252.222 42.396L256.221 35.3878C256.403 35.0676 256.293 34.6573 255.975 34.4714L236.238 22.9408Z" fill="url(#paint17_linear_3572_15827)"/>
<path fill-rule="evenodd" clip-rule="evenodd" d="M235.907 23.5205L235.907 32.8647L251.646 42.0593L255.644 35.0511L235.907 23.5205ZM235.243 23.5171C235.243 23.0018 235.795 22.682 236.238 22.9408L255.975 34.4714C256.293 34.6573 256.403 35.0676 256.221 35.3878L252.222 42.396C252.039 42.7161 251.633 42.825 251.315 42.639L235.576 33.4445C235.37 33.3239 235.243 33.1014 235.243 32.8613L235.243 23.5171Z" fill="url(#paint18_linear_3572_15827)"/>
<path fill-rule="evenodd" clip-rule="evenodd" d="M237.974 26.9879L237.974 31.7729L246.742 36.8952L248.79 33.3065L237.974 26.9879ZM237.31 26.9845C237.31 26.4692 237.862 26.1494 238.305 26.4082L249.121 32.7267C249.439 32.9127 249.549 33.323 249.366 33.6432L247.319 37.2319C247.136 37.5521 246.73 37.6609 246.411 37.4749L237.643 32.3526C237.437 32.232 237.31 32.0096 237.31 31.7695L237.31 26.9845Z" fill="url(#paint19_linear_3572_15827)"/>
<path fill-rule="evenodd" clip-rule="evenodd" d="M278.321 34.6261C278.321 34.2575 278.62 33.9586 278.988 33.9586H288.971C289.34 33.9586 289.639 34.2575 289.639 34.6261V45.8851C289.639 46.1224 289.513 46.3418 289.308 46.4614L279.325 52.2934C278.88 52.5534 278.321 52.2325 278.321 51.7171V34.6261Z" fill="url(#paint20_linear_3572_15827)"/>
<path fill-rule="evenodd" clip-rule="evenodd" d="M278.988 34.6261H288.971L288.971 45.8851L278.988 51.7171L278.988 34.6261ZM278.988 33.9586C278.62 33.9586 278.321 34.2575 278.321 34.6261V51.7171C278.321 52.2325 278.88 52.5534 279.325 52.2934L289.308 46.4614C289.513 46.3418 289.639 46.1224 289.639 45.8851V34.6261C289.639 34.2575 289.34 33.9586 288.971 33.9586H278.988Z" fill="url(#paint21_linear_3572_15827)"/>
<path fill-rule="evenodd" clip-rule="evenodd" d="M294.763 22.9408C295.206 22.682 295.758 23.0018 295.758 23.5171L295.758 32.8613C295.758 33.1014 295.631 33.3239 295.424 33.4445L279.686 42.639C279.367 42.825 278.961 42.7161 278.779 42.396L274.78 35.3878C274.597 35.0676 274.707 34.6573 275.025 34.4714L294.763 22.9408Z" fill="url(#paint22_linear_3572_15827)"/>
<path fill-rule="evenodd" clip-rule="evenodd" d="M295.093 23.5205L295.093 32.8647L279.355 42.0593L275.356 35.0511L295.093 23.5205ZM295.758 23.5171C295.758 23.0018 295.206 22.682 294.763 22.9408L275.025 34.4714C274.707 34.6573 274.597 35.0676 274.78 35.3878L278.779 42.396C278.961 42.7161 279.367 42.825 279.686 42.639L295.424 33.4445C295.631 33.3239 295.758 33.1014 295.758 32.8613L295.758 23.5171Z" fill="url(#paint23_linear_3572_15827)"/>
<path fill-rule="evenodd" clip-rule="evenodd" d="M293.026 26.9879L293.026 31.7729L284.258 36.8952L282.211 33.3065L293.026 26.9879ZM293.691 26.9845C293.691 26.4692 293.138 26.1494 292.695 26.4082L281.88 32.7267C281.562 32.9127 281.452 33.323 281.634 33.6432L283.682 37.2319C283.865 37.5521 284.271 37.6609 284.589 37.4749L293.357 32.3526C293.563 32.232 293.691 32.0096 293.691 31.7695L293.691 26.9845Z" fill="url(#paint24_linear_3572_15827)"/>
<path d="M263.761 13.5558C264.794 12.9596 266.066 12.9596 267.099 13.5558L285.377 24.1088C286.41 24.705 287.046 25.8068 287.046 26.9991V48.1053C287.046 49.2976 286.41 50.3994 285.377 50.9955L267.099 61.5486C266.066 62.1448 264.794 62.1448 263.761 61.5486L245.483 50.9955C244.45 50.3994 243.814 49.2976 243.814 48.1053V26.9991C243.814 25.8068 244.45 24.705 245.483 24.1088L263.761 13.5558Z" fill="url(#paint25_linear_3572_15827)"/>
<path d="M263.81 18.8821C264.843 18.2859 266.115 18.2859 267.147 18.8821L280.875 26.8078C281.908 27.404 282.544 28.5057 282.544 29.698V45.5495C282.544 46.7418 281.908 47.8436 280.875 48.4398L267.147 56.3655C266.115 56.9617 264.843 56.9617 263.81 56.3655L250.082 48.4398C249.05 47.8436 248.414 46.7418 248.414 45.5495V29.698C248.414 28.5057 249.05 27.404 250.082 26.8078L263.81 18.8821Z" fill="url(#paint26_linear_3572_15827)"/>
<path d="M269.724 40.3727L269.792 40.3499L269.795 40.349L269.87 40.3239L269.925 40.3809C270.154 40.6184 270.332 40.8154 270.46 40.9941C270.588 41.1739 270.669 41.3425 270.696 41.5238C270.722 41.7056 270.69 41.8867 270.616 42.0882C270.543 42.2878 270.426 42.515 270.272 42.7904C270.257 42.8185 270.237 42.8494 270.221 42.8755C270.213 42.8877 270.206 42.8988 270.2 42.9081L270.093 42.8434M269.724 40.3727L277.612 40.9167C277.247 41.3774 276.879 41.715 276.459 41.9114C276.04 42.1065 275.559 42.1672 274.957 42.0547L274.852 42.0349L274.816 42.1363C274.753 42.3177 274.69 42.4959 274.621 42.6924C273.67 41.8905 272.881 40.9907 272.166 40.0211L272.166 40.0211C271.571 39.2154 270.99 38.4005 270.407 37.5845C270.235 37.3438 270.063 37.1029 269.891 36.8622L269.794 36.9316L269.891 36.8622C269.777 36.7036 269.619 36.6062 269.447 36.6064C269.273 36.6065 269.116 36.7056 269.005 36.8731C268.767 37.2331 268.784 37.6263 269.006 37.9725L269.006 37.9725C270.304 39.9915 271.701 41.9588 273.507 43.5749C274.282 44.2692 275.185 44.6084 276.1 44.575C276.938 44.5444 277.776 44.2023 278.53 43.5518C278.526 43.5606 278.522 43.5693 278.517 43.5776C278.488 43.6363 278.461 43.6833 278.442 43.7154C278.433 43.7315 278.425 43.7437 278.42 43.7518L278.414 43.7606L278.414 43.7617C277.905 44.4728 277.309 44.9297 276.648 45.1272C275.988 45.3247 275.25 45.2673 274.45 44.9242C274.33 44.8725 274.211 44.8178 274.081 44.7574C274.023 44.7307 273.963 44.7028 273.899 44.6736L273.808 44.632L273.748 44.7118C273.66 44.8272 273.572 44.9425 273.481 45.0623C273.393 45.1776 273.303 45.2971 273.206 45.4247C273.086 45.335 272.969 45.2473 272.854 45.1608C272.668 45.0214 272.486 44.8852 272.304 44.7485L272.213 44.6805L272.137 44.7639L272.076 44.8304L271.999 44.914L272.074 44.9985C272.241 45.1847 272.407 45.3709 272.579 45.564C272.664 45.6592 272.751 45.7562 272.84 45.8557C272.819 45.8783 272.797 45.9014 272.775 45.9252C272.715 45.9897 272.65 46.059 272.581 46.134C272.502 46.0676 272.426 46.0029 272.351 45.9394C272.198 45.8091 272.05 45.6837 271.903 45.5582L271.817 45.4853L271.735 45.5628L271.684 45.6115L271.604 45.6875L271.669 45.7764C271.751 45.8872 271.832 45.9978 271.916 46.1121C272.008 46.2363 272.102 46.365 272.204 46.5037C272.12 46.5734 272.025 46.6509 271.914 46.7423C271.822 46.6101 271.736 46.4883 271.651 46.3672L271.582 46.2682L271.481 46.334L271.365 46.4094L271.264 46.4747L271.325 46.578C271.372 46.6573 271.42 46.7373 271.47 46.822C271.504 46.8795 271.54 46.9392 271.577 47.0022L271.41 47.1494C271.371 47.1182 271.331 47.0859 271.285 47.0486C271.236 47.0089 271.18 46.9636 271.111 46.9081L270.918 47.0564C270.963 47.1564 270.996 47.2318 271.028 47.3031L271.033 47.3141C271.045 47.3414 271.057 47.3684 271.069 47.396C270.903 47.4469 270.758 47.4911 270.647 47.5248L270.628 47.5306L270.612 47.5421C270.53 47.5994 270.45 47.6611 270.375 47.7192C270.338 47.7481 270.302 47.7762 270.267 47.8024C270.158 47.8839 270.057 47.9534 269.949 48.0037L269.949 48.0037C263.531 51.0063 256.937 46.9248 256.294 40.6827L256.294 40.6825C256.287 40.6199 256.28 40.5597 256.273 40.5007C256.261 40.4001 256.249 40.3028 256.242 40.2017L256.242 40.2017C256.217 39.8518 256.24 39.6787 256.318 39.5712C256.395 39.4655 256.547 39.3924 256.886 39.3217C257.142 39.2687 257.418 39.2582 257.683 39.2812C257.889 39.2996 258.022 39.361 258.1 39.4452C258.175 39.5267 258.216 39.6489 258.195 39.831L258.195 39.8311C257.836 42.952 260.018 45.0655 262.703 45.7886C265.751 46.6097 268.652 45.4995 270.201 42.9076L270.093 42.8434M269.724 40.3727L269.71 40.4432M269.724 40.3727L269.71 40.4432M270.093 42.8434C268.575 45.3841 265.733 46.4753 262.735 45.6677C260.089 44.955 257.969 42.8851 258.319 39.8454L270.162 42.73C270.149 42.7551 270.134 42.7791 270.118 42.8032C270.11 42.8165 270.102 42.8298 270.093 42.8434ZM269.71 40.4432C269.685 40.5599 269.644 40.6322 269.597 40.6806C269.549 40.7295 269.488 40.7623 269.411 40.7865C269.333 40.8112 269.246 40.8247 269.148 40.84L269.146 40.8402C269.052 40.8548 268.946 40.8713 268.848 40.9037C267.554 41.3263 266.381 41.0585 265.274 40.281L265.274 40.281M269.71 40.4432L265.274 40.281M265.274 40.281C264.951 40.0546 264.794 39.7864 264.811 39.4268C264.841 38.826 264.879 38.2256 264.95 37.6315L264.95 37.6315M265.274 40.281L264.95 37.6315M264.95 37.6315C265.077 36.5571 264.952 35.5325 264.151 34.6852C264.065 34.5937 263.963 34.5139 263.87 34.4412C263.844 34.4207 263.819 34.4007 263.795 34.3812L263.794 34.3804M264.95 37.6315L263.794 34.3804M263.794 34.3804C263.727 34.3282 263.635 34.3166 263.557 34.3567L263.556 34.3571M263.794 34.3804L263.556 34.3571M263.556 34.3571C263.46 34.4072 263.419 34.516 263.448 34.6156L263.448 34.6161M263.556 34.3571L263.448 34.6161M263.448 34.6161C263.466 34.6724 263.481 34.7305 263.497 34.7911L263.498 34.7963C263.515 34.858 263.532 34.9222 263.551 34.9853C263.59 35.1109 263.641 35.241 263.724 35.3536L263.724 35.3537M263.448 34.6161L263.724 35.3537M263.724 35.3537C264.347 36.1925 264.359 37.1401 264.273 38.1513C264.232 38.6333 264.19 39.1155 264.148 39.5979C264.076 40.425 264.004 41.2526 263.937 42.0797L263.937 42.0798M263.724 35.3537L263.937 42.0798M263.937 42.0798C263.923 42.2517 263.908 42.3765 263.884 42.4698C263.86 42.5617 263.831 42.6113 263.797 42.6427C263.764 42.6743 263.712 42.7002 263.618 42.7179C263.523 42.7359 263.396 42.7433 263.223 42.7467L263.223 42.7467M263.937 42.0798L263.223 42.7467M263.223 42.7467C262.65 42.7578 262.164 42.6382 261.762 42.393C261.36 42.1478 261.033 41.772 260.787 41.2567L260.787 41.2567M263.223 42.7467L260.787 41.2567M260.787 41.2567C260.575 40.8128 260.395 40.3511 260.215 39.8852L260.196 39.8364L260.196 39.8363M260.787 41.2567L260.196 39.8363M260.196 39.8363C259.826 38.8876 259.254 38.1135 258.284 37.6662C257.259 37.1936 256.662 36.4184 256.434 35.2752C256.317 34.6872 256.018 34.128 255.739 33.6047C255.706 33.5439 255.674 33.4836 255.643 33.4237L255.642 33.4237M260.196 39.8363L255.642 33.4237M255.642 33.4237C255.388 32.9442 255.323 32.5262 255.518 32.0115L255.518 32.0115C255.66 31.6347 255.768 31.2463 255.873 30.8634C255.877 30.8491 255.881 30.8349 255.885 30.8206C255.986 30.4506 256.086 30.0861 256.214 29.7326L255.642 33.4237ZM277.765 40.6876C277.695 40.7268 277.641 40.7562 277.584 40.7878C277.56 40.8009 277.535 40.8144 277.508 40.8291L277.508 40.8292C276.84 41.1954 276.125 41.0634 275.435 40.9292L275.435 40.9291C275.305 40.9038 275.189 40.8583 275.107 40.762C275.026 40.6662 274.997 40.5411 274.991 40.3974L274.991 40.3971C274.925 38.6796 274.347 37.1425 273.348 35.7391L273.348 35.7391C272.949 35.1788 272.535 34.5729 272.299 33.9136C271.517 31.7276 270.101 30.0137 268.401 28.4834C267.73 27.8797 266.953 27.6401 266.05 27.7939L277.765 40.6876ZM277.765 40.6876C277.717 40.7722 277.663 40.8519 277.612 40.9165L277.765 40.6876ZM263.691 27.4722C264.452 27.8218 265.235 27.9331 266.05 27.7939L256.214 29.7326C256.617 28.6226 257.204 27.6336 258.148 26.9063L258.148 26.9063C259.097 26.1757 260.138 26.0564 261.246 26.4696L261.246 26.4696C262.072 26.7775 262.892 27.1052 263.691 27.4722ZM269.818 34.0403L270.026 34.1871L270.015 33.9322C269.989 33.3778 269.744 32.953 269.349 32.7241C268.956 32.4967 268.437 32.4752 267.885 32.6778L267.765 32.7219L267.812 32.841C268.009 33.3418 268.382 33.5327 268.764 33.6547C268.858 33.6849 268.955 33.7113 269.049 33.7369L269.061 33.7402C269.151 33.7649 269.24 33.7889 269.326 33.8158C269.507 33.8721 269.673 33.9388 269.818 34.0403Z" fill="url(#paint27_linear_3572_15827)" stroke="url(#paint28_linear_3572_15827)" stroke-width="0.250304"/>
<path fill-rule="evenodd" clip-rule="evenodd" d="M267.648 18.015L281.376 25.9407C282.718 26.7157 283.545 28.148 283.545 29.698V45.5495C283.545 47.0995 282.718 48.5318 281.376 49.3068L267.648 57.2326C266.306 58.0076 264.652 58.0076 263.31 57.2326L249.582 49.3068C248.24 48.5318 247.413 47.0995 247.413 45.5495V29.698C247.413 28.148 248.24 26.7157 249.582 25.9407L263.31 18.015C264.652 17.24 266.306 17.24 267.648 18.015ZM267.148 18.8821C266.115 18.2859 264.843 18.2859 263.81 18.8821L250.083 26.8078C249.05 27.404 248.414 28.5057 248.414 29.698V45.5495C248.414 46.7418 249.05 47.8436 250.083 48.4398L263.81 56.3655C264.843 56.9617 266.115 56.9617 267.148 56.3655L280.876 48.4398C281.908 47.8436 282.544 46.7418 282.544 45.5495V29.698C282.544 28.5057 281.908 27.4039 280.875 26.8078L267.148 18.8821Z" fill="url(#paint29_linear_3572_15827)"/>
</g>
<defs>
<linearGradient id="paint0_linear_3572_15827" x1="278.015" y1="25.6075" x2="278.015" y2="9.58812" gradientUnits="userSpaceOnUse">
<stop stop-color="#008027"/>
<stop offset="1" stop-color="#E6FFEB"/>
</linearGradient>
<linearGradient id="paint1_linear_3572_15827" x1="278.015" y1="31.92" x2="278.015" y2="9.58812" gradientUnits="userSpaceOnUse">
<stop stop-color="#008027"/>
<stop offset="1" stop-color="#B8F5C5"/>
</linearGradient>
<linearGradient id="paint2_linear_3572_15827" x1="252.651" y1="25.6075" x2="252.651" y2="9.58812" gradientUnits="userSpaceOnUse">
<stop stop-color="#008027"/>
<stop offset="1" stop-color="#E6FFEB"/>
</linearGradient>
<linearGradient id="paint3_linear_3572_15827" x1="252.651" y1="31.92" x2="252.651" y2="9.58812" gradientUnits="userSpaceOnUse">
<stop stop-color="#008027"/>
<stop offset="1" stop-color="#B8F5C5"/>
</linearGradient>
<linearGradient id="paint4_linear_3572_15827" x1="252.651" y1="27.4365" x2="252.651" y2="13.2602" gradientUnits="userSpaceOnUse">
<stop stop-color="#E8E6FF" stop-opacity="0"/>
<stop offset="1" stop-color="#E8E6FF"/>
</linearGradient>
<linearGradient id="paint5_linear_3572_15827" x1="278.05" y1="27.4365" x2="278.05" y2="13.2602" gradientUnits="userSpaceOnUse">
<stop stop-color="#E8E6FF" stop-opacity="0"/>
<stop offset="1" stop-color="#E8E6FF"/>
</linearGradient>
<linearGradient id="paint6_linear_3572_15827" x1="253.044" y1="43.603" x2="253.044" y2="59.6224" gradientUnits="userSpaceOnUse">
<stop stop-color="#008027"/>
<stop offset="1" stop-color="#B8F5C5"/>
</linearGradient>
<linearGradient id="paint7_linear_3572_15827" x1="253.044" y1="37.2905" x2="253.044" y2="59.6224" gradientUnits="userSpaceOnUse">
<stop offset="0.583333" stop-color="#008027"/>
<stop offset="1" stop-color="#B8F5C5"/>
</linearGradient>
<linearGradient id="paint8_linear_3572_15827" x1="278.408" y1="43.603" x2="278.408" y2="59.6225" gradientUnits="userSpaceOnUse">
<stop stop-color="#008027"/>
<stop offset="1" stop-color="#B8F5C5"/>
</linearGradient>
<linearGradient id="paint9_linear_3572_15827" x1="278.408" y1="37.2905" x2="278.408" y2="59.6225" gradientUnits="userSpaceOnUse">
<stop offset="0.583333" stop-color="#008027"/>
<stop offset="1" stop-color="#B8F5C5"/>
</linearGradient>
<linearGradient id="paint10_linear_3572_15827" x1="278.408" y1="41.7739" x2="278.408" y2="55.9502" gradientUnits="userSpaceOnUse">
<stop stop-color="#E8E6FF" stop-opacity="0"/>
<stop offset="1" stop-color="#E8E6FF"/>
</linearGradient>
<linearGradient id="paint11_linear_3572_15827" x1="253.009" y1="41.7739" x2="253.009" y2="55.9502" gradientUnits="userSpaceOnUse">
<stop stop-color="#E8E6FF" stop-opacity="0"/>
<stop offset="1" stop-color="#E8E6FF"/>
</linearGradient>
<linearGradient id="paint12_linear_3572_15827" x1="265.501" y1="69.4119" x2="265.501" y2="47.3017" gradientUnits="userSpaceOnUse">
<stop stop-color="#B8F5C5"/>
<stop offset="1" stop-color="#008027"/>
</linearGradient>
<linearGradient id="paint13_linear_3572_15827" x1="265.501" y1="69.4119" x2="265.501" y2="47.3017" gradientUnits="userSpaceOnUse">
<stop stop-color="#008027"/>
<stop offset="1" stop-color="#B8F5C5"/>
</linearGradient>
<linearGradient id="paint14_linear_3572_15827" x1="265.627" y1="65.6794" x2="265.627" y2="48.303" gradientUnits="userSpaceOnUse">
<stop stop-color="#B8F5C5"/>
<stop offset="1" stop-color="#008027"/>
</linearGradient>
<linearGradient id="paint15_linear_3572_15827" x1="246.893" y1="41.6489" x2="240.147" y2="46.4593" gradientUnits="userSpaceOnUse">
<stop stop-color="#008027"/>
<stop offset="0.771271" stop-color="#5CE27A"/>
</linearGradient>
<linearGradient id="paint16_linear_3572_15827" x1="246.172" y1="38.1208" x2="247.184" y2="50.7963" gradientUnits="userSpaceOnUse">
<stop stop-color="#008027"/>
<stop offset="1" stop-color="#B8F5C5"/>
</linearGradient>
<linearGradient id="paint17_linear_3572_15827" x1="233.717" y1="24.7006" x2="246.071" y2="33.9639" gradientUnits="userSpaceOnUse">
<stop stop-color="#B8F5C5"/>
<stop offset="1" stop-color="#008027"/>
</linearGradient>
<linearGradient id="paint18_linear_3572_15827" x1="247.821" y1="31.7812" x2="236.069" y2="22.7308" gradientUnits="userSpaceOnUse">
<stop stop-color="#008027"/>
<stop offset="1" stop-color="#B8F5C5"/>
</linearGradient>
<linearGradient id="paint19_linear_3572_15827" x1="241.762" y1="35.2052" x2="237.894" y2="26.1221" gradientUnits="userSpaceOnUse">
<stop stop-color="#E6FFEB" stop-opacity="0"/>
<stop offset="1" stop-color="white"/>
</linearGradient>
<linearGradient id="paint20_linear_3572_15827" x1="284.108" y1="41.6489" x2="290.854" y2="46.4593" gradientUnits="userSpaceOnUse">
<stop stop-color="#008027"/>
<stop offset="0.771271" stop-color="#5CE27A"/>
</linearGradient>
<linearGradient id="paint21_linear_3572_15827" x1="284.829" y1="38.1208" x2="283.817" y2="50.7963" gradientUnits="userSpaceOnUse">
<stop stop-color="#008027"/>
<stop offset="1" stop-color="#B8F5C5"/>
</linearGradient>
<linearGradient id="paint22_linear_3572_15827" x1="297.284" y1="24.7006" x2="284.929" y2="33.9639" gradientUnits="userSpaceOnUse">
<stop stop-color="#B8F5C5"/>
<stop offset="1" stop-color="#008027"/>
</linearGradient>
<linearGradient id="paint23_linear_3572_15827" x1="283.179" y1="31.7812" x2="294.931" y2="22.7308" gradientUnits="userSpaceOnUse">
<stop stop-color="#008027"/>
<stop offset="1" stop-color="#B8F5C5"/>
</linearGradient>
<linearGradient id="paint24_linear_3572_15827" x1="289.238" y1="35.2052" x2="293.106" y2="26.1221" gradientUnits="userSpaceOnUse">
<stop stop-color="#E6FFEB" stop-opacity="0"/>
<stop offset="1" stop-color="white"/>
</linearGradient>
<linearGradient id="paint25_linear_3572_15827" x1="277.598" y1="57.8321" x2="253.106" y2="15.4003" gradientUnits="userSpaceOnUse">
<stop stop-color="#008027"/>
<stop offset="1" stop-color="#B8F5C5"/>
</linearGradient>
<linearGradient id="paint26_linear_3572_15827" x1="249.411" y1="23.5839" x2="283.106" y2="63.3637" gradientUnits="userSpaceOnUse">
<stop stop-color="#B8F5C5"/>
<stop offset="1" stop-color="#008027"/>
</linearGradient>
<linearGradient id="paint27_linear_3572_15827" x1="267.044" y1="36.3709" x2="272.926" y2="47.8849" gradientUnits="userSpaceOnUse">
<stop stop-color="#E6FFEB"/>
<stop offset="1" stop-color="white" stop-opacity="0"/>
</linearGradient>
<linearGradient id="paint28_linear_3572_15827" x1="272.675" y1="46.5082" x2="257.282" y2="25.3575" gradientUnits="userSpaceOnUse">
<stop stop-color="white"/>
<stop offset="1" stop-color="#008027"/>
</linearGradient>
<linearGradient id="paint29_linear_3572_15827" x1="253.935" y1="19.6839" x2="276.711" y2="56.0317" gradientUnits="userSpaceOnUse">
<stop stop-color="#008027"/>
<stop offset="1" stop-color="#B8F5C5"/>
</linearGradient>
<clipPath id="clip0_3572_15827">
<rect width="320" height="79" fill="white"/>
</clipPath>
</defs>
</svg>
