<svg width="280" height="234" viewBox="0 0 280 234" fill="none" xmlns="http://www.w3.org/2000/svg">
<g clip-path="url(#clip0_3572_15249)">
<g opacity="0.08">
<path d="M-6 195L140 49L286 195" stroke="white"/>
<path d="M-6 205.5L140 59.5L286 205.5" stroke="white"/>
<path d="M-6 216L140 70L286 216" stroke="white"/>
<path d="M-6 226.5L140 80.5L286 226.5" stroke="white"/>
<path d="M-6 237L140 91L286 237" stroke="white"/>
<path d="M-6 247.5L140 101.5L286 247.5" stroke="white"/>
<path d="M-6 258L140 112L286 258" stroke="white"/>
<path d="M-6 268.5L140 122.5L286 268.5" stroke="white"/>
<path d="M-6 279L140 133L286 279" stroke="white"/>
<path d="M-6 289.5L140 143.5L286 289.5" stroke="white"/>
<path d="M-6 300L140 154L286 300" stroke="white"/>
<path d="M-6 310.5L140 164.5L286 310.5" stroke="white"/>
<path d="M-6 321L140 175L286 321" stroke="white"/>
<path d="M-6 331.5L140 185.5L286 331.5" stroke="white"/>
<path d="M-6 342L140 196L286 342" stroke="white"/>
<path d="M-6 352.5L140 206.5L286 352.5" stroke="white"/>
<path d="M-6 363L140 217L286 363" stroke="white"/>
<path d="M-6 373.5L140 227.5L286 373.5" stroke="white"/>
</g>
<path fill-rule="evenodd" clip-rule="evenodd" d="M153.205 136.961C153.205 137.656 153.768 138.219 154.462 138.219L172.697 138.219C173.392 138.219 173.955 137.656 173.955 136.961L173.955 97.4038C173.955 96.4357 172.907 95.8307 172.068 96.3147L153.834 106.843C153.444 107.067 153.205 107.482 153.205 107.932L153.205 136.961Z" fill="url(#paint0_linear_3572_15249)"/>
<path fill-rule="evenodd" clip-rule="evenodd" d="M154.462 136.961L172.697 136.961L172.697 97.4038L154.462 107.932L154.462 136.961ZM154.462 138.219C153.768 138.219 153.205 137.656 153.205 136.961L153.205 107.932C153.205 107.482 153.444 107.067 153.834 106.843L172.068 96.3147C172.907 95.8307 173.955 96.4357 173.955 97.4038L173.955 136.961C173.955 137.656 173.392 138.219 172.697 138.219L154.462 138.219Z" fill="url(#paint1_linear_3572_15249)"/>
<path fill-rule="evenodd" clip-rule="evenodd" d="M126.167 136.961C126.167 137.656 125.604 138.219 124.91 138.219L106.675 138.219C105.981 138.219 105.417 137.656 105.417 136.961L105.417 97.4038C105.417 96.4357 106.465 95.8307 107.304 96.3147L125.539 106.843C125.928 107.067 126.167 107.482 126.167 107.932L126.167 136.961Z" fill="url(#paint2_linear_3572_15249)"/>
<path fill-rule="evenodd" clip-rule="evenodd" d="M124.91 136.961L106.675 136.961L106.675 97.4038L124.91 107.932L124.91 136.961ZM124.91 138.219C125.604 138.219 126.167 137.656 126.167 136.961L126.167 107.932C126.167 107.482 125.928 107.067 125.539 106.843L107.304 96.3147C106.465 95.8307 105.417 96.4357 105.417 97.4038L105.417 136.961C105.417 137.656 105.981 138.219 106.675 138.219L124.91 138.219Z" fill="url(#paint3_linear_3572_15249)"/>
<path fill-rule="evenodd" clip-rule="evenodd" d="M121.202 128.514L110.383 128.514L110.383 104.322L121.202 110.569L121.202 128.514ZM121.202 129.772C121.896 129.772 122.459 129.209 122.459 128.514L122.459 110.569C122.459 110.119 122.219 109.704 121.83 109.479L111.011 103.233C110.173 102.749 109.125 103.354 109.125 104.322L109.125 128.514C109.125 129.209 109.688 129.772 110.383 129.772L121.202 129.772Z" fill="url(#paint4_linear_3572_15249)"/>
<path fill-rule="evenodd" clip-rule="evenodd" d="M158.236 128.514L169.055 128.514L169.055 104.322L158.236 110.569L158.236 128.514ZM158.236 129.772C157.541 129.772 156.978 129.209 156.978 128.514L156.978 110.569C156.978 110.119 157.218 109.704 157.607 109.479L168.426 103.233C169.265 102.749 170.313 103.354 170.313 104.322L170.313 128.514C170.313 129.209 169.749 129.772 169.055 129.772L158.236 129.772Z" fill="url(#paint5_linear_3572_15249)"/>
<path fill-rule="evenodd" clip-rule="evenodd" d="M126.907 149.595C126.907 148.9 126.344 148.337 125.65 148.337L107.415 148.337C106.72 148.337 106.157 148.9 106.157 149.595L106.157 189.152C106.157 190.121 107.205 190.726 108.044 190.242L126.278 179.714C126.667 179.489 126.907 179.074 126.907 178.625L126.907 149.595Z" fill="url(#paint6_linear_3572_15249)"/>
<path fill-rule="evenodd" clip-rule="evenodd" d="M125.65 149.595L107.415 149.595L107.415 189.152L125.65 178.625L125.65 149.595ZM125.65 148.337C126.344 148.337 126.907 148.9 126.907 149.595L126.907 178.625C126.907 179.074 126.667 179.489 126.278 179.714L108.044 190.242C107.205 190.726 106.157 190.121 106.157 189.152L106.157 149.595C106.157 148.9 106.72 148.337 107.415 148.337L125.65 148.337Z" fill="url(#paint7_linear_3572_15249)"/>
<path fill-rule="evenodd" clip-rule="evenodd" d="M153.944 149.595C153.944 148.9 154.508 148.337 155.202 148.337L173.437 148.337C174.131 148.337 174.694 148.9 174.694 149.595L174.694 189.152C174.694 190.121 173.646 190.726 172.808 190.242L154.573 179.714C154.184 179.489 153.944 179.074 153.944 178.625L153.944 149.595Z" fill="url(#paint8_linear_3572_15249)"/>
<path fill-rule="evenodd" clip-rule="evenodd" d="M155.202 149.595L173.437 149.595L173.437 189.152L155.202 178.625L155.202 149.595ZM155.202 148.337C154.508 148.337 153.944 148.9 153.944 149.595L153.944 178.625C153.944 179.074 154.184 179.489 154.573 179.714L172.808 190.242C173.646 190.726 174.694 190.121 174.694 189.152L174.694 149.595C174.694 148.9 174.131 148.337 173.437 148.337L155.202 148.337Z" fill="url(#paint9_linear_3572_15249)"/>
<path fill-rule="evenodd" clip-rule="evenodd" d="M158.91 158.042L169.729 158.042L169.729 182.234L158.91 175.988L158.91 158.042ZM158.91 156.784C158.216 156.784 157.653 157.347 157.653 158.042L157.653 175.988C157.653 176.437 157.892 176.852 158.282 177.077L169.1 183.323C169.939 183.807 170.987 183.202 170.987 182.234L170.987 158.042C170.987 157.347 170.424 156.784 169.729 156.784L158.91 156.784Z" fill="url(#paint10_linear_3572_15249)"/>
<path fill-rule="evenodd" clip-rule="evenodd" d="M121.876 158.042H111.057V182.234L121.876 175.988L121.876 158.042ZM121.876 156.784C122.57 156.784 123.133 157.347 123.133 158.042V175.988C123.133 176.437 122.894 176.852 122.505 177.077L111.686 183.323C110.847 183.807 109.799 183.202 109.799 182.234V158.042C109.799 157.347 110.362 156.784 111.057 156.784H121.876Z" fill="url(#paint11_linear_3572_15249)"/>
<path fill-rule="evenodd" clip-rule="evenodd" d="M117.364 191.407C117.364 192.001 117.644 192.56 118.119 192.916L138.869 208.478C139.539 208.981 140.462 208.981 141.132 208.478L161.882 192.916C162.357 192.56 162.637 192.001 162.637 191.407L162.637 169.085C162.637 168.043 161.792 167.199 160.75 167.199L119.251 167.199C118.209 167.199 117.364 168.043 117.364 169.085L117.364 191.407Z" fill="url(#paint12_linear_3572_15249)"/>
<path fill-rule="evenodd" clip-rule="evenodd" d="M118.873 191.91L139.623 207.472C139.847 207.64 140.154 207.64 140.378 207.472L161.128 191.91C161.286 191.791 161.379 191.605 161.379 191.407L161.379 169.085C161.379 168.738 161.098 168.456 160.75 168.456L119.251 168.456C118.903 168.456 118.622 168.738 118.622 169.085L118.622 191.407C118.622 191.605 118.715 191.791 118.873 191.91ZM118.119 192.916C117.644 192.56 117.364 192.001 117.364 191.407L117.364 169.085C117.364 168.043 118.209 167.199 119.251 167.199L160.75 167.199C161.792 167.199 162.637 168.043 162.637 169.085L162.637 191.407C162.637 192.001 162.357 192.56 161.882 192.916L141.132 208.478C140.462 208.981 139.539 208.981 138.869 208.478L118.119 192.916Z" fill="url(#paint13_linear_3572_15249)"/>
<path fill-rule="evenodd" clip-rule="evenodd" d="M123.904 188.472L139.862 200.44C140.085 200.608 140.393 200.608 140.616 200.44L156.574 188.472C156.732 188.353 156.825 188.167 156.825 187.969L156.825 170.972C156.825 170.624 156.544 170.343 156.197 170.343L124.281 170.343C123.934 170.343 123.652 170.624 123.652 170.972L123.652 187.969C123.652 188.167 123.746 188.353 123.904 188.472ZM123.149 189.478C122.674 189.122 122.395 188.562 122.395 187.969L122.395 170.972C122.395 169.93 123.239 169.085 124.281 169.085L156.197 169.085C157.238 169.085 158.083 169.93 158.083 170.972L158.083 187.969C158.083 188.562 157.803 189.122 157.328 189.478L141.371 201.446C140.7 201.949 139.778 201.949 139.107 201.446L123.149 189.478Z" fill="url(#paint14_linear_3572_15249)"/>
<path fill-rule="evenodd" clip-rule="evenodd" d="M115.846 143.317C115.846 142.623 115.283 142.06 114.588 142.06H95.78C95.0855 142.06 94.5225 142.623 94.5225 143.317V164.53C94.5225 164.977 94.7597 165.39 95.1457 165.616L113.954 176.603C114.792 177.093 115.846 176.489 115.846 175.518V143.317Z" fill="url(#paint15_linear_3572_15249)"/>
<path fill-rule="evenodd" clip-rule="evenodd" d="M114.588 143.317H95.78L95.78 164.53L114.588 175.518L114.588 143.317ZM114.588 142.06C115.283 142.06 115.846 142.623 115.846 143.317V175.518C115.846 176.489 114.792 177.093 113.954 176.603L95.1457 165.616C94.7597 165.39 94.5225 164.977 94.5225 164.53V143.317C94.5225 142.623 95.0855 142.06 95.78 142.06H114.588Z" fill="url(#paint16_linear_3572_15249)"/>
<path fill-rule="evenodd" clip-rule="evenodd" d="M84.8677 121.301C84.0331 120.814 82.9925 121.416 82.9925 122.387L82.9925 139.992C82.9925 140.444 83.2324 140.864 83.6213 141.091L113.274 158.414C113.873 158.764 114.638 158.559 114.983 157.956L122.516 144.752C122.861 144.149 122.653 143.376 122.054 143.026L84.8677 121.301Z" fill="url(#paint17_linear_3572_15249)"/>
<path fill-rule="evenodd" clip-rule="evenodd" d="M84.2445 122.394L84.2445 139.999L113.897 157.322L121.43 144.118L84.2445 122.394ZM82.9925 122.387C82.9925 121.416 84.0331 120.814 84.8677 121.301L122.054 143.026C122.653 143.376 122.861 144.149 122.516 144.752L114.983 157.956C114.638 158.559 113.873 158.764 113.274 158.414L83.6213 141.091C83.2324 140.864 82.9925 140.444 82.9925 139.992L82.9925 122.387Z" fill="url(#paint18_linear_3572_15249)"/>
<path fill-rule="evenodd" clip-rule="evenodd" d="M88.1396 128.926L88.1395 137.942L104.659 147.592L108.517 140.831L88.1396 128.926ZM86.8876 128.92C86.8876 127.949 87.9281 127.347 88.7628 127.834L109.14 139.739C109.74 140.089 109.947 140.862 109.603 141.465L105.745 148.227C105.401 148.83 104.635 149.035 104.036 148.685L87.5163 139.034C87.1274 138.807 86.8876 138.388 86.8876 137.935L86.8876 128.92Z" fill="url(#paint19_linear_3572_15249)"/>
<path fill-rule="evenodd" clip-rule="evenodd" d="M164.154 143.317C164.154 142.623 164.717 142.06 165.412 142.06H184.22C184.915 142.06 185.478 142.623 185.478 143.317V164.53C185.478 164.977 185.24 165.39 184.854 165.616L166.046 176.603C165.208 177.093 164.154 176.489 164.154 175.518V143.317Z" fill="url(#paint20_linear_3572_15249)"/>
<path fill-rule="evenodd" clip-rule="evenodd" d="M165.412 143.317H184.22L184.22 164.53L165.412 175.518L165.412 143.317ZM165.412 142.06C164.717 142.06 164.154 142.623 164.154 143.317V175.518C164.154 176.489 165.208 177.093 166.046 176.603L184.854 165.616C185.24 165.39 185.478 164.977 185.478 164.53V143.317C185.478 142.623 184.915 142.06 184.22 142.06H165.412Z" fill="url(#paint21_linear_3572_15249)"/>
<path fill-rule="evenodd" clip-rule="evenodd" d="M195.132 121.301C195.967 120.814 197.007 121.416 197.007 122.387L197.007 139.992C197.007 140.444 196.768 140.864 196.379 141.091L166.726 158.414C166.127 158.764 165.362 158.559 165.017 157.956L157.484 144.752C157.139 144.149 157.347 143.376 157.946 143.026L195.132 121.301Z" fill="url(#paint22_linear_3572_15249)"/>
<path fill-rule="evenodd" clip-rule="evenodd" d="M195.756 122.394L195.755 139.999L166.103 157.322L158.57 144.118L195.756 122.394ZM197.007 122.387C197.007 121.416 195.967 120.814 195.132 121.301L157.946 143.026C157.347 143.376 157.139 144.149 157.484 144.752L165.017 157.956C165.362 158.559 166.127 158.764 166.726 158.414L196.379 141.091C196.768 140.864 197.007 140.444 197.007 139.992L197.007 122.387Z" fill="url(#paint23_linear_3572_15249)"/>
<path fill-rule="evenodd" clip-rule="evenodd" d="M191.86 128.926L191.86 137.942L175.341 147.592L171.483 140.831L191.86 128.926ZM193.112 128.92C193.112 127.949 192.071 127.347 191.237 127.834L170.859 139.739C170.26 140.089 170.053 140.862 170.397 141.465L174.255 148.227C174.599 148.83 175.364 149.035 175.964 148.685L192.483 139.034C192.872 138.807 193.112 138.388 193.112 137.935L193.112 128.92Z" fill="url(#paint24_linear_3572_15249)"/>
<path d="M136.724 103.62C138.669 102.496 141.066 102.496 143.012 103.62L177.449 123.502C179.395 124.625 180.593 126.701 180.593 128.948V168.713C180.593 170.959 179.395 173.035 177.449 174.158L143.012 194.041C141.066 195.164 138.669 195.164 136.724 194.041L102.286 174.158C100.341 173.035 99.1421 170.959 99.1421 168.713V128.948C99.1421 126.701 100.341 124.625 102.286 123.502L136.724 103.62Z" fill="url(#paint25_linear_3572_15249)"/>
<path d="M136.816 113.654C138.762 112.531 141.159 112.531 143.104 113.654L168.968 128.587C170.914 129.71 172.112 131.786 172.112 134.032V163.897C172.112 166.144 170.914 168.22 168.968 169.343L143.104 184.275C141.159 185.399 138.762 185.399 136.816 184.275L110.953 169.343C109.007 168.22 107.809 166.144 107.809 163.897V134.032C107.809 131.786 109.007 129.71 110.953 128.587L136.816 113.654Z" fill="url(#paint26_linear_3572_15249)"/>
<path d="M147.959 154.144L148.088 154.101L148.093 154.099L148.234 154.052L148.337 154.159C148.768 154.607 149.105 154.978 149.345 155.315C149.587 155.654 149.74 155.971 149.789 156.313C149.838 156.655 149.779 156.997 149.64 157.376C149.502 157.752 149.281 158.18 148.991 158.699M147.959 154.144L141.036 130.445C142.738 130.155 144.202 130.606 145.466 131.744C148.669 134.627 151.336 137.856 152.81 141.975C153.254 143.217 154.035 144.358 154.786 145.414L154.786 145.414C156.669 148.058 157.757 150.954 157.882 154.19L157.882 154.191C157.893 154.461 157.948 154.697 158.101 154.877C158.254 155.059 158.473 155.145 158.718 155.192L158.718 155.192C160.018 155.445 161.366 155.694 162.625 155.004L162.625 155.004C162.675 154.976 162.722 154.951 162.767 154.926C162.875 154.867 162.976 154.811 163.108 154.737C163.019 154.897 162.916 155.047 162.82 155.169C162.133 156.037 161.44 156.673 160.647 157.043C159.859 157.411 158.953 157.525 157.819 157.313L157.62 157.276L157.553 157.467C157.433 157.809 157.315 158.144 157.185 158.514C155.394 157.004 153.906 155.308 152.559 153.482L152.559 153.482C151.44 151.964 150.343 150.428 149.245 148.891C148.921 148.437 148.597 147.984 148.273 147.53L148.081 147.667L148.273 147.53C148.059 147.231 147.762 147.048 147.437 147.048C147.109 147.048 146.813 147.235 146.605 147.551C146.156 148.229 146.188 148.97 146.606 149.622L146.606 149.622C149.051 153.426 151.684 157.132 155.086 160.177C156.547 161.485 158.247 162.124 159.972 162.061C161.55 162.004 163.13 161.359 164.55 160.134C164.542 160.15 164.534 160.167 164.526 160.182C164.471 160.293 164.421 160.381 164.385 160.442C164.367 160.472 164.352 160.495 164.342 160.51L164.332 160.527L164.33 160.529C163.372 161.869 162.249 162.73 161.005 163.102C159.761 163.474 158.371 163.366 156.863 162.719C156.636 162.622 156.413 162.519 156.168 162.405C156.059 162.355 155.945 162.302 155.825 162.247L155.654 162.169L155.539 162.319C155.374 162.537 155.208 162.756 155.035 162.982C154.871 163.199 154.7 163.423 154.519 163.662C154.292 163.493 154.071 163.327 153.854 163.164C153.504 162.902 153.162 162.645 152.82 162.388L152.649 162.26L152.504 162.417L152.389 162.543L152.245 162.7L152.387 162.859C152.702 163.211 153.015 163.563 153.341 163.928C153.5 164.106 153.662 164.288 153.829 164.474C153.788 164.518 153.747 164.562 153.705 164.607C153.592 164.728 153.472 164.858 153.341 164.999C153.194 164.874 153.051 164.752 152.91 164.633C152.621 164.387 152.342 164.151 152.063 163.914L151.902 163.777L151.748 163.922L151.652 164.014L151.501 164.157L151.624 164.325C151.777 164.534 151.93 164.742 152.089 164.957C152.261 165.191 152.439 165.434 152.631 165.695C152.472 165.826 152.295 165.973 152.086 166.145C151.911 165.896 151.75 165.666 151.59 165.438L151.459 165.251L151.268 165.376L151.05 165.517L150.86 165.641L150.975 165.835C151.064 165.985 151.154 166.136 151.249 166.296C151.313 166.404 151.38 166.516 151.45 166.634L151.135 166.912C151.062 166.853 150.986 166.792 150.899 166.721C150.807 166.646 150.702 166.561 150.573 166.457L150.209 166.737C150.293 166.925 150.356 167.067 150.415 167.201C150.441 167.26 150.467 167.317 150.493 167.376C150.18 167.472 149.907 167.556 149.699 167.619L149.663 167.63L149.632 167.652C149.478 167.76 149.327 167.876 149.186 167.985C149.115 168.04 149.047 168.093 148.981 168.142C148.777 168.296 148.586 168.427 148.383 168.521L148.383 168.521C136.29 174.178 123.868 166.489 122.656 154.728L122.656 154.728C122.643 154.61 122.63 154.496 122.616 154.385C122.593 154.196 122.571 154.012 122.558 153.822L122.558 153.822C122.511 153.163 122.555 152.836 122.702 152.634C122.846 152.435 123.133 152.297 123.772 152.164L123.724 151.933L123.772 152.164C124.254 152.064 124.773 152.044 125.272 152.088C125.661 152.122 125.912 152.238 126.059 152.397C126.2 152.55 126.276 152.78 126.237 153.124L126.237 153.124C125.56 159.004 129.672 162.986 134.73 164.348C140.473 165.895 145.938 163.803 148.857 158.92C148.867 158.903 148.88 158.882 148.895 158.859C148.926 158.81 148.962 158.752 148.991 158.699M147.959 154.144L147.932 154.277C147.886 154.497 147.807 154.633 147.719 154.724C147.629 154.816 147.514 154.878 147.37 154.924C147.222 154.97 147.058 154.996 146.873 155.025L146.871 155.025C146.693 155.052 146.494 155.083 146.308 155.144M147.959 154.144L146.308 155.144M148.991 158.699C148.991 158.699 148.991 158.7 148.991 158.7L148.785 158.585L148.992 158.698C148.992 158.698 148.991 158.699 148.991 158.699ZM146.308 155.144C143.87 155.941 141.66 155.436 139.574 153.971L139.574 153.971C138.966 153.545 138.671 153.039 138.703 152.362C138.758 151.23 138.831 150.099 138.964 148.979L138.964 148.979C139.203 146.955 138.969 145.025 137.46 143.429C137.297 143.256 137.105 143.106 136.93 142.969C136.881 142.93 136.833 142.892 136.788 142.856L136.786 142.854C136.661 142.756 136.487 142.734 136.34 142.81L136.339 142.81C136.158 142.905 136.079 143.11 136.135 143.297L136.135 143.298C136.168 143.404 136.197 143.514 136.227 143.628L136.23 143.638C136.26 143.754 136.293 143.875 136.329 143.994C136.403 144.231 136.498 144.476 136.655 144.688L136.655 144.688C137.828 146.268 137.85 148.054 137.689 149.959C137.612 150.867 137.533 151.775 137.454 152.684C137.318 154.243 137.183 155.802 137.055 157.36L137.055 157.36C137.029 157.684 137 157.919 136.955 158.095C136.911 158.268 136.856 158.362 136.793 158.421C136.729 158.48 136.632 158.529 136.455 158.563C136.275 158.596 136.037 158.61 135.711 158.617H135.711C134.63 158.638 133.715 158.412 132.957 157.95C132.2 157.488 131.585 156.78 131.121 155.81L131.121 155.81C130.721 154.973 130.383 154.103 130.043 153.226L130.007 153.134L130.007 153.133C129.311 151.346 128.232 149.888 126.405 149.045C124.475 148.154 123.349 146.694 122.919 144.54C122.699 143.432 122.137 142.379 121.61 141.393C121.549 141.278 121.488 141.165 121.428 141.052L121.428 141.052C120.949 140.148 120.827 139.361 121.194 138.391L121.194 138.391C121.462 137.681 121.665 136.949 121.863 136.228C121.87 136.201 121.878 136.174 121.885 136.147C122.076 135.45 122.265 134.764 122.506 134.097M146.308 155.144L141.036 130.445C139.501 130.707 138.027 130.497 136.593 129.839C135.087 129.147 133.541 128.53 131.985 127.95L131.985 127.95C129.897 127.171 127.937 127.396 126.15 128.773L126.15 128.773C124.37 130.143 123.264 132.006 122.506 134.097M122.506 134.097L122.284 134.017M122.506 134.097L122.284 134.017M122.284 134.017C122.04 134.692 121.849 135.387 121.659 136.082C121.453 136.832 121.247 137.583 120.973 138.308M122.284 134.017C123.052 131.899 124.179 129.992 126.006 128.586C127.862 127.156 129.909 126.924 132.067 127.729C133.627 128.31 135.178 128.93 136.691 129.625C138.084 130.264 139.51 130.466 140.997 130.212C142.771 129.91 144.308 130.385 145.624 131.569C148.843 134.466 151.54 137.727 153.032 141.895L120.973 138.308M120.973 138.308C120.578 139.353 120.716 140.212 121.22 141.162L120.973 138.308ZM158.118 154.181C158.138 154.679 158.318 154.874 158.763 154.961C160.076 155.217 161.339 155.44 162.511 154.797L158.118 154.181ZM148.135 142.213L148.529 142.49L148.507 142.01C148.458 140.965 147.997 140.165 147.252 139.734C146.512 139.305 145.534 139.265 144.495 139.646L144.269 139.729L144.357 139.954C144.727 140.897 145.43 141.257 146.15 141.487C146.328 141.544 146.509 141.594 146.686 141.642L146.709 141.648C146.88 141.694 147.046 141.74 147.209 141.79C147.55 141.897 147.863 142.022 148.135 142.213Z" fill="url(#paint27_linear_3572_15249)" stroke="url(#paint28_linear_3572_15249)" stroke-width="0.471587"/>
<path fill-rule="evenodd" clip-rule="evenodd" d="M144.048 112.021L169.912 126.953C172.441 128.414 173.999 131.112 173.999 134.032V163.898C173.999 166.818 172.441 169.516 169.912 170.977L144.048 185.909C141.519 187.369 138.403 187.369 135.873 185.909L110.009 170.977C107.48 169.516 105.922 166.818 105.922 163.898V134.032C105.922 131.112 107.48 128.414 110.009 126.953L135.873 112.021C138.403 110.561 141.519 110.561 144.048 112.021ZM143.104 113.655C141.159 112.531 138.762 112.531 136.817 113.655L110.953 128.587C109.007 129.71 107.809 131.786 107.809 134.032V163.898C107.809 166.144 109.007 168.22 110.953 169.343L136.817 184.276C138.762 185.399 141.159 185.399 143.104 184.276L168.968 169.343C170.914 168.22 172.112 166.144 172.112 163.898V134.032C172.112 131.786 170.914 129.71 168.968 128.587L143.104 113.655Z" fill="url(#paint29_linear_3572_15249)"/>
</g>
<defs>
<linearGradient id="paint0_linear_3572_15249" x1="163.58" y1="126.326" x2="163.58" y2="96.1444" gradientUnits="userSpaceOnUse">
<stop stop-color="#008027"/>
<stop offset="1" stop-color="#E6FFEB"/>
</linearGradient>
<linearGradient id="paint1_linear_3572_15249" x1="163.58" y1="138.219" x2="163.58" y2="96.1444" gradientUnits="userSpaceOnUse">
<stop stop-color="#008027"/>
<stop offset="1" stop-color="#B8F5C5"/>
</linearGradient>
<linearGradient id="paint2_linear_3572_15249" x1="115.792" y1="126.326" x2="115.792" y2="96.1444" gradientUnits="userSpaceOnUse">
<stop stop-color="#008027"/>
<stop offset="1" stop-color="#E6FFEB"/>
</linearGradient>
<linearGradient id="paint3_linear_3572_15249" x1="115.792" y1="138.219" x2="115.792" y2="96.1444" gradientUnits="userSpaceOnUse">
<stop stop-color="#008027"/>
<stop offset="1" stop-color="#B8F5C5"/>
</linearGradient>
<linearGradient id="paint4_linear_3572_15249" x1="115.792" y1="129.772" x2="115.792" y2="103.063" gradientUnits="userSpaceOnUse">
<stop stop-color="#E8E6FF" stop-opacity="0"/>
<stop offset="1" stop-color="#E8E6FF"/>
</linearGradient>
<linearGradient id="paint5_linear_3572_15249" x1="163.645" y1="129.772" x2="163.645" y2="103.063" gradientUnits="userSpaceOnUse">
<stop stop-color="#E8E6FF" stop-opacity="0"/>
<stop offset="1" stop-color="#E8E6FF"/>
</linearGradient>
<linearGradient id="paint6_linear_3572_15249" x1="116.532" y1="160.23" x2="116.532" y2="190.412" gradientUnits="userSpaceOnUse">
<stop stop-color="#008027"/>
<stop offset="1" stop-color="#B8F5C5"/>
</linearGradient>
<linearGradient id="paint7_linear_3572_15249" x1="116.532" y1="148.337" x2="116.532" y2="190.412" gradientUnits="userSpaceOnUse">
<stop offset="0.583333" stop-color="#008027"/>
<stop offset="1" stop-color="#B8F5C5"/>
</linearGradient>
<linearGradient id="paint8_linear_3572_15249" x1="164.319" y1="160.23" x2="164.319" y2="190.412" gradientUnits="userSpaceOnUse">
<stop stop-color="#008027"/>
<stop offset="1" stop-color="#B8F5C5"/>
</linearGradient>
<linearGradient id="paint9_linear_3572_15249" x1="164.319" y1="148.337" x2="164.319" y2="190.412" gradientUnits="userSpaceOnUse">
<stop offset="0.583333" stop-color="#008027"/>
<stop offset="1" stop-color="#B8F5C5"/>
</linearGradient>
<linearGradient id="paint10_linear_3572_15249" x1="164.32" y1="156.784" x2="164.32" y2="183.493" gradientUnits="userSpaceOnUse">
<stop stop-color="#E8E6FF" stop-opacity="0"/>
<stop offset="1" stop-color="#E8E6FF"/>
</linearGradient>
<linearGradient id="paint11_linear_3572_15249" x1="116.466" y1="156.784" x2="116.466" y2="183.493" gradientUnits="userSpaceOnUse">
<stop stop-color="#E8E6FF" stop-opacity="0"/>
<stop offset="1" stop-color="#E8E6FF"/>
</linearGradient>
<linearGradient id="paint12_linear_3572_15249" x1="140.001" y1="208.856" x2="140.001" y2="167.199" gradientUnits="userSpaceOnUse">
<stop stop-color="#B8F5C5"/>
<stop offset="1" stop-color="#008027"/>
</linearGradient>
<linearGradient id="paint13_linear_3572_15249" x1="140.001" y1="208.856" x2="140.001" y2="167.199" gradientUnits="userSpaceOnUse">
<stop stop-color="#008027"/>
<stop offset="1" stop-color="#B8F5C5"/>
</linearGradient>
<linearGradient id="paint14_linear_3572_15249" x1="140.239" y1="201.823" x2="140.239" y2="169.085" gradientUnits="userSpaceOnUse">
<stop stop-color="#B8F5C5"/>
<stop offset="1" stop-color="#008027"/>
</linearGradient>
<linearGradient id="paint15_linear_3572_15249" x1="104.943" y1="156.548" x2="92.2323" y2="165.612" gradientUnits="userSpaceOnUse">
<stop stop-color="#008027"/>
<stop offset="0.771271" stop-color="#5CE27A"/>
</linearGradient>
<linearGradient id="paint16_linear_3572_15249" x1="103.584" y1="149.901" x2="105.491" y2="173.783" gradientUnits="userSpaceOnUse">
<stop stop-color="#008027"/>
<stop offset="1" stop-color="#B8F5C5"/>
</linearGradient>
<linearGradient id="paint17_linear_3572_15249" x1="80.1179" y1="124.617" x2="103.394" y2="142.07" gradientUnits="userSpaceOnUse">
<stop stop-color="#B8F5C5"/>
<stop offset="1" stop-color="#008027"/>
</linearGradient>
<linearGradient id="paint18_linear_3572_15249" x1="106.691" y1="137.957" x2="84.55" y2="120.906" gradientUnits="userSpaceOnUse">
<stop stop-color="#008027"/>
<stop offset="1" stop-color="#B8F5C5"/>
</linearGradient>
<linearGradient id="paint19_linear_3572_15249" x1="95.2766" y1="144.408" x2="87.9892" y2="127.295" gradientUnits="userSpaceOnUse">
<stop stop-color="#E6FFEB" stop-opacity="0"/>
<stop offset="1" stop-color="white"/>
</linearGradient>
<linearGradient id="paint20_linear_3572_15249" x1="175.057" y1="156.548" x2="187.768" y2="165.612" gradientUnits="userSpaceOnUse">
<stop stop-color="#008027"/>
<stop offset="0.771271" stop-color="#5CE27A"/>
</linearGradient>
<linearGradient id="paint21_linear_3572_15249" x1="176.416" y1="149.901" x2="174.509" y2="173.783" gradientUnits="userSpaceOnUse">
<stop stop-color="#008027"/>
<stop offset="1" stop-color="#B8F5C5"/>
</linearGradient>
<linearGradient id="paint22_linear_3572_15249" x1="199.882" y1="124.617" x2="176.606" y2="142.07" gradientUnits="userSpaceOnUse">
<stop stop-color="#B8F5C5"/>
<stop offset="1" stop-color="#008027"/>
</linearGradient>
<linearGradient id="paint23_linear_3572_15249" x1="173.309" y1="137.957" x2="195.45" y2="120.906" gradientUnits="userSpaceOnUse">
<stop stop-color="#008027"/>
<stop offset="1" stop-color="#B8F5C5"/>
</linearGradient>
<linearGradient id="paint24_linear_3572_15249" x1="184.723" y1="144.408" x2="192.01" y2="127.295" gradientUnits="userSpaceOnUse">
<stop stop-color="#E6FFEB" stop-opacity="0"/>
<stop offset="1" stop-color="white"/>
</linearGradient>
<linearGradient id="paint25_linear_3572_15249" x1="162.793" y1="187.039" x2="116.649" y2="107.095" gradientUnits="userSpaceOnUse">
<stop stop-color="#008027"/>
<stop offset="1" stop-color="#B8F5C5"/>
</linearGradient>
<linearGradient id="paint26_linear_3572_15249" x1="109.687" y1="122.513" x2="173.172" y2="197.46" gradientUnits="userSpaceOnUse">
<stop stop-color="#B8F5C5"/>
<stop offset="1" stop-color="#008027"/>
</linearGradient>
<linearGradient id="paint27_linear_3572_15249" x1="142.909" y1="146.604" x2="153.991" y2="168.297" gradientUnits="userSpaceOnUse">
<stop stop-color="#E6FFEB"/>
<stop offset="1" stop-color="white" stop-opacity="0"/>
</linearGradient>
<linearGradient id="paint28_linear_3572_15249" x1="153.52" y1="165.704" x2="124.517" y2="125.855" gradientUnits="userSpaceOnUse">
<stop stop-color="white"/>
<stop offset="1" stop-color="#008027"/>
</linearGradient>
<linearGradient id="paint29_linear_3572_15249" x1="118.211" y1="115.165" x2="161.122" y2="183.647" gradientUnits="userSpaceOnUse">
<stop stop-color="#008027"/>
<stop offset="1" stop-color="#B8F5C5"/>
</linearGradient>
<clipPath id="clip0_3572_15249">
<rect width="280" height="234" fill="white"/>
</clipPath>
</defs>
</svg>
