<svg width="24" height="25" viewBox="0 0 24 25" fill="none" xmlns="http://www.w3.org/2000/svg">
<g id="Brand Logos">
<path id="Vector" d="M8.84156 21.4443C6.41531 21.4443 4.15363 20.7387 2.25 19.521C3.86624 19.6256 6.71855 19.3752 8.49268 17.6829C5.82381 17.5605 4.6202 15.5136 4.4632 14.6388C4.68997 14.7263 5.77148 14.8313 6.382 14.5863C3.31192 13.8165 2.84095 11.1223 2.94561 10.3001C3.52125 10.7024 4.49809 10.8424 4.88185 10.8074C2.02109 8.76051 3.05027 5.6814 3.55613 5.0166C5.60912 7.86083 8.6859 9.45826 12.4923 9.54712C12.4205 9.23235 12.3826 8.90465 12.3826 8.56807C12.3826 6.15252 14.3351 4.19434 16.7435 4.19434C18.0019 4.19434 19.1358 4.7289 19.9318 5.58396C20.7727 5.38691 22.0382 4.92564 22.6569 4.52674C22.3451 5.64641 21.3742 6.58045 20.7869 6.92664C20.7821 6.91481 20.7918 6.93842 20.7869 6.92664C21.3028 6.84861 22.6986 6.58036 23.25 6.20625C22.9773 6.83527 21.948 7.88113 21.1033 8.46665C21.2605 15.3979 15.9574 21.4443 8.84156 21.4443Z" fill="#1D9BF0"/>
</g>
</svg>
