<svg width="20" height="20" viewBox="0 0 20 20" fill="none" xmlns="http://www.w3.org/2000/svg">
<path d="M9.46845 12.3359C10.307 11.7788 10.9439 10.9666 11.285 10.0195C11.6261 9.07228 11.6531 8.04047 11.3622 7.07672C11.0712 6.11296 10.4778 5.26848 9.66957 4.66824C8.86138 4.068 7.88141 3.7439 6.8747 3.7439C5.86799 3.7439 4.88803 4.068 4.07983 4.66824C3.27164 5.26848 2.67816 6.11296 2.38722 7.07672C2.09628 8.04047 2.12335 9.07228 2.46441 10.0195C2.80547 10.9666 3.4424 11.7788 4.28095 12.3359C2.85046 12.8619 1.61539 13.8135 0.741891 15.0625C0.673661 15.1551 0.63305 15.2652 0.624755 15.3799C0.61646 15.4947 0.640819 15.6094 0.695016 15.7109C0.748572 15.8117 0.828406 15.8962 0.926057 15.9553C1.02371 16.0145 1.13554 16.0461 1.2497 16.0468H12.4997C12.6139 16.0461 12.7257 16.0145 12.8233 15.9553C12.921 15.8962 13.0008 15.8117 13.0544 15.7109C13.1086 15.6094 13.1329 15.4947 13.1246 15.3799C13.1164 15.2652 13.0757 15.1551 13.0075 15.0625C12.134 13.8135 10.8989 12.8619 9.46845 12.3359Z" fill="#083CA0"/>
<path d="M19.3827 15.0625C18.5043 13.815 17.2673 12.8641 15.8358 12.336C16.6771 11.781 17.3167 10.9694 17.6595 10.0217C18.0023 9.07409 18.0301 8.04109 17.7387 7.07639C17.4473 6.11169 16.8522 5.26684 16.042 4.66751C15.2318 4.06819 14.2498 3.7464 13.2421 3.75003C12.812 3.75231 12.384 3.81008 11.9687 3.92191C11.8711 3.95121 11.782 4.00334 11.7086 4.074C11.6352 4.14465 11.5797 4.23178 11.5468 4.32816C11.5153 4.42374 11.5075 4.52551 11.5238 4.6248C11.5401 4.72409 11.5802 4.81797 11.6405 4.89847C12.3471 5.84782 12.753 6.9871 12.806 8.16936C12.8589 9.35161 12.5563 10.5226 11.9374 11.5313C11.858 11.6653 11.8309 11.8239 11.8612 11.9767C11.8914 12.1295 11.977 12.2658 12.1015 12.3594C12.3358 12.5417 12.5624 12.7292 12.7812 12.9219L12.8202 12.961C13.6541 13.7326 14.3307 14.6586 14.8124 15.6875C14.8618 15.7951 14.9412 15.8861 15.0409 15.9498C15.1406 16.0135 15.2566 16.0472 15.3749 16.0469H18.8671C18.9813 16.0462 19.0931 16.0145 19.1907 15.9554C19.2884 15.8962 19.3682 15.8118 19.4218 15.711C19.4753 15.6097 19.5 15.4956 19.4931 15.3813C19.4862 15.2669 19.448 15.1567 19.3827 15.0625Z" fill="#083CA0"/>
</svg>
