<svg width="16" height="16" viewBox="0 0 16 16" fill="none" xmlns="http://www.w3.org/2000/svg">
<g id="users-three">
<g id="Vector">
<path fill-rule="evenodd" clip-rule="evenodd" d="M8 6.75C6.89543 6.75 6 7.64543 6 8.75C6 9.85457 6.89543 10.75 8 10.75C9.10457 10.75 10 9.85457 10 8.75C10 7.64543 9.10457 6.75 8 6.75ZM5 8.75C5 7.09315 6.34315 5.75 8 5.75C9.65685 5.75 11 7.09315 11 8.75C11 10.4069 9.65685 11.75 8 11.75C6.34315 11.75 5 10.4069 5 8.75Z" fill="#4B4B4B"/>
<path fill-rule="evenodd" clip-rule="evenodd" d="M13.7041 8.09179C13.2529 7.8662 12.7553 7.74916 12.2508 7.75C11.9747 7.75047 11.7505 7.52698 11.75 7.25084C11.7495 6.9747 11.973 6.75047 12.2492 6.75001C12.9094 6.7489 13.5608 6.90209 14.1513 7.19736C14.7419 7.49264 15.2552 7.92182 15.6505 8.45068C15.8158 8.67187 15.7705 8.98519 15.5493 9.15051C15.3281 9.31582 15.0148 9.27053 14.8495 9.04934C14.5475 8.64528 14.1553 8.31738 13.7041 8.09179Z" fill="#4B4B4B"/>
<path fill-rule="evenodd" clip-rule="evenodd" d="M3.74916 7.75C3.24473 7.74916 2.74707 7.8662 2.29589 8.09179C1.84471 8.31738 1.45249 8.64528 1.1505 9.04934C0.985185 9.27053 0.67186 9.31582 0.450669 9.15051C0.229478 8.98519 0.184183 8.67187 0.349498 8.45068C0.744762 7.92182 1.25814 7.49264 1.84868 7.19736C2.43922 6.90209 3.09059 6.7489 3.75084 6.75001C4.02698 6.75047 4.25046 6.9747 4.25 7.25084C4.24954 7.52698 4.02531 7.75047 3.74916 7.75Z" fill="#4B4B4B"/>
<path fill-rule="evenodd" clip-rule="evenodd" d="M8 11.7516C7.34324 11.7516 6.69968 11.936 6.14264 12.2839C5.5856 12.6319 5.13747 13.1292 4.8493 13.7194C4.72813 13.9675 4.42875 14.0704 4.18061 13.9493C3.93247 13.8281 3.82954 13.5287 3.9507 13.2806C4.32106 12.5221 4.897 11.8829 5.61292 11.4358C6.32883 10.9887 7.15593 10.7516 8 10.7516C8.84407 10.7516 9.67117 10.9887 10.3871 11.4358C11.103 11.8829 11.6789 12.5221 12.0493 13.2806C12.1705 13.5287 12.0675 13.8281 11.8194 13.9493C11.5712 14.0704 11.2719 13.9675 11.1507 13.7194C10.8625 13.1292 10.4144 12.6319 9.85736 12.2839C9.30032 11.936 8.65676 11.7516 8 11.7516Z" fill="#4B4B4B"/>
<path fill-rule="evenodd" clip-rule="evenodd" d="M4.12051 3.797C3.84473 3.72629 3.55452 3.73553 3.2838 3.82363C3.01307 3.91173 2.77301 4.07505 2.59166 4.29452C2.41031 4.51399 2.29516 4.78053 2.25967 5.06301C2.22418 5.34549 2.26981 5.63224 2.39124 5.88974C2.51266 6.14725 2.70486 6.36488 2.94538 6.51722C3.18589 6.66955 3.46479 6.75029 3.74949 6.75C4.02564 6.74972 4.24972 6.97335 4.25 7.24949C4.25028 7.52563 4.02665 7.74972 3.75051 7.75C3.27601 7.75048 2.81117 7.61592 2.41031 7.36203C2.00945 7.10814 1.68912 6.74542 1.48675 6.31624C1.28438 5.88706 1.20832 5.40915 1.26747 4.93835C1.32662 4.46756 1.51854 4.02331 1.82078 3.65753C2.12303 3.29176 2.52314 3.01955 2.97434 2.87271C3.42555 2.72588 3.90923 2.71048 4.36886 2.82833C4.82849 2.94617 5.2451 3.19239 5.56999 3.53821C5.89489 3.88403 6.11467 4.31517 6.20363 4.78125C6.25541 5.05249 6.0775 5.31435 5.80625 5.36613C5.53501 5.41791 5.27315 5.23999 5.22137 4.96875C5.16799 4.6891 5.03612 4.43042 4.84119 4.22292C4.64625 4.01543 4.39629 3.8677 4.12051 3.797Z" fill="#4B4B4B"/>
<path fill-rule="evenodd" clip-rule="evenodd" d="M12.7162 3.82363C12.4455 3.73553 12.1553 3.72629 11.8795 3.797C11.6037 3.8677 11.3538 4.01543 11.1588 4.22292C10.9639 4.43042 10.832 4.6891 10.7786 4.96875C10.7269 5.23999 10.465 5.41791 10.1937 5.36613C9.9225 5.31435 9.74459 5.05249 9.79637 4.78125C9.88533 4.31517 10.1051 3.88403 10.43 3.53821C10.7549 3.19239 11.1715 2.94617 11.6311 2.82833C12.0908 2.71048 12.5744 2.72588 13.0257 2.87271C13.4769 3.01955 13.877 3.29176 14.1792 3.65753C14.4815 4.02331 14.6734 4.46756 14.7325 4.93835C14.7917 5.40915 14.7156 5.88706 14.5133 6.31624C14.3109 6.74542 13.9906 7.10814 13.5897 7.36203C13.1888 7.61592 12.724 7.75048 12.2495 7.75C11.9733 7.74972 11.7497 7.52563 11.75 7.24949C11.7503 6.97335 11.9744 6.74972 12.2505 6.75C12.5352 6.75029 12.8141 6.66955 13.0546 6.51722C13.2951 6.36489 13.4873 6.14725 13.6088 5.88974C13.7302 5.63223 13.7758 5.34549 13.7403 5.06301C13.7048 4.78053 13.5897 4.51399 13.4083 4.29452C13.227 4.07505 12.9869 3.91173 12.7162 3.82363Z" fill="#4B4B4B"/>
</g>
</g>
</svg>
