<svg width="20" height="20" viewBox="0 0 20 20" fill="none" xmlns="http://www.w3.org/2000/svg">
<path fill-rule="evenodd" clip-rule="evenodd" d="M10 8.4375C8.61933 8.4375 7.50004 9.55679 7.50004 10.9375C7.50004 12.3182 8.61933 13.4375 10 13.4375C11.3807 13.4375 12.5 12.3182 12.5 10.9375C12.5 9.55679 11.3807 8.4375 10 8.4375ZM6.25004 10.9375C6.25004 8.86643 7.92897 7.1875 10 7.1875C12.0711 7.1875 13.75 8.86643 13.75 10.9375C13.75 13.0086 12.0711 14.6875 10 14.6875C7.92897 14.6875 6.25004 13.0086 6.25004 10.9375Z" fill="#F0F0F0"/>
<path fill-rule="evenodd" clip-rule="evenodd" d="M17.1302 10.1147C16.5662 9.83275 15.9441 9.68645 15.3136 9.68751C14.9684 9.68808 14.6881 9.40873 14.6875 9.06355C14.687 8.71838 14.9663 8.43809 15.3115 8.43751C16.1368 8.43613 16.951 8.62762 17.6892 8.99671C18.4274 9.3658 19.0691 9.90227 19.5632 10.5633C19.7698 10.8398 19.7132 11.2315 19.4367 11.4381C19.1602 11.6448 18.7686 11.5882 18.5619 11.3117C18.1844 10.8066 17.6941 10.3967 17.1302 10.1147Z" fill="#F0F0F0"/>
<path fill-rule="evenodd" clip-rule="evenodd" d="M4.68649 9.68751C4.05595 9.68645 3.43388 9.83275 2.8699 10.1147C2.30593 10.3967 1.81565 10.8066 1.43816 11.3117C1.23152 11.5882 0.839863 11.6448 0.563375 11.4381C0.286886 11.2315 0.230266 10.8398 0.436911 10.5633C0.93099 9.90227 1.57271 9.3658 2.31089 8.99671C3.04907 8.62762 3.86328 8.43613 4.68858 8.43751C5.03376 8.43809 5.31311 8.71838 5.31254 9.06355C5.31196 9.40873 5.03167 9.68808 4.68649 9.68751Z" fill="#F0F0F0"/>
<path fill-rule="evenodd" clip-rule="evenodd" d="M10 14.6895C9.17909 14.6895 8.37464 14.9201 7.67834 15.3549C6.98204 15.7898 6.42187 16.4115 6.06166 17.1492C5.9102 17.4594 5.53598 17.5881 5.2258 17.4366C4.91563 17.2852 4.78696 16.9109 4.93842 16.6007C5.40136 15.6527 6.12129 14.8536 7.01618 14.2947C7.91107 13.7358 8.94495 13.4395 10 13.4395C11.0551 13.4395 12.089 13.7358 12.9839 14.2947C13.8788 14.8536 14.5987 15.6527 15.0617 16.6007C15.2131 16.9109 15.0844 17.2852 14.7743 17.4366C14.4641 17.5881 14.0899 17.4594 13.9384 17.1492C13.5782 16.4115 13.018 15.7898 12.3217 15.3549C11.6254 14.9201 10.821 14.6895 10 14.6895Z" fill="#F0F0F0"/>
<path fill-rule="evenodd" clip-rule="evenodd" d="M5.15067 4.74625C4.80595 4.65786 4.44319 4.66941 4.10478 4.77953C3.76638 4.88966 3.4663 5.09382 3.23961 5.36815C3.01293 5.64249 2.86899 5.97567 2.82463 6.32876C2.78027 6.68186 2.83731 7.04029 2.98908 7.36218C3.14086 7.68406 3.38111 7.95611 3.68176 8.14652C3.9824 8.33694 4.33103 8.43786 4.6869 8.4375C5.03208 8.43715 5.31219 8.71669 5.31254 9.06187C5.31289 9.40704 5.03335 9.68715 4.68817 9.6875C4.09505 9.6881 3.514 9.5199 3.01293 9.20254C2.51185 8.88518 2.11144 8.43177 1.85847 7.8953C1.60551 7.35882 1.51044 6.76144 1.58438 6.17294C1.65832 5.58444 1.89821 5.02914 2.27602 4.57192C2.65383 4.11469 3.15396 3.77443 3.71797 3.59089C4.28198 3.40735 4.88658 3.3881 5.46112 3.53541C6.03566 3.68272 6.55641 3.99049 6.96253 4.42276C7.36865 4.85503 7.64337 5.39396 7.75458 5.97656C7.8193 6.31562 7.59691 6.64294 7.25785 6.70766C6.9188 6.77239 6.59147 6.54999 6.52675 6.21094C6.46002 5.86137 6.29519 5.53802 6.05152 5.27866C5.80785 5.01929 5.49539 4.83463 5.15067 4.74625Z" fill="#F0F0F0"/>
<path fill-rule="evenodd" clip-rule="evenodd" d="M15.8953 4.77953C15.5569 4.66941 15.1941 4.65786 14.8494 4.74625C14.5047 4.83463 14.1922 5.01929 13.9486 5.27866C13.7049 5.53802 13.5401 5.86137 13.4733 6.21094C13.4086 6.54999 13.0813 6.77239 12.7422 6.70766C12.4032 6.64294 12.1808 6.31562 12.2455 5.97656C12.3567 5.39396 12.6314 4.85503 13.0375 4.42276C13.4437 3.99049 13.9644 3.68272 14.539 3.53541C15.1135 3.3881 15.7181 3.40735 16.2821 3.59089C16.8461 3.77443 17.3462 4.11469 17.7241 4.57192C18.1019 5.02914 18.3418 5.58444 18.4157 6.17294C18.4896 6.76144 18.3946 7.35882 18.1416 7.8953C17.8886 8.43177 17.4882 8.88518 16.9871 9.20254C16.4861 9.5199 15.905 9.6881 15.3119 9.6875C14.9667 9.68715 14.6872 9.40704 14.6875 9.06187C14.6879 8.71669 14.968 8.43715 15.3132 8.4375C15.669 8.43786 16.0177 8.33694 16.3183 8.14652C16.619 7.95611 16.8592 7.68406 17.011 7.36218C17.1628 7.04029 17.2198 6.68186 17.1754 6.32876C17.1311 5.97567 16.9872 5.64249 16.7605 5.36815C16.5338 5.09382 16.2337 4.88966 15.8953 4.77953Z" fill="#F0F0F0"/>
</svg>
