<svg width="146" height="72" viewBox="0 0 146 72" fill="none" xmlns="http://www.w3.org/2000/svg">
<g id="Frame 1321318047">
<g id="Group">
<path id="Vector" fill-rule="evenodd" clip-rule="evenodd" d="M80.5289 40.2933C80.5289 40.5695 80.483 40.8918 80.4372 41.122C80.025 42.3191 78.9256 43.1018 77.643 43.1018C76.4978 43.1018 75.6275 42.4572 75.6275 41.076C75.6275 38.9581 77.9178 38.4056 80.5747 38.4056V40.2933H80.5289ZM84.6515 36.61C84.6515 33.157 83.1857 30.0723 78.1927 30.0723C75.6275 30.0723 73.5662 30.8089 72.4668 31.4535L73.2913 34.262C74.5739 33.5253 75.994 33.111 77.4598 33.0649C80.025 33.0649 80.4372 34.4922 80.4372 35.413V35.6432C74.8946 35.6432 71.4132 37.5769 71.4132 41.4904C71.4132 43.8845 73.1997 46.1405 76.3146 46.1405C78.1927 46.1405 79.7959 45.4038 80.7579 44.1607H80.8495C80.8495 44.1607 81.4908 46.8311 84.9721 45.8182C84.7889 44.7132 84.6973 43.5162 84.6973 42.1349V36.61H84.6515ZM0 25.3301L4.21425 42.6414C4.90136 45.4499 6.09234 46.5088 9.57368 45.8182L11.8182 36.61C12.3679 34.308 12.7802 32.6966 13.1466 30.3485H13.1924C13.4673 32.6966 13.8337 34.308 14.2918 36.61L15.666 43.0097C16.1699 45.2197 17.4525 46.6009 20.888 45.8182L26.2475 25.3761H21.8958L20.0635 34.2159C19.5596 36.7942 19.1016 38.82 18.7809 41.1681C18.4603 38.82 18.048 36.8863 17.5441 34.4001L15.666 25.3761H11.1311L9.0698 34.1699C8.52012 36.8403 7.97043 39.0042 7.60398 41.2602H7.55817C7.19171 39.1423 6.73364 36.4259 6.22976 33.8476L4.58071 25.3301H0ZM34.2179 40.2933C34.2179 40.5695 34.2179 40.8918 34.1263 41.122C33.714 42.3191 32.6146 43.1018 31.332 43.1018C30.1869 43.1018 29.3165 42.4572 29.3165 41.076C29.3165 38.9581 31.6069 38.4056 34.2637 38.4056V40.2933H34.2179ZM38.3863 36.61C38.3863 33.157 36.9205 30.0723 31.9275 30.0723C29.3623 30.0723 27.301 30.8089 26.2017 31.4535L27.0262 34.262C28.3088 33.5253 29.7288 33.111 31.1946 33.0649C33.7598 33.0649 34.1721 34.4922 34.1721 35.413V35.6432C28.6294 35.6432 25.1481 37.5769 25.1481 41.4904C25.1481 43.8845 26.9346 46.1405 30.0494 46.1405C31.9275 46.1405 33.5308 45.4038 34.4927 44.1607H34.5844C34.5844 44.1607 35.2256 46.8311 38.707 45.8182C38.5238 44.7132 38.4321 43.5162 38.4321 42.1349V36.61H38.3863ZM44.7535 41.4443V25.3301H40.6309V45.7721H44.7535V41.4443ZM97.3401 25.3761V40.4314C97.3401 42.5033 97.7065 43.9766 98.5768 44.8513C99.3098 45.634 100.501 46.1405 101.921 46.1405C103.158 46.1405 104.349 45.9103 104.898 45.6801L104.852 42.4112C104.44 42.5493 103.936 42.5953 103.295 42.5953C101.875 42.5953 101.417 41.7206 101.417 39.8329V34.1239H105.036V30.2104H101.417V25.3301L97.3401 25.3761ZM86.667 30.4406V45.8182H90.9271V37.9452C90.9271 37.5309 90.9729 37.1625 91.0187 36.7942C91.3393 35.1367 92.5761 34.0778 94.4084 34.0778C94.9123 34.0778 95.2329 34.1239 95.6452 34.1699V30.1183C95.3245 30.0723 95.0039 30.0262 94.729 30.0262C93.1258 30.0262 91.3393 31.0391 90.5606 33.2951H90.469V30.3946L86.667 30.4406ZM47.1813 30.4406V45.8182H51.3039V36.7942C51.3039 36.3798 51.3497 35.9194 51.4872 35.5511C51.8078 34.6303 52.6781 33.5714 54.0066 33.5714C55.7014 33.5714 56.4801 34.9986 56.4801 37.0244V45.7721H60.6486V36.6561C60.6486 36.2417 60.6944 35.7353 60.8318 35.413C61.1525 34.308 62.206 33.5253 63.3512 33.5253C65.0461 33.5253 65.8706 34.9065 65.8706 37.3467V45.7721H70.039V36.7482C70.039 32.006 67.6113 30.0723 64.9086 30.0723C63.6718 30.0723 62.7557 30.3946 61.8854 30.901C61.1525 31.3614 60.5112 32.006 59.9615 32.8347H59.9157C59.2286 31.1312 57.5337 30.0262 55.7014 30.0723C53.8691 29.9802 52.1285 30.901 51.2581 32.5124H51.2123V30.4406H47.1813Z" fill="#0071DC"/>
<path id="Vector_2" fill-rule="evenodd" clip-rule="evenodd" d="M127.344 29.7511C128.169 29.7511 128.856 29.2907 128.947 28.7842L129.726 19.53C129.726 18.6092 128.672 17.8726 127.344 17.8726C126.016 17.8726 124.962 18.6092 124.962 19.53L125.787 28.7842C125.832 29.3367 126.52 29.7511 127.344 29.7511ZM122.351 32.6516C122.763 31.915 122.718 31.1323 122.305 30.764L114.747 25.4693C113.968 25.0089 112.777 25.5614 112.136 26.7124C111.449 27.8634 111.586 29.1986 112.365 29.6129L120.748 33.5264C121.252 33.7106 121.985 33.3422 122.351 32.6516ZM132.291 32.6056C132.703 33.3422 133.391 33.7106 133.94 33.4804L142.277 29.5669C143.056 29.1065 143.193 27.8173 142.506 26.6663C141.819 25.5153 140.674 24.9628 139.895 25.4232L132.337 30.764C131.925 31.1323 131.879 31.915 132.291 32.6056ZM127.344 41.2612C128.169 41.2612 128.856 41.7216 128.947 42.2281L129.726 51.4823C129.726 52.4031 128.672 53.1397 127.344 53.1397C126.016 53.1397 124.962 52.4031 124.962 51.4823L125.787 42.2281C125.832 41.6756 126.52 41.2612 127.344 41.2612ZM132.291 38.4067C132.703 37.6701 133.391 37.3017 133.94 37.4859L142.277 41.3994C143.056 41.8598 143.193 43.1489 142.506 44.2999C141.819 45.4509 140.674 46.0034 139.895 45.543L132.337 40.2483C131.925 39.9261 131.879 39.0973 132.291 38.4067ZM122.351 38.4067C122.763 39.0973 122.718 39.9261 122.305 40.2944L114.747 45.5891C113.968 46.0495 112.777 45.497 112.136 44.346C111.449 43.1949 111.586 41.9058 112.365 41.4454L120.748 37.5319C121.252 37.3017 121.985 37.6701 122.351 38.4067ZM144.064 44.7603H144.155C144.247 44.7603 144.338 44.7143 144.338 44.6682C144.338 44.5762 144.293 44.5762 144.201 44.5762H144.109V44.7603H144.064ZM144.064 45.1747H143.88V44.438H144.155C144.293 44.438 144.338 44.438 144.43 44.4841C144.476 44.5301 144.522 44.5762 144.522 44.6222C144.522 44.7143 144.476 44.7603 144.384 44.8064C144.476 44.8524 144.522 44.8984 144.522 44.9905C144.522 45.1287 144.568 45.1287 144.568 45.1747H144.384C144.338 45.1287 144.338 45.0826 144.338 44.9905C144.338 44.8984 144.293 44.8984 144.201 44.8984H144.109L144.064 45.1747ZM144.155 44.2078C143.835 44.2078 143.606 44.4841 143.606 44.8064C143.606 45.1287 143.835 45.4049 144.155 45.4049C144.476 45.4049 144.705 45.1287 144.705 44.8064C144.751 44.4841 144.476 44.2078 144.155 44.2078ZM144.155 44.0697C144.568 44.0697 144.888 44.392 144.888 44.8064C144.888 45.2207 144.568 45.543 144.155 45.543C143.743 45.543 143.377 45.2207 143.377 44.8064C143.422 44.392 143.743 44.0697 144.155 44.0697Z" fill="#F3B53B"/>
</g>
</g>
</svg>
