<svg width="145" height="32" viewBox="0 0 145 32" fill="none" xmlns="http://www.w3.org/2000/svg">
<g id="wealthy-new-purple-logo 1" clip-path="url(#clip0_2884_5488)">
<path id="Vector" d="M40.3045 18.7544C40.3658 18.5978 40.4142 18.4865 40.4497 18.3703C41.1775 16.212 41.9045 14.0528 42.6299 11.8928C42.9058 11.0714 43.1785 10.2468 43.4633 9.43348C43.5384 9.20353 43.64 8.98164 43.7659 8.77508C43.9268 8.51186 44.1513 8.29335 44.4188 8.13966C44.6863 7.98597 44.9881 7.90204 45.2965 7.8956C45.441 7.8956 45.5975 7.88753 45.7484 7.8956C46.0739 7.89793 46.3932 7.98531 46.6746 8.14906C46.9559 8.31281 47.1896 8.54725 47.3524 8.82914C47.4678 9.02844 47.5606 9.24064 47.63 9.46092C48.6466 12.4366 49.6593 15.414 50.6686 18.3937L50.7711 18.6834C50.8913 18.6729 50.8841 18.5761 50.9075 18.5083C51.248 17.4997 51.5852 16.4911 51.9201 15.4825L53.9453 9.43106C54.0075 9.23177 54.0865 9.03812 54.1793 8.85173C54.3963 8.44181 54.7589 8.12803 55.1958 7.97226C55.6326 7.81648 56.112 7.83001 56.5394 8.01017C56.9068 8.14531 57.2135 8.40789 57.4037 8.75011C57.5938 9.09234 57.6548 9.49146 57.5754 9.87484C57.5375 10.0903 57.4818 10.3025 57.4076 10.5082C55.9508 14.4453 54.4909 18.3811 53.0279 22.3159C52.9423 22.5556 52.8334 22.7864 52.7028 23.0049C52.5211 23.3238 52.2556 23.5869 51.9349 23.7654C51.6143 23.9439 51.2508 24.0311 50.8841 24.0176C50.7227 24.0208 50.5613 24.0111 50.4 23.9885C50.0889 23.9436 49.7933 23.8241 49.5384 23.6402C49.2835 23.4563 49.077 23.2134 48.9363 22.9323C48.8368 22.7366 48.7526 22.5335 48.6846 22.3248C47.6791 19.4187 46.6775 16.5113 45.6798 13.6026C45.6551 13.4685 45.5962 13.3432 45.5087 13.2387C45.4684 13.3411 45.4281 13.4315 45.3958 13.5283C44.3824 16.4564 43.3697 19.3845 42.3579 22.3135C42.2982 22.5007 42.2264 22.6846 42.1425 22.8621C41.7552 23.6198 41.138 24.0192 40.2803 24.0289C40.1071 24.0342 39.9337 24.0242 39.7623 23.999C39.4804 23.9573 39.2113 23.8538 38.9742 23.6959C38.737 23.538 38.5378 23.3296 38.3906 23.0856C38.2686 22.8893 38.1666 22.6811 38.0864 22.4643C36.6131 18.4865 35.1438 14.5127 33.6793 10.5429C33.6119 10.3461 33.5553 10.1457 33.5099 9.94261C33.2904 9.02279 33.8721 8.10135 34.9162 7.91739C35.1903 7.8657 35.4722 7.87119 35.7441 7.93352C36.1887 8.03438 36.5768 8.30387 36.8277 8.68391C36.9737 8.90821 37.0883 9.15189 37.1666 9.40766C38.1701 12.4369 39.18 15.464 40.1963 18.4889C40.2206 18.5632 40.2553 18.635 40.3045 18.7544ZM115.85 10.484L116.168 10.0975C116.613 9.5477 117.145 9.07405 117.742 8.6952C118.535 8.2044 119.436 7.91723 120.366 7.85929C121.173 7.79221 121.986 7.86122 122.771 8.06343C124.652 8.5653 125.863 9.75219 126.454 11.5935C126.67 12.2768 126.778 12.9894 126.775 13.7058C126.784 16.5186 126.775 19.3329 126.775 22.1456C126.793 22.561 126.664 22.9693 126.409 23.2984C126.155 23.6275 125.793 23.8562 125.387 23.9441C125.117 24.0137 124.836 24.0252 124.561 23.9778C124.287 23.9303 124.025 23.8251 123.795 23.669C123.569 23.5252 123.381 23.3289 123.247 23.0968C123.113 22.8648 123.037 22.6038 123.025 22.3361C123.016 22.1916 123.025 22.0585 123.025 21.9197V15.0791C123.04 14.546 122.978 14.0135 122.843 13.4977C122.789 13.3084 122.723 13.1227 122.645 12.9417C122.475 12.5338 122.213 12.1705 121.879 11.8801C121.546 11.5896 121.15 11.3797 120.723 11.2667C119.919 11.0303 119.064 11.0362 118.264 11.2836C117.063 11.6604 116.322 12.4923 115.982 13.6929C115.869 14.1069 115.815 14.5347 115.821 14.9637V22.0125C115.823 22.1513 115.816 22.2909 115.801 22.4288C115.754 22.8204 115.577 23.1851 115.3 23.4656C115.023 23.746 114.66 23.9263 114.269 23.978C113.831 24.062 113.378 23.9907 112.987 23.7763C112.717 23.6392 112.489 23.4329 112.325 23.1786C112.161 22.9243 112.068 22.631 112.054 22.3288V2.14992C112.07 1.74643 112.224 1.36058 112.49 1.05728C112.757 0.753986 113.12 0.551735 113.518 0.484549C113.906 0.401025 114.311 0.440796 114.676 0.598317C115.002 0.724134 115.284 0.944265 115.486 1.23074C115.687 1.51721 115.799 1.8571 115.807 2.2072V10.054C115.794 10.1992 115.808 10.3444 115.85 10.484ZM62.9653 17.1116C63.2146 19.0497 64.5572 20.5408 66.4073 20.9361C68.1639 21.3113 69.7833 20.9644 71.2542 19.9324C71.3865 19.8396 71.5124 19.7355 71.6463 19.6427C71.8758 19.4819 72.1457 19.3886 72.4255 19.3733C72.7053 19.3581 72.9838 19.4215 73.2294 19.5564C73.5594 19.7227 73.8116 20.0111 73.9324 20.3603C74.0532 20.7095 74.0332 21.092 73.8765 21.4267C73.7566 21.6782 73.5798 21.8984 73.3601 22.0698C72.3872 22.8806 71.2388 23.4535 70.006 23.7432C68.2535 24.1765 66.4154 24.116 64.696 23.5697C62.6853 22.9186 61.1353 21.6889 60.1243 19.8081C59.6445 18.9071 59.3447 17.9214 59.2416 16.9059C59.0601 15.4866 59.2356 14.0444 59.7523 12.7102C60.7795 10.1476 62.6256 8.49349 65.3213 7.85122C66.8846 7.47029 68.5255 7.55841 70.039 8.10458C72.1853 8.87029 73.6256 10.3719 74.4607 12.4737C74.7858 13.3048 74.969 14.1859 75.0013 15.0783C75.0126 15.2857 75.0005 15.4938 74.9658 15.6996C74.9059 16.038 74.7425 16.3495 74.4981 16.5911C74.2537 16.8328 73.9404 16.9926 73.6013 17.0487C73.3956 17.0818 73.1874 17.0971 72.9793 17.0955H63.3994C63.2622 17.1011 63.1266 17.1084 62.9653 17.1116ZM71.3252 14.6716C71.305 14.5264 71.2929 14.4183 71.2735 14.3061C71.1539 13.5261 70.8508 12.7855 70.3892 12.1454C69.9035 11.4741 69.2065 10.9854 68.41 10.7575C67.9868 10.6365 67.5477 10.5804 67.1077 10.5913C66.4804 10.5878 65.8614 10.7341 65.302 11.018C64.7426 11.3019 64.259 11.7152 63.8915 12.2236C63.3988 12.8989 63.0743 13.682 62.9451 14.5079C62.9411 14.5643 62.9411 14.6208 62.9451 14.6765C62.9798 14.6926 63.0161 14.7031 63.054 14.7088H71.1993C71.2425 14.7012 71.2848 14.6888 71.3252 14.6716ZM87.6561 21.8398C87.5908 21.9012 87.5254 21.9625 87.4625 22.0254C86.4829 23.027 85.207 23.6867 83.8235 23.907C82.5738 24.1301 81.2887 24.0499 80.0764 23.673C79.4658 23.4892 78.8914 23.2012 78.3788 22.8218C77.8349 22.4326 77.389 21.9224 77.0762 21.3313C76.7633 20.7403 76.5922 20.0846 76.5763 19.416C76.5407 18.8137 76.6056 18.2098 76.7683 17.6288C77.0324 16.7344 77.5844 15.9522 78.3384 15.4035C79.0164 14.9154 79.7842 14.5663 80.5977 14.3763C81.6014 14.1391 82.6321 14.036 83.6629 14.0697C84.9483 14.0826 86.2264 14.2714 87.4609 14.6313C87.5504 14.6531 87.6408 14.67 87.7328 14.6821C87.7659 14.5288 87.7739 14.3723 87.757 14.2174C87.752 13.8117 87.6837 13.4094 87.5545 13.0248C87.3329 12.36 86.8679 11.8036 86.253 11.4676C85.7637 11.2004 85.2261 11.0334 84.6715 10.9762C83.2077 10.811 81.7254 10.9711 80.3306 11.445C80.0829 11.5418 79.8223 11.6007 79.556 11.6217C79.1346 11.6491 78.7193 11.5104 78.399 11.2352C78.1314 11.0094 77.9561 10.6932 77.9063 10.3466C77.8564 10.0001 77.9356 9.64728 78.1287 9.35522C78.3235 9.04996 78.6153 8.81917 78.9573 8.70004C79.6962 8.42844 80.4554 8.21584 81.2278 8.06423C82.297 7.86017 83.3849 7.77037 84.473 7.79635C85.4927 7.80153 86.5057 7.96206 87.477 8.27241C88.4488 8.58655 89.3167 9.15916 89.988 9.9289C90.567 10.612 90.9708 11.426 91.1644 12.3003C91.299 12.8505 91.3734 13.4138 91.3863 13.9802V22.1061C91.4145 22.829 90.9183 23.6206 89.9387 23.8078C89.4688 23.9075 88.9787 23.839 88.5542 23.6141C88.0119 23.3237 87.7094 22.8726 87.7078 22.2433V21.8657L87.6561 21.8382V21.8398ZM87.7804 16.9648C87.6529 16.9196 87.5044 16.8631 87.3463 16.8195C86.2362 16.4872 85.0802 16.3342 83.9219 16.3661C83.5516 16.3766 83.1837 16.4104 82.8182 16.4669C82.3471 16.5325 81.8925 16.6857 81.478 16.9188C80.6098 17.411 80.1999 18.1557 80.2483 19.1554C80.2593 19.4572 80.3374 19.7529 80.4768 20.0208C80.6162 20.2888 80.8135 20.5223 81.0544 20.7046C81.3908 20.9716 81.7838 21.1596 82.2025 21.2549C83.4738 21.5659 84.8142 21.4176 85.9867 20.8361C86.3506 20.6586 86.6814 20.4173 86.9646 20.1261C87.3713 19.7251 87.6489 19.2117 87.7618 18.6519C87.8458 18.1149 87.8618 17.5695 87.8094 17.0285C87.8005 17.018 87.8005 17.0051 87.7731 16.9648H87.7804ZM136.4 19.2272C136.449 19.1183 136.498 19.0174 136.545 18.9117C137.893 15.7141 139.224 12.5109 140.467 9.26969C140.569 8.97518 140.709 8.6952 140.885 8.43862C141.113 8.09732 141.458 7.85203 141.855 7.74794C142.124 7.67108 142.407 7.65612 142.682 7.70419C142.958 7.75226 143.219 7.86211 143.446 8.02551C143.673 8.17813 143.857 8.38675 143.981 8.63125C144.104 8.87574 144.162 9.14787 144.15 9.42138C144.135 9.79245 144.048 10.1571 143.893 10.4945C142.997 12.5367 142.116 14.5902 141.213 16.6315C139.373 20.7998 137.645 25.0229 135.879 29.2186C135.83 29.3364 135.782 29.455 135.723 29.5656C135.555 29.8736 135.296 30.1217 134.981 30.2756C134.666 30.4295 134.311 30.4814 133.965 30.4241C133.636 30.3815 133.327 30.241 133.079 30.0208C132.83 29.8005 132.654 29.5106 132.572 29.1888C132.491 28.8498 132.525 28.4936 132.669 28.1761L133.537 26.0952C133.862 25.315 134.179 24.5323 134.52 23.7602C134.576 23.641 134.603 23.5104 134.599 23.379C134.595 23.2475 134.56 23.1188 134.497 23.0033C132.555 18.8681 130.618 14.7303 128.687 10.5897C128.58 10.3712 128.49 10.1453 128.416 9.91357C128.105 8.85496 128.788 7.86655 129.88 7.71163C130.053 7.69146 130.227 7.68743 130.4 7.70034C130.644 7.71044 130.882 7.77513 131.098 7.88963C131.313 8.00414 131.501 8.16554 131.646 8.36197C131.812 8.58385 131.947 8.82672 132.049 9.08492C132.463 10.0655 132.877 11.0458 133.292 12.0259L136.213 18.9279C136.255 19.0271 136.273 19.153 136.4 19.2272ZM105.136 11.3103C105.126 11.4297 105.114 11.5079 105.114 11.5862V18.6753C105.117 18.8496 105.131 19.0223 105.156 19.1949C105.187 19.5447 105.333 19.8743 105.573 20.1312C105.812 20.3881 106.13 20.5576 106.477 20.6126C106.84 20.6901 107.214 20.7046 107.582 20.6562C107.727 20.6344 107.88 20.6158 108.029 20.6053C108.279 20.582 108.53 20.6198 108.761 20.7154C108.993 20.811 109.197 20.9615 109.358 21.154C109.565 21.384 109.688 21.6777 109.709 21.9867C109.73 22.2957 109.646 22.6023 109.471 22.8581C109.26 23.1808 108.94 23.4181 108.569 23.5254C108.039 23.6931 107.493 23.804 106.94 23.8562C106.064 23.9478 105.179 23.8883 104.323 23.6803C104.176 23.6414 104.031 23.5964 103.889 23.5455C103.372 23.3681 102.905 23.0709 102.526 22.6782C102.147 22.2855 101.866 21.8085 101.707 21.2863C101.54 20.7798 101.442 20.2529 101.417 19.7202C101.408 19.5346 101.408 19.349 101.408 19.1643V2.44604C101.403 2.26046 101.415 2.07488 101.446 1.89333C101.5 1.60696 101.625 1.33875 101.81 1.11371C101.994 0.888674 102.233 0.714141 102.504 0.606386C102.866 0.44452 103.271 0.401447 103.659 0.483335C104.047 0.565223 104.4 0.767872 104.666 1.06226C104.937 1.35274 105.094 1.73196 105.109 2.13055V7.63337C105.109 7.75924 105.115 7.8835 105.122 8.03115C105.213 8.04729 105.305 8.05778 105.399 8.06343H107.203C107.388 8.05859 107.573 8.07553 107.754 8.11184C108.42 8.26514 108.872 8.66454 109.036 9.33505C109.112 9.64792 109.089 9.97661 108.971 10.276C108.852 10.5753 108.644 10.8306 108.375 11.0069C108.077 11.2101 107.723 11.3163 107.362 11.3111H105.522L105.136 11.3094V11.3103ZM98.2777 13.0636V21.9181C98.2777 22.0633 98.2777 22.2191 98.2672 22.3683C98.2377 22.777 98.0674 23.1628 97.7854 23.46C97.5033 23.7572 97.127 23.9474 96.7204 23.9982C96.2831 24.0789 95.8313 24.0063 95.4416 23.79C95.1692 23.6453 94.9397 23.4314 94.7764 23.1697C94.6131 22.9081 94.5216 22.608 94.5112 22.2997V2.50978C94.508 2.3363 94.5185 2.16283 94.5419 1.99177C94.5969 1.62251 94.7668 1.27995 95.0275 1.01273C95.2882 0.745503 95.6265 0.567192 95.9943 0.503107C96.251 0.449454 96.5159 0.448021 96.7731 0.498895C97.0304 0.549768 97.2748 0.651907 97.4918 0.799226C97.712 0.9406 97.8967 1.13083 98.0314 1.35515C98.1662 1.57946 98.2474 1.83183 98.2688 2.09263C98.2817 2.23787 98.2833 2.39359 98.2833 2.54447L98.2777 13.0636Z" fill="#6725F4"/>
<path id="Vector_2" d="M25.9511 13.5939C25.9511 12.5552 25.109 11.7131 24.0703 11.7131C23.0315 11.7131 22.1895 12.5552 22.1895 13.5939V22.1306C22.1895 23.1693 23.0315 24.0114 24.0703 24.0114C25.109 24.0114 25.9511 23.1693 25.9511 22.1306V13.5939Z" fill="#6725F4"/>
<path id="Vector_3" d="M25.9511 2.4538C25.9511 1.41506 25.109 0.572998 24.0703 0.572998C23.0315 0.572998 22.1895 1.41506 22.1895 2.4538V8.0962C22.1895 9.13494 23.0315 9.977 24.0703 9.977C25.109 9.977 25.9511 9.13494 25.9511 8.0962V2.4538Z" fill="#6725F4"/>
<path id="Vector_4" d="M18.7157 8.67475C18.7157 7.63601 17.8736 6.79395 16.8349 6.79395C15.7962 6.79395 14.9541 7.63601 14.9541 8.67475V11.8578C14.9541 12.8966 15.7962 13.7386 16.8349 13.7386C17.8736 13.7386 18.7157 12.8966 18.7157 11.8578V8.67475Z" fill="#6725F4"/>
<path id="Vector_5" d="M18.7157 17.3554C18.7157 16.3167 17.8736 15.4746 16.8349 15.4746C15.7962 15.4746 14.9541 16.3167 14.9541 17.3554V22.1304C14.9541 23.1692 15.7962 24.0112 16.8349 24.0112C17.8736 24.0112 18.7157 23.1692 18.7157 22.1304V17.3554Z" fill="#6725F4"/>
<path id="Vector_6" d="M11.5263 15.0412C11.5263 14.0025 10.6842 13.1604 9.64545 13.1604C8.60671 13.1604 7.76465 14.0025 7.76465 15.0412V15.6197C7.76465 16.6585 8.60671 17.5005 9.64545 17.5005C10.6842 17.5005 11.5263 16.6585 11.5263 15.6197V15.0412Z" fill="#6725F4"/>
<path id="Vector_7" d="M11.4808 21.1176C11.4808 20.0789 10.6388 19.2368 9.60004 19.2368C8.5613 19.2368 7.71924 20.0789 7.71924 21.1176V22.1302C7.71924 23.169 8.5613 24.011 9.60004 24.011C10.6388 24.011 11.4808 23.169 11.4808 22.1302V21.1176Z" fill="#6725F4"/>
<path id="Vector_8" d="M4.2909 21.5517C4.2909 20.513 3.44884 19.6709 2.4101 19.6709C1.37136 19.6709 0.529297 20.513 0.529297 21.5517V22.1302C0.529297 23.169 1.37136 24.011 2.4101 24.011C3.44884 24.011 4.2909 23.169 4.2909 22.1302V21.5517Z" fill="#6725F4"/>
</g>
<defs>
<clipPath id="clip0_2884_5488">
<rect width="143.622" height="30.6608" fill="white" transform="translate(0.529785 0.441895)"/>
</clipPath>
</defs>
</svg>
