<svg width="24" height="17" viewBox="0 0 24 17" fill="none" xmlns="http://www.w3.org/2000/svg">
<g id="Group">
<path id="Vector" d="M0.946478 3.3613C1.04976 1.77121 2.32817 0.525059 3.91966 0.446212C6.22424 0.332037 9.51815 0.194336 12 0.194336C14.4819 0.194336 17.7758 0.332037 20.0803 0.446212C21.6718 0.525059 22.9502 1.77121 23.0535 3.3613C23.1525 4.88472 23.25 6.75924 23.25 8.23005C23.25 9.70086 23.1525 11.5754 23.0535 13.0988C22.9502 14.6889 21.6718 15.935 20.0803 16.0139C17.7758 16.1281 14.4819 16.2658 12 16.2658C9.51815 16.2658 6.22424 16.1281 3.91966 16.0139C2.32817 15.935 1.04976 14.6889 0.946478 13.0988C0.847525 11.5754 0.75 9.70086 0.75 8.23005C0.75 6.75924 0.847525 4.88472 0.946478 3.3613Z" fill="#FC0D1B"/>
<path id="Vector_2" d="M9.58936 5.01562V11.4442L16.0179 8.22991L9.58936 5.01562Z" fill="white"/>
</g>
</svg>
