<svg width="146" height="72" viewBox="0 0 146 72" fill="none" xmlns="http://www.w3.org/2000/svg">
<g id="Frame 1321318049" clip-path="url(#clip0_2807_1583)">
<g id="g10">
<g id="g12">
<path id="path14" d="M123.035 40.1722L122.205 45.3247C120.917 46.0226 118.509 47.0268 115.726 47.0268C110.993 47.0268 110.038 44.495 110.785 39.1243L111.99 30.4798H109.661L110.32 24.8844L112.862 24.761L113.817 20.7004L121 17.9937L120.087 24.761H125.029C124.862 25.4595 124.281 29.301 124.115 30.4798H119.298L118.218 38.4696C117.927 40.5215 118.094 41.2639 119.505 41.2639C120.544 41.2639 122.08 40.6527 123.035 40.1722ZM85.7323 31.3968C86.2723 27.6855 85.981 24.3243 81.8708 24.3243C78.8814 24.3243 75.6423 26.8564 73.3583 31.0913C73.856 27.5983 73.5658 24.3243 69.4964 24.3243C66.4237 24.3243 63.1014 26.9874 60.8182 31.3968C61.399 28.5155 61.2745 25.241 61.1084 24.5421C58.7418 24.9359 56.6657 25.1534 53.7587 25.241C53.8417 27.2495 53.7168 29.8689 53.3432 32.3572L52.3884 38.9064C52.0147 41.482 51.5996 44.452 51.1841 46.3286H58.9078C58.949 45.1933 59.2396 43.4033 59.4475 41.8312L60.1117 37.3351C60.6518 34.4092 62.9773 30.9607 64.7627 30.9607C65.8009 30.9607 65.7591 31.9648 65.4688 33.8422L64.7212 38.9064C64.3476 41.482 63.9321 44.452 63.517 46.3286H71.3234C71.3649 45.1933 71.6139 43.4033 71.8219 41.8312L72.4861 37.3351C73.0262 34.4092 75.3513 30.9607 77.1367 30.9607C78.1753 30.9607 78.1334 31.9204 77.967 33.2309L76.1034 46.3286H83.2275L85.7323 31.3968ZM146.04 33.7351C146.04 41.0779 140.865 47.1819 134.007 47.1819C127.865 47.1819 124.71 42.9796 124.71 37.4947C124.71 30.1968 129.927 24.0922 136.743 24.0922C142.969 24.0922 146.04 28.2942 146.04 33.7351ZM132.185 37.3504C132.185 40.014 133.056 41.3675 134.552 41.3675C136.545 41.3675 138.123 38.1372 138.123 34.2073C138.123 31.5003 137.25 30.1905 135.797 30.1905C133.804 30.1905 132.185 33.3777 132.185 37.3504ZM50.8105 33.887C50.8105 41.134 45.7028 47.1592 38.9346 47.1592C32.8716 47.1592 29.7573 43.0117 29.7573 37.5982C29.7573 30.3947 34.9065 24.3696 41.6338 24.3696C47.7792 24.3696 50.8105 28.5173 50.8105 33.887ZM37.2318 37.3504C37.2318 40.014 38.104 41.3675 39.5985 41.3675C41.5922 41.3675 43.1697 38.1372 43.1697 34.2073C43.1697 31.5003 42.298 30.1905 40.8446 30.1905C38.8512 30.1905 37.2318 33.3777 37.2318 37.3504ZM29.882 24.8916L29.7573 28.8649L19.418 40.1293C23.7364 40.1293 26.4767 40.0847 28.055 39.9981C27.5982 42.1373 27.2245 43.8838 26.8509 46.5022C24.7746 46.3286 21.5354 46.2851 18.2969 46.2851C14.6842 46.2851 11.5283 46.3286 8.99512 46.5022L9.07841 42.4868L19.418 31.2658C14.8915 31.2658 13.2308 31.3095 11.3619 31.3533C11.7771 29.3454 12.0681 27.1183 12.3588 24.8916C15.6392 25.0225 16.9263 25.0661 21.2037 25.0661C25.1482 25.0661 27.3903 25.0225 29.882 24.8916Z" fill="#E3263F"/>
<path id="path16" d="M93.563 46.6102C89.8739 47.0644 87.4443 45.5973 86.7144 42.2577C86.2559 40.1569 86.891 37.766 88.0032 36.3369C89.4909 34.4703 91.9179 33.2705 94.8763 32.9068C97.2592 32.6138 99.2654 32.7588 101.143 33.1148L101.22 32.7919C101.274 32.2766 101.327 31.7608 101.252 31.1432C101.058 29.562 99.8115 28.619 96.738 28.9969C94.6631 29.2523 92.6878 30.0043 91.1544 30.8591L89.6652 26.3433C91.7409 25.148 94.3608 24.2388 97.3573 23.87C103.082 23.1655 107.104 24.9954 107.619 29.2005C107.756 30.3196 107.773 31.5059 107.631 32.58C106.896 37.7806 106.425 41.6926 106.219 44.317C106.186 44.7215 106.189 45.4187 106.226 46.4097L99.122 46.4032C99.2729 45.9918 99.4084 45.4377 99.5292 44.7413C99.6081 44.2826 99.6654 43.7028 99.702 43.003C98.1993 45.0672 96.1372 46.2936 93.563 46.6102ZM95.7904 42.618C98.4034 42.2965 100.202 39.7697 100.635 37.2496L100.708 36.5744C99.5851 36.3213 97.9623 36.1296 96.387 36.3236C94.8884 36.5083 93.6392 37.1317 92.9693 38.0366C92.4644 38.6855 92.2081 39.4613 92.3213 40.3867C92.4919 41.7759 94.023 42.8353 95.7904 42.618Z" fill="#E3263F"/>
</g>
</g>
</g>
<defs>
<clipPath id="clip0_2807_1583">
<rect width="145.249" height="70.5343" fill="white" transform="translate(0.700684 0.847168)"/>
</clipPath>
</defs>
</svg>
