<svg width="100" height="40" viewBox="0 0 100 40" fill="none" xmlns="http://www.w3.org/2000/svg">
<g clip-path="url(#clip0_1107_73536)">
<path d="M37.8527 10.4404C37.1511 10.4404 36.4789 10.3485 35.8358 10.1648C35.1928 9.97269 34.675 9.72632 34.2825 9.42568L34.9714 7.89738C35.3473 8.16463 35.7899 8.38594 36.2993 8.56131C36.8171 8.72834 37.339 8.81185 37.8652 8.81185C38.266 8.81185 38.5876 8.77427 38.8298 8.69911C39.0803 8.6156 39.264 8.50285 39.3809 8.36088C39.4979 8.21891 39.5563 8.05606 39.5563 7.87233C39.5563 7.63849 39.4645 7.45476 39.2807 7.32114C39.097 7.17917 38.8548 7.06642 38.5542 6.98291C38.2535 6.89105 37.9195 6.80753 37.552 6.73237C37.1929 6.64886 36.8296 6.54864 36.4622 6.43172C36.103 6.3148 35.7732 6.16448 35.4725 5.98075C35.1719 5.79702 34.9255 5.55483 34.7334 5.25419C34.5497 4.95354 34.4578 4.56938 34.4578 4.1017C34.4578 3.60062 34.5915 3.14547 34.8587 2.73626C35.1343 2.31869 35.5435 1.98881 36.0863 1.74663C36.6375 1.49609 37.3265 1.37082 38.1533 1.37082C38.7045 1.37082 39.2473 1.43763 39.7818 1.57125C40.3163 1.69652 40.7881 1.8886 41.1974 2.14749L40.571 3.68831C40.1618 3.45447 39.7526 3.28327 39.3434 3.1747C38.9341 3.05779 38.5333 2.99933 38.1408 2.99933C37.7483 2.99933 37.4267 3.04526 37.1762 3.13712C36.9257 3.22899 36.7461 3.35008 36.6375 3.50041C36.529 3.64238 36.4747 3.80941 36.4747 4.00149C36.4747 4.22697 36.5665 4.4107 36.7503 4.55267C36.934 4.6863 37.1762 4.79486 37.4768 4.87838C37.7775 4.96189 38.1074 5.0454 38.4665 5.12892C38.8339 5.21243 39.1972 5.30847 39.5563 5.41704C39.9238 5.5256 40.2578 5.67175 40.5585 5.85548C40.8591 6.03921 41.1013 6.2814 41.285 6.58205C41.4771 6.8827 41.5732 7.26268 41.5732 7.722C41.5732 8.21473 41.4354 8.6657 41.1598 9.07492C40.8842 9.48414 40.4708 9.81401 39.9196 10.0646C39.3768 10.3151 38.6878 10.4404 37.8527 10.4404ZM47.1564 10.4404C46.4799 10.4404 45.8494 10.3318 45.2648 10.1147C44.6886 9.88918 44.1875 9.57182 43.7616 9.16261C43.3357 8.75339 43.0016 8.27319 42.7594 7.722C42.5256 7.17082 42.4087 6.56534 42.4087 5.90559C42.4087 5.24583 42.5256 4.64036 42.7594 4.08917C43.0016 3.53799 43.3357 3.05779 43.7616 2.64857C44.1958 2.23935 44.7011 1.92618 45.2773 1.70904C45.8536 1.48356 46.4841 1.37082 47.1689 1.37082C47.9289 1.37082 48.6137 1.50444 49.2233 1.77168C49.8413 2.03057 50.3591 2.41473 50.7767 2.92416L49.4739 4.12676C49.1732 3.78435 48.8392 3.52964 48.4717 3.36261C48.1043 3.18723 47.7034 3.09954 47.2691 3.09954C46.8599 3.09954 46.4841 3.16635 46.1417 3.29997C45.7993 3.4336 45.5028 3.62568 45.2523 3.87622C45.0018 4.12676 44.8055 4.42323 44.6635 4.76563C44.5299 5.10804 44.4631 5.48802 44.4631 5.90559C44.4631 6.32316 44.5299 6.70314 44.6635 7.04555C44.8055 7.38795 45.0018 7.68442 45.2523 7.93496C45.5028 8.1855 45.7993 8.37758 46.1417 8.51121C46.4841 8.64483 46.8599 8.71164 47.2691 8.71164C47.7034 8.71164 48.1043 8.62812 48.4717 8.4611C48.8392 8.28572 49.1732 8.02265 49.4739 7.6719L50.7767 8.87449C50.3591 9.38392 49.8413 9.77226 49.2233 10.0395C48.6137 10.3067 47.9247 10.4404 47.1564 10.4404ZM50.8356 10.29L54.744 1.52114H56.7484L60.6693 10.29H58.5397L55.3328 2.54835H56.1345L52.9151 10.29H50.8356ZM52.7898 8.41099L53.3285 6.87017H57.8382L58.3894 8.41099H52.7898ZM61.5791 10.29V1.52114H63.6085V8.63648H68.0054V10.29H61.5791ZM71.0058 5.05375H75.2274V6.63216H71.0058V5.05375ZM71.1562 8.66153H75.9289V10.29H69.1393V1.52114H75.7661V3.14965H71.1562V8.66153ZM77.5437 10.29V1.52114H81.3393C82.1244 1.52114 82.8008 1.65059 83.3687 1.90948C83.9366 2.16002 84.375 2.5233 84.684 2.99933C84.993 3.47535 85.1475 4.04324 85.1475 4.703C85.1475 5.3544 84.993 5.91812 84.684 6.39414C84.375 6.86182 83.9366 7.22092 83.3687 7.47146C82.8008 7.722 82.1244 7.84727 81.3393 7.84727H78.6711L79.573 6.95786V10.29H77.5437ZM83.1182 10.29L80.9259 7.10818H83.0931L85.3104 10.29H83.1182ZM79.573 7.18334L78.6711 6.23129H81.2266C81.8529 6.23129 82.3206 6.09767 82.6296 5.83043C82.9386 5.55483 83.0931 5.17902 83.0931 4.703C83.0931 4.21862 82.9386 3.84281 82.6296 3.57557C82.3206 3.30833 81.8529 3.1747 81.2266 3.1747H78.6711L79.573 2.21013V7.18334Z" fill="white"/>
<path d="M37.8527 21.8701C37.1511 21.8701 36.4789 21.7782 35.8358 21.5945C35.1928 21.4024 34.675 21.156 34.2825 20.8554L34.9714 19.3271C35.3473 19.5943 35.7899 19.8156 36.2993 19.991C36.8171 20.158 37.339 20.2415 37.8652 20.2415C38.266 20.2415 38.5876 20.204 38.8298 20.1288C39.0803 20.0453 39.264 19.9325 39.3809 19.7906C39.4979 19.6486 39.5563 19.4857 39.5563 19.302C39.5563 19.0682 39.4645 18.8844 39.2807 18.7508C39.097 18.6089 38.8548 18.4961 38.5542 18.4126C38.2535 18.3207 37.9195 18.2372 37.552 18.1621C37.1929 18.0785 36.8296 17.9783 36.4622 17.8614C36.103 17.7445 35.7732 17.5942 35.4725 17.4104C35.1719 17.2267 34.9255 16.9845 34.7334 16.6839C34.5497 16.3832 34.4578 15.9991 34.4578 15.5314C34.4578 15.0303 34.5915 14.5752 34.8587 14.1659C35.1343 13.7484 35.5435 13.4185 36.0863 13.1763C36.6375 12.9258 37.3265 12.8005 38.1533 12.8005C38.7045 12.8005 39.2473 12.8673 39.7818 13.0009C40.3163 13.1262 40.7881 13.3183 41.1974 13.5772L40.571 15.118C40.1618 14.8842 39.7526 14.713 39.3434 14.6044C38.9341 14.4875 38.5333 14.429 38.1408 14.429C37.7483 14.429 37.4267 14.4749 37.1762 14.5668C36.9257 14.6587 36.7461 14.7798 36.6375 14.9301C36.529 15.0721 36.4747 15.2391 36.4747 15.4312C36.4747 15.6567 36.5665 15.8404 36.7503 15.9824C36.934 16.116 37.1762 16.2245 37.4768 16.3081C37.7775 16.3916 38.1074 16.4751 38.4665 16.5586C38.8339 16.6421 39.1972 16.7382 39.5563 16.8467C39.9238 16.9553 40.2578 17.1014 40.5585 17.2852C40.8591 17.4689 41.1013 17.7111 41.285 18.0117C41.4771 18.3124 41.5732 18.6924 41.5732 19.1517C41.5732 19.6444 41.4354 20.0954 41.1598 20.5046C40.8842 20.9138 40.4708 21.2437 39.9196 21.4942C39.3768 21.7448 38.6878 21.8701 37.8527 21.8701ZM47.1564 21.8701C46.4799 21.8701 45.8494 21.7615 45.2648 21.5443C44.6886 21.3189 44.1875 21.0015 43.7616 20.5923C43.3357 20.1831 43.0016 19.7029 42.7594 19.1517C42.5256 18.6005 42.4087 17.995 42.4087 17.3353C42.4087 16.6755 42.5256 16.0701 42.7594 15.5189C43.0016 14.9677 43.3357 14.4875 43.7616 14.0783C44.1958 13.669 44.7011 13.3559 45.2773 13.1387C45.8536 12.9132 46.4841 12.8005 47.1689 12.8005C47.9289 12.8005 48.6137 12.9341 49.2233 13.2014C49.8413 13.4603 50.3591 13.8444 50.7767 14.3539L49.4739 15.5564C49.1732 15.214 48.8392 14.9593 48.4717 14.7923C48.1043 14.6169 47.7034 14.5292 47.2691 14.5292C46.8599 14.5292 46.4841 14.596 46.1417 14.7297C45.7993 14.8633 45.5028 15.0554 45.2523 15.3059C45.0018 15.5564 44.8055 15.8529 44.6635 16.1953C44.5299 16.5377 44.4631 16.9177 44.4631 17.3353C44.4631 17.7528 44.5299 18.1328 44.6635 18.4752C44.8055 18.8176 45.0018 19.1141 45.2523 19.3647C45.5028 19.6152 45.7993 19.8073 46.1417 19.9409C46.4841 20.0745 46.8599 20.1413 47.2691 20.1413C47.7034 20.1413 48.1043 20.0578 48.4717 19.8908C48.8392 19.7154 49.1732 19.4523 49.4739 19.1016L50.7767 20.3042C50.3591 20.8136 49.8413 21.2019 49.2233 21.4692C48.6137 21.7364 47.9247 21.8701 47.1564 21.8701ZM58.1601 12.9508H60.1895V21.7197H58.1601V12.9508ZM54.1765 21.7197H52.1471V12.9508H54.1765V21.7197ZM58.3104 18.1245H54.0262V16.4083H58.3104V18.1245ZM66.5233 21.8701C65.8302 21.8701 65.1871 21.7573 64.5942 21.5318C64.0096 21.3063 63.5001 20.989 63.0659 20.5798C62.64 20.1706 62.3059 19.6904 62.0637 19.1392C61.8299 18.588 61.713 17.9867 61.713 17.3353C61.713 16.6839 61.8299 16.0826 62.0637 15.5314C62.3059 14.9802 62.6441 14.5 63.0784 14.0908C63.5127 13.6816 64.0221 13.3642 64.6067 13.1387C65.1913 12.9132 65.826 12.8005 66.5108 12.8005C67.204 12.8005 67.8387 12.9132 68.4149 13.1387C68.9995 13.3642 69.5048 13.6816 69.9307 14.0908C70.3649 14.5 70.7032 14.9802 70.9454 15.5314C71.1875 16.0742 71.3086 16.6755 71.3086 17.3353C71.3086 17.9867 71.1875 18.5922 70.9454 19.1517C70.7032 19.7029 70.3649 20.1831 69.9307 20.5923C69.5048 20.9932 68.9995 21.3063 68.4149 21.5318C67.8387 21.7573 67.2081 21.8701 66.5233 21.8701ZM66.5108 20.1413C66.9033 20.1413 67.2624 20.0745 67.5881 19.9409C67.9222 19.8073 68.2145 19.6152 68.465 19.3647C68.7156 19.1141 68.9076 18.8176 69.0413 18.4752C69.1832 18.1328 69.2542 17.7528 69.2542 17.3353C69.2542 16.9177 69.1832 16.5377 69.0413 16.1953C68.9076 15.8529 68.7156 15.5564 68.465 15.3059C68.2228 15.0554 67.9347 14.8633 67.6007 14.7297C67.2666 14.596 66.9033 14.5292 66.5108 14.5292C66.1183 14.5292 65.755 14.596 65.421 14.7297C65.0953 14.8633 64.8071 15.0554 64.5566 15.3059C64.3061 15.5564 64.1098 15.8529 63.9678 16.1953C63.8342 16.5377 63.7674 16.9177 63.7674 17.3353C63.7674 17.7445 63.8342 18.1245 63.9678 18.4752C64.1098 18.8176 64.3019 19.1141 64.5441 19.3647C64.7946 19.6152 65.0869 19.8073 65.421 19.9409C65.755 20.0745 66.1183 20.1413 66.5108 20.1413ZM77.093 21.8701C76.3998 21.8701 75.7568 21.7573 75.1638 21.5318C74.5792 21.3063 74.0698 20.989 73.6355 20.5798C73.2096 20.1706 72.8756 19.6904 72.6334 19.1392C72.3995 18.588 72.2826 17.9867 72.2826 17.3353C72.2826 16.6839 72.3995 16.0826 72.6334 15.5314C72.8756 14.9802 73.2138 14.5 73.6481 14.0908C74.0823 13.6816 74.5918 13.3642 75.1764 13.1387C75.7609 12.9132 76.3956 12.8005 77.0805 12.8005C77.7736 12.8005 78.4083 12.9132 78.9846 13.1387C79.5692 13.3642 80.0744 13.6816 80.5003 14.0908C80.9346 14.5 81.2728 14.9802 81.515 15.5314C81.7572 16.0742 81.8783 16.6755 81.8783 17.3353C81.8783 17.9867 81.7572 18.5922 81.515 19.1517C81.2728 19.7029 80.9346 20.1831 80.5003 20.5923C80.0744 20.9932 79.5692 21.3063 78.9846 21.5318C78.4083 21.7573 77.7778 21.8701 77.093 21.8701ZM77.0805 20.1413C77.473 20.1413 77.8321 20.0745 78.1578 19.9409C78.4918 19.8073 78.7841 19.6152 79.0347 19.3647C79.2852 19.1141 79.4773 18.8176 79.6109 18.4752C79.7529 18.1328 79.8239 17.7528 79.8239 17.3353C79.8239 16.9177 79.7529 16.5377 79.6109 16.1953C79.4773 15.8529 79.2852 15.5564 79.0347 15.3059C78.7925 15.0554 78.5044 14.8633 78.1703 14.7297C77.8363 14.596 77.473 14.5292 77.0805 14.5292C76.6879 14.5292 76.3247 14.596 75.9906 14.7297C75.6649 14.8633 75.3768 15.0554 75.1262 15.3059C74.8757 15.5564 74.6794 15.8529 74.5375 16.1953C74.4039 16.5377 74.337 16.9177 74.337 17.3353C74.337 17.7445 74.4039 18.1245 74.5375 18.4752C74.6794 18.8176 74.8715 19.1141 75.1137 19.3647C75.3643 19.6152 75.6566 19.8073 75.9906 19.9409C76.3247 20.0745 76.6879 20.1413 77.0805 20.1413ZM83.4035 21.7197V12.9508H85.4328V20.0662H89.8298V21.7197H83.4035Z" fill="white"/>
<path d="M34.9714 33.1494V24.3805H39.2557C40.3581 24.3805 41.1848 24.5893 41.736 25.0069C42.2956 25.4244 42.5753 25.9756 42.5753 26.6604C42.5753 27.1198 42.4626 27.5206 42.2371 27.863C42.0116 28.1971 41.7026 28.456 41.3101 28.6397C40.9176 28.8234 40.4666 28.9153 39.9572 28.9153L40.1952 28.4017C40.7464 28.4017 41.2349 28.4935 41.6609 28.6773C42.0868 28.8527 42.4167 29.1157 42.6505 29.4665C42.8927 29.8172 43.0138 30.2473 43.0138 30.7568C43.0138 31.5084 42.7173 32.0971 42.1244 32.5231C41.5314 32.9406 40.6587 33.1494 39.5062 33.1494H34.9714ZM36.9883 31.6211H39.3559C39.882 31.6211 40.2787 31.5376 40.546 31.3706C40.8216 31.1952 40.9593 30.9196 40.9593 30.5438C40.9593 30.1763 40.8216 29.9049 40.546 29.7295C40.2787 29.5458 39.882 29.4539 39.3559 29.4539H36.838V27.9758H39.0051C39.4979 27.9758 39.8737 27.8923 40.1326 27.7252C40.3998 27.5498 40.5334 27.2868 40.5334 26.936C40.5334 26.5936 40.3998 26.3389 40.1326 26.1719C39.8737 25.9965 39.4979 25.9088 39.0051 25.9088H36.9883V31.6211ZM48.4461 33.2997C47.2017 33.2997 46.2288 32.9532 45.5273 32.26C44.8258 31.5668 44.475 30.5772 44.475 29.2911V24.3805H46.5044V29.2159C46.5044 30.0511 46.6756 30.6524 47.018 31.0198C47.3604 31.3873 47.8406 31.571 48.4586 31.571C49.0766 31.571 49.5568 31.3873 49.8992 31.0198C50.2416 30.6524 50.4128 30.0511 50.4128 29.2159V24.3805H52.4171V29.2911C52.4171 30.5772 52.0664 31.5668 51.3649 32.26C50.6634 32.9532 49.6904 33.2997 48.4461 33.2997ZM57.3038 33.2997C56.6022 33.2997 55.93 33.2079 55.2869 33.0241C54.6439 32.8321 54.1261 32.5857 53.7336 32.2851L54.4225 30.7568C54.7984 31.024 55.241 31.2453 55.7504 31.4207C56.2682 31.5877 56.7901 31.6712 57.3163 31.6712C57.7171 31.6712 58.0387 31.6336 58.2809 31.5585C58.5314 31.475 58.7151 31.3622 58.832 31.2203C58.949 31.0783 59.0074 30.9154 59.0074 30.7317C59.0074 30.4979 58.9156 30.3141 58.7318 30.1805C58.5481 30.0385 58.3059 29.9258 58.0053 29.8423C57.7046 29.7504 57.3706 29.6669 57.0031 29.5917C56.644 29.5082 56.2807 29.408 55.9133 29.2911C55.5541 29.1742 55.2243 29.0239 54.9236 28.8401C54.623 28.6564 54.3766 28.4142 54.1845 28.1136C54.0008 27.8129 53.9089 27.4288 53.9089 26.9611C53.9089 26.46 54.0426 26.0048 54.3098 25.5956C54.5854 25.1781 54.9946 24.8482 55.5374 24.606C56.0886 24.3555 56.7776 24.2302 57.6044 24.2302C58.1556 24.2302 58.6984 24.297 59.2329 24.4306C59.7674 24.5559 60.2392 24.748 60.6485 25.0069L60.0221 26.5477C59.6129 26.3138 59.2037 26.1426 58.7945 26.0341C58.3852 25.9172 57.9844 25.8587 57.5919 25.8587C57.1994 25.8587 56.8778 25.9046 56.6273 25.9965C56.3768 26.0884 56.1972 26.2095 56.0886 26.3598C55.9801 26.5018 55.9258 26.6688 55.9258 26.8609C55.9258 27.0863 56.0176 27.2701 56.2014 27.412C56.3851 27.5457 56.6273 27.6542 56.9279 27.7378C57.2286 27.8213 57.5585 27.9048 57.9176 27.9883C58.285 28.0718 58.6483 28.1678 59.0074 28.2764C59.3749 28.385 59.7089 28.5311 60.0096 28.7149C60.3102 28.8986 60.5524 29.1408 60.7361 29.4414C60.9282 29.7421 61.0243 30.1221 61.0243 30.5814C61.0243 31.0741 60.8865 31.5251 60.6109 31.9343C60.3353 32.3435 59.9219 32.6734 59.3707 32.9239C58.8279 33.1745 58.1389 33.2997 57.3038 33.2997ZM62.4109 33.1494V24.3805H64.4403V33.1494H62.4109ZM66.5214 33.1494V24.3805H68.2L73.3736 30.6941H72.5594V24.3805H74.5637V33.1494H72.8976L67.7114 26.8358H68.5257V33.1494H66.5214ZM78.5049 27.9131H82.7265V29.4915H78.5049V27.9131ZM78.6552 31.5209H83.428V33.1494H76.6384V24.3805H83.2652V26.009H78.6552V31.5209ZM87.9239 33.2997C87.2224 33.2997 86.5501 33.2079 85.9071 33.0241C85.264 32.8321 84.7463 32.5857 84.3537 32.2851L85.0427 30.7568C85.4185 31.024 85.8612 31.2453 86.3706 31.4207C86.8884 31.5877 87.4103 31.6712 87.9365 31.6712C88.3373 31.6712 88.6589 31.6336 88.901 31.5585C89.1516 31.475 89.3353 31.3622 89.4522 31.2203C89.5692 31.0783 89.6276 30.9154 89.6276 30.7317C89.6276 30.4979 89.5357 30.3141 89.352 30.1805C89.1683 30.0385 88.9261 29.9258 88.6255 29.8423C88.3248 29.7504 87.9908 29.6669 87.6233 29.5917C87.2642 29.5082 86.9009 29.408 86.5334 29.2911C86.1743 29.1742 85.8445 29.0239 85.5438 28.8401C85.2432 28.6564 84.9968 28.4142 84.8047 28.1136C84.621 27.8129 84.5291 27.4288 84.5291 26.9611C84.5291 26.46 84.6627 26.0048 84.93 25.5956C85.2056 25.1781 85.6148 24.8482 86.1576 24.606C86.7088 24.3555 87.3978 24.2302 88.2246 24.2302C88.7758 24.2302 89.3186 24.297 89.8531 24.4306C90.3876 24.5559 90.8594 24.748 91.2686 25.0069L90.6423 26.5477C90.2331 26.3138 89.8239 26.1426 89.4147 26.0341C89.0054 25.9172 88.6046 25.8587 88.2121 25.8587C87.8195 25.8587 87.498 25.9046 87.2475 25.9965C86.9969 26.0884 86.8174 26.2095 86.7088 26.3598C86.6003 26.5018 86.546 26.6688 86.546 26.8609C86.546 27.0863 86.6378 27.2701 86.8216 27.412C87.0053 27.5457 87.2475 27.6542 87.5481 27.7378C87.8488 27.8213 88.1787 27.9048 88.5378 27.9883C88.9052 28.0718 89.2685 28.1678 89.6276 28.2764C89.9951 28.385 90.3291 28.5311 90.6298 28.7149C90.9304 28.8986 91.1726 29.1408 91.3563 29.4414C91.5484 29.7421 91.6445 30.1221 91.6445 30.5814C91.6445 31.0741 91.5067 31.5251 91.2311 31.9343C90.9555 32.3435 90.5421 32.6734 89.9909 32.9239C89.4481 33.1745 88.7591 33.2997 87.9239 33.2997ZM95.9123 33.2997C95.2108 33.2997 94.5386 33.2079 93.8955 33.0241C93.2524 32.8321 92.7347 32.5857 92.3422 32.2851L93.0311 30.7568C93.4069 31.024 93.8496 31.2453 94.359 31.4207C94.8768 31.5877 95.3987 31.6712 95.9249 31.6712C96.3257 31.6712 96.6473 31.6336 96.8895 31.5585C97.14 31.475 97.3237 31.3622 97.4406 31.2203C97.5576 31.0783 97.616 30.9154 97.616 30.7317C97.616 30.4979 97.5242 30.3141 97.3404 30.1805C97.1567 30.0385 96.9145 29.9258 96.6139 29.8423C96.3132 29.7504 95.9792 29.6669 95.6117 29.5917C95.2526 29.5082 94.8893 29.408 94.5219 29.2911C94.1627 29.1742 93.8329 29.0239 93.5322 28.8401C93.2316 28.6564 92.9852 28.4142 92.7931 28.1136C92.6094 27.8129 92.5175 27.4288 92.5175 26.9611C92.5175 26.46 92.6512 26.0048 92.9184 25.5956C93.194 25.1781 93.6032 24.8482 94.146 24.606C94.6972 24.3555 95.3862 24.2302 96.213 24.2302C96.7642 24.2302 97.307 24.297 97.8415 24.4306C98.376 24.5559 98.8478 24.748 99.2571 25.0069L98.6307 26.5477C98.2215 26.3138 97.8123 26.1426 97.4031 26.0341C96.9938 25.9172 96.593 25.8587 96.2005 25.8587C95.808 25.8587 95.4864 25.9046 95.2359 25.9965C94.9854 26.0884 94.8058 26.2095 94.6972 26.3598C94.5887 26.5018 94.5344 26.6688 94.5344 26.8609C94.5344 27.0863 94.6262 27.2701 94.81 27.412C94.9937 27.5457 95.2359 27.6542 95.5365 27.7378C95.8372 27.8213 96.1671 27.9048 96.5262 27.9883C96.8936 28.0718 97.2569 28.1678 97.616 28.2764C97.9835 28.385 98.3175 28.5311 98.6182 28.7149C98.9188 28.8986 99.161 29.1408 99.3447 29.4414C99.5368 29.7421 99.6329 30.1221 99.6329 30.5814C99.6329 31.0741 99.4951 31.5251 99.2195 31.9343C98.9439 32.3435 98.5305 32.6734 97.9793 32.9239C97.4365 33.1745 96.7475 33.2997 95.9123 33.2997Z" fill="white"/>
<path d="M92.3706 18.0197C92.0144 18.0197 91.6838 17.9617 91.379 17.8458C91.0785 17.7299 90.8167 17.5668 90.5935 17.3564C90.3745 17.1461 90.2028 16.8992 90.0783 16.6159C89.9581 16.3326 89.898 16.0235 89.898 15.6887C89.898 15.3539 89.9581 15.0448 90.0783 14.7615C90.2028 14.4781 90.3767 14.2313 90.5999 14.021C90.8231 13.8106 91.085 13.6475 91.3855 13.5316C91.686 13.4157 92.0122 13.3577 92.3642 13.3577C92.7205 13.3577 93.0468 13.4157 93.343 13.5316C93.6434 13.6475 93.9032 13.8106 94.1221 14.021C94.3453 14.2313 94.5192 14.4781 94.6436 14.7615C94.7681 15.0405 94.8304 15.3496 94.8304 15.6887C94.8304 16.0235 94.7681 16.3348 94.6436 16.6224C94.5192 16.9057 94.3453 17.1525 94.1221 17.3629C93.9032 17.5689 93.6434 17.7299 93.343 17.8458C93.0468 17.9617 92.7227 18.0197 92.3706 18.0197ZM92.3642 17.1311C92.566 17.1311 92.7506 17.0967 92.918 17.028C93.0897 16.9593 93.2399 16.8606 93.3687 16.7318C93.4975 16.6031 93.5962 16.4507 93.6649 16.2747C93.7379 16.0987 93.7744 15.9033 93.7744 15.6887C93.7744 15.4741 93.7379 15.2787 93.6649 15.1027C93.5962 14.9267 93.4975 14.7743 93.3687 14.6456C93.2442 14.5168 93.0961 14.4181 92.9244 14.3494C92.7527 14.2807 92.566 14.2463 92.3642 14.2463C92.1625 14.2463 91.9757 14.2807 91.804 14.3494C91.6366 14.4181 91.4885 14.5168 91.3597 14.6456C91.2309 14.7743 91.13 14.9267 91.0571 15.1027C90.9884 15.2787 90.954 15.4741 90.954 15.6887C90.954 15.899 90.9884 16.0944 91.0571 16.2747C91.13 16.4507 91.2288 16.6031 91.3533 16.7318C91.4821 16.8606 91.6323 16.9593 91.804 17.028C91.9757 17.0967 92.1625 17.1311 92.3642 17.1311ZM96.5802 15.4633H98.7437V16.3004H96.5802V15.4633ZM96.6575 17.9424H95.6143V13.435H99.0206V14.2721H96.6575V17.9424Z" fill="white"/>
<path d="M0 0.918945V25.26C0 28.8755 2.29152 32.3892 6.8096 35.7009C9.88253 37.9538 12.9291 39.3182 13.0555 39.3744L14.0775 39.8292L15.0995 39.3744C15.2277 39.3182 18.2725 37.9538 21.3472 35.7009C25.8652 32.3875 28.1568 28.8755 28.1568 25.26V0.918945H0ZM27.4158 25.2618C27.4158 28.6279 25.2261 31.9414 20.9099 35.1074C17.9002 37.3147 14.9256 38.6474 14.7992 38.7019L14.0775 39.0232L13.3558 38.7019C13.2311 38.6457 10.2565 37.3147 7.24508 35.1074C2.92718 31.9414 0.739258 28.6297 0.739258 25.2618V1.6582H27.414V25.26L27.4158 25.2618Z" fill="white"/>
<path fill-rule="evenodd" clip-rule="evenodd" d="M2.56348 25.1543V11.2646H25.6877V25.1543C25.6877 31.8339 14.1265 36.9719 14.1265 36.9719C14.1265 36.9719 2.56348 31.8322 2.56348 25.1543ZM7.21484 21.1192L13.4327 14.9014H22.0457V23.5143L15.8278 29.7322H7.21484V21.1192ZM9.79786 27.1492H13.243V23.704H9.79786V27.1492ZM15.8278 28.6294L18.7269 25.7304V18.2219H11.2606L8.36148 21.121H15.8278V28.6294Z" fill="white"/>
<path d="M12.0283 9.62784C11.4313 8.79201 10.4884 8.25293 9.43127 8.25293H2.56372V9.37674H9.43127C9.97386 9.37674 10.4708 9.58746 10.8571 9.93338H12.2215C12.1618 9.82802 12.0986 9.72442 12.0283 9.62784Z" fill="white"/>
<path d="M14.1917 9.37896C14.0407 9.02952 13.8563 8.6994 13.6421 8.39211C13.4243 8.07779 13.1767 7.78806 12.901 7.52818C11.9686 6.63967 10.7395 6.10059 9.39615 6.10059H2.56372V7.2244H9.39791C10.5656 7.2244 11.6245 7.73187 12.3918 8.55366C12.6851 8.86797 12.9362 9.22619 13.1328 9.61952C13.1838 9.72137 13.2294 9.82673 13.2733 9.93384H14.4024C14.3427 9.7442 14.2724 9.55807 14.1934 9.37896H14.1917Z" fill="white"/>
<path d="M25.7809 4.96073V3.83691H19.1609C17.2504 3.83691 15.505 4.6148 14.1915 5.88963C12.8763 4.6148 11.1344 3.83691 9.22394 3.83691H2.5636V4.96073H9.22394C10.8535 4.96073 12.3408 5.61921 13.4646 6.70088C13.728 6.95374 13.9721 7.22942 14.1933 7.52618C14.397 7.79835 14.5796 8.08633 14.7429 8.39011C14.9501 8.77818 15.1222 9.18907 15.2557 9.61928C15.2873 9.72288 15.3171 9.82648 15.3435 9.9336H17.5279C17.9142 9.58592 18.4111 9.37696 18.9537 9.37696H25.7826V8.25315H18.9537C17.8949 8.25315 16.9537 8.79398 16.3549 9.62982C16.2601 9.25931 16.1389 8.89934 15.9949 8.55342C16.7623 7.73338 17.8211 7.22591 18.7184 7.22591H25.7826V6.1021H18.9888C17.6455 6.1021 16.4163 6.64118 15.4822 7.52969C15.3118 7.24171 15.124 6.96603 14.9203 6.70439C16.0441 5.62097 17.5331 4.96248 19.1627 4.96248H25.7826L25.7809 4.96073Z" fill="white"/>
</g>
<defs>
<clipPath id="clip0_1107_73536">
<rect width="100" height="39.6618" fill="white" transform="translate(0 0.168945)"/>
</clipPath>
</defs>
</svg>
