<svg xmlns="http://www.w3.org/2000/svg" width="91" height="25" viewBox="0 0 91 25" fill="none">
  <g clip-path="url(#clip0_2666_16406)">
    <path d="M10.1978 0.952087H0.217773V24.134L10.1978 0.952087Z" fill="white"/>
    <path d="M17.2188 0.951111H27.1858V24.133L17.2188 0.951111Z" fill="white"/>
    <path d="M13.7083 9.4942L20.0604 24.1321H15.8929L13.9944 19.4717H9.3457L13.7083 9.4942Z" fill="white"/>
    <path d="M43.4684 15.6927L44.6452 18.9701C44.6842 19.0522 44.7427 19.0901 44.8467 19.0901H47.1093C47.2328 19.0901 47.2523 19.0333 47.2328 18.9133L42.5582 6.30248C42.5386 6.20144 42.5191 6.1825 42.4151 6.1825H39.6064C39.5284 6.1825 39.4829 6.23933 39.4829 6.32142C39.4439 6.98448 39.3854 7.18656 39.3008 7.38232L35.1333 18.8943C35.1138 19.0333 35.1593 19.0901 35.2763 19.0901H37.2983C37.4219 19.0901 37.4804 19.0522 37.5259 18.9322L38.6377 15.6927H43.4684ZM39.2813 13.552C39.8925 11.7585 40.6987 9.45991 41.0238 8.14642H41.0433C41.4464 9.52306 42.3956 12.2511 42.8247 13.552H39.2813Z" fill="white"/>
    <path d="M53.2417 19.2875C54.4575 19.2875 55.7513 19.0728 57.0647 18.5234C57.1687 18.4855 57.1882 18.4413 57.1882 18.3466C57.1492 17.993 57.1037 17.4815 57.1037 17.0899V5.21798C57.1037 5.1422 57.1037 5.10431 57.0062 5.10431H54.8021C54.7176 5.10431 54.6786 5.1422 54.6786 5.24324V9.26581C54.334 9.22792 54.0934 9.20898 53.8074 9.20898C50.251 9.20898 48.0664 11.4886 48.0664 14.3367C48.0664 17.6393 50.3095 19.2875 53.2417 19.2875ZM54.6786 17.0899C54.3145 17.2036 53.9114 17.2478 53.5018 17.2478C51.8894 17.2478 50.5695 16.3637 50.5695 14.2167C50.5695 12.3159 51.9284 11.1918 53.7293 11.1918C54.0934 11.1918 54.412 11.2297 54.6786 11.3308V17.0899Z" fill="white"/>
    <path d="M64.2199 9.20807C61.1837 9.20807 59.3047 11.4688 59.3047 14.26C59.3047 16.7543 60.8001 19.2866 64.1744 19.2866C67.0286 19.2866 69.0311 17.2469 69.0311 14.1968C69.0311 11.5067 67.3342 9.20807 64.2199 9.20807ZM64.0964 11.1909C65.8128 11.1909 66.541 12.6244 66.541 14.26C66.541 16.2807 65.4682 17.2848 64.2199 17.2848C62.679 17.2848 61.7688 16.0281 61.7688 14.2158C61.7688 12.3529 62.7376 11.1909 64.0964 11.1909Z" fill="white"/>
    <path d="M71.31 5.10431C71.2255 5.10431 71.167 5.1422 71.167 5.24324V18.6813C71.167 18.7381 71.2255 18.8392 71.31 18.8581C72.2788 19.1486 73.293 19.2875 74.3398 19.2875C77.337 19.2875 80.2498 17.4815 80.2498 13.8441C80.2498 11.2108 78.3903 9.20898 75.4776 9.20898C74.8079 9.20898 74.1838 9.31001 73.6376 9.48683L73.6116 5.26218C73.6116 5.12325 73.5726 5.10431 73.4296 5.10431H71.31ZM77.7597 14.0841C77.7597 16.2627 76.2253 17.2857 74.5673 17.2857C74.2228 17.2857 73.9172 17.2668 73.6376 17.1847V11.4508C73.9562 11.3308 74.3398 11.2297 75.0485 11.2297C76.6479 11.2297 77.7597 12.2149 77.7597 14.0841Z" fill="white"/>
    <path d="M88.4745 14.7904C89.4628 14.7904 90.2755 14.7714 90.555 14.7083C90.6591 14.6893 90.6981 14.6514 90.7176 14.5693C90.7761 14.3546 90.8021 13.9063 90.8021 13.3569C90.8021 11.4877 89.6448 9.20801 86.6541 9.20801C83.5983 9.20801 81.9014 11.6266 81.9014 14.3546C81.9014 16.7732 83.2147 19.2865 86.8946 19.2865C88.273 19.2865 89.1637 19.0718 89.9309 18.7182C90.0089 18.6803 90.0479 18.6172 90.0479 18.5035V16.8679C90.0479 16.7732 89.9894 16.7543 89.9309 16.7922C89.1637 17.1079 88.3315 17.2658 87.4213 17.2658C85.3602 17.2658 84.424 16.1607 84.3655 14.7904H88.4745ZM84.3655 13.098C84.528 12.1381 85.1522 11.0962 86.55 11.0962C88.0909 11.0962 88.494 12.3528 88.494 12.9212C88.494 12.9401 88.494 13.0222 88.494 13.079C88.4095 13.098 88.1494 13.098 87.3822 13.098H84.3655Z" fill="white"/>
  </g>
  <defs>
    <clipPath id="clip0_2666_16406">
      <rect width="90.5852" height="23.1986" fill="white" transform="translate(0.216797 0.942261)"/>
    </clipPath>
  </defs>
</svg>