<svg xmlns="http://www.w3.org/2000/svg" width="89" height="27" viewBox="0 0 89 27" fill="none">
  <g clip-path="url(#clip0_2666_16374)">
    <path fill-rule="evenodd" clip-rule="evenodd" d="M55.2834 21.1215C50.1598 24.8936 42.7334 26.9061 36.3395 26.9061C27.3742 26.9061 19.3031 23.594 13.197 18.0855C12.7173 17.6523 13.1471 17.062 13.7228 17.3993C20.3125 21.2288 28.4603 23.5327 36.8768 23.5327C42.5531 23.5327 48.7973 22.3597 54.5388 19.9255C55.4062 19.5575 56.1315 20.4928 55.2834 21.1215Z" fill="white"/>
    <path fill-rule="evenodd" clip-rule="evenodd" d="M57.4159 18.6813C56.7635 17.8456 53.0868 18.2865 51.4365 18.482C50.9337 18.5433 50.857 18.1063 51.3098 17.792C54.2381 15.7335 59.0432 16.3276 59.6035 17.0176C60.1638 17.7115 59.4577 22.5224 56.7059 24.8186C56.2837 25.1712 55.8807 24.9834 56.0688 24.5157C56.6867 22.9747 58.0722 19.5208 57.4159 18.6813Z" fill="white"/>
    <path fill-rule="evenodd" clip-rule="evenodd" d="M51.5505 3.25361V1.25259C51.5505 0.949751 51.7808 0.746582 52.0571 0.746582H61.0262C61.3141 0.746582 61.5443 0.953585 61.5443 1.25259V2.96611C61.5405 3.25361 61.2987 3.62928 60.8689 4.22346L56.2212 10.8514C57.9482 10.8092 59.7712 11.066 61.3371 11.9477C61.6902 12.1471 61.7861 12.4384 61.813 12.7259V14.8611C61.813 15.1524 61.4906 15.4936 61.1529 15.3173C58.3934 13.8721 54.7282 13.7149 51.6771 15.3326C51.3663 15.5013 51.04 15.1639 51.04 14.8726V12.8447C51.04 12.5189 51.0439 11.9631 51.3701 11.4686L56.7547 3.75579H52.0686C51.7807 3.75579 51.5505 3.55262 51.5505 3.25361Z" fill="white"/>
    <path fill-rule="evenodd" clip-rule="evenodd" d="M18.8324 15.7518H16.1036C15.8426 15.7326 15.6354 15.5371 15.6162 15.288V1.29997C15.6162 1.02013 15.8503 0.797796 16.142 0.797796H18.6865C18.9513 0.809288 19.1624 1.01246 19.1816 1.26547V3.09399H19.2315C19.8955 1.3268 21.1428 0.502625 22.8238 0.502625C24.5316 0.502625 25.5986 1.3268 26.3661 3.09399C27.0263 1.3268 28.5269 0.502625 30.135 0.502625C31.2786 0.502625 32.5298 0.97413 33.2935 2.03214C34.1571 3.20899 33.9805 4.91868 33.9805 6.41753L33.9767 15.2458C33.9767 15.5256 33.7426 15.7518 33.4509 15.7518H30.726C30.4535 15.7326 30.2347 15.5141 30.2347 15.2458V7.83205C30.2347 7.24171 30.2885 5.76969 30.158 5.21002C29.9546 4.27084 29.3444 4.00633 28.5537 4.00633C27.8936 4.00633 27.2028 4.44717 26.9226 5.15252C26.6425 5.85786 26.6693 7.03854 26.6693 7.83205V15.2458C26.6693 15.5256 26.4352 15.7518 26.1435 15.7518H23.4186C23.1423 15.7326 22.9274 15.5141 22.9274 15.2458L22.9236 7.83205C22.9236 6.27186 23.1807 3.97567 21.2426 3.97567C19.2814 3.97567 19.3582 6.21436 19.3582 7.83205V15.2458C19.3582 15.5256 19.124 15.7518 18.8324 15.7518Z" fill="white"/>
    <path fill-rule="evenodd" clip-rule="evenodd" d="M69.2666 0.502625C73.3156 0.502625 75.507 3.97567 75.507 8.39173C75.507 12.6583 73.0853 16.0432 69.2666 16.0432C65.2905 16.0432 63.126 12.5701 63.126 8.24222C63.126 3.8875 65.3174 0.502625 69.2666 0.502625ZM69.2896 3.3585C67.2786 3.3585 67.1519 6.09553 67.1519 7.80138C67.1519 9.51107 67.1251 13.1605 69.2666 13.1605C71.3813 13.1605 71.4811 10.2164 71.4811 8.42239C71.4811 7.24171 71.4312 5.83103 71.0742 4.71168C70.7672 3.738 70.157 3.3585 69.2896 3.3585Z" fill="white"/>
    <path fill-rule="evenodd" clip-rule="evenodd" d="M80.7563 15.7518H78.039C77.7665 15.7326 77.5478 15.5141 77.5478 15.2458L77.5439 1.25397C77.567 0.99713 77.7934 0.797796 78.0697 0.797796H80.5989C80.8369 0.809288 81.0326 0.970298 81.0863 1.1888V3.32783H81.1362C81.9 1.41497 82.9707 0.502625 84.8551 0.502625C86.0794 0.502625 87.273 0.943464 88.0406 2.15098C88.7544 3.27033 88.7544 5.15252 88.7544 6.5057V15.311C88.7237 15.5563 88.4973 15.7518 88.2286 15.7518H85.4922C85.2428 15.7326 85.0355 15.5486 85.0086 15.311V7.71321C85.0086 6.1837 85.1852 3.945 83.3008 3.945C82.6368 3.945 82.0266 4.38967 81.7234 5.06435C81.3396 5.91919 81.2897 6.7702 81.2897 7.71321V15.2458C81.2859 15.5256 81.0479 15.7518 80.7563 15.7518Z" fill="white"/>
    <path fill-rule="evenodd" clip-rule="evenodd" d="M44.4007 9.05914C44.4007 10.121 44.4276 11.0065 43.8903 11.9495C43.4566 12.7162 42.7658 13.1877 42.0021 13.1877C40.9543 13.1877 40.3402 12.3903 40.3402 11.2135C40.3402 8.89047 42.4242 8.4688 44.4007 8.4688V9.05914ZM47.1525 15.7024C46.9721 15.8634 46.7111 15.8749 46.5077 15.7676C45.602 15.0162 45.437 14.6674 44.9419 13.9505C43.4451 15.4762 42.382 15.9324 40.4439 15.9324C38.145 15.9324 36.3604 14.5179 36.3604 11.685C36.3604 9.47315 37.5578 7.96663 39.2695 7.23062C40.7509 6.57894 42.8195 6.46394 44.4007 6.28377V5.9311C44.4007 5.28326 44.4506 4.51658 44.0668 3.95691C43.7368 3.45473 43.0997 3.24773 42.5355 3.24773C41.4955 3.24773 40.5705 3.78057 40.3441 4.88458C40.298 5.12992 40.1177 5.37143 39.8682 5.38293L37.2239 5.09925C37.0013 5.04942 36.7518 4.86925 36.8171 4.52808C37.4234 1.32338 40.3249 0.357361 42.9193 0.357361C44.2472 0.357361 45.9819 0.710033 47.0297 1.71438C48.3576 2.95256 48.231 4.60475 48.231 6.40261V10.65C48.231 11.9265 48.7606 12.4862 49.2595 13.1762C49.4322 13.4215 49.4706 13.7167 49.248 13.9007C48.6915 14.3645 47.7013 15.2271 47.1563 15.7101L47.1525 15.7024Z" fill="white"/>
    <path fill-rule="evenodd" clip-rule="evenodd" d="M8.6273 9.05944C8.6273 10.1213 8.65416 11.0068 8.11686 11.9498C7.68317 12.7165 6.99619 13.188 6.22861 13.188C5.18087 13.188 4.57064 12.3907 4.57064 11.2138C4.57064 8.89078 6.65462 8.4691 8.6273 8.4691V9.05944ZM11.3791 15.7027C11.1987 15.8637 10.9377 15.8752 10.7343 15.7679C9.82855 15.0165 9.66736 14.6677 9.16844 13.9508C7.67166 15.4765 6.6124 15.9327 4.67043 15.9327C2.37537 15.9327 0.586914 14.5182 0.586914 11.6853C0.586914 9.47345 1.78817 7.96693 3.49603 7.23092C4.97746 6.57924 7.04608 6.46425 8.6273 6.28408V5.93141C8.6273 5.28356 8.67719 4.51688 8.29724 3.95721C7.96334 3.45504 7.32625 3.24804 6.76592 3.24804C5.72585 3.24804 4.79708 3.78088 4.57064 4.88489C4.52459 5.13023 4.34421 5.37173 4.09858 5.38323L1.45044 5.09956C1.22784 5.04973 0.982216 4.86956 1.04362 4.52839C1.65385 1.32368 4.55145 0.357666 7.14587 0.357666C8.47378 0.357666 10.2085 0.710338 11.2562 1.71468C12.5842 2.95287 12.4575 4.60505 12.4575 6.40291V10.6503C12.4575 11.9268 12.9871 12.4865 13.4861 13.1765C13.6626 13.4218 13.701 13.717 13.4784 13.901C12.9219 14.3648 11.9317 15.2274 11.3867 15.7104L11.3791 15.7027Z" fill="white"/>
  </g>
  <defs>
    <clipPath id="clip0_2666_16374">
      <rect width="88.1679" height="26.5385" fill="white" transform="translate(0.587891 0.361023)"/>
    </clipPath>
  </defs>
</svg>