<svg xmlns="http://www.w3.org/2000/svg" width="89" height="29" viewBox="0 0 89 29" fill="none">
  <g clip-path="url(#clip0_2666_16365)">
    <path d="M11.8815 10.6915V13.6415H18.9306C18.7434 15.2735 18.182 16.5288 17.3087 17.3448C16.3106 18.3491 14.6887 19.4789 11.8815 19.4789C7.57723 19.4789 4.20866 15.9639 4.20866 11.633C4.20866 7.30209 7.51485 3.78714 11.8815 3.78714C14.1896 3.78714 15.9363 4.72864 17.1839 5.92121L19.2425 3.84991C17.4958 2.1552 15.1253 0.837097 11.8815 0.837097C5.95533 0.837097 0.964844 5.67015 0.964844 11.633C0.964844 17.5959 5.95533 22.4289 11.8815 22.4289C15.063 22.4289 17.4958 21.3619 19.3672 19.4161C21.3011 17.4703 21.9249 14.7086 21.9249 12.5117C21.9249 11.8213 21.8625 11.1936 21.8001 10.6915H11.8815Z" fill="white"/>
    <path d="M30.6566 8.2431C26.8514 8.2431 23.6699 11.1931 23.6699 15.2102C23.6699 19.2273 26.789 22.1773 30.6566 22.1773C34.5242 22.1773 37.6433 19.2901 37.6433 15.273C37.6433 11.1931 34.5242 8.2431 30.6566 8.2431ZM30.6566 19.4784C28.5356 19.4784 26.7266 17.7209 26.7266 15.273C26.7266 12.7623 28.5356 11.0676 30.6566 11.0676C32.7776 11.0676 34.5866 12.7623 34.5866 15.273C34.5866 17.7209 32.7776 19.4784 30.6566 19.4784Z" fill="white"/>
    <path d="M64.7821 9.81221H64.6574C63.9712 8.99624 62.6612 8.24304 60.9769 8.24304C57.4835 8.24304 54.4893 11.2559 54.4893 15.2102C54.4893 19.1017 57.4835 22.1773 60.9769 22.1773C62.6612 22.1773 63.9712 21.4241 64.6574 20.6081H64.7821V21.6124C64.7821 24.2486 63.3474 25.6922 61.1016 25.6922C59.2302 25.6922 58.1074 24.3741 57.6083 23.1816L54.9883 24.3114C55.7369 26.1316 57.7955 28.454 61.164 28.454C64.7197 28.454 67.7764 26.3199 67.7764 21.173V8.61964H64.9069V9.81221H64.7821ZM61.2888 19.4783C59.1678 19.4783 57.6083 17.6581 57.6083 15.2729C57.6083 12.825 59.2302 11.0676 61.2888 11.0676C63.3474 11.0676 64.9693 12.8878 64.9693 15.3357C65.0317 17.7208 63.4097 19.4783 61.2888 19.4783Z" fill="white"/>
    <path d="M46.1898 8.2431C42.3846 8.2431 39.2031 11.1931 39.2031 15.2102C39.2031 19.2273 42.3222 22.1773 46.1898 22.1773C50.0574 22.1773 53.1765 19.2901 53.1765 15.273C53.1765 11.1931 50.0574 8.2431 46.1898 8.2431ZM46.1898 19.4784C44.0688 19.4784 42.2598 17.7209 42.2598 15.273C42.2598 12.7623 44.0688 11.0676 46.1898 11.0676C48.3108 11.0676 50.1198 12.7623 50.1198 15.273C50.1198 17.7209 48.3108 19.4784 46.1898 19.4784Z" fill="white"/>
    <path d="M70.084 1.15027H73.0783V22.2399H70.084V1.15027Z" fill="white"/>
    <path d="M82.3111 19.4783C80.7516 19.4783 79.6911 18.7879 78.9426 17.3442L88.2373 13.5155L87.9254 12.6995C87.364 11.1303 85.5549 8.24304 81.9992 8.24304C78.4435 8.24304 75.4492 11.0676 75.4492 15.2102C75.4492 19.1017 78.3811 22.1773 82.3111 22.1773C85.4926 22.1773 87.3016 20.2315 88.1126 19.1017L85.7421 17.5325C84.9311 18.7251 83.8707 19.4783 82.3111 19.4783ZM82.124 10.8793C83.3716 10.8793 84.4321 11.5069 84.744 12.3857L78.5059 15.0219C78.4435 12.1346 80.5645 10.8793 82.124 10.8793Z" fill="white"/>
  </g>
  <defs>
    <clipPath id="clip0_2666_16365">
      <rect width="87.2711" height="27.6174" fill="white" transform="translate(0.964844 0.837708)"/>
    </clipPath>
  </defs>
</svg>