<svg xmlns="http://www.w3.org/2000/svg" width="106" height="25" viewBox="0 0 106 25" fill="none">
  <g clip-path="url(#clip0_2666_16358)">
    <path d="M37.2389 14.3029L36.6068 16.1372H36.5541C36.4488 15.7236 36.2557 15.0942 35.9396 14.3389L32.5509 5.61693H29.2324V19.5181H31.4272V10.94C31.4272 10.4005 31.4272 9.78909 31.4096 9.03378C31.3921 8.65613 31.357 8.3684 31.3394 8.1526H31.3921C31.4974 8.6921 31.6203 9.08773 31.7081 9.3395L35.7816 19.4822H37.3267L41.3651 9.24959C41.4529 9.0158 41.5406 8.54823 41.6284 8.1526H41.6811C41.6284 9.17765 41.5933 10.0948 41.5758 10.6523V19.4642H43.911V5.58096H40.7154L37.2389 14.3029ZM46.1233 9.50135H48.4059V19.4642H46.1233V9.50135ZM47.2821 5.29323C46.8959 5.29323 46.5798 5.4371 46.3165 5.68886C46.0531 5.94063 45.9126 6.26433 45.9126 6.65997C45.9126 7.03762 46.0531 7.36132 46.3165 7.61309C46.5798 7.86486 46.8959 7.99074 47.2821 7.99074C47.6684 7.99074 48.002 7.84688 48.2478 7.61309C48.5112 7.36132 48.6517 7.03762 48.6517 6.65997C48.6517 6.28232 48.5112 5.95862 48.2478 5.68886C48.0196 5.4371 47.686 5.29323 47.2821 5.29323ZM56.5002 9.41144C56.0788 9.32152 55.6398 9.26757 55.2184 9.26757C54.1825 9.26757 53.2343 9.50135 52.4442 9.96892C51.6541 10.4365 51.022 11.0839 50.6182 11.8932C50.1968 12.7204 49.9861 13.6735 49.9861 14.7705C49.9861 15.7236 50.1968 16.5688 50.6006 17.3421C51.0045 18.0974 51.5663 18.7089 52.3213 19.1225C53.0412 19.5361 53.884 19.7519 54.8321 19.7519C55.9207 19.7519 56.8513 19.5181 57.5888 19.0865L57.6063 19.0685V16.9105L57.5185 16.9825C57.1849 17.2342 56.7986 17.45 56.4124 17.5759C56.0085 17.7198 55.6398 17.7917 55.3238 17.7917C54.4107 17.7917 53.6909 17.522 53.1817 16.9285C52.6549 16.353 52.3916 15.5618 52.3916 14.5727C52.3916 13.5476 52.6549 12.7384 53.1992 12.1449C53.7435 11.5515 54.4634 11.2457 55.3413 11.2457C56.0788 11.2457 56.8338 11.4975 57.5185 12.0011L57.6063 12.073V9.78909L57.5888 9.7711C57.2903 9.64522 56.9567 9.50135 56.5002 9.41144ZM64.0326 9.3395C63.4707 9.3395 62.944 9.51934 62.4875 9.89699C62.1012 10.2207 61.8378 10.6883 61.6096 11.2457H61.592V9.50135H59.3094V19.4642H61.592V14.3749C61.592 13.5117 61.7676 12.7923 62.1539 12.2708C62.5401 11.7313 63.0318 11.4615 63.6287 11.4615C63.8394 11.4615 64.0501 11.5155 64.3135 11.5515C64.5593 11.6234 64.7349 11.6953 64.8578 11.7852L64.9456 11.8572V9.51934L64.8929 9.50135C64.7349 9.39345 64.4189 9.3395 64.0326 9.3395ZM70.2481 9.28555C68.6504 9.28555 67.3686 9.77111 66.4732 10.7242C65.5601 11.6774 65.1212 12.9901 65.1212 14.6446C65.1212 16.1912 65.5777 17.45 66.4556 18.3672C67.3335 19.2664 68.5275 19.7339 70.0199 19.7339C71.5826 19.7339 72.8292 19.2484 73.7246 18.2773C74.6377 17.3062 75.0766 16.0114 75.0766 14.4108C75.0766 12.8283 74.6552 11.5694 73.7949 10.6523C72.9697 9.73514 71.7581 9.28555 70.2481 9.28555ZM72.0742 16.9465C71.6528 17.504 70.9856 17.7737 70.1604 17.7737C69.3351 17.7737 68.6679 17.504 68.1938 16.9105C67.7198 16.353 67.4915 15.5438 67.4915 14.5187C67.4915 13.4577 67.7373 12.6485 68.1938 12.073C68.6679 11.4975 69.3176 11.2098 70.1428 11.2098C70.9505 11.2098 71.5826 11.4795 72.0391 12.037C72.4956 12.5945 72.7414 13.4038 72.7414 14.4648C72.7063 15.5438 72.5131 16.389 72.0742 16.9465ZM80.1685 13.6375C79.4486 13.3318 78.9921 13.098 78.7814 12.9002C78.6058 12.7204 78.518 12.4686 78.518 12.1449C78.518 11.8752 78.6234 11.6054 78.8867 11.4256C79.1501 11.2457 79.4486 11.1558 79.8875 11.1558C80.2738 11.1558 80.6777 11.2278 81.0639 11.3357C81.4502 11.4436 81.8014 11.6054 82.0823 11.8212L82.1701 11.8932V9.69917L82.1174 9.68119C81.854 9.57329 81.5029 9.46539 81.0815 9.37547C80.6601 9.30354 80.2738 9.26757 79.9578 9.26757C78.8692 9.26757 77.9737 9.53732 77.2714 10.1308C76.5691 10.6883 76.2355 11.4436 76.2355 12.3248C76.2355 12.7923 76.3057 13.2059 76.4637 13.5476C76.6217 13.8893 76.85 14.213 77.166 14.4828C77.4821 14.7345 77.9386 15.0223 78.5707 15.292C79.0974 15.5258 79.5013 15.7056 79.7471 15.8495C79.9929 15.9934 80.1509 16.1552 80.2738 16.2811C80.3616 16.425 80.4143 16.6048 80.4143 16.8386C80.4143 17.504 79.9227 17.8277 78.9218 17.8277C78.5356 17.8277 78.1317 17.7558 77.6577 17.5939C77.1836 17.432 76.7446 17.1983 76.3759 16.9285L76.2881 16.8566V19.1405L76.3408 19.1585C76.6744 19.3203 77.0782 19.4282 77.5699 19.5541C78.0615 19.644 78.5005 19.7159 78.8867 19.7159C80.0631 19.7159 81.0288 19.4462 81.7136 18.8527C82.4159 18.2773 82.7846 17.54 82.7846 16.5868C82.7846 15.9214 82.609 15.328 82.2228 14.8784C81.7136 14.4468 81.0815 13.9972 80.1685 13.6375ZM88.8071 9.28555C87.2093 9.28555 85.9275 9.77111 85.0321 10.7242C84.1366 11.6774 83.6801 12.9901 83.6801 14.6446C83.6801 16.1912 84.1366 17.45 85.0145 18.3672C85.8924 19.2664 87.0864 19.7339 88.5788 19.7339C90.1415 19.7339 91.3881 19.2484 92.2836 18.2773C93.1966 17.3062 93.6355 16.0114 93.6355 14.4108C93.6355 12.8283 93.2141 11.5694 92.3538 10.6523C91.5286 9.73514 90.3171 9.28555 88.8071 9.28555ZM90.6155 16.9465C90.1941 17.504 89.5269 17.7737 88.7017 17.7737C87.8589 17.7737 87.2093 17.504 86.7352 16.9105C86.2611 16.353 86.0329 15.5438 86.0329 14.5187C86.0329 13.4577 86.2787 12.6485 86.7352 12.073C87.2093 11.4975 87.8589 11.2098 88.6842 11.2098C89.4743 11.2098 90.1239 11.4795 90.5804 12.037C91.0369 12.5945 91.2827 13.4038 91.2827 14.4648C91.2827 15.5438 91.0545 16.389 90.6155 16.9465ZM105.838 11.4256V9.50135H103.538V6.55207L103.468 6.57005L101.291 7.23544L101.238 7.25342V9.50135H97.7968V8.24251C97.7968 7.66704 97.9373 7.21746 98.1831 6.92972C98.4289 6.64199 98.7976 6.49812 99.2541 6.49812C99.5702 6.49812 99.9038 6.57005 100.272 6.7319L100.36 6.78585V4.75373L100.308 4.73574C99.9916 4.62784 99.5702 4.55591 99.0259 4.55591C98.3411 4.55591 97.7441 4.71776 97.1998 4.98751C96.6555 5.29323 96.2517 5.70685 95.9532 6.26433C95.6547 6.80384 95.4967 7.41528 95.4967 8.11663V9.50135H93.8989V11.4076H95.4967V19.4642H97.7968V11.4256H101.238V16.5509C101.238 18.6549 102.204 19.7159 104.135 19.7159C104.451 19.7159 104.785 19.662 105.101 19.608C105.435 19.5361 105.68 19.4462 105.821 19.3743L105.838 19.3563V17.432L105.751 17.504C105.61 17.5939 105.487 17.6658 105.277 17.7198C105.101 17.7737 104.943 17.7917 104.82 17.7917C104.364 17.7917 104.047 17.6838 103.819 17.4141C103.609 17.1623 103.503 16.7487 103.503 16.1372V11.4256H105.838Z" fill="white"/>
    <path d="M-0.194336 0.941833H10.5688V11.9657H-0.194336V0.941833Z" fill="white"/>
    <path d="M11.6934 0.941711H22.4565V11.9656H11.6934V0.941711Z" fill="white"/>
    <path d="M-0.194336 13.1168H10.5688V24.1406H-0.194336V13.1168Z" fill="white"/>
    <path d="M11.6934 13.1168H22.4565V24.1406H11.6934V13.1168Z" fill="white"/>
  </g>
  <defs>
    <clipPath id="clip0_2666_16358">
      <rect width="106.051" height="23.1986" fill="white" transform="translate(-0.194336 0.942139)"/>
    </clipPath>
  </defs>
</svg>