<svg width="60" height="61" viewBox="0 0 60 61" fill="none" xmlns="http://www.w3.org/2000/svg">
<rect y="0.362305" width="60" height="60" rx="8" fill="url(#paint0_linear_2807_2190)"/>
<g clip-path="url(#clip0_2807_2190)">
<path d="M47.8399 27.6157L44.2511 20.4354C44.1189 20.1711 43.9359 19.9354 43.7126 19.7419C43.4894 19.5483 43.2301 19.4006 42.9498 19.3072C42.6694 19.2139 42.3734 19.1767 42.0786 19.1977C41.7839 19.2187 41.4961 19.2976 41.2319 19.4299L37.7345 21.1779L30.3672 19.2288C30.1782 19.1796 29.9797 19.1796 29.7906 19.2288L22.4233 21.1779L18.9259 19.4299C18.6617 19.2976 18.374 19.2187 18.0792 19.1977C17.7845 19.1767 17.4884 19.2139 17.2081 19.3072C16.9277 19.4006 16.6685 19.5483 16.4452 19.7419C16.2219 19.9354 16.0389 20.1711 15.9067 20.4354L12.318 27.6143C12.1857 27.8785 12.1068 28.1662 12.0858 28.461C12.0647 28.7558 12.102 29.0518 12.1953 29.3321C12.2887 29.6125 12.4364 29.8717 12.63 30.095C12.8235 30.3183 13.0592 30.5013 13.3234 30.6335L17.1203 32.5333L24.9236 38.1063C25.0386 38.1881 25.1678 38.2477 25.3047 38.2821L34.3047 40.5321C34.4932 40.5793 34.6907 40.577 34.878 40.5252C35.0653 40.4735 35.236 40.3741 35.3734 40.2368L43.1177 32.4911L46.833 30.6335C47.3664 30.3665 47.7719 29.8986 47.9604 29.3327C48.149 28.7668 48.1051 28.1492 47.8384 27.6157H47.8399ZM40.1209 32.3083L35.282 28.4327C35.0653 28.2591 34.7919 28.1718 34.5147 28.1876C34.2374 28.2035 33.9758 28.3213 33.7802 28.5185C31.2756 31.0413 28.4842 30.7221 26.7039 29.5971L32.7845 23.6908H37.2578L41.0842 31.3422L40.1209 32.3083ZM17.9191 21.4408L20.7977 22.878L17.2019 30.0569L14.3289 28.6211L17.9191 21.4408ZM34.2316 38.1935L26.0599 36.1516L19.1411 31.21L23.0786 23.335L30.0789 21.4802L31.457 21.8444L25.1289 27.9869L25.1177 27.9996C24.8795 28.2378 24.6978 28.5264 24.586 28.8442C24.4743 29.1621 24.4353 29.5009 24.4721 29.8358C24.5088 30.1706 24.6202 30.493 24.7982 30.779C24.9761 31.0651 25.216 31.3075 25.5002 31.4885C28.3914 33.3349 31.8803 33.0354 34.6281 30.7854L38.5164 33.9086L34.2316 38.1935ZM42.9503 30.0555L39.3616 22.8836L42.2388 21.4408L45.8289 28.6211L42.9503 30.0555ZM30.6105 43.0872C30.5497 43.3304 30.4095 43.5463 30.212 43.7006C30.0146 43.855 29.7713 43.9391 29.5206 43.9394C29.4282 43.9393 29.3361 43.928 29.2464 43.9057L23.3866 42.4404C23.2495 42.4065 23.1202 42.3469 23.0055 42.2646L19.3 39.618C19.0722 39.4391 18.9221 39.1792 18.8811 38.8925C18.8401 38.6057 18.9112 38.3142 19.0798 38.0786C19.2483 37.843 19.5012 37.6815 19.7859 37.6277C20.0705 37.5739 20.3649 37.632 20.6078 37.7899L24.1389 40.3127L29.7977 41.7246C30.0871 41.797 30.3359 41.9813 30.4893 42.2371C30.6428 42.4929 30.6884 42.7992 30.6161 43.0886L30.6105 43.0872Z" fill="white"/>
</g>
<defs>
<linearGradient id="paint0_linear_2807_2190" x1="30" y1="0.362305" x2="30" y2="60.3623" gradientUnits="userSpaceOnUse">
<stop stop-color="white"/>
<stop offset="1" stop-color="#0041CA"/>
</linearGradient>
<clipPath id="clip0_2807_2190">
<rect width="36" height="36" fill="white" transform="translate(12.0791 12.4409)"/>
</clipPath>
</defs>
</svg>
