<svg width="60" height="61" viewBox="0 0 60 61" fill="none" xmlns="http://www.w3.org/2000/svg">
<rect y="0.362305" width="60" height="60" rx="8" fill="url(#paint0_linear_2807_2182)"/>
<path d="M28.4882 34.5659C29.996 33.5621 31.1407 32.0997 31.7531 30.395C32.3654 28.6903 32.413 26.8338 31.8886 25.1C31.3643 23.3662 30.2959 21.8472 28.8415 20.7675C27.387 19.6879 25.6237 19.105 23.8124 19.105C22.001 19.105 20.2378 19.6879 18.7833 20.7675C17.3289 21.8472 16.2605 23.3662 15.7361 25.1C15.2118 26.8338 15.2593 28.6903 15.8717 30.395C16.4841 32.0997 17.6288 33.5621 19.1366 34.5659C16.4092 35.5711 14.0799 37.4313 12.4963 39.8689C12.4131 39.9926 12.3553 40.1316 12.3262 40.2778C12.2972 40.4241 12.2975 40.5746 12.3272 40.7207C12.3568 40.8668 12.4153 41.0056 12.499 41.1289C12.5828 41.2523 12.6902 41.3577 12.8151 41.4392C12.94 41.5206 13.0798 41.5764 13.2264 41.6034C13.3731 41.6303 13.5236 41.6278 13.6693 41.5961C13.8149 41.5643 13.9528 41.5039 14.075 41.4184C14.1971 41.3329 14.301 41.224 14.3807 41.0979C15.4022 39.5269 16.7999 38.2358 18.447 37.3421C20.0941 36.4484 21.9384 35.9802 23.8124 35.9802C25.6863 35.9802 27.5306 36.4484 29.1777 37.3421C30.8249 38.2358 32.2226 39.5269 33.2441 41.0979C33.4091 41.3432 33.664 41.5136 33.9537 41.5724C34.2433 41.6312 34.5445 41.5737 34.7921 41.4122C35.0397 41.2507 35.2137 40.9983 35.2767 40.7095C35.3396 40.4207 35.2864 40.1187 35.1285 39.8689C33.5449 37.4313 31.2156 35.5711 28.4882 34.5659ZM17.6249 27.5459C17.6249 26.3221 17.9878 25.1258 18.6677 24.1083C19.3476 23.0908 20.3139 22.2977 21.4445 21.8294C22.5752 21.3611 23.8193 21.2385 25.0195 21.4773C26.2198 21.716 27.3223 22.3053 28.1876 23.1707C29.0529 24.036 29.6422 25.1385 29.881 26.3388C30.1197 27.539 29.9972 28.7831 29.5289 29.9138C29.0606 31.0444 28.2675 32.0107 27.25 32.6906C26.2324 33.3705 25.0362 33.7334 23.8124 33.7334C22.1719 33.7315 20.5992 33.0791 19.4392 31.9191C18.2792 30.7591 17.6267 29.1864 17.6249 27.5459ZM47.1758 41.4256C46.9259 41.5885 46.6215 41.6456 46.3296 41.5841C46.0377 41.5227 45.7821 41.3478 45.6191 41.0979C44.5988 39.5259 43.2013 38.2343 41.5538 37.341C39.9064 36.4476 38.0615 35.9809 36.1874 35.9834C35.889 35.9834 35.6029 35.8649 35.3919 35.6539C35.1809 35.4429 35.0624 35.1568 35.0624 34.8584C35.0624 34.56 35.1809 34.2739 35.3919 34.0629C35.6029 33.8519 35.889 33.7334 36.1874 33.7334C37.0986 33.7325 37.9984 33.5304 38.8224 33.1415C39.6465 32.7526 40.3744 32.1865 40.9543 31.4836C41.5342 30.7808 41.9517 29.9585 42.177 29.0756C42.4023 28.1927 42.4297 27.2709 42.2575 26.3761C42.0852 25.4813 41.7174 24.6357 41.1804 23.8995C40.6434 23.1633 39.9505 22.5549 39.1511 22.1175C38.3517 21.6802 37.4655 21.4249 36.556 21.3697C35.6465 21.3146 34.736 21.461 33.8896 21.7986C33.7516 21.8582 33.603 21.8896 33.4527 21.8909C33.3023 21.8921 33.1533 21.8633 33.0143 21.806C32.8753 21.7486 32.7492 21.664 32.6435 21.5572C32.5377 21.4503 32.4545 21.3233 32.3986 21.1837C32.3428 21.0441 32.3155 20.8948 32.3184 20.7445C32.3212 20.5941 32.3542 20.4459 32.4153 20.3086C32.4764 20.1712 32.5645 20.0475 32.6742 19.9447C32.784 19.842 32.9132 19.7623 33.0543 19.7103C34.9913 18.9378 37.1458 18.91 39.1022 19.6322C41.0585 20.3545 42.6781 21.7757 43.6484 23.6216C44.6187 25.4676 44.871 27.6074 44.3567 29.6284C43.8424 31.6494 42.5978 33.4084 40.8632 34.5659C43.5906 35.5711 45.9199 37.4313 47.5035 39.8689C47.6664 40.1188 47.7235 40.4232 47.662 40.7151C47.6006 41.007 47.4257 41.2626 47.1758 41.4256Z" fill="white"/>
<defs>
<linearGradient id="paint0_linear_2807_2182" x1="30" y1="0.362305" x2="30" y2="60.3623" gradientUnits="userSpaceOnUse">
<stop stop-color="white"/>
<stop offset="1" stop-color="#0041CA"/>
</linearGradient>
</defs>
</svg>
